<?xml version="1.0" encoding="UTF-8"?>
<svg id="_Layer_" data-name="&amp;lt;Layer&amp;gt;" xmlns="http://www.w3.org/2000/svg" viewBox="0 0 2493.13 1557.77">
  <defs>
    <style>
      .cls-1 {
        fill: #5c305d;
      }

      .cls-1, .cls-2, .cls-3, .cls-4, .cls-5, .cls-6, .cls-7, .cls-8, .cls-9, .cls-10, .cls-11, .cls-12, .cls-13, .cls-14, .cls-15, .cls-16, .cls-17, .cls-18, .cls-19, .cls-20, .cls-21, .cls-22, .cls-23, .cls-24, .cls-25 {
        stroke-width: 0px;
      }

      .cls-2 {
        fill: #ec865c;
      }

      .cls-3 {
        fill: #366f90;
      }

      .cls-4 {
        fill: #331832;
      }

      .cls-5 {
        fill: #020202;
      }

      .cls-6 {
        fill: #c2c68e;
      }

      .cls-7 {
        fill: #b8d5dc;
      }

      .cls-8 {
        fill: #e1986c;
      }

      .cls-9 {
        fill: #e9633e;
      }

      .cls-10 {
        fill: #6da49a;
      }

      .cls-11 {
        fill: #73b3ce;
      }

      .cls-26 {
        opacity: .3;
      }

      .cls-27 {
        opacity: .4;
      }

      .cls-12 {
        fill: #daebe8;
      }

      .cls-28 {
        opacity: .6;
      }

      .cls-29 {
        opacity: .5;
      }

      .cls-13 {
        fill: #68a1bf;
      }

      .cls-14 {
        fill: #e9845c;
      }

      .cls-15 {
        fill: #a9caec;
      }

      .cls-16 {
        fill: #080435;
      }

      .cls-17 {
        fill: #ccd39c;
      }

      .cls-18 {
        fill: #acc9c5;
      }

      .cls-19 {
        fill: #764678;
      }

      .cls-20 {
        fill: #92a5e6;
      }

      .cls-21 {
        fill: #fff;
      }

      .cls-22 {
        fill: #8fb3e3;
      }

      .cls-23 {
        fill: #92bcb5;
      }

      .cls-24 {
        fill: #ef8062;
      }

      .cls-25 {
        fill: #ffb27d;
      }
    </style>
  </defs>
  <path class="cls-12" d="M2168.1,1543.68c-207.54,24.71-421.37,14.42-858.26-11.44-245.33-14.52-738.59,9.54-984.81,11.44C145.53,1545.07,0,1417.59,0,1262.06V292.09C0,136.56,145.83,1.32,325.03,10.47c166.41,8.5,411.19,42.13,666.35,21.54C1294.86,7.51,1870.87-13.3,2168.1,10.47c178.75,14.3,325.03,126.09,325.03,281.62v969.96c0,155.53-147.19,260.44-325.03,281.62Z"/>
  <ellipse class="cls-7" cx="1234.81" cy="1293.09" rx="1077.52" ry="120.33"/>
  <g class="cls-28">
    <path class="cls-18" d="M1758.5,1033.01s114.54-482.18,244.21-446.19c129.67,36-148.34,306.1-177.24,447.52l-66.97-1.33Z"/>
  </g>
  <g>
    <path class="cls-17" d="M1767.77,940.02s291.14-362.87,407.98-275.53c116.84,87.33-260.64,197.39-341.32,305.87l-66.65-30.33Z"/>
    <path class="cls-6" d="M1804.91,957.31c54.36-75.93,139.06-139.09,200.55-178.71,66.66-42.95,121.12-68.23,121.66-68.48l-1.56-3.39c-.54.25-55.24,25.64-122.12,68.73-61.76,39.8-146.86,103.27-201.56,179.68l3.03,2.17Z"/>
  </g>
  <g>
    <path class="cls-18" d="M2231.66,1143.29c-68.11,11.05-62.26,113.58-138.02,90.65-75.76-22.98-90.37-22.16-107.8,3.85,0,0-16.06,31.47-46.87,35.23-121.54,14.82-276.88-171.92-146.09-263.48,9.44-6.61,22.79-8.65,37.54-10.17,79.97-8.22,102.77,29.48,170.15-60.71,67.4-90.22,145.19,48.27,198.62,46.34,53.44-1.93,101.15-15.42,139.64,43.11,38.5,58.58-39.06,104.2-107.17,115.2Z"/>
    <g class="cls-29">
      <path class="cls-13" d="M1824.46,1141.12l-2.33-3.89c1.71-1.03,175.72-102.8,525.42-92.63l-.13,4.54c-348.38-10.13-521.24,90.96-522.95,91.99Z"/>
      <path class="cls-13" d="M2048.84,1017.65c-43.89-43.88-50.27-77.22-50.52-78.62l4.47-.8c.06.33,6.49,33.45,49.27,76.21l-3.21,3.21Z"/>
      <path class="cls-13" d="M2054.26,1066.96c-11.74-23.49-8.79-56.3,8.53-94.88,12.97-28.89,29.63-51.21,29.79-51.43l3.63,2.72c-.65.87-64.9,87.54-37.89,141.55l-4.06,2.03Z"/>
      <path class="cls-13" d="M2146.59,1063.91c-5.24-4.88-8.05-8.01-8.18-8.16l3.41-3c.59.67,59.77,66.68,152.13,68.75l-.1,4.53c-74.42-1.66-127.72-43.96-147.25-62.12Z"/>
      <path class="cls-13" d="M2186.38,1171.09c-19.81-24.58-24.58-48.36-25.1-63.97-.56-17,3.57-28.06,3.74-28.53l4.24,1.61c-.16.43-15.62,43.03,20.65,88.04l-3.54,2.85Z"/>
    </g>
  </g>
  <g class="cls-28">
    <path class="cls-18" d="M2154.67,870.81c18.6.45,23.99,6.5,23.82,13.79-.18,7.29-5.86,13.07-24.46,12.61-33.89-.83-49.95-14.43-49.95-14.43,0,0,16.21-12.82,50.59-11.98Z"/>
  </g>
  <g class="cls-28">
    <path class="cls-18" d="M2123.38,824.67c12.49-12.27,20.1-11.95,24.91-7.06,4.81,4.89,4.99,12.51-7.49,24.78-22.75,22.35-42.44,24.29-42.44,24.29,0,0,1.96-19.34,25.03-42.01Z"/>
  </g>
  <g class="cls-28">
    <path class="cls-21" d="M1815.26,305.19s-22.16-42.61-78.22-37.27c-56.06,5.34-49.39,48.05-76.09,44.05-26.7-4-64.07,0-72.08,26.7-8.01,26.7-44.05,12.01-45.39,34.71-1.33,22.69,41.38,38.71,90.77,18.69,49.39-20.02,73.42,15.56,142.83,9.11,69.41-6.44,78.01-14.45,119.1-10.45,41.09,4,40.11-24.13,21.42-42.82-18.69-18.69-94.33-16.91-102.34-42.72Z"/>
  </g>
  <g class="cls-27">
    <path class="cls-21" d="M1516.4,221.91s-14.09-27.09-49.73-23.7c-35.64,3.39-31.4,30.55-48.37,28.01-16.97-2.55-40.74,0-45.83,16.97-5.09,16.97-28.01,7.64-28.85,22.06-.85,14.43,26.31,24.61,57.71,11.88,31.4-12.73,46.68,9.89,90.81,5.79,44.13-4.1,49.6-9.19,75.72-6.64,26.12,2.55,25.5-15.34,13.62-27.22-11.88-11.88-59.97-10.75-65.07-27.16Z"/>
  </g>
  <g class="cls-28">
    <path class="cls-21" d="M952.9,303.12s-27.76-48.07-78.53-40.18c-50.78,7.9-1.13,29.57-67.7,40.18-66.58,10.6-81.25,33.17-50.78,51.23,30.47,18.05,80.12-32.72,134.28-7.9,54.16,24.83,126.6,3.62,62.74-43.33Z"/>
  </g>
  <g>
    <path class="cls-18" d="M702.02,483.71c-12.5,11.31-19.81,10.7-24.24,5.8-4.43-4.9-4.31-12.23,8.19-23.54,22.77-20.6,41.8-21.68,41.8-21.68,0,0-2.65,18.53-25.75,39.42Z"/>
    <g>
      <path class="cls-18" d="M774.62,870.51l-3.17.37c-.06-.49-6.15-49.62-37.06-117.03-28.53-62.2-84.62-153.12-189.89-233.08l1.93-2.54c105.84,80.4,162.24,171.86,190.92,234.42,31.09,67.84,37.22,117.36,37.28,117.85Z"/>
      <path class="cls-18" d="M655.7,624.08l-2.98-1.14c41.37-108.22-19.55-216.56-20.17-217.64l2.77-1.59c.63,1.09,62.3,110.71,20.38,220.37Z"/>
      <path class="cls-18" d="M598.15,583.15c-31.73,6.58-59-4.33-59.31-4.46l1.21-2.95c.35.14,35.29,14.08,71.53.17l1.14,2.98c-4.9,1.88-9.79,3.27-14.56,4.26Z"/>
      <path class="cls-18" d="M538.8,503.78c19.62,11.48,22.75,19.52,19.41,25.22-3.34,5.7-11.88,6.91-31.5-4.57-35.74-20.91-46.97-41.35-46.97-41.35,0,0,22.79-.52,59.05,20.7Z"/>
      <path class="cls-18" d="M545.12,566.86c22.17,5.03,27.58,11.75,26.11,18.19-1.46,6.44-9.24,10.17-31.41,5.14-40.38-9.17-57.25-25.26-57.25-25.26,0,0,21.58-7.37,62.54,1.93Z"/>
      <path class="cls-18" d="M619.78,526.77c7.1,15.29,4.35,22.09-1.64,24.87-5.99,2.78-12.96.49-20.06-14.8-12.93-27.85-8.32-46.35-8.32-46.35,0,0,16.91,8.02,30.03,36.28Z"/>
      <path class="cls-18" d="M639.28,389.69c9.68,20.57,7.71,28.97,1.73,31.78-5.98,2.81-13.7-1.03-23.38-21.6-17.62-37.47-15.32-60.67-15.32-60.67,0,0,19.09,12.47,36.97,50.49Z"/>
    </g>
  </g>
  <path class="cls-18" d="M859.29,1139.27s-119.76-513.57-257.9-475.84c-138.14,37.73,156.5,326.36,186.63,476.97l71.27-1.13Z"/>
  <g>
    <path class="cls-23" d="M776.98,1045.85s-228.12-398.3-355.38-331.1c-127.26,67.2,223.77,232.35,285.77,350.44l69.61-19.34Z"/>
    <path class="cls-13" d="M738.14,1057.01c-41.34-82.34-114.21-156.89-168.06-204.93-58.38-52.08-107.58-85.07-108.07-85.4l2.04-3.06c.49.33,49.91,33.46,108.48,85.71,54.09,48.26,127.3,123.17,168.9,206.02l-3.29,1.65Z"/>
  </g>
  <g>
    <path class="cls-17" d="M286.12,1044.17c67.1,28.35,35.49,132.06,118.92,127.46,70.67-3.93,77.44-9.09,97.18,14.86,6.44,7.82,11.91,16.5,15.8,25.86,4.82,11.61,15.46,30.3,35.9,38,120.96,45.57,326.95-107.15,215.67-233.75-8.04-9.14-21.22-14.57-35.96-19.81-79.97-28.41-112.78,4.56-159.35-104.79-46.59-109.38-160.97,13.23-215.3-2.1-54.33-15.33-99.89-41.09-154,9.33-54.12,50.47,14.03,116.64,81.14,144.94Z"/>
    <g>
      <path class="cls-6" d="M704.33,1143.68l3.36-3.41c-1.5-1.48-154.55-149.34-515.77-226.29l-1,4.69c359.86,76.66,511.91,223.53,513.4,225.01Z"/>
      <path class="cls-6" d="M505.02,960.97c55.98-34.04,70.86-66.64,71.46-68.01l-4.38-1.94c-.14.32-15.02,32.69-69.57,65.86l2.49,4.09Z"/>
      <path class="cls-6" d="M487.15,1010.2c17.91-21.16,23.09-55.55,14.95-99.45-6.09-32.87-17.59-59.92-17.71-60.19l-4.4,1.89c.45,1.05,44.69,106,3.5,154.66l3.66,3.09Z"/>
      <path class="cls-6" d="M393.21,984c6.59-3.69,10.26-6.21,10.42-6.33l-2.74-3.93c-.77.54-77.97,53.46-173.21,32.5l-1.03,4.68c76.74,16.89,141.99-13.17,166.56-26.93Z"/>
      <path class="cls-6" d="M325.62,1083.99c26.46-20.26,37.3-43.46,41.73-59.35,4.82-17.29,3.35-29.67,3.29-30.19l-4.76.59c.06.48,5.27,48.04-43.18,85.15l2.92,3.8Z"/>
    </g>
  </g>
  <path class="cls-1" d="M1843.06,1259.08l-1096.11-12.58c-23.47-.27-42.35-19.37-42.35-42.83v-669.01c0-23.4,18.78-42.47,42.18-42.83l1081.97-16.57c23.57-.36,43.01,18.39,43.48,41.96l14.14,698.15c.49,24.19-19.13,43.98-43.32,43.7Z"/>
  <rect class="cls-15" x="748.12" y="542.65" width="1081.83" height="583.75" rx="22.97" ry="22.97"/>
  <polygon class="cls-19" points="730.75 1162.14 420.12 1259.11 2160.01 1261.63 1885.3 1162.14 730.75 1162.14"/>
  <path class="cls-4" d="M404.85,1273.42v17.67c0,7.91,6.83,14.32,15.25,14.32h1725.06c16,0,29.18-11.79,29.96-26.79l.1-1.97c.42-8.16-6.5-15-15.2-15.01l-1739.89-2.53c-8.43-.01-15.27,6.4-15.27,14.32Z"/>
  <circle class="cls-4" cx="1268.57" cy="513.78" r="12.57" transform="translate(477.08 1630.38) rotate(-76.72)"/>
  <path class="cls-3" d="M833.21,594.02h641.07c17.14,0,31.05,13.91,31.05,31.05v419.32c0,17.14-13.91,31.05-31.05,31.05h-641.07c-17.14,0-31.05-13.91-31.05-31.05v-419.32c0-17.14,13.91-31.05,31.05-31.05Z"/>
  <rect class="cls-3" x="1541.71" y="594.02" width="237.96" height="481.41" rx="18.06" ry="18.06"/>
  <rect class="cls-24" x="835.65" y="627.1" width="237.39" height="12.97"/>
  <rect class="cls-22" x="835.65" y="731.02" width="257.45" height="12.97"/>
  <rect class="cls-24" x="835.65" y="846.14" width="175.3" height="12.97"/>
  <rect class="cls-22" x="1027.17" y="846.14" width="175.3" height="12.97"/>
  <rect class="cls-1" x="871.02" y="970.78" width="257.45" height="12.97"/>
  <rect class="cls-23" x="955.12" y="1002.34" width="257.45" height="12.97"/>
  <rect class="cls-23" x="941.88" y="877.54" width="170.59" height="12.97"/>
  <rect class="cls-23" x="1130.83" y="877.54" width="113.34" height="12.97"/>
  <rect class="cls-23" x="1019.91" y="904.75" width="146.39" height="12.97"/>
  <rect class="cls-23" x="946.88" y="766.86" width="124.58" height="12.97"/>
  <rect class="cls-22" x="994.73" y="794.13" width="209.31" height="12.97"/>
  <rect class="cls-23" x="1091.03" y="766.86" width="99.12" height="12.97"/>
  <g>
    <rect class="cls-1" x="1577.54" y="627.1" width="91.81" height="6.48"/>
    <rect class="cls-23" x="1577.54" y="666" width="59.25" height="6.48"/>
    <rect class="cls-23" x="1646.87" y="666" width="69.16" height="6.48"/>
    <rect class="cls-23" x="1688.23" y="627.1" width="55.6" height="6.48"/>
    <rect class="cls-23" x="1577.54" y="646.55" width="132.29" height="6.48"/>
  </g>
  <g>
    <rect class="cls-24" x="1577.54" y="714.81" width="91.81" height="6.48"/>
    <rect class="cls-23" x="1577.54" y="753.72" width="59.25" height="6.48"/>
    <rect class="cls-23" x="1646.87" y="753.72" width="69.16" height="6.48"/>
    <rect class="cls-23" x="1688.23" y="714.81" width="55.6" height="6.48"/>
    <rect class="cls-23" x="1577.54" y="734.26" width="132.29" height="6.48"/>
  </g>
  <g>
    <rect class="cls-22" x="1577.54" y="802.53" width="91.81" height="6.48"/>
    <rect class="cls-23" x="1577.54" y="841.43" width="59.25" height="6.48"/>
    <rect class="cls-23" x="1646.87" y="841.43" width="69.16" height="6.48"/>
    <rect class="cls-23" x="1688.23" y="802.53" width="55.6" height="6.48"/>
    <rect class="cls-23" x="1577.54" y="821.98" width="132.29" height="6.48"/>
  </g>
  <g>
    <rect class="cls-24" x="1577.54" y="888.54" width="91.81" height="6.48"/>
    <rect class="cls-23" x="1577.54" y="927.44" width="59.25" height="6.48"/>
    <rect class="cls-23" x="1646.87" y="927.44" width="69.16" height="6.48"/>
    <rect class="cls-23" x="1688.23" y="888.54" width="55.6" height="6.48"/>
    <rect class="cls-23" x="1577.54" y="907.99" width="132.29" height="6.48"/>
  </g>
  <g>
    <rect class="cls-23" x="1577.54" y="966.58" width="91.81" height="6.48"/>
    <rect class="cls-23" x="1577.54" y="1005.48" width="59.25" height="6.48"/>
    <rect class="cls-23" x="1646.87" y="1005.48" width="69.16" height="6.48"/>
    <rect class="cls-23" x="1688.23" y="966.58" width="55.6" height="6.48"/>
    <rect class="cls-23" x="1577.54" y="986.03" width="132.29" height="6.48"/>
  </g>
  <rect class="cls-24" x="1208.16" y="766.86" width="100.47" height="12.97"/>
  <rect class="cls-12" x="931.82" y="667.92" width="257.45" height="12.97"/>
  <rect class="cls-22" x="1212.57" y="667.92" width="177.69" height="12.97"/>
  <rect class="cls-12" x="1281.14" y="627.1" width="148.38" height="12.97"/>
  <g>
    <path class="cls-4" d="M1121.39,610.1s-2.56,16.7-9.37,25.22c-4.49,5.61-16.88,16.73-8.07,20.43,7.04,2.96,20.59-10.21,24.99-13.49,4.4-3.28,11.03-9.48,9.56-14.76-3.05-10.95-2.04-24.71-2.04-24.71l-15.06,7.31Z"/>
    <path class="cls-4" d="M1155.42,597.14s3.41,16.55-.02,26.91c-2.26,6.82-10.01,21.56-.46,21.96,7.63.33,15.75-16.73,18.74-21.33,2.99-4.6,7.05-12.72,3.83-17.17-6.66-9.2-10.51-22.46-10.51-22.46l-11.58,12.09Z"/>
    <path class="cls-24" d="M1150.64,608.84c-91.35-60.93-86.84-114.32-74.18-135.19,14.7-24.24,37.98-43.42,73.66-51.97,9.51-2.28,18.57-3.6,26.13-4.36,10.96-1.1,20.39,7.65,20.1,18.66l-.82,31.09h.07c-15.24-.32-61.48,4.33-73.6,28.97-2.52,5.12,58.97,77.34,56.68,90.3-2.6,14.66-19.11,28.45-28.04,22.5Z"/>
    <path class="cls-24" d="M1115.22,617.97c-10.51.05-18.88-8.77-18.26-19.26,1.38-23.31,5.71-63,19.29-92.98,7.7-17,19.94-32.46,36.39-45.95,12.4-10.17,27.24-19.26,44.11-27.01,28.06-12.9,48.26-11.1,48.26-11.1l15.33,22.61c-.2.04,4.3,22.81-28.11,43.11-17.88,11.2-53.84,18.04-68.63,46.99-10.56,20.66-14.59,48.06-15.94,67.21-.64,9.16-8.25,16.26-17.43,16.31l-15,.07Z"/>
    <path class="cls-25" d="M1136.08,341.53s-18.84,28.99-25.59,71.96c-4.47,28.44,47.28-4.67,47.28-4.67l2.3-59.4-23.99-7.89Z"/>
    <path class="cls-23" d="M1230.27,325.14s-14.35-24.53-47.43-17c-33.08,7.53-46.56,41.32-48.93,122.46,0,0,19.87,35.16,110.25,28.3,10.01-.76,24.36-2.08,19.47-18.32-9.1-30.18-17.91-90.39-33.35-115.44Z"/>
    <path class="cls-23" d="M1266.66,332.31l-34.03,6.4s-59.5,17.6-76.16,17.74c-16.66.14-23.55-12.04-23.55-12.04,0,0,13.44-22.81,41.59-33.56,2.65-1.01,5.42-1.92,8.32-2.69,4.88-1.29,9.83-2.42,14.8-2.48,56.17-.64,69.03,26.64,69.03,26.64Z"/>
    <path class="cls-4" d="M1266.66,332.31c.74,2.68-6.4,7.16-15.93,10-9.54,2.84-17.86,2.97-18.6.28-.74-2.68,6.4-7.16,15.93-10,9.54-2.84,17.86-2.97,18.6-.28Z"/>
    <path class="cls-25" d="M1260.79,407.87c-14.53,22.77-43.33,37.31-73.58,36.36l3.22-24.27c23.46-4.28,41.44-19.54,44.79-32.41,4.21-16.17,2.77-31.92.75-43.76-.19-1.12.25-2.25,1.16-2.95,3-2.3,10.77-6.97,24.66-7.24,1.24-.02,2.33.8,2.65,2,5.81,21.88,9.32,51.95-3.65,72.28Z"/>
    <g class="cls-26">
      <path class="cls-2" d="M1245.48,415.34c-.53,0-1.05-.1-1.54-.31-2.55-1.09-3.44-4.75-1.99-8.18.83-1.96,2.31-3.52,3.96-4.19,1.14-.46,2.28-.48,3.28-.05,2.55,1.09,3.44,4.76,2,8.18h0c-.83,1.96-2.31,3.53-3.96,4.19-.59.24-1.18.36-1.75.36ZM1247.65,403.42c-.43,0-.88.09-1.33.27-1.38.56-2.64,1.9-3.35,3.59-1.21,2.86-.58,5.87,1.4,6.71.73.31,1.57.29,2.42-.05,1.38-.56,2.64-1.9,3.35-3.59h0c1.21-2.86.58-5.87-1.4-6.71-.34-.15-.71-.22-1.1-.22Z"/>
    </g>
    <g>
      <path class="cls-25" d="M1190.43,419.96s-21.73-6.91-28.63-3.64-13.26,12.66-8.55,11.55c4.71-1.12,10.34-4.21,10.34-4.21,0,0-11.71,7.17-8.85,9.18,2.86,2.01,12.98-4.32,12.98-4.32,0,0-13.25,9.64-9.93,10.66,3.32,1.03,13.34-6.37,13.34-6.37,0,0-11.97,9.46-8.09,10.56,3.88,1.1,9.84-7.88,12.71-5.87,2.86,2.01,10.16,11.25,16.73,3.98l-2.04-21.53Z"/>
      <path class="cls-14" d="M1163.77,423.87l-.36-.43c.13-.11,3.16-2.63,5.58-1.94l-.15.54c-2.13-.61-5.04,1.8-5.07,1.83Z"/>
      <path class="cls-14" d="M1167.91,428.73l-.37-.42c.12-.11,3.03-2.6,6.57-2.32l-.04.56c-3.3-.26-6.12,2.16-6.15,2.18Z"/>
      <path class="cls-14" d="M1171.31,433.03l-.36-.43c.15-.13,3.74-3.11,6.25-2.16l-.2.53c-2.2-.83-5.66,2.04-5.69,2.06Z"/>
    </g>
    <g>
      <path class="cls-4" d="M1163.74,453.76h-69.75c-1.46,0-2.76-.93-3.22-2.3l-14.49-43.29c-.73-2.18.9-4.43,3.22-4.43h67.08c3.06,0,5.77,1.94,6.73,4.82l13.65,40.77c.73,2.18-.9,4.43-3.22,4.43Z"/>
      <path class="cls-4" d="M1159.36,453.76h-69.75c-1.46,0-2.76-.93-3.22-2.3l-14.49-43.29c-.73-2.18.9-4.43,3.22-4.43h67.08c3.06,0,5.77,1.94,6.73,4.82l13.65,40.77c.73,2.18-.9,4.43-3.22,4.43Z"/>
      <path class="cls-12" d="M1110.49,427.34c0-1.64,1.9-2.31,3.55-2.31s4.36,1.8,4.34,4.11c-.02,2.48-1.96,2.81-3.62,2.81s-4.28-2.51-4.28-4.6Z"/>
      <path class="cls-4" d="M1185.01,447.65h-95.43v6.12h97.42c1.14,0,2.06-.92,2.06-2.06h0c0-2.24-1.82-4.06-4.06-4.06Z"/>
      <path class="cls-3" d="M1154.41,425.63c-.03-.13-3.46-12.96-5.67-16.95-2.18-3.92-4.88-4.71-4.9-4.72l.12-.44c.12.03,2.9.84,5.18,4.93,2.24,4.04,5.57,16.52,5.71,17.05l-.44.12Z"/>
      <path class="cls-3" d="M1164.71,447.87c-2.59,0-3.23-1.14-3.26-1.19l-5.45-16.27.43-.14,5.44,16.24h0s.59.92,2.84.92v.45Z"/>
    </g>
    <path class="cls-5" d="M1100.42,566.55l-.56-.04c.01-.21,1.47-21.08,7.92-44.67,5.96-21.8,17.52-50.46,38.78-63.18l.29.48c-21.09,12.62-32.59,41.14-38.52,62.84-6.43,23.54-7.89,44.35-7.9,44.56Z"/>
    <path class="cls-5" d="M1146.99,606.18h-.56c.23-32.47,10.85-57.53,10.96-57.78l.52.22c-.11.25-10.68,25.21-10.91,57.56Z"/>
    <path class="cls-4" d="M1168.95,309.77s7.73-3.98,8.57-8.57c.84-4.6,3.95-3.5,5.57-4.81,1.61-1.31-4.36-13.02-4.36-13.02l-17.22-4.51,3.74,21.19,3.7,9.73Z"/>
    <path class="cls-25" d="M1203.74,305.71c-3.6-.04-6.9-1.99-8.63-5.14l-5.41-9.88-1.57-2.87-9.24-16.87,3.04,18.1,1.82,10.86.52,3.1c.42,2.53-1.14,4.95-3.61,5.64h-.04c-1.14,2.33-2.58,6.96,3.15,8.2,6.73,1.46,16.81-4.68,20.02-11.14-.02,0-.04,0-.06,0Z"/>
    <path class="cls-8" d="M1189.69,290.38c0,.1,0,.2,0,.3.12,5.92-5.9,9.25-5.9,9.25l-.04-.03-1.82-10.86c1.85-.89,4.52-1.87,6.2-1.23.88.33,1.48,1.11,1.56,2.57Z"/>
    <ellipse class="cls-25" cx="1178.34" cy="273.94" rx="17.2" ry="21.22" transform="translate(-20.58 112.3) rotate(-5.41)"/>
    <path class="cls-21" d="M1170.41,288.48s5.86-.42,11.52-3.03c0,0,1.03,5.72-5.27,6.7-3.66.57-6.25-3.68-6.25-3.68Z"/>
    <path class="cls-16" d="M1176.7,274.3c-.12-.02-.22-.09-.28-.21-.1-.19-.02-.43.17-.53.11-.06,2.61-1.65,5.15.65.16.14.18.39.04.55-.14.16-.36.14-.55.04-1.9-1.03-4.18-.59-4.28-.54-.08.04-.16.05-.24.04Z"/>
    <path class="cls-16" d="M1181,278.02c.12.93-.33,1.75-1,1.83-.67.09-1.31-.6-1.43-1.52-.12-.93.33-1.75,1-1.83s1.31.6,1.43,1.52Z"/>
    <path class="cls-16" d="M1169.98,279.8c.18.92-.22,1.76-.89,1.89-.67.13-1.35-.51-1.52-1.43-.18-.92.22-1.76.89-1.89.67-.13,1.35.51,1.52,1.43Z"/>
    <path class="cls-4" d="M1185.37,259.63c-12.8,4.37-20.98,16.98-20.13,30.48.05.78.11,1.59.19,2.41,0,0,9.04,1.13,10.34,9.77.41,2.71-7.02,8.09-7.59,7.9-4.3-1.45-16.01-10.46-15.46-30.62.55-20.15,6.89-35.52,25.13-37.86,18.24-2.34,16.95,10.09,16.95,10.09,0,0-2.72,5.54-9.44,7.83Z"/>
    <path class="cls-4" d="M1182.8,259.91s.33.17.87.51c2.08,1.32,7.27,5.16,8.73,11.5,1.83,7.98-5.47,13.75-2.74,19.8,2.73,6.05,7.7-1.5,12.38-.86,4.67.63,7.83-1.82,7.27-10.99-.56-9.18-4.72-30.32-15.54-29.29l-10.96,9.34Z"/>
    <path class="cls-25" d="M1195.44,275.54c-1.76,2.04-4.46,2.48-6.02,1-1.56-1.48-1.39-4.34.37-6.37,1.76-2.04,4.46-2.48,6.02-1,1.56,1.48,1.39,4.34-.37,6.37Z"/>
    <path class="cls-21" d="M1161.82,300.69c-.1,0-.18-.07-.2-.17-2.51-13.09,1.03-26.35,5.66-33.69,3.77-5.99,8-8.63,10.88-9.79,3.13-1.26,5.34-1.11,5.44-1.1.11,0,.2.11.19.22,0,.11-.11.19-.22.19-.09,0-8.84-.55-15.93,10.7-4.58,7.27-8.09,20.41-5.6,33.39.02.11-.05.22-.16.24-.01,0-.03,0-.04,0Z"/>
    <path class="cls-21" d="M1201.5,283.78s-.05,0-.07-.01c-.11-.04-.16-.16-.12-.27,3.25-8.89-.21-23.43-4.02-27.5-3.72-3.98-8.68-1.26-8.88-1.15-.1.06-.23.02-.28-.08-.06-.1-.02-.23.08-.28.05-.03,5.44-2.99,9.39,1.23,3.88,4.14,7.4,18.91,4.1,27.93-.03.08-.11.14-.19.14Z"/>
    <path class="cls-21" d="M1159.12,284.51c-.11,0-.2-.09-.21-.2,0-.06-.22-6.33.73-13.15,1.29-9.21,3.98-14.99,8.01-17.18,4.99-2.72,9.5-2.69,12.42-2.18,3.16.55,5.1,1.72,5.19,1.77.1.06.13.19.07.28-.06.1-.19.13-.28.07-.08-.05-7.85-4.67-17.19.42-9.34,5.09-8.53,29.71-8.52,29.96,0,.11-.09.21-.2.21h0Z"/>
  </g>
  <g>
    <path class="cls-4" d="M1971.08,1221.66s-.25,10.12-7.1,12.98c-6.85,2.86-26.69,5.43-19.28,11.94,4.25,3.73,24.31,1.32,29.97,1.32,5.66,0,10.98,2.47,15.18-1.32,4.63-4.17,0-24.92,0-24.92,0,0-4.89,2.54-9.28,2.43-6.33-.16-9.49-2.43-9.49-2.43Z"/>
    <path class="cls-4" d="M2049.74,1221.66s-.25,10.12-7.1,12.98c-6.85,2.86-26.69,5.43-19.28,11.94,4.25,3.73,24.31,1.32,29.97,1.32,5.66,0,10.98,2.47,15.18-1.32,4.63-4.17,0-24.92,0-24.92,0,0-4.89,2.55-9.28,2.43-6.33-.16-9.49-2.43-9.49-2.43Z"/>
    <path class="cls-3" d="M1920.18,944.18s-1.27,42.37,12.26,123.65c9.76,58.68,21.29,117.8,26.94,146.15,2.02,10.14,10.55,17.55,20.66,17.96l5.43.22c10.93.44,19.8-8.95,19-20.11l-13.72-191.78-3.38-63.12-67.19-12.97Z"/>
    <path class="cls-4" d="M2043.88,981.47c-.62,5.16-29.78,4.53-65.48.01-35.7-4.52-63.49-12.25-62.87-17.41.62-5.16,29.42-5.78,65.12-1.26,35.7,4.52,63.85,13.51,63.23,18.66Z"/>
    <path class="cls-3" d="M1961.17,974.44l76.22,244.84c3.19,10.25,12.42,17.27,22.93,17.45l4.58.08c10.82.18,19.09-9.82,17.11-20.7l-41.69-230.06c-.61-2.73-2.62-4.91-5.26-5.67-14.3-4.12-75.29-16.07-73.89-5.94Z"/>
    <path class="cls-20" d="M2031.96,840.5s-10.14-28.53-46.27-27.23c-36.13,1.3-63.4,48.77-70.16,150.8,0,0,59.16-12.97,128.45,17.29,0,0,3.84-99.27-12.03-140.86Z"/>
    <path class="cls-20" d="M2057.33,838.78l-25.59,16.38s-65.79,6.58-83.25,3.41c-17.46-3.17-20.18-16.01-20.18-16.01,0,0,16.61-22.79,48.23-28.45,2.97-.54,5.96-.62,9.16-.85,5.36-.38,10.72-.22,15.98.35,31.23,3.37,55.66,25.16,55.66,25.16Z"/>
    <path class="cls-5" d="M1995.23,1083.88l-16.39-49.83c-3.69-11.21-11.27-20.56-21.35-26.33l.64-1.11c10.36,5.93,18.14,15.54,21.93,27.04l16.39,49.83-1.22.4Z"/>
    <g>
      <path class="cls-24" d="M1960.92,806.91c-.2-.05-4.86-1.18-6.24-4.52-.73-1.76-.4-3.8.99-6.05.62-1,1.19-1.91,1.71-2.74,3.62-5.77,4.84-7.71,3.89-12.23l.41-.09c.98,4.68-.36,6.82-3.94,12.54-.52.83-1.09,1.74-1.71,2.74-1.31,2.13-1.63,4.04-.96,5.66,1.3,3.14,5.9,4.26,5.95,4.27l-.1.41Z"/>
      <path class="cls-24" d="M1961.46,781.34s1.6,7.25-3.2,14.83c-4.8,7.58.42,13.13,6.93,10.21,6.5-2.92,8.98,5.37,17.3.79,8.31-4.58-21.02-25.83-21.02-25.83Z"/>
      <path class="cls-25" d="M1999.88,813.37c-3.59-.38-6.71-2.64-8.14-5.96l-4.48-10.4-1.3-3.02-7.64-17.74,1.32,18.39.8,11.04.23,3.15c.19,2.57-1.61,4.84-4.14,5.29h-.04c-1.36,2.22-3.24,6.71,2.37,8.5,6.59,2.1,17.25-3.09,21.08-9.24-.02,0-.04,0-.06,0Z"/>
      <path class="cls-4" d="M1987.28,796.71c0,.1,0,.2-.02.3-.44,5.93-6.78,8.7-6.78,8.7l-.04-.03-.8-11.04c1.94-.71,4.7-1.44,6.31-.64.84.42,1.38,1.25,1.32,2.71Z"/>
      <ellipse class="cls-25" cx="1977.49" cy="779.2" rx="17.28" ry="21.31"/>
      <path class="cls-25" d="M1992.46,782.41c-1.96,1.87-4.69,2.06-6.11.43-1.42-1.63-.98-4.47.97-6.34,1.96-1.87,4.69-2.06,6.11-.43,1.42,1.63.98,4.47-.97,6.34Z"/>
      <path class="cls-9" d="M1968.19,792.99s5.9.14,11.8-1.94c0,0,.49,5.82-5.9,6.21-3.72.23-5.9-4.27-5.9-4.27Z"/>
      <path class="cls-21" d="M1968.19,792.99s1.43,1.19,4.76,1.17c3.33-.01,7.04-3.11,7.04-3.11,0,0-7.11,1.95-11.8,1.94Z"/>
      <path class="cls-16" d="M1975.82,779.4c-.12-.03-.21-.11-.26-.23-.08-.2.02-.43.22-.51.12-.05,2.76-1.41,5.09,1.13.15.16.14.41-.01.56-.16.15-.38.11-.56-.01-1.8-1.21-4.13-.99-4.22-.95-.08.03-.17.04-.25.01Z"/>
      <path class="cls-16" d="M1978.93,783.72c.03.94-.5,1.71-1.18,1.74-.68.02-1.26-.72-1.29-1.66-.03-.94.5-1.71,1.18-1.74.68-.02,1.26.72,1.29,1.66Z"/>
      <path class="cls-16" d="M1961.79,781.45c-.12.01-.24-.02-.33-.12-.15-.16-.15-.4,0-.55.09-.09,2.02-2.35,5.14-.89.2.09.29.32.2.52-.09.2-.31.24-.52.2-2.13-.43-4.19.66-4.27.73-.06.06-.14.1-.22.11Z"/>
      <path class="cls-16" d="M1966.31,784.26c.38.86.19,1.78-.43,2.05-.62.28-1.44-.19-1.82-1.04-.38-.86-.19-1.77.43-2.05.62-.28,1.44.19,1.82,1.04Z"/>
      <path class="cls-24" d="M1970.16,761.75s.37,7.4,9.61,8.66c9.24,1.26,15.61,5.17,14.37,11.82-1.24,6.65-16.13,20.46-5.19,25.8,10.94,5.35,8.61-4.62,20.47-2.31,11.86,2.31,14-13.53,5.83-22.72-8.17-9.19-4.86-33.52-35.49-32.44-30.63,1.08-19.41,25.51-19.41,25.51,0,0,9.82-6.16,9.8-14.32Z"/>
      <path class="cls-21" d="M1992.09,809.4c-2.3-.93-3.72-2.32-4.21-4.12-1.35-4.96,4.43-12.45,9.53-19.06,1.34-1.74,2.61-3.38,3.73-4.95,3.12-4.35,3.39-9.34.72-13.34-2.93-4.39-8.5-6.24-14.55-4.84-6.03,1.4-10.17.14-12.59-1.17-2.63-1.42-3.8-3.14-3.85-3.21l.21-.14c.05.07,4.81,6.92,16.18,4.28,6.15-1.43,11.83.47,14.81,4.94,2.69,4.03,2.41,9.25-.72,13.62-1.13,1.57-2.4,3.22-3.74,4.96-5.06,6.56-10.8,14-9.49,18.84.47,1.75,1.8,3.04,4.06,3.95l-.09.23Z"/>
      <path class="cls-19" d="M1961.15,795.09c-2.59-.96-4.88-3.82-6.1-7.67-1.99-6.27-.59-13.23,3.12-15.53,1.38-.88,2.94-1.01,4.49-.44,2.59.96,4.88,3.82,6.1,7.66h0c1.99,6.26.59,13.23-3.12,15.54-.83.52-1.73.78-2.64.78-.61,0-1.23-.11-1.84-.33ZM1968.03,779.34c-1.15-3.62-3.26-6.3-5.63-7.18-1.34-.48-2.65-.36-3.82.37-3.44,2.13-4.69,8.71-2.79,14.66,1.15,3.61,3.26,6.3,5.63,7.18,1.33.47,2.65.36,3.81-.37,3.44-2.14,4.69-8.72,2.8-14.66h0Z"/>
      <g class="cls-26">
        <path class="cls-21" d="M1988.75,775.03c1.39,6.09-.83,12.62-4.95,14.59-4.12,1.97-8.58-1.36-9.97-7.44-1.39-6.09.83-12.62,4.95-14.6,4.12-1.97,8.58,1.36,9.97,7.44Z"/>
      </g>
      <g class="cls-26">
        <path class="cls-21" d="M1968.93,779.61c1.39,6.11-.46,12.74-4.13,14.81-3.67,2.06-7.78-1.22-9.17-7.33-1.39-6.11.46-12.74,4.13-14.81,3.67-2.06,7.78,1.22,9.17,7.33Z"/>
      </g>
      <path class="cls-19" d="M1978.05,789.71c-2.66-1.29-4.68-4.2-5.56-7.99-1.51-6.5.95-13.52,5.49-15.66,1.83-.86,3.76-.84,5.61.04,2.65,1.29,4.67,4.2,5.54,7.98h0c1.52,6.51-.94,13.53-5.49,15.66-.9.43-1.83.64-2.76.64s-1.91-.23-2.84-.68ZM1978.3,766.75c-4.22,1.99-6.49,8.62-5.07,14.79.82,3.51,2.74,6.31,5.16,7.48,1.62.76,3.33.77,4.93.03,4.23-1.99,6.5-8.62,5.07-14.79h0c-.81-3.5-2.73-6.29-5.14-7.47-.82-.4-1.67-.6-2.52-.6s-1.63.19-2.43.56Z"/>
      <path class="cls-19" d="M1968.11,781.89c.16,0,.32-.06.46-.17h0c.08-.07,1.94-1.52,5.15-.91.38.06.77-.18.84-.57.08-.39-.18-.77-.57-.83-3.88-.81-6.24,1.12-6.34,1.2-.3.26-.34.71-.09,1.01.14.18.34.27.55.27Z"/>
    </g>
    <path class="cls-4" d="M2057.69,839.35c.89,2.58-5.81,7.4-14.95,10.77-9.14,3.37-17.28,4.02-18.17,1.44-.89-2.58,5.81-7.4,14.95-10.77,9.14-3.37,17.28-4.02,18.17-1.44Z"/>
    <path class="cls-25" d="M1987.07,922.54l7.55-12.75c-.04-2.56-4.24-7.27-1.81-6.47,9.44,3.13,28.32-3.36,33.3-10.39,6.9-9.76,6.18-24.93,4.25-35.44-.98-5.38.79-8.98,7.29-12.43,0,0,5.59-3.08,12.49-4.25,2.76-.47,5.5.64,6.22,3.35,1.12,4.24,2.56,10.84,3.25,18.61,1.64,18.44-1.92,34.48-10.29,46.39-10.27,14.62-29.41,23.98-59.51,21.34-2.75-.24-2.69-5.19-2.74-7.95Z"/>
    <g class="cls-29">
      <path class="cls-2" d="M2042.59,904.27c-.89,0-1.72-.26-2.38-.79-2.04-1.64-1.82-5.31.49-8.18,2.31-2.87,5.85-3.87,7.89-2.23,1.02.82,1.52,2.16,1.39,3.75-.12,1.5-.79,3.08-1.88,4.43h0c-1.56,1.93-3.67,3.02-5.51,3.02ZM2046.2,893.53c-1.45,0-3.23.94-4.52,2.55-1.84,2.29-2.16,5.23-.68,6.42,1.48,1.19,4.28.25,6.12-2.04h0c.94-1.16,1.51-2.49,1.61-3.75.09-1.17-.23-2.11-.93-2.67-.44-.35-.99-.52-1.6-.52Z"/>
    </g>
    <path class="cls-3" d="M2015.17,975.88s-71.25-13.61-94.35-7.19l11.08,16.42,41.18,2.33,42.09-11.56Z"/>
    <path class="cls-19" d="M1977.94,944.18h-60.72c-2.62,0-4.88-1.82-5.45-4.37l-18.1-81.33c-.74-3.34,1.8-6.51,5.22-6.51h57.94c2.96,0,5.51,2.05,6.16,4.94l18.45,82.91c.5,2.24-1.21,4.37-3.51,4.37Z"/>
    <g>
      <path class="cls-25" d="M1995,905.46s-15.52-15.83-24.01-15.97c-8.49-.14-19.45,6.1-14.2,7.3,5.25,1.21,12.38.9,12.38.9,0,0-15.2,1.38-13.34,4.8,1.86,3.42,15.07,2.09,15.07,2.09,0,0-17.96,3.08-15.15,5.74,2.8,2.66,16.43.22,16.43.22,0,0-16.59,3.54-13.26,6.55,3.33,3.01,13.69-3.01,15.56.4,1.86,3.42,10.41,16.35,20.54,12.33v-24.35Z"/>
      <path class="cls-14" d="M1975.19,898.66c-1.83-1.65-5.91-.68-5.95-.67l-.15-.61c.18-.04,4.45-1.06,6.52.82l-.42.47Z"/>
      <path class="cls-14" d="M1978.18,905.73c-3.17-1.89-7.17-.87-7.21-.85l-.16-.61c.18-.05,4.29-1.1,7.69.92l-.32.54Z"/>
      <path class="cls-14" d="M1978.94,911.58c-1.79-1.92-6.64-.75-6.69-.74l-.15-.61c.21-.05,5.26-1.26,7.3.92l-.46.43Z"/>
    </g>
    <path class="cls-25" d="M1894.05,893.36s-.84,7.35,5.87,8.07c8.56.92,27.76-8.35,5.72-8.8-.55-.01,14.06-1.04,12.32-4.57-1.74-3.53-14.37-1.92-14.37-1.92,0,0,15.36-2.34,12.63-5.15-2.73-2.81-12.67-2.44-12.67-2.44,0,0,12.99-1.35,9.75-4.54-3.24-3.19-11.7.08-15.6.65-3.69.53-4.53,3.08-3.76,6.6,0,0-1.27,3.95-.19,6.12.42.83-.29,1.82-.27,2.48.03,1.25.56,3.5.56,3.5Z"/>
    <path class="cls-24" d="M1940.48,854.26s-2.27-5.22-2.94-5.76c-.66-.54-28.03-.36-27.85.9.18,1.26,1.26,5.04,3.78,5.76,2.52.72,28.05,1.4,27.01-.9Z"/>
  </g>
  <path class="cls-4" d="M1939.56,1236.47H664c-4.06,0-6.42-2.94-6.96-5.86-.55-2.95.61-6.59,4.45-8.07l123.94-47.8c4.37-1.69,8.96-2.54,13.64-2.54h1019.58c4.58,0,9.03.94,13.24,2.79l110.29,48.62c3.43,1.51,4.39,4.88,3.83,7.56-.56,2.64-2.77,5.3-6.46,5.3ZM799.07,1173.32c-4.54,0-8.99.83-13.24,2.47l-123.94,47.8c-3.23,1.25-4.21,4.32-3.75,6.82.42,2.28,2.21,4.94,5.86,4.94h1275.56c3.27,0,4.93-2.38,5.36-4.41.44-2.07-.14-4.96-3.18-6.3l-110.29-48.62c-4.06-1.79-8.36-2.7-12.78-2.7h-1019.58Z"/>
  <g>
    <g>
      <path class="cls-25" d="M1336.41,819.88l-1.4.66c-1.31.62-2.89.06-3.51-1.25l-6.45-13.57c-.62-1.31-.06-2.88,1.25-3.5l1.4-.66c1.31-.62,2.89-.06,3.51,1.25l6.45,13.57c.62,1.31.06,2.88-1.25,3.51Z"/>
      <path class="cls-25" d="M1341.78,816.02l-1.49.71c-1.29.61-2.84.06-3.45-1.23l-6.87-14.44c-.61-1.28-.06-2.83,1.23-3.44l1.49-.71c1.29-.61,2.84-.06,3.45,1.23l6.87,14.44c.61,1.28.06,2.83-1.23,3.44Z"/>
      <path class="cls-25" d="M1349.37,828.46l-.98-.23c-1.82-.42-2.97-2.26-2.54-4.08l4.14-17.74c.43-1.82,2.84-4.59,4.66-4.16,3.01.72,3.37,4.11,2.95,5.93l-4.14,17.74c-.43,1.82-2.27,2.96-4.09,2.54Z"/>
      <path class="cls-25" d="M1347.77,813.74l-.55.26c-1.6.76-3.53.07-4.29-1.52l-9.72-20.44c-.76-1.6-1.86-5.36,1.11-6.44,2.17-.79,4.31,3.01,5.53,5.45,2.45,4.89,9.44,18.41,9.44,18.41.76,1.6.07,3.52-1.53,4.28Z"/>
      <path class="cls-25" d="M1336.55,834.2s-13.93-12.22-14.71-23.61c-.27-3.94,17.32-12.25,20.79-9.49,3.47,2.76,10.88,19.44,10.88,19.44l-16.96,13.66Z"/>
      <path class="cls-25" d="M1330.51,821.94l-1.45.69c-1.29.61-.23,3.13-1.12,2.01-6.1-7.7-7.87-14.85-7.87-14.85-.61-1.29-.05-3.64,1.24-4.25l1.29-.38c1.29-.61,3,.43,3.61,1.72l5.52,11.61c.61,1.29.06,2.85-1.24,3.46Z"/>
    </g>
    <path class="cls-4" d="M1434.9,1200.8s-.49,9.44-6.97,11.93c-6.48,2.49-25.1,4.4-18.33,10.66,3.88,3.59,22.7,1.85,27.99,1.99,5.29.14,10.2,2.58,14.23-.85,4.43-3.77.63-23.26.63-23.26,0,0-4.63,2.25-8.74,2.04-5.92-.31-8.82-2.51-8.82-2.51Z"/>
    <path class="cls-20" d="M1388.43,962.79c1.24,19.6,3.58,45.04,7.9,76.16,8.25,59.31,18.26,119.13,23.19,147.81,1.76,10.26,10.16,17.95,20.34,18.63l5.47.37c11.01.74,19.36-3.33,19.36-20.79l-.54-159.39-8.55-63.67s-69.2-31.29-67.17.88Z"/>
    <path class="cls-4" d="M1495.56,1202.43s-.49,9.44-6.97,11.93c-6.48,2.49-25.1,4.4-18.33,10.66,3.88,3.59,22.7,1.85,27.99,1.99,5.29.14,10.2,2.58,14.23-.85,4.43-3.77.63-23.26.63-23.26,0,0-4.63,2.25-8.74,2.04-5.92-.31-8.82-2.51-8.82-2.51Z"/>
    <path class="cls-20" d="M1448,915.82s-2.43,42.6,8.99,124.76c8.25,59.31,18.26,119.13,23.19,147.81,1.76,10.26,10.16,17.95,20.34,18.63l5.47.37c11.01.74,20.2-8.47,19.7-19.72l-8.61-193.37-1.69-63.61-67.38-14.88Z"/>
    <path class="cls-4" d="M1464.36,1093.67c-.03-2.92-.8-71.72,2.73-84.29,3.56-12.66,19.42-23.24,20.1-23.69l.46.69c-.16.11-16.28,10.86-19.76,23.22-3.5,12.45-2.71,83.34-2.7,84.06h-.83Z"/>
    <path class="cls-25" d="M1459.92,784.85l-4.26-12.75-1.24-3.71-7.29-21.82-.96,21.71-.57,13.03-.18,4.12c-.12,2.8-1.96,3.39-4.21,5.82-.91.99-6.72,6.96-.12,9.66,8.21,3.36,23.57-1.73,29.4-8.4-.05,0-9.19-3.54-10.56-7.66Z"/>
    <path class="cls-25" d="M1427.49,752.19c1.81-12.8,12.57-22.05,24.03-20.66,11.46,1.39,19.27,12.9,17.46,25.71-1.81,12.8-12.57,22.05-24.03,20.66-11.46-1.39-19.27-12.9-17.46-25.71Z"/>
    <path class="cls-4" d="M1436.45,746.57c-11.96.42-17.76-5.98-17.9-11.9-.18-7.6,4.98-14.32,10.99-11.5,6.01,2.82,3.43-4.1,9.21-4.84,10.8-1.37,12.82,5.74,21.66,6.09,11.66.46,24.94,18.46,15.18,31.59,0,0-29.68-9.77-39.13-9.44Z"/>
    <path class="cls-4" d="M1425.8,738.91s12.78,11.41,11.09,17.82c-1.69,6.42-1.26,8.93,6.21,12.36,7.46,3.42.87,8.98,10.82,9.38,9.95.4,22.14-10.5,22.13-28.41,0-9.99-6.19-16.52-6.19-16.52l-44.06,5.36Z"/>
    <path class="cls-25" d="M1430.44,756.45c1.45-1.9,4.11-2.48,5.95-1.28,1.84,1.2,2.15,3.72.7,5.62-1.45,1.9-4.11,2.48-5.95,1.28-1.84-1.2-2.15-3.72-.7-5.62Z"/>
    <path class="cls-4" d="M1480.38,760.95c-.13,0-.26-.09-.29-.23-.58-2.41-3.06-3.79-3.09-3.81-.14-.08-.2-.26-.12-.4.08-.14.26-.2.4-.12.11.06,2.74,1.52,3.38,4.19.04.16-.06.32-.22.36-.02,0-.05,0-.07,0Z"/>
    <path class="cls-4" d="M1477.14,755.56c-.16,0-.29-.12-.3-.28,0-.16.12-.3.28-.31.03,0,3.27-.22,3.73-2.53.03-.16.18-.26.35-.23.16.03.27.19.23.35-.55,2.76-4.13,3-4.28,3.01,0,0-.01,0-.02,0Z"/>
    <path class="cls-4" d="M1431.35,722.72c-.21,0-.42-.03-.64-.09-.99-.27-1.73-.75-2.45-1.21-1.33-.86-2.49-1.59-4.99-.85-.16.05-.32-.04-.37-.2-.05-.16.04-.32.2-.37,2.76-.83,4.15.06,5.48.92.68.44,1.38.89,2.29,1.14.49.14.92.07,1.3-.19,1.31-.89,1.61-3.72,1.62-3.75.02-.16.15-.28.33-.26.16.02.28.16.26.33-.01.13-.34,3.13-1.87,4.18-.35.24-.74.36-1.15.36Z"/>
    <path class="cls-4" d="M1459.49,723.48c-4.22,0-7.51-2.84-7.66-2.97-.12-.11-.13-.3-.03-.42.11-.12.29-.14.42-.03.04.03,3.96,3.42,8.54,2.73.17-.02.31.09.34.25.02.16-.09.31-.25.34-.46.07-.91.1-1.36.1Z"/>
    <path class="cls-4" d="M1433.64,762.9c-.49,0-.81-.1-.82-.1-.08-.02-.12-.1-.09-.18.02-.08.11-.12.18-.09.11.03,2.71.8,4.54-2.59.04-.07.13-.09.19-.06.07.04.1.12.06.19-1.31,2.42-3.05,2.82-4.06,2.82Z"/>
    <path class="cls-4" d="M1388.43,962.79s86.77-4.73,127.95,5.18l.61-11.72-57.74-17.06-46.62,1.14-14.32,3.05-10.11,15.58.22,3.84Z"/>
    <path class="cls-24" d="M1508.68,820.08s-7.64-32.78-54.35-32.78c-81.41,0-58.58,66.28-66.11,171.65,0,0,52.49-11.35,128.44,3.76,0,0,7.39-57.07-2.16-105.31-2.52-12.74-2.07-26.25-5.82-37.33Z"/>
    <path class="cls-24" d="M1444.95,787.3s-26.12.38-45.54,18.68c-19.42,18.3-44.43,43.5-49.74,58-6.53,17.85,5.49,35.77,20.77,36.15,15.27.38,28.97-10.67,28.97-10.67l45.54-102.15Z"/>
    <path class="cls-24" d="M1560.61,883.73c-7.64-56.41-72-88.27-72-88.27l-13.73,70.75,26.81,8.49c13.78,4.37,19.43,20.87,11.07,32.65-10.67,15.05-16.91,35.22-5.89,31.5,18.84-6.35,57.55-30.36,53.74-55.14Z"/>
    <path class="cls-4" d="M1519.07,937.01l-.57-.03c2.27-41.33-5.06-83.65-5.14-84.07l.56-.1c.07.42,7.41,42.8,5.15,84.2Z"/>
    <path class="cls-4" d="M1390.36,895.39l-.29-.49c15.35-9.04,35.32-32.84,35.52-33.08l.44.37c-.2.24-20.23,24.12-35.67,33.21Z"/>
    <path class="cls-24" d="M1383.44,837.62s-19.73-20.54-26.63-21.93c-6.9-1.4-46.66,9.54-3.02,75.65l29.65-53.71Z"/>
  </g>
  <g>
    <path class="cls-25" d="M827.44,1036.81c2.56,4.56,28.27,44.38,22.89,83.33l-27.98-10.12-12.79-52.5,17.88-20.71Z"/>
    <path class="cls-13" d="M715.71,1020.49s17.19-30.83,59.04-22.31c41.85,8.52,64.69,68.42,53.34,187.06,0,0-66.48-26.43-152.93-5.12,0,0,14.23-114.9,40.55-159.63Z"/>
    <path class="cls-13" d="M683.79,1008.03l29.42,29.36s75.41,20.37,96.36,20.13c20.95-.24,29.19-15.55,29.19-15.55,0,0-17.68-28-53.45-40.66-3.36-1.19-6.88-2.25-10.55-3.13-6.18-1.48-12.45-2.34-18.69-2.71-37.03-2.2-72.27,12.56-72.27,12.56Z"/>
    <path class="cls-4" d="M683.79,1008.03c-4.7,5.11,2.55,10.69,10.67,18.8,8.12,8.11,16.51,12.84,18.74,10.56,2.23-2.28-2.55-10.69-10.67-18.8-8.12-8.11-16.58-12.91-18.74-10.56Z"/>
    <path class="cls-25" d="M709.29,1037.51s.44-5.86-6.93-13.35c-4.44-4.51-10.06-7.46-13.83-9.09-2.24-.97-4.83.12-5.72,2.41l-2.36,6.08,10.98,7.07,17.86,6.88Z"/>
    <path class="cls-24" d="M761.27,1146.28s-90.75-49.18-123.27,4.47c-24.08,39.71,12.12,76.69,146.37,72.94,0,0,13.27-6.21,10.04-38.45-1.28-12.77-33.13-38.96-33.13-38.96Z"/>
    <path class="cls-24" d="M761.27,1146.28s120.86-49.51,144.78-18.56c27.48,35.57,1.13,95.96-126.27,74.38l-15.53-16.86-2.98-38.96Z"/>
    <path class="cls-5" d="M784.51,1223.89l-.3-.41c14.09-10.06,10.31-35.88,9.96-38.05l-91.61-33.34.17-.48,91.88,33.44.03.14c.05.28,4.77,28.06-10.14,38.7Z"/>
    <path class="cls-4" d="M795.17,1194.1s22.27.91,32.74,6.04,4.88,17.66-16.37,17.32c-21.24-.33-19.63-3.5-19.63-3.5,0,0,4.04-11,3.26-19.86Z"/>
    <path class="cls-25" d="M766.66,1148.64c7.38,0,13.44-1.87,18.35-5.57,9.28-7,11-18.16,9.66-25.59l-8.88-5.16c-.44-2.44-17.57,6.62-17.54,6.61-.08.03-8.18,2.37-36.26-11.98-19.55-9.99-29.4-24.17-30.12-43.34-.54-14.45,5.9-22.57,7.42-26.09.2-.47-9.45-10.14-9.17-11.13l-7.23-3.68c.23-.83-6.95-3.66-6.85-3.9l-5.58,4.75c-2.75,6.37-8.62,21-7.86,41.16.79,20.94,9.43,49.84,46.16,68.61,20.03,10.24,35.75,15.3,47.9,15.3Z"/>
    <g>
      <path class="cls-19" d="M772.62,1149.81h78.32c1.64,0,3.1-1.04,3.61-2.59l16.27-48.6c.82-2.45-1.02-4.97-3.61-4.97h-75.31c-3.43,0-6.48,2.18-7.56,5.42l-15.33,45.78c-.82,2.45,1.02,4.97,3.61,4.97Z"/>
      <path class="cls-19" d="M777.53,1149.81h78.32c1.64,0,3.1-1.04,3.61-2.59l16.27-48.6c.82-2.45-1.02-4.97-3.61-4.97h-75.31c-3.43,0-6.48,2.18-7.56,5.42l-15.33,45.78c-.82,2.45,1.02,4.97,3.61,4.97Z"/>
      <path class="cls-12" d="M832.41,1120.14c0-1.85-2.13-2.6-3.99-2.6s-4.89,2.03-4.87,4.61c.02,2.79,2.2,3.15,4.06,3.15s4.8-2.82,4.8-5.17Z"/>
      <path class="cls-19" d="M748.74,1142.95h107.15v6.87h-109.39c-1.28,0-2.31-1.04-2.31-2.31h0c0-2.52,2.04-4.55,4.55-4.55Z"/>
      <path class="cls-4" d="M782.86,1118.55s-.07,0-.1-.01c-.21-.06-.33-.27-.28-.48.16-.6,3.9-14.63,6.43-19.18,2.58-4.65,5.76-5.57,5.9-5.6.21-.06.42.07.48.27.06.21-.06.42-.27.48-.03,0-3.01.89-5.42,5.23-2.48,4.46-6.32,18.86-6.36,19-.05.18-.21.29-.38.29Z"/>
      <path class="cls-4" d="M771.53,1143.34c-.22,0-.39-.18-.39-.39s.18-.39.39-.39c2.47,0,3.08-.99,3.09-1l6.07-18.16c.07-.2.29-.32.5-.25.21.07.32.29.25.5l-6.1,18.23c-.06.12-.82,1.47-3.8,1.47Z"/>
    </g>
    <path class="cls-2" d="M696.26,1106.5c-.28,0-.57-.04-.87-.12-1.69-.45-3.54-2.14-4.83-4.41-1.98-3.47-2.04-7.06-.12-8.18.6-.35,1.34-.42,2.13-.21,1.69.45,3.54,2.14,4.83,4.41,1.98,3.47,2.04,7.06.12,8.18-.37.22-.8.33-1.26.33ZM691.69,1094.48c-.28,0-.53.06-.75.19-1.38.8-1.15,3.92.49,6.8,1.15,2.01,2.8,3.55,4.21,3.93.54.15,1,.11,1.36-.1,1.38-.8,1.15-3.92-.49-6.8-1.15-2.01-2.8-3.55-4.21-3.93-.22-.06-.42-.09-.61-.09Z"/>
    <path class="cls-25" d="M755.42,995.4c5.15-.15,9.05-.68,12.01-4.16l9.16-10.77,2.67-3.14,15.68-18.44-8.23,21.57-4.94,12.94-1.56,4.1c-1.06,2.78.34,4.08,1.33,7.33.4,1.32,3.1,9.43-3.94,9.48-8.77.06-19.86-10.13-22.3-18.93.04,0,.09.03.13.03Z"/>
    <path class="cls-4" d="M774.04,973.54s-17.26-16.59-7.3-30.59c9.96-14,12.45,22.47,12.45,22.47l-2.78,8.43-2.36-.31Z"/>
    <path class="cls-4" d="M776.67,980.09c-.03.12-.06.25-.09.37-1.6,7.27,5.11,12.96,5.11,12.96l.06-.03,4.94-12.94c-2.1-1.57-5.19-3.48-7.44-3.12-1.18.18-2.12.98-2.58,2.76Z"/>
    <ellipse class="cls-25" cx="793.94" cy="965.17" rx="24.51" ry="20.16" transform="translate(-353.27 1460.98) rotate(-73.93)"/>
    <path class="cls-4" d="M778.3,957.4s5.5,4,10.1.62c4.61-3.38,7.87-6.58,18.18-1.39,10.32,5.19,21.61,2.86,23.7-2.99,2.09-5.85-2.83-10.33-9.31-10.03-6.48.29,1.37-3.26-3.14-9.41-4.51-6.15-15.94.19-21.61-2.86-5.67-3.05-25.86-5.69-29.5,11.61l11.57,14.45Z"/>
    <path class="cls-25" d="M773.99,960.86c1.33,2.05,3.87,2.73,5.68,1.54,1.81-1.2,2.2-3.82.88-5.87-1.33-2.05-3.87-2.74-5.68-1.54-1.81,1.2-2.2,3.82-.88,5.87Z"/>
    <path class="cls-21" d="M818.89,951.62c-4.34,0-10.22-5.29-10.49-5.53l.51-.56c.07.06,6.93,6.23,10.9,5.23,1.53-.39,2.39-1.11,2.25-1.89-.13-.74-1.21-1.43-2.75-1.28-3.36.35-5.18-.8-5.26-.85l.41-.64s1.7,1.05,4.77.73c2.06-.21,3.38.82,3.57,1.9.17.94-.48,2.16-2.81,2.75-.35.09-.73.13-1.11.13Z"/>
    <path class="cls-21" d="M801.07,937.13c-1.43,0-2.91-.21-4.32-.77-1.8-.7-3.36-1.53-4.86-2.33-2.93-1.55-5.46-2.88-8.2-2.35l-.14-.74c3.01-.59,5.65.81,8.7,2.42,1.49.79,3.03,1.6,4.79,2.29,5.24,2.05,11.38-.91,11.77-1.24l.55.51c-.33.38-4.09,2.19-8.27,2.19Z"/>
    <path class="cls-21" d="M771.97,942.05c-.11,0-.21-.02-.31-.05-.25-.1-.64-.39-.4-1.32l.06-.12c.42-.61,2.61-3.58,4.12-2.63.19.12.6.49.2,1.3-.5,1-2.51,2.82-3.67,2.82ZM771.98,940.94c-.07.29-.03.37-.03.37.2.07,1.29-.45,2.33-1.52.73-.76.8-1.15.77-1.21-.67-.43-2.21,1.14-3.07,2.36Z"/>
    <path class="cls-16" d="M797.8,965.81c.12-.02.24-.09.3-.21.11-.2.04-.45-.16-.56-.12-.07-2.66-1.83-5.39.51-.17.15-.2.4-.06.58.14.18.37.16.57.06,2.02-1.02,4.38-.48,4.48-.42.08.04.17.06.25.05Z"/>
    <path class="cls-16" d="M794.03,969.9c-.15.97.29,1.85.99,1.96.7.11,1.39-.58,1.54-1.56.15-.97-.29-1.85-.99-1.96-.7-.11-1.39.58-1.54,1.56Z"/>
    <path class="cls-16" d="M812.07,970.99c.09.02.2,0,.28-.1.15-.15.18-.41.08-.57-.06-.1-1.25-2.58-3.99-1.3-.17.08-.28.31-.24.52.04.21.21.27.39.24,1.78-.29,3.26.99,3.31,1.07.04.07.1.11.16.13Z"/>
    <path class="cls-16" d="M806.95,973.29c-.51.84-.43,1.82.17,2.19.6.37,1.5,0,2.01-.84.51-.84.43-1.82-.17-2.19-.6-.37-1.5,0-2.01.84Z"/>
    <g>
      <path class="cls-5" d="M795.27,983.62c-2.46,0-6.17-.72-8.37-4.61-.08-.14-.03-.31.11-.39.14-.08.31-.03.39.11,3.27,5.78,9.92,4.16,10.2,4.09.15-.04.31.05.35.21.04.15-.05.31-.21.35-.03,0-1.04.25-2.47.25Z"/>
      <path class="cls-5" d="M786.32,980.02s-.06,0-.09-.01c-.15-.05-.23-.21-.18-.36.24-.72.87-1.37,1.88-1.95.13-.08.34-.05.42.08.08.13.08.28-.05.37l-.08.05c-1.1.64-1.49,1.24-1.62,1.64-.04.12-.15.2-.27.2Z"/>
    </g>
    <rect class="cls-4" x="819.78" y="1040.66" width="1.26" height="14.79" transform="translate(-286.43 308.86) rotate(-18.21)"/>
    <path class="cls-21" d="M809.25,987.18c-1.47,0-2.8-.55-3.88-1.62-3.44-3.41-3.28-11.32.36-17.63,2.24-3.88,5.39-6.44,8.42-6.85,1.8-.24,3.43.3,4.71,1.56,3.44,3.41,3.28,11.32-.36,17.63-2.24,3.88-5.39,6.44-8.42,6.85-.28.04-.56.06-.83.06ZM814.97,961.88c-.23,0-.47.02-.71.05-2.77.37-5.68,2.77-7.79,6.43h0c-3.46,6-3.69,13.44-.5,16.6,1.08,1.07,2.46,1.52,4,1.32,2.77-.37,5.68-2.78,7.79-6.43,3.46-6,3.69-13.44.5-16.6-.91-.9-2.04-1.37-3.29-1.37Z"/>
    <g class="cls-26">
      <path class="cls-21" d="M785.21,958.67c-2.95,6.28-2.14,13.91,1.82,17.05,3.96,3.14,9.56.6,12.51-5.67,2.95-6.28,2.14-13.91-1.82-17.05-3.96-3.14-9.56-.6-12.51,5.67Z"/>
    </g>
    <g class="cls-26">
      <path class="cls-21" d="M805.44,968.44c-2.96,6.3-2.56,13.95.89,17.09,3.46,3.13,8.66.56,11.62-5.74,2.96-6.3,2.56-13.95-.89-17.09-3.46-3.13-8.66-.56-11.62,5.74Z"/>
    </g>
    <path class="cls-21" d="M791.46,977.4c-1.55,0-3.01-.51-4.3-1.52-4.37-3.41-5.34-11.64-2.15-18.34,1.86-3.91,4.74-6.58,7.92-7.33,2.18-.51,4.26-.06,6.02,1.31,4.37,3.41,5.33,11.64,2.15,18.34-1.86,3.91-4.74,6.58-7.92,7.32-.58.14-1.16.21-1.72.21ZM794.64,950.87c-.5,0-1,.06-1.52.18-2.88.68-5.62,3.25-7.34,6.86h0c-3.02,6.36-2.17,14.12,1.9,17.3,1.55,1.21,3.38,1.61,5.3,1.16,2.88-.68,5.62-3.24,7.34-6.86,3.02-6.36,2.17-14.12-1.9-17.3-1.13-.89-2.42-1.34-3.78-1.34Z"/>
    <path class="cls-21" d="M805.94,971.13c-.24,0-.47-.11-.63-.31-.08-.1-1.73-2.14-5.32-2.23-.44-.01-.79-.38-.78-.81.01-.44.39-.76.81-.78,4.39.11,6.45,2.74,6.54,2.85.27.35.2.85-.15,1.11-.14.11-.31.16-.48.16Z"/>
    <rect class="cls-5" x="765.08" y="1163.77" width="55.22" height=".51" transform="translate(-391.28 401.45) rotate(-22.96)"/>
  </g>
  <g>
    <path class="cls-25" d="M387.61,979.25s18.76-.86,21.75-29.66c3.07-29.59-30.87,0-30.87,0l9.12,29.66Z"/>
    <path class="cls-25" d="M368.47,884.85c1.14.45,20.14,5.6,28.55,34.24,8.41,28.64-19.82,6.06-19.82,6.06l-8.72-40.3Z"/>
    <path class="cls-4" d="M343.45,1279.51s.26,10.3,7.22,13.2c6.97,2.9,27.15,5.52,19.61,12.14-4.33,3.8-24.72,1.34-30.48,1.34-5.76,0-11.17,2.51-15.44-1.34-4.71-4.24,0-25.34,0-25.34,0,0,4.97,2.59,9.44,2.47,6.44-.17,9.65-2.47,9.65-2.47Z"/>
    <path class="cls-4" d="M263.45,1279.51s.26,10.3,7.22,13.2c6.97,2.9,27.15,5.52,19.61,12.14-4.33,3.8-24.72,1.34-30.48,1.34-5.76,0-11.16,2.51-15.44-1.34-4.71-4.24,0-25.34,0-25.34,0,0,4.97,2.59,9.44,2.47,6.44-.17,9.65-2.47,9.65-2.47Z"/>
    <path class="cls-10" d="M395.23,997.28s1.29,43.09-12.47,125.76c-9.93,59.68-21.65,119.82-27.4,148.65-2.06,10.31-10.73,17.85-21.01,18.27l-5.52.22c-11.11.45-20.14-9.1-19.32-20.45l13.95-195.06,3.44-64.2,68.33-13.19Z"/>
    <path class="cls-4" d="M269.41,1035.21c.63,5.24,30.29,4.61,66.6.01,36.31-4.6,64.58-12.46,63.94-17.71-.63-5.25-29.93-5.88-66.24-1.29-36.31,4.6-64.94,13.74-64.31,18.98Z"/>
    <path class="cls-10" d="M353.54,1028.06l-77.52,249.03c-3.24,10.42-12.63,17.57-23.32,17.75l-4.66.08c-11,.19-19.41-9.98-17.41-21.05l42.41-234c.62-2.78,2.67-4.99,5.35-5.77,14.54-4.19,76.58-16.34,75.15-6.04Z"/>
    <path class="cls-11" d="M281.53,891.83s10.31-29.02,47.06-27.7c36.74,1.32,64.49,49.6,71.36,153.38,0,0-60.17-13.19-130.65,17.59,0,0-3.91-100.97,12.23-143.27Z"/>
    <path class="cls-11" d="M255.73,890.08l26.03,16.66s66.91,6.69,84.67,3.47c17.76-3.22,20.53-16.28,20.53-16.28,0,0-16.9-23.18-49.05-28.93-3.02-.55-6.06-.63-9.31-.87-5.45-.39-10.91-.22-16.25.36-31.77,3.43-56.61,25.6-56.61,25.6Z"/>
    <path class="cls-5" d="M318.89,1139.37l-1.24-.41,16.67-50.68c3.85-11.7,11.77-21.47,22.3-27.51l.65,1.13c-10.25,5.87-17.96,15.39-21.71,26.78l-16.67,50.68Z"/>
    <path class="cls-4" d="M255.36,890.66c-.9,2.62,5.9,7.53,15.21,10.96,9.3,3.43,17.57,4.09,18.48,1.47.9-2.62-5.9-7.53-15.21-10.96-9.3-3.43-17.57-4.09-18.48-1.47Z"/>
    <path class="cls-25" d="M319.21,981.33l.31-19.02c.04-2.6-1.96-4.78-4.55-4.96-13.19-.94-22.42-5.03-27.47-12.18-7.02-9.93-6.28-25.35-4.32-36.05,1-5.47-.81-9.13-7.42-12.64,0,0-5.69-3.13-12.7-4.32-2.81-.48-5.6.65-6.32,3.41-1.13,4.31-2.6,11.03-3.3,18.92-1.66,18.76,1.95,35.07,10.46,47.19,10.44,14.86,27.28,23.09,50.09,24.49,2.8.17,5.19-2.01,5.24-4.81Z"/>
    <g class="cls-29">
      <path class="cls-2" d="M270.73,956.69c-1.87,0-4.02-1.1-5.6-3.07-1.11-1.38-1.79-2.98-1.91-4.51-.13-1.62.37-2.97,1.41-3.81,1.04-.84,2.47-1.04,4.02-.57,1.47.45,2.89,1.45,4,2.83,1.11,1.38,1.79,2.98,1.91,4.51.13,1.62-.37,2.97-1.41,3.81-.68.55-1.52.8-2.42.8ZM267.07,945.76c-.64,0-1.2.18-1.64.53-.7.57-1.04,1.53-.94,2.72.1,1.28.68,2.63,1.64,3.81,1.88,2.33,4.73,3.28,6.23,2.07.7-.57,1.04-1.53.94-2.71-.1-1.28-.68-2.63-1.64-3.81-.95-1.18-2.15-2.04-3.37-2.41-.42-.13-.83-.19-1.21-.19Z"/>
    </g>
    <path class="cls-10" d="M298.61,1029.52s72.47-13.84,95.97-7.31l-11.27,16.7-41.89,2.37-42.81-11.75Z"/>
    <g>
      <path class="cls-4" d="M327.87,959.16l62.47.02c1.31,0,2.47-.83,2.88-2.06l13-38.76c.65-1.95-.81-3.97-2.88-3.97l-60.07-.02c-2.74,0-5.17,1.74-6.03,4.32l-12.24,36.51c-.65,1.95.81,3.97,2.88,3.97Z"/>
      <path class="cls-4" d="M331.79,959.17l62.47.02c1.31,0,2.47-.83,2.88-2.06l13-38.76c.65-1.95-.81-3.97-2.88-3.97l-60.07-.02c-2.74,0-5.17,1.74-6.03,4.32l-12.24,36.51c-.65,1.95.81,3.97,2.88,3.97Z"/>
      <path class="cls-12" d="M375.57,935.51c0-1.47-1.7-2.07-3.18-2.07-1.48,0-3.9,1.61-3.89,3.68.02,2.23,1.75,2.52,3.24,2.52,1.48,0,3.83-2.25,3.83-4.12Z"/>
      <path class="cls-3" d="M336.24,933.97l-.39-.1c.13-.47,3.11-11.66,5.12-15.27,2.04-3.67,4.53-4.39,4.64-4.42l.11.39s-2.44.72-4.39,4.22c-1.99,3.57-5.06,15.06-5.09,15.18Z"/>
      <rect class="cls-3" x="324.51" y="945.25" width="15.33" height=".41" transform="translate(-669.85 958.56) rotate(-71.39)"/>
    </g>
    <path class="cls-25" d="M409.74,945.32s1.04,8.14-5.85,8.91c-8.77.98-20.8-6.87-15.25-7.58,4.92-.63,12.15.29,12.15.29,0,0-18.36-2.61-16.65-6.51,1.71-3.9,17.47-1.43,17.47-1.43,0,0-17.69-4.35-14.95-7.44,2.74-3.1,17.06-.94,17.06-.94,0,0-17.48-3.25-14.22-6.77s12.03.13,16.05.77c3.8.6,4.73,3.43,4.02,7.32,0,0,1.4,4.37.33,6.77-.41.92.34,2.02.34,2.74,0,1.39-.5,3.87-.5,3.87Z"/>
    <g>
      <path class="cls-25" d="M310.13,956.14s4.63-14.02,12.56-17.45c7.93-3.43,20.65-1.82,16.19,1.35-4.46,3.17-11.29,5.65-11.29,5.65,0,0,14.83-4.6,14.4-.67-.42,3.93-13.36,7.81-13.36,7.81,0,0,18.08-4.07,16.47-.49-1.6,3.59-15.36,6.58-15.36,6.58,0,0,16.97-3.12,15.01,1-1.96,4.12-14.04,2.49-14.47,6.42-.42,3.93-3.44,19.41-14.52,19.57l-5.65-29.78Z"/>
      <path class="cls-14" d="M322.3,948.94l-.58-.27c1.22-2.57,5.63-3.27,5.81-3.3l.1.63s-4.26.68-5.33,2.94Z"/>
      <path class="cls-14" d="M322.23,956.75l-.51-.38c2.41-3.22,6.69-3.83,6.87-3.85l.09.63s-4.2.6-6.44,3.6Z"/>
      <path class="cls-14" d="M323.8,962.54l-.6-.22c1.07-2.85,6.28-3.67,6.5-3.7l.1.63c-.05,0-5.06.8-6,3.3Z"/>
    </g>
    <path class="cls-14" d="M402.88,954.68c-2.65,0-5.61-.73-5.8-.78l.15-.62c1.88.47,7.13,1.4,8.73.06l.41.49c-.76.63-2.08.84-3.5.84Z"/>
    <g>
      <path class="cls-24" d="M349.25,811.15s4.98-13.65-7.16-17.92c-12.13-4.27-11.59,5.82-14.42,7.67-2.83,1.85,1.18,10.32,6.93,12.71,5.76,2.39,14.64-2.46,14.64-2.46Z"/>
      <path class="cls-25" d="M329.95,873.85c5.84-1.89,2.43-9.47,2.43-9.47-2.64-.46-4.58-2.21-4.4-4.88l.22-3.28.11-1.63.34-5.2.31-4.67,1.28-19.16-7.86,18.53-1.34,3.15-4.61,10.86c-1.47,3.46-4.47,6-8.33,6.97,2.62,2.92,14.98,11.02,21.83,8.79Z"/>
      <path class="cls-4" d="M321.06,847.23s2.34,6.07,7.26,7.36l.34-5.2c-3.03-1.09-7.6-2.16-7.6-2.16Z"/>
      <path class="cls-24" d="M308.58,822.51s.76,3.14-1.01,9.59c-2.59,9.44,8.2,13.32,10.94,10.61.34-.33-.2-16.37-.2-16.37l-3.45-2.03-6.28-1.81Z"/>
      <ellipse class="cls-25" cx="331.14" cy="828.61" rx="18" ry="22.21" transform="translate(-4.44 1.79) rotate(-.31)"/>
      <path class="cls-24" d="M338.17,811.53c-.5.68,2.4,12.09-18.75,14.93-21.15,2.84-8.57-22.9,7.04-23.57,22.54-.96,25.91,14.18,23.77,19.65-2.14,5.47-12.06-11.02-12.06-11.02Z"/>
      <path class="cls-24" d="M321.74,822.81s-8.6,9.16-5.55,18.47c0,0-5.05-5.45-5.17-7.5s1.17-9.44,1.17-9.44l9.55-1.53Z"/>
      <path class="cls-25" d="M315.56,832.04c2.05,1.94,4.9,2.12,6.37.41,1.47-1.71,1-4.66-1.05-6.6-2.05-1.94-4.9-2.12-6.37-.41-1.47,1.71-1,4.66,1.05,6.6Z"/>
      <path class="cls-16" d="M332.88,828.81c.12-.03.22-.12.27-.24.08-.21-.02-.45-.23-.53-.12-.05-2.89-1.45-5.29,1.21-.15.17-.15.42.02.58.16.15.39.11.58-.02,1.87-1.27,4.29-1.05,4.4-1.01.09.03.18.04.26.01Z"/>
      <path class="cls-16" d="M329.66,833.33c-.03.98.53,1.78,1.24,1.8s1.3-.76,1.33-1.73c.03-.98-.53-1.78-1.24-1.8-.71-.02-1.3.76-1.33,1.73Z"/>
      <path class="cls-16" d="M347.5,830.87c.12.01.25-.03.34-.12.16-.16.15-.42-.01-.58-.1-.09-2.12-2.44-5.36-.9-.2.1-.3.34-.2.54.09.21.32.25.54.2,2.22-.46,4.37.67,4.45.74.07.06.15.1.23.11Z"/>
      <path class="cls-16" d="M342.81,833.82c-.4.89-.19,1.85.46,2.14.65.29,1.49-.2,1.89-1.1.4-.89.19-1.85-.46-2.14-.65-.29-1.49.2-1.89,1.1Z"/>
      <g class="cls-26">
        <path class="cls-21" d="M322.76,827.92c-1.62,5.28-.08,11.18,3.42,13.19,3.5,2.01,7.66-.64,9.27-5.92,1.62-5.28.08-11.18-3.42-13.19-3.5-2.01-7.66.64-9.27,5.92Z"/>
      </g>
      <g class="cls-26">
        <path class="cls-21" d="M340.73,831.1c-1,5.33.77,11,3.95,12.67,3.18,1.67,6.56-1.29,7.56-6.62,1-5.33-.77-11-3.95-12.67-3.18-1.67-6.56,1.29-7.56,6.62Z"/>
      </g>
      <path class="cls-4" d="M321.79,831.72c0,.28.01.57.04.85.16,2.72,1.04,5.23,2.49,6.98.57.7,1.24,1.27,1.99,1.69.72.4,1.47.65,2.23.72.21.02.42.03.62.03.69-.01,1.4-.15,2.09-.43,1.71-.68,3.2-2.1,4.28-4.03.45-.8.83-1.68,1.13-2.64.31-.99.51-2,.61-3.02.05-.43.07-.85.08-1.29.06-3.79-1.27-7.35-3.6-9.23-.29-.24-.6-.44-.91-.63-1.56-.88-3.27-.99-4.94-.32-2.12.84-3.9,2.81-4.99,5.48-.16.39-.3.78-.42,1.19-.08.24-.14.49-.2.73-.19.71-.32,1.43-.4,2.15-.07.59-.09,1.19-.09,1.77ZM332.92,839.72c-.6.53-1.24.94-1.92,1.2-.6.24-1.2.37-1.8.38-.88.01-1.74-.21-2.56-.66-.77-.43-1.45-1.05-2.02-1.81-1.4-1.82-2.17-4.45-2.16-7.23h0c0-.43.03-.86.06-1.29.04-.41.09-.82.16-1.22.1-.61.25-1.21.44-1.81.17-.55.37-1.08.61-1.57.12-.29.26-.56.41-.82,0-.02.02-.03.03-.05.02-.03.03-.05.05-.08.29-.52.6-.99.95-1.41.86-1.07,1.88-1.87,2.97-2.31.8-.32,1.61-.44,2.4-.35.67.07,1.33.28,1.96.64.24.14.47.28.69.46,2.28,1.73,3.57,5.18,3.48,8.87,0,.43-.03.86-.09,1.3-.1.92-.29,1.83-.57,2.74-.28.9-.64,1.75-1.08,2.51-.56,1-1.24,1.85-1.99,2.51-.02,0-.02.02-.03.02Z"/>
      <path class="cls-4" d="M340.45,834.21c0,.3.01.59.03.89.02.29.05.58.08.87.02.19.04.39.07.58,0,.02,0,.05,0,.08.02.16.05.32.08.48,0,0,0,.02,0,.02-.19-1.42-.19-2.95.03-4.49-.04-.03-.12-.08-.22-.14-.03.29-.05.58-.06.87-.01.28-.02.57-.02.85ZM340.45,834.21c0,.3.01.59.03.89.02.29.05.58.08.87.02.19.04.39.07.58,0,.02,0,.05,0,.08.02.16.05.32.08.48,0,0,0,.02,0,.02-.19-1.42-.19-2.95.03-4.49-.04-.03-.12-.08-.22-.14-.03.29-.05.58-.06.87-.01.28-.02.57-.02.85ZM340.45,834.21c0,.3.01.59.03.89.02.29.05.58.08.87.02.19.04.39.07.58,0,.02,0,.05,0,.08.02.16.05.32.08.48,0,0,0,.02,0,.02-.19-1.42-.19-2.95.03-4.49-.04-.03-.12-.08-.22-.14-.03.29-.05.58-.06.87-.01.28-.02.57-.02.85ZM340.45,834.21c0,.3.01.59.03.89.02.29.05.58.08.87.02.19.04.39.07.58,0,.02,0,.05,0,.08.02.16.05.32.08.48,0,0,0,.02,0,.02-.19-1.42-.19-2.95.03-4.49-.04-.03-.12-.08-.22-.14-.03.29-.05.58-.06.87-.01.28-.02.57-.02.85ZM340.45,834.21c0,.3.01.59.03.89.02.29.05.58.08.87.02.19.04.39.07.58,0,.02,0,.05,0,.08.02.16.05.32.08.48,0,0,0,.02,0,.02-.19-1.42-.19-2.95.03-4.49-.04-.03-.12-.08-.22-.14-.03.29-.05.58-.06.87-.01.28-.02.57-.02.85ZM340.45,834.21c0,.3.01.59.03.89.02.29.05.58.08.87.02.19.04.39.07.58,0,.02,0,.05,0,.08.02.16.05.32.08.48,0,0,0,.02,0,.02-.19-1.42-.19-2.95.03-4.49-.04-.03-.12-.08-.22-.14-.03.29-.05.58-.06.87-.01.28-.02.57-.02.85ZM340.45,834.21c0,.3.01.59.03.89.02.29.05.58.08.87.02.19.04.39.07.58,0,.02,0,.05,0,.08.02.16.05.32.08.48,0,0,0,.02,0,.02-.19-1.42-.19-2.95.03-4.49-.04-.03-.12-.08-.22-.14-.03.29-.05.58-.06.87-.01.28-.02.57-.02.85ZM340.45,834.21c0,.3.01.59.03.89.02.29.05.58.08.87.02.19.04.39.07.58,0,.02,0,.05,0,.08.02.16.05.32.08.48,0,0,0,.02,0,.02-.19-1.42-.19-2.95.03-4.49-.04-.03-.12-.08-.22-.14-.03.29-.05.58-.06.87-.01.28-.02.57-.02.85ZM339.92,835.04c.01,1.98.37,3.85,1.02,5.41h0c.66,1.58,1.62,2.82,2.84,3.53.08.05.15.08.23.12,0,0,.02,0,.02.02.63.32,1.3.48,1.98.47.58,0,1.16-.12,1.74-.36,2.27-.93,4.19-3.53,5.16-6.96,1.57-5.59.11-11.7-3.24-13.63-.07-.04-.15-.08-.22-.11h0c-.29-.15-.58-.27-.88-.35-.42-.11-.85-.16-1.28-.14-.53.02-1.06.14-1.6.35-2.26.93-4.19,3.53-5.15,6.96-.06.22-.12.45-.17.67-.1.42-.18.84-.24,1.26-.16.92-.22,1.86-.22,2.76ZM340.73,837.12c-.19-1.42-.19-2.95.03-4.49.07-.45.15-.89.25-1.33.06-.25.13-.51.2-.76.45-1.62,1.12-3.03,1.94-4.15.79-1.07,1.71-1.87,2.7-2.31.04-.02.08-.04.12-.05.49-.2.99-.31,1.48-.31.43,0,.86.07,1.28.23.21.08.41.17.61.28,3.1,1.78,4.42,7.55,2.93,12.86,0,.02-.02.05-.02.07t0,.02s0,.02,0,.03c0,0,0,.02,0,.02-.92,3.17-2.68,5.53-4.72,6.38-1.03.43-2.08.41-3.04-.04-.12-.05-.22-.11-.33-.17-.09-.05-.19-.11-.27-.18-.02,0-.05-.03-.08-.05,0,0,0,0,0,0,0,0,0,0-.02-.02-.71-.49-1.32-1.21-1.8-2.1-.58-1.05-.99-2.33-1.21-3.73,0-.06-.02-.13-.03-.19ZM340.45,834.21c0,.3.01.59.03.89.02.29.05.58.08.87.02.19.04.39.07.58,0,.02,0,.05,0,.08.02.16.05.32.08.48,0,0,0,.02,0,.02-.19-1.42-.19-2.95.03-4.49-.04-.03-.12-.08-.22-.14-.03.29-.05.58-.06.87-.01.28-.02.57-.02.85ZM340.45,834.21c0,.3.01.59.03.89.02.29.05.58.08.87.02.19.04.39.07.58,0,.02,0,.05,0,.08.02.16.05.32.08.48,0,0,0,.02,0,.02-.19-1.42-.19-2.95.03-4.49-.04-.03-.12-.08-.22-.14-.03.29-.05.58-.06.87-.01.28-.02.57-.02.85ZM340.45,834.21c0,.3.01.59.03.89.02.29.05.58.08.87.02.19.04.39.07.58,0,.02,0,.05,0,.08.02.16.05.32.08.48,0,0,0,.02,0,.02-.19-1.42-.19-2.95.03-4.49-.04-.03-.12-.08-.22-.14-.03.29-.05.58-.06.87-.01.28-.02.57-.02.85ZM340.45,834.21c0,.3.01.59.03.89.02.29.05.58.08.87.02.19.04.39.07.58,0,.02,0,.05,0,.08.02.16.05.32.08.48,0,0,0,.02,0,.02-.19-1.42-.19-2.95.03-4.49-.04-.03-.12-.08-.22-.14-.03.29-.05.58-.06.87-.01.28-.02.57-.02.85ZM340.45,834.21c0,.3.01.59.03.89.02.29.05.58.08.87.02.19.04.39.07.58,0,.02,0,.05,0,.08.02.16.05.32.08.48,0,0,0,.02,0,.02-.19-1.42-.19-2.95.03-4.49-.04-.03-.12-.08-.22-.14-.03.29-.05.58-.06.87-.01.28-.02.57-.02.85ZM340.45,834.21c0,.3.01.59.03.89.02.29.05.58.08.87.02.19.04.39.07.58,0,.02,0,.05,0,.08.02.16.05.32.08.48,0,0,0,.02,0,.02-.19-1.42-.19-2.95.03-4.49-.04-.03-.12-.08-.22-.14-.03.29-.05.58-.06.87-.01.28-.02.57-.02.85ZM340.45,834.21c0,.3.01.59.03.89.02.29.05.58.08.87.02.19.04.39.07.58,0,.02,0,.05,0,.08.02.16.05.32.08.48,0,0,0,.02,0,.02-.19-1.42-.19-2.95.03-4.49-.04-.03-.12-.08-.22-.14-.03.29-.05.58-.06.87-.01.28-.02.57-.02.85Z"/>
      <path class="cls-4" d="M341.19,832.79c.19,0,.37-.09.5-.25.21-.28.16-.68-.11-.89-.09-.07-2.21-1.67-5.64-.87-.34.08-.55.42-.47.76.08.34.42.55.76.47,2.85-.67,4.56.63,4.58.64.12.09.25.13.39.13Z"/>
      <path class="cls-24" d="M321.51,806.96s-1.77-14.42-14.52-12.71c-12.75,1.72-10.1,8.9-9.36,13.38.56,3.34,5.74,8.65,11.95,8.17,6.21-.49,11.93-8.84,11.93-8.84Z"/>
      <path class="cls-24" d="M309.2,850.33c-.09,0-.19-.03-.26-.1-.16-.15-.17-.4-.03-.56.13-.14,3.21-3.5,8.33-4.75.21-.05.42.08.48.29.05.21-.08.42-.29.48-4.89,1.19-7.91,4.48-7.94,4.51-.08.09-.19.13-.29.13Z"/>
      <path class="cls-5" d="M336.43,845.46c-2.46,0-4.98-1.63-5.13-1.73-.1-.06-.12-.19-.06-.29.06-.1.19-.13.29-.06.05.03,4.75,3.07,7.34.81.09-.07.22-.07.3.02.08.09.07.22-.02.3-.8.69-1.75.95-2.72.95Z"/>
    </g>
  </g>
</svg>