<?xml version="1.0" encoding="UTF-8"?>
<svg id="Layer_1" data-name="Layer 1" xmlns="http://www.w3.org/2000/svg" version="1.1" viewBox="0 0 2163 149.8">
  <defs>
    <style>
      .cls-1 {
        fill: #fff;
        stroke-width: 0px;
      }
    </style>
  </defs>
  <path class="cls-1" d="M415.5,87.3h-54.4c-2.8,0-4.1-.6-3.9-3.4.2-4.3,0-8.6,0-13.1s.6-2.8,2.8-2.6h79.3c1.7,0,2.6.4,2.8,2.4,1.7,20-3.2,38.2-17.4,53.5-12.5,13.7-28.1,22.1-47.3,24.5-24.9,3.2-47.5-2.1-66.4-18.3-13.7-11.8-21.9-26.4-24.3-43.8-1.9-14-1.1-27.5,4.7-40.6,10.1-22.8,27.9-37.4,53.1-43.2,25.3-5.8,49-2.1,70.2,12.7,9.2,6.4,15.9,15,20.8,24.9.4,1.1.9,2.1,1.3,3.7h-28.4c-.9,0-2.1-1.1-2.8-1.9-9.2-13.7-22.8-19.8-40-20-14.4,0-26.9,3.7-37.6,12.9-8.8,7.7-14,17.4-15.9,28.4-2.4,12.7-1.5,25.1,4.3,37,7.5,15,19.8,24.5,37.2,27.3,13.5,2.1,26.9,1.3,38.9-5.8,12.9-7.7,19.8-19.3,22.1-34.2h.6v-.2Z"/>
  <path class="cls-1" d="M1071.1,75c.6,41.9-32.7,74.8-79.3,74.8s-79.7-31.1-79.5-75.6c0-42.8,34.2-74.1,79.7-74.1s79.9,32.9,78.8,75.2h.2v-.2ZM1045.6,74.6c-.4-3.7-.4-7.5-1.1-11.2-2.8-15.3-10.1-27.9-24.5-35.9-10.7-6-22.3-7.9-34.6-6.4-19.3,2.1-33.3,11-41.5,27.5-6.2,12.9-7.3,26.4-4.3,40,3.7,16.3,12.7,29.2,29.4,36.1,9.9,4.1,20.2,5.2,30.9,3.9,13.1-1.7,23.8-6.9,32.4-16.3,9.7-11,13.1-23.8,13.5-37.8h-.4v.2Z"/>
  <path class="cls-1" d="M851.8,87.7c12.9,20.4,25.6,40.2,38.5,60.8h-13.5c-3,0-6-.4-9,0-6,1.1-8.8-1.7-11.4-6.2-9.9-16.8-20.2-33.1-30.1-49.6-1.5-2.4-3-3.4-5.8-3.2h-11.6c-3.7,0-4.5,1.3-4.5,4.5v50.1c0,3.2-1.7,4.7-5.2,4.7h-16.1c-3,0-3.9-.9-3.7-3.7V5.6c0-3,1.1-3.7,4.1-3.7,18,0,36.1-.4,54.1,0,18.3.6,34.6,6,44.5,21.9,13.1,21.3,4.5,53.1-23.4,61.7-1.9.6-3.9,1.3-6.7,2.1h-.2ZM804.1,45.6v21.5c0,3,1.1,3.9,4.1,3.9,8.8,0,17.6.4,26.4,0,5.2-.4,10.5-1.5,15.3-3.7,10.7-4.9,14.4-18.5,11-29.6-3.4-11-12.2-15.5-24.1-16.1-9.7-.4-19.3,0-29.2-.2-2.8,0-3.7.9-3.7,3.4v21.1h.2v-.2Z"/>
  <path class="cls-1" d="M1336.1,31.4h6.2c.4,0,1.3.9,1.5,1.5,2.6,12.2,5.2,24.5,7.9,36.7,2.6,12.5,5.4,24.7,8.2,37.6.4-1.3.6-1.7.9-2.6,5.8-23.8,11.4-47.7,17-71.5.4-1.5.9-2.1,2.1-2.1h4.5c1.1,0,1.7.4,1.9,1.9,3.2,14.4,6.7,28.8,10.1,43.2,2.1,9.2,4.3,18.7,6.4,27.9,0,.9.4,1.5.6,2.1h.4c.6-3.2,1.5-6.7,2.1-9.9,4.5-21.1,9-42.3,13.5-63.4.2-1.3.6-1.9,1.9-1.9h5.8c-.6,2.6-1.1,5.2-1.7,7.5-6,25.8-12,51.6-17.8,77.1-.4,1.5-.9,2.4-2.4,2.1h-4.5c-1.1,0-1.5-.4-1.7-1.7-4.1-17.2-8.4-34.4-12.5-51.6-1.5-6.2-3-12.2-4.5-18.5,0-.6-.4-1.3-.9-1.9-.6,2.1-1.1,4.3-1.7,6.4-5.4,21.9-10.7,43.6-16.1,65.5-.2,1.3-.6,1.7-1.7,1.7h-4.7c-1.1,0-1.5-.4-1.9-1.7-3.9-17.6-7.9-35-11.8-52.6-2.4-10.1-4.5-20.4-6.9-30.7,0-.4,0-1.1-.4-1.9v.6h0Z"/>
  <path class="cls-1" d="M269.6,148.5h-24.5c-1.1,0-2.4-1.9-2.8-3-3-7.9-6-15.9-8.8-23.8-.9-2.6-2.4-3.4-5.2-3.2h-58.2c-2.6,0-3.9.9-4.5,3-3,8.2-6,16.1-9,24.3-.9,2.6-2.4,3.2-5.2,3.2h-22.1c1.5-3.9,2.6-7.1,3.9-10.3,17-44.5,33.7-88.9,50.7-133.4.9-2.4,1.9-3.2,4.5-3h23.2c2.1,0,3.2.6,4.1,2.8,13.5,35.7,27.1,71.3,40.6,107,4.3,11.4,8.6,23,12.9,34.4.2.6.4,1.5.9,2.8,0,0-.4-.6-.4-.6ZM225.1,98.9c-8.6-23-16.8-45.1-25.1-67.5h-1.1c-8.4,22.3-16.8,44.9-25.3,67.7h51.6v-.2Z"/>
  <path class="cls-1" d="M754.3,148.5h-24.5c-1.1,0-2.4-1.9-2.8-3-3.2-7.9-6.2-16.1-9-24.1-.9-2.4-2.1-3-4.5-3h-58.6c-2.8,0-3.9.9-4.7,3.2-2.8,8.2-6,16.1-9,24.3-.9,2.4-2.1,3-4.7,3h-22.6c1.9-5.2,3.7-9.9,5.4-14.6,16.3-43,32.7-85.9,49-129.1.9-2.4,1.9-3.2,4.5-3h22.8c2.6,0,3.7.9,4.5,3,11,29,21.9,58.2,33.1,87.2,6.7,17.4,13.3,35,20,52.4.4,1.1.6,2.4,1.1,4.1v-.4h.2ZM709.6,98.9c-8.6-22.8-16.8-45.1-25.1-67.5h-1.1c-8.4,22.3-16.8,44.9-25.3,67.7h51.6v-.2Z"/>
  <path class="cls-1" d="M563.9,52.7V5.4c0-3,.9-3.9,4.1-3.7h18.3c2.4,0,3.4.4,3.4,3,0,30.3.2,60.8,0,91.1,0,16.1-5.6,30.3-19.3,41-9.2,7.1-20,10.7-31.6,12.2-11.8,1.5-23.4.6-34.8-3.2-20-6.7-31.4-20.2-34.8-39.7-.6-3.4-.9-6.9-.9-10.5V6.3c0-3.4.9-4.5,4.5-4.3h16.1c3.4,0,4.5.6,4.5,4.1,0,29.9-.2,59.5,0,89.4,0,5.4,1.1,11,3,16.1,3.9,10.3,13.1,15.3,24.1,17.2,7.1,1.3,14.2.9,21.1-1.1,14.2-3.9,22.6-14.4,22.8-28.4v-46.4h-.4v-.2Z"/>
  <path class="cls-1" d="M91.7,39.4h-4.1c-5.8.6-10.1,0-11.8-6.7-1.3-4.5-5.8-7.5-10.3-9.7-8.4-3.9-17.2-4.3-26-1.5-9,2.8-14.2,7.3-14.4,15.9,0,8.2,4.5,17.2,13.7,20.4,10.3,3.4,20.8,6,31.1,9.5,7.3,2.4,14.8,4.9,21.5,8.8,10.5,6.2,15.7,15.7,16.1,27.7.6,14.6-4.7,26.2-16.8,35.2-7.7,5.8-16.5,8.8-26.2,10.1-12.7,1.7-25.6,0-37.6-4.5-14.6-5.6-24.3-17-27.1-32v-2.1c0-3,1.5-4.5,4.5-4.5h18.7c2.4,0,3.4.6,3.9,3,1.9,9.9,10.3,18.9,21.1,20.4,6.4.9,12.7.6,18.7-1.3,9-2.8,14.6-8.4,15.9-17.2,1.3-9-2.8-16.1-11.4-19.8-7.7-3.4-16.1-5.4-24.1-7.9-8.4-2.8-17.2-6.9-25.3-10.3C6.4,66.4-1.3,53.1.4,35.1,2.4,16.6,17.4,5.2,38.7,1.5c14-2.4,27.9-1.9,41.2,3.4,15,6,23.8,17,26.4,32,.4,1.9-.6,2.8-2.8,2.8h-11.2l-.4-.4s-.2,0-.2,0Z"/>
  <path class="cls-1" d="M2095.5,103.4V33.8c0-2.1.4-2.8,2.1-2.6h3.7c.9,0,1.3.4,1.3,1.5v82.7c0,2.1-.4,2.4-2.1,2.8-3.7.6-5.8-1.3-7.7-5.2-10.5-19.8-21.3-39.5-31.8-59.3-1.3-2.4-2.4-4.7-3.7-6.9,0-.6-.6-1.1-1.3-1.5v69.8c0,1.9-.9,2.8-2.4,2.8h-2.8c-1.3,0-1.7-.4-1.7-2.1V33.6c0-1.9.4-2.1,1.9-2.6,3.9-.6,6,1.3,8.2,5.2,11.6,21.9,23.2,43.4,35,65.1.4.6.9,1.5,1.3,2.1h.6-.6Z"/>
  <path class="cls-1" d="M2035.8,74.6c-.4,12-3.2,22.8-10.1,31.6-4.9,6.4-11,10.3-18,11.8-8.2,1.9-15.9.9-23.4-3.7-9.9-6-15.9-15.9-18-28.8-2.1-12.5-1.1-24.7,4.5-35.7,5.4-10.5,13.3-16.8,23.4-18.9,7.3-1.5,14.2-.6,21.1,3,10.3,5.8,16.8,15.7,19.3,29,.6,3.9.9,7.7,1.3,11.6h0ZM2028.5,74.4c0-2.6,0-5.2-.6-7.5-1.3-10.1-5.2-18.3-12.2-23.8-5.8-4.5-12.2-6-19.1-4.9-10.3,1.7-17.4,8.4-21.5,19.8-3,8.2-3.2,16.5-1.9,25.3,1.5,9.7,5.4,17.6,12,23.2,5.2,4.1,11,5.6,17.2,5.2,6.4-.4,12.2-3,17.2-8.6,6.4-7.7,9.2-17.4,9-28.1v-.4h0Z"/>
  <path class="cls-1" d="M1769,74.6c0,12.9-3.4,24.3-11.2,33.3-4.7,5.4-10.3,8.8-16.5,10.1-7.3,1.7-14.6,1.1-21.7-2.6-10.1-5.4-16.8-14.8-19.3-27.7-3-14.6-1.7-28.6,6-41,5.4-8.8,12.9-14,21.9-15.7,10.7-1.9,20.6.9,29,9.7,6.7,7.1,10.3,16.1,11.6,26.9.2,2.4.4,4.9.4,7.3h0l-.2-.2ZM1733.7,111.6c1.7,0,3.4,0,4.9-.6,8.6-1.7,14.8-7.1,19.1-16.3,4.1-9.2,4.7-18.9,3.2-29-1.3-7.7-4.1-14.6-9-19.8-6.4-6.7-13.7-9-22.1-7.7-9,1.3-15.9,6.9-20.2,16.5-3.9,8.6-4.7,17.8-3.4,27.5,1.9,16.5,12.7,29.6,27.5,29.4h0Z"/>
  <path class="cls-1" d="M1154.8,74.4c0-12.7,3.4-23.6,10.7-32.4,6-7.1,13.3-10.7,21.7-11.6,5.6-.4,11,0,16.1,2.8,10.7,5.4,17.6,15,20.4,28.8,3,15.7,1.3,30.3-7.5,43-5.2,7.5-12,11.8-20,13.3-8.2,1.7-15.9.4-23.2-4.3-9.7-6.2-15.3-16.1-17.6-29.2-.6-3.4-.6-6.9-1.1-10.5h.4v.2ZM1189.8,111.4h3.2c.6,0,1.1,0,1.7-.4,9.9-1.9,16.5-8.8,20.6-19.8,3-8.2,3.2-16.8,1.9-25.3-1.3-8.8-4.7-16.3-10.5-21.7-6.2-5.6-13.1-7.5-20.8-6.2-7.9,1.3-14.4,5.8-18.9,14.2-5.2,9.5-6.2,20.2-4.5,31.1,2.6,16.8,13.3,28.6,27.3,28.1Z"/>
  <path class="cls-1" d="M1533.1,81.7c6,12,11.8,24.1,18,36.5h-7.7c-.4,0-1.1-.9-1.3-1.5-5.2-10.7-10.3-21.3-15.5-32-1.1-2.1-2.1-3-4.1-2.8h-10.5v34.4c0,1.9-.4,2.4-1.9,2.4s-3.9.6-4.5-.4c-.9-1.1-.4-3.7-.4-5.8V34.4c0-1.9.6-2.8,2.1-2.8h22.1c7.7.4,14.6,3.7,18.7,12.7,4.7,10.5,2.8,26.2-6.2,32.9-2.6,1.9-5.6,3-8.6,4.7h0l-.2-.2ZM1512.3,38.3c0,.6-.2.9-.2,1.1v33.9c0,1.3.4,1.5,1.3,1.5,5.8,0,11.4,0,17-.4,3.4,0,6.4-1.9,9-5.2,3.2-4.1,3.9-9,3.9-14.6,0-8.2-4.5-15-11.4-15.7-6.4-.6-13.1-.6-19.5-.9h0v.2Z"/>
  <path class="cls-1" d="M1493.4,118.2h-6.7c-.4,0-.9-.9-1.1-1.5-1.7-5.4-3.4-11-4.9-16.5-.6-1.9-1.3-2.8-3-2.8h-28.6c-1.5,0-2.1.6-2.6,2.1-1.7,5.6-3.4,11.2-4.9,17-.4,1.3-.9,1.7-2.1,1.7h-5.8c.9-2.6,1.5-4.7,2.1-7.1,7.1-23.4,14.2-46.8,21.3-70,.6-2.4,1.3-4.7,2.1-6.9.2-.6,1.1-1.3,1.7-1.5h5.2c1.3,0,1.9.6,2.4,2.1,2.1,7.7,4.5,15.3,6.9,22.8,5.8,19.5,11.8,39.3,17.6,58.9,0,.4.2,1.1.4,1.7h0ZM1477.7,90.1c-4.7-15.7-9.2-31.1-14-46.4h-.4c-4.5,15.5-9.2,30.7-14,46.4h28.4Z"/>
  <path class="cls-1" d="M1824.8,60.9v-27.1c0-1.7.2-2.6,1.9-2.4h3.2c1.5,0,1.9.6,1.9,2.4v53.5c0,4.5.6,8.8,2.1,12.9,3,7.5,8.4,10.7,14.8,11.4,2.8,0,5.8,0,8.6-1.1,6.9-2.1,10.5-8.2,11.6-16.5.6-4.3.6-8.6.6-12.7v-47c0-1.9.4-2.8,2.1-2.6h2.8c1.7,0,1.9.6,1.9,2.6v50.9c0,5.6-.4,11.2-2.1,16.5-2.8,8.4-8.2,13.7-15.3,16.1-6.7,2.1-13.1,1.9-19.5-1.1-7.9-3.9-12.5-11.2-14-21.5-.4-3.4-.6-7.1-.6-10.7v-23.4h0l-.2-.2Z"/>
  <path class="cls-1" d="M1143.2,51h-6.4c-.4,0-1.1-.9-1.3-1.3-1.9-6.9-7.3-11.4-13.1-12-3.7,0-7.3,0-10.5,2.1-4.7,2.8-6.9,7.5-6.9,13.7s3,11.2,7.9,13.5c4.9,2.1,9.9,3.9,14.8,5.8,4.3,1.7,8.4,3.4,11.6,7.5,3.9,4.9,4.9,10.7,4.3,17.2-.9,9.9-5.6,16.3-13.1,19.3-9.7,3.9-19.1,3-27.5-5.4-3.9-3.9-5.8-9-6-15.5h6.7s.6.6.9,1.1c2.1,11.8,10.5,15.7,19.3,14.4,3.9-.6,7.1-2.1,9.7-5.6,5.2-6.9,4.9-20.6-6-24.9-5.2-2.1-10.5-3.9-15.7-5.8-4.3-1.7-8.2-3.9-11-8.4-3-4.7-3.4-10.1-3-15.9,1.1-13.1,11.4-19.8,19.8-20.2,5.2-.4,10.3,0,15,3,5.6,3.4,9.2,9,10.3,16.8v.9-.4h.2Z"/>
  <path class="cls-1" d="M1687.3,51h-7.1c-.2,0-.6-.9-.9-1.3-1.9-6.9-7.1-11.4-13.1-11.8-3.7,0-7.1,0-10.5,2.1-5.2,3.2-7.3,8.4-6.9,15.3.4,6,3.4,9.9,7.5,11.8,5.4,2.6,10.7,4.3,16.1,6.4,3.4,1.5,7.1,3,9.9,6.2,4.5,4.9,5.8,11.2,5.2,18-1.3,13.1-10.5,20.4-19.8,21.3-6.2.4-12-.4-17.4-4.3-4.9-3.4-7.9-8.8-9-15.5-.4-2.6,0-2.8,1.9-3,3.2-.4,5.2,0,6.4,4.9,1.7,6.2,6,9.7,11.6,10.5,4.9.9,9.5.4,13.7-3,3.9-3,5.8-7.7,5.8-13.3s-2.8-11.2-7.7-13.5c-4.9-2.1-10.1-3.9-15-5.8-2.6-1.1-5.2-2.1-7.5-3.7-5.2-3.4-8.2-8.6-8.6-16.1-.4-7.9,1.3-14.4,6.2-19.5,2.8-2.8,6-4.7,9.5-5.6,6.9-1.7,13.7-1.5,20,2.8,5.4,3.7,8.6,9,9.7,17h0Z"/>
  <path class="cls-1" d="M2158.5,51h0c-2.1.4-3.4-.4-4.5-3.2-2.4-6.4-6.7-9.5-12.5-10.1-3.4-.4-6.9,0-10.1,1.7-5.2,2.8-7.7,7.7-7.5,14.6,0,6.7,3.4,10.7,8.2,12.9,4.5,2.1,9,3.7,13.7,5.4,4.3,1.7,8.6,3.2,12,7.1,3.2,3.7,4.9,8.2,5.2,13.5,0,6.2-.9,11.8-4.3,16.8-3.7,5.4-8.6,7.9-14,8.8-5.6,1.1-11.2.4-16.5-2.4-6.7-3.4-10.5-9.7-11.8-18.3,0-1.1,0-1.7,1.1-1.7h.9c3.2-.4,5.4,0,6.7,4.7,1.9,7.5,7.3,10.5,13.7,11,4.3,0,8.4-.4,12-3.4,4.1-3.7,6-8.6,5.4-14.6-.4-6.2-3.7-10.1-8.2-12.2-4.7-2.1-9.7-3.7-14.6-5.6-4.5-1.7-8.8-3.7-12.2-7.9-6-7.7-5.8-24.7,3.4-32.2,4.1-3.4,8.4-4.9,13.3-5.2,4.9-.4,9.9,0,14.4,3,5.2,3.2,8.6,8.2,10.1,15,.4,2.1,0,2.4-1.5,2.4h-2.4Z"/>
  <path class="cls-1" d="M1571.8,38.1v32.7h25.1c1.3,0,1.9.4,1.9,2.1,0,3.2-1.3,4.9-3.9,4.9h-22.8v33.1h27.9c1.5,0,1.9.4,1.9,2.4,0,3.2-1.3,4.9-4.1,4.9h-30.9c-1.5,0-1.9-.6-1.9-2.4V34c0-1.9.4-2.6,2.1-2.6h32.7c1.5,0,2.1.4,1.9,2.4,0,2.8-1.3,4.3-3.7,4.3h-26.4,0Z"/>
  <path class="cls-1" d="M1245.2,77.8v37.8c0,1.7-.2,2.8-1.9,2.6-1.5-.2-3.9.4-4.5-.4-.9-1.1-.4-3.7-.4-5.8V34c0-1.9.6-2.8,2.1-2.8h33.9c1.5,0,1.9.4,1.9,2.4,0,3-1.3,4.5-3.7,4.5h-25.6c-1.5,0-2.1.4-2.1,2.6v28.1c0,1.7.4,2.4,1.9,2.4h22.8c1.5,0,1.9.4,1.9,2.4,0,3-1.3,4.5-3.7,4.5h-23,.2v-.2Z"/>
  <path class="cls-1" d="M1310.1,78.3v37.4c0,2.1-.4,2.8-2.1,2.6h-3c-1.5,0-1.7-.6-1.7-2.1V40.9c0-2.1-.4-2.8-2.1-2.8h-16.1c-1.3,0-1.7-.4-1.7-2.1,0-3.2,1.3-4.7,3.9-4.7h40.6c1.7,0,2.1.4,2.1,2.6s-1.3,4.3-3.7,4.3h-14.4c-1.5,0-1.7.6-1.7,2.1v38h0Z"/>
  <path class="cls-1" d="M1914,78.1v37.8c0,1.9-.4,2.6-1.9,2.4h-3.7c-.9,0-1.3-.4-1.3-1.5V41.1c0-1.9-.9-2.8-2.4-2.8h-15.9c-1.3,0-1.7-.4-1.7-2.1,0-3.2,1.3-4.7,3.9-4.7h40.6c1.5,0,2.1.4,1.9,2.4,0,3-1.3,4.5-3.7,4.5h-14.2c-1.3,0-1.9.4-1.9,2.1v37.8h.2v-.2Z"/>
  <path class="cls-1" d="M1789.2,110.9h23.4c1.5,0,1.9.4,1.9,2.4,0,3.2-1.3,4.9-4.1,4.9h-26.6c-1.5,0-1.7-.4-1.7-2.1V33.8c0-1.7.4-2.6,1.9-2.4,1.5,0,3.7-.4,4.7.6.9.9.4,3.7.4,5.6v70.7c0,23.6,0,1.7,0,2.8h0v-.2Z"/>
  <path class="cls-1" d="M1945.1,74.6v-41c0-1.7.4-2.6,1.9-2.4,1.5,0,3.7-.4,4.7.6.9.9.4,3.7.4,5.6v78c0,1.9-.9,2.8-2.4,2.8s-3-1.9-4.5-5.6v-38s-.2,0-.2,0Z"/>
</svg>