<?xml version="1.0" encoding="UTF-8"?>
<svg id="Layer_1" data-name="Layer 1" xmlns="http://www.w3.org/2000/svg" version="1.1" viewBox="0 0 134.1 343.7">
  <defs>
    <style>
      .daguaro_cls-1 {
        fill: #ffc654;
      }

      .daguaro_cls-1, .daguaro_cls-2, .daguaro_cls-3 {
        stroke-width: 0px;
      }

      .daguaro_cls-2 {
        fill: #563617;
      }

      .daguaro_cls-3 {
        fill: #597b73;
      }

      .daguaro_cls-4 {
        display: none;
      }
    </style>
  </defs>
  <g id="LOGO_OUTLINE" class="daguaro_cls-4">
    <path class="daguaro_cls-1" d="M53.1,3.3c1.7,0,3.7,1.1,5.9,3.1l.5,2.6v.7c.1,0,.6.6.6.6,1,1.2,1.8,1.8,2.6,2.1l2.6,5.9,2.8-5.9s0,0,.1,0c.7-.3,1.8-.9,3-2.3l.4-.5.2-.6.7-2.6c2.2-2,4.2-3,5.9-3s2.9.8,4.3,2.4c6.3,7.1,9.2,26,8,35.3-.2,2-.3,4,.9,5.3.7.8,1.6,1.2,2.6,1.2,2.1,0,3.6-1.6,6.2-4.2,1.5-1.5,3.2-3.3,5-4.6h0s0,0,0,0c1.6-1.3,3.1-2,4.2-2,2,0,4.9,2.6,7.5,15,.9,4.6,1.4,13,.6,17.6h-.1c-1.5,8.1-13.1,18-23.8,20.4-.4,0-.9.1-1.3.1-2.1,0-3.8-1.4-6.1-3.9l-5.2-5.7v172.4c0,5.5,4.5,10,10,10h6.5c7.2,0,13-5.8,13-13v-121c0-6.1,4.9-11,11-11s9.5,4.8,9.5,9.5v124.8c0,14.1-10.6,26.2-24.6,28.1l-14.1,1.9c-6.5.9-11.3,6.3-11.3,12.9v46.3h-31.5v-78c0-7.2-5.8-13-13-13h-8.1c-7.1,0-14-2.9-18.9-8-4.2-4.4-6.6-10.1-6.6-16.1v-75.9c0-5.2,4.3-9.5,9.5-9.5s8.5,3.5,8.5,8.5v3h0v68.7c0,6.2,5.1,11.3,11.3,11.3h6.7c5.8,0,10.5-4.7,10.5-10.5V77.9l-5.1,5.1c-.5.5-1.1,1.1-1.6,1.6-2.4,2.5-4.5,4.7-7,4.7s-.9,0-1.3-.2c-10.6-2.7-21.8-12.9-23.1-21-.7-4.5,0-13,1.2-17.6,3-12.3,5.9-14.9,7.9-14.9s2.6.7,4.2,2.2h0s0,0,0,0c1.7,1.4,3.3,3.1,4.7,4.6,2.6,2.8,4.2,4.5,6.3,4.5s1.9-.4,2.6-1.2c1.2-1.3,1.2-3.3,1.1-5.3-.8-9.2,2.7-27.9,9.1-34.9,1.5-1.6,2.9-2.4,4.4-2.4M53.1.3c-11.7,0-17.5,28.5-16.5,40.6.2,2.3,0,3.2-.7,3.2-1.5,0-5-5.1-9.1-8.5-2.4-2-4.4-2.9-6.2-2.9-6.1,0-9.1,10.1-10.8,17.2-1.2,4.9-2,13.8-1.2,18.8,1.5,9.8,14.2,20.6,25.3,23.4.7.2,1.4.3,2.1.3,4.5,0,7.4-3.9,10.7-7.2v136.3c0,4.1-3.4,7.5-7.5,7.5h-6.7c-4.6,0-8.3-3.7-8.3-8.3v-71.7h0c0-6.4-4.6-11.5-11.5-11.5S0,143.1,0,150v75.9c0,6.8,2.7,13.3,7.4,18.2,5.6,5.7,13.2,8.9,21.1,8.9h8.1c5.5,0,10,4.5,10,10v81h37.5v-49.3c0-5,3.7-9.2,8.7-9.9l14.1-1.9c15.6-2.1,27.2-15.4,27.2-31.1v-124.8c0-6.9-4.8-12.5-12.5-12.5s-14,6.3-14,14v121c0,5.5-4.5,10-10,10h-6.5c-3.9,0-7-3.1-7-7V87.8c2.4,2.6,4.8,4.9,8.3,4.9s1.2,0,1.9-.2c11.3-2.5,24.3-13,26.1-22.8h0c0,.1,0,.1,0,.1.9-5,.4-13.9-.6-18.8-1.5-7.1-4.2-17.4-10.4-17.4s-3.8.8-6.1,2.7c-4.2,3.2-7.9,8.2-9.4,8.2s-.9-.9-.6-3.2c1.5-12.1-3.5-41-15.3-41s-5.4,1.3-8.6,4.4l-.9,3.4c-1.5,1.9-2.6,1.2-3.4,2.9-.7-1.6-1.5-.8-2.9-2.6l-.7-3.5c-3.2-3.3-6-4.7-8.6-4.7h0Z"/>
  </g>
  <g id="SAGUARO">
    <path class="daguaro_cls-3" d="M46.7,343.5v-80.9c0-5.6-4.5-10.1-10.1-10.1h-8.1c-7.8,0-15.5-3.2-21-8.9C2.7,238.7.1,232.3.1,225.6v-75.9c0-6.8,5.6-12.4,12.4-12.4s11.4,4.8,11.4,11.4h0c0,.1.1.1.1.1v71.6c0,4.6,3.8,8.4,8.4,8.4h6.7c4.2,0,7.6-3.4,7.6-7.6V83.2c0-9.6,7.8-17.4,17.4-17.4s9.7,2.1,13.6,5.8c4.1,3.9,6.3,8.9,6.3,14v166.5c0,4,3.1,7.1,7.1,7.1h6.5c5.6,0,10.1-4.5,10.1-10.1v-121c0-7.7,6.2-13.9,13.9-13.9s12.4,5.1,12.4,12.4v124.8c0,15.6-11.6,28.9-27.1,31l-14.1,1.9c-5.1.7-8.8,4.9-8.8,10v49.2h-37.2Z"/>
    <path class="daguaro_cls-3" d="M64.1,65.9c9.1,0,19.8,8.6,19.8,19.8v166.5c0,4.1,3.2,7.3,7.2,7.3h6.5c5.7,0,10.2-4.6,10.2-10.2v-121c0-7.6,6.2-13.8,13.8-13.8s12.2,5,12.2,12.2v124.8c0,15.5-11.6,28.8-27,30.9l-14.1,1.9c-5.2.7-8.9,5-8.9,10.1v49h-37v-80.8c0-5.7-4.6-10.2-10.2-10.2h-8.1c-7.8,0-15.4-3.2-20.9-8.8-4.7-4.9-7.3-11.3-7.3-18v-75.9c0-6.8,5.5-12.2,12.2-12.2s11.3,4.7,11.3,11.2v.2h0v71.4c0,4.7,3.8,8.6,8.5,8.6h6.7c4.3,0,7.8-3.5,7.8-7.8V83.2c0-9.5,7.7-17.2,17.3-17.2M64.1,65.7c-9.7,0-17.5,7.8-17.5,17.5v138c0,4.1-3.4,7.5-7.5,7.5h-6.7c-4.6,0-8.3-3.7-8.3-8.3v-71.7h0c0-6.4-4.6-11.5-11.5-11.5S0,142.8,0,149.7v75.9C0,232.4,2.7,238.9,7.4,243.8c5.6,5.7,13.2,8.9,21.1,8.9h8.1c5.5,0,10,4.5,10,10v81h37.5v-49.3c0-5,3.7-9.2,8.7-9.9l14.1-1.9c15.6-2.1,27.2-15.4,27.2-31.1v-124.8c0-6.9-4.8-12.5-12.5-12.5s-14,6.3-14,14v121c0,5.5-4.5,10-10,10h-6.5c-3.9,0-7-3.1-7-7V85.7c0-11-10.3-20-20-20h0Z"/>
  </g>
  <path id="HAT" class="daguaro_cls-2" d="M120.4,69.5c-1.8,9.8-14.8,20.3-26.1,22.8-8,1.7-10.7-7.6-17.1-11.1-4.1-2.5-10-1.7-12.7-4.2-2.5,2.9-8.8,1.8-13.2,4.2-6.5,3.3-9.6,12.5-17.5,10.6-11.1-2.8-23.8-13.6-25.3-23.4-.8-5,0-13.9,1.2-18.8,2.2-9.1,6.5-23.3,17-14.3,5.8,4.8,10.5,13,9.8,5.3-1.3-14.7,7.7-54,25.1-35.9l.7,3.5c1.4,1.8,2.2,1,2.9,2.6.8-1.7,1.9-1,3.4-2.9l.9-3.4c18-17.6,25.7,21.9,23.9,36.6-.9,7.7,4-.5,10-5,10.7-8.7,14.6,5.6,16.5,14.7,1,4.9,1.5,13.8.6,18.8h-.1Z"/>
</svg>