<?xml version="1.0" standalone="no"?>
<!DOCTYPE svg PUBLIC "-//W3C//DTD SVG 20010904//EN" "http://www.w3.org/TR/2001/REC-SVG-20010904/DTD/svg10.dtd">
<svg version="1.0" xmlns="http://www.w3.org/2000/svg" width="1024.000000pt" height="1024.000000pt"
    viewBox="0 0 1024.000000 1024.000000" preserveAspectRatio="xMidYMid meet">
    <metadata>
        Created by potrace 1.16, written by Peter Selinger 2001-2019
    </metadata>
    <g transform="translate(0.000000,1024.000000) scale(0.100000,-0.100000)" fill="#74C365" stroke="none">
        <path d="M4709 8790 c-63 -11 -123 -54 -151 -107 -14 -26 -40 -109 -57 -183
-56 -234 -184 -765 -187 -768 -5 -7 -123 59 -189 106 -38 27 -128 104 -199
172 -154 146 -200 172 -321 178 -100 5 -177 -21 -243 -81 -112 -104 -122 -252
-24 -382 44 -59 151 -134 242 -169 175 -68 543 -151 735 -164 l90 -7 3 -1092
2 -1093 -110 0 -109 0 -7 -37 c-9 -50 -28 -78 -70 -104 -42 -25 -112 -27 -152
-4 -136 81 -66 289 91 270 l47 -6 0 640 c0 436 -4 657 -11 693 -27 128 -113
237 -229 292 -60 28 -73 31 -165 30 -120 0 -183 -21 -262 -87 -97 -79 -143
-164 -163 -304 -10 -73 -14 -484 -4 -519 5 -18 10 -21 32 -15 15 4 28 14 28
22 1 8 2 22 3 32 1 11 9 17 26 17 22 0 25 -4 25 -38 0 -34 3 -38 23 -38 18 1
22 -4 22 -29 0 -25 -4 -30 -22 -28 -21 3 -23 -2 -23 -41 0 -41 2 -45 28 -48
19 -2 27 -9 27 -23 0 -15 -8 -21 -32 -23 -31 -3 -33 -5 -33 -43 0 -36 -2 -40
-22 -37 -19 2 -22 8 -20 34 3 28 0 32 -27 36 -17 3 -33 2 -36 0 -3 -3 -5 -174
-5 -381 0 -341 2 -383 20 -456 66 -263 257 -453 541 -536 64 -18 107 -22 332
-26 l257 -6 0 -998 0 -999 155 0 155 0 0 808 -1 807 -42 21 c-80 39 -124 138
-97 219 15 46 61 99 99 115 38 15 41 34 41 251 l0 179 -32 14 c-18 7 -44 26
-58 41 -21 22 -25 37 -25 85 0 69 21 105 78 133 l37 19 0 369 c0 297 -3 369
-13 369 -7 0 -28 16 -47 35 -27 28 -34 44 -38 87 -3 44 0 59 20 88 13 19 36
41 52 48 l28 14 -4 519 -3 520 40 -3 40 -3 3 -517 2 -516 29 -10 c16 -6 41
-27 57 -48 57 -74 30 -186 -51 -215 l-35 -13 0 -367 0 -368 30 -18 c41 -24 74
-94 67 -140 -8 -45 -31 -81 -68 -101 l-29 -17 0 -207 0 -208 33 -14 c48 -20
105 -83 118 -129 23 -87 -40 -204 -120 -222 l-31 -7 0 -809 0 -809 170 0 170
0 0 284 0 284 -37 19 c-68 35 -94 133 -53 200 77 127 270 69 270 -82 0 -47
-30 -101 -65 -117 l-25 -11 0 -289 0 -288 155 0 155 0 0 319 0 319 -30 12
c-70 29 -99 124 -61 198 72 141 286 86 286 -73 0 -62 -23 -101 -73 -125 l-32
-15 0 -317 0 -318 145 0 145 0 0 1050 0 1050 273 0 c149 0 301 5 337 10 159
25 319 144 408 304 109 197 112 216 119 819 l6 497 -38 0 c-36 0 -37 -1 -33
-31 3 -21 0 -33 -12 -39 -23 -12 -30 -3 -30 37 0 30 -3 33 -30 33 -27 0 -30 3
-30 30 0 25 4 30 25 30 23 0 25 4 25 44 0 39 -3 45 -22 48 -17 2 -24 11 -26
31 -3 23 0 27 22 27 21 0 26 5 26 25 0 21 5 25 30 25 25 0 30 -4 30 -25 0 -21
5 -25 31 -25 l31 0 -7 118 c-4 71 -15 141 -27 177 -65 202 -261 329 -455 297
-136 -23 -235 -99 -301 -231 l-37 -75 -3 -482 -3 -482 56 -1 c93 -1 145 -56
145 -152 0 -56 -31 -103 -80 -123 -52 -21 -75 -20 -127 3 -46 21 -72 54 -82
104 l-7 32 -107 3 -107 3 0 244 0 245 -30 0 c-28 0 -30 -3 -30 -35 0 -28 -4
-35 -20 -35 -16 0 -20 7 -20 35 0 32 -2 35 -30 35 -27 0 -30 3 -30 30 0 25 4
30 25 30 22 0 25 4 25 35 0 31 -3 35 -25 35 -20 0 -25 5 -25 25 0 20 5 25 24
25 21 0 25 5 28 38 3 32 6 37 28 37 22 0 25 -4 25 -35 0 -31 3 -35 27 -38 l28
-3 2 573 3 572 135 18 c413 53 698 148 826 273 139 137 158 293 49 414 -20 22
-62 53 -93 68 -50 25 -68 28 -152 28 -137 0 -176 -21 -355 -195 -132 -128
-232 -205 -317 -246 -21 -10 -40 -16 -42 -13 -2 2 -21 78 -41 169 -55 249
-154 657 -176 725 -30 92 -88 146 -176 165 -99 21 -132 1 -304 -187 l-75 -83
-52 0 -53 0 -127 129 c-82 83 -137 132 -155 135 -56 12 -73 13 -108 6z m180
-228 c95 -98 125 -122 165 -135 60 -20 155 -22 199 -3 18 7 82 66 143 130 99
104 114 116 145 116 60 0 62 -8 18 -98 -38 -79 -39 -84 -29 -135 5 -28 19
-101 30 -162 10 -60 28 -152 40 -204 11 -52 19 -95 17 -97 -1 -1 -253 -4 -560
-6 l-557 -3 6 30 c20 102 137 595 146 618 15 38 54 67 91 67 25 0 49 -19 146
-118z m-1195 -517 c22 -10 89 -66 150 -124 197 -186 329 -271 525 -341 252
-90 409 -113 766 -113 282 -1 346 5 564 49 312 64 506 172 776 434 87 85 106
99 145 105 61 11 98 8 145 -9 39 -14 40 -14 15 -23 -14 -6 -56 -16 -95 -23
-38 -7 -75 -15 -81 -19 -16 -8 -180 -157 -229 -207 -58 -58 -249 -187 -347
-233 -306 -144 -801 -203 -1232 -146 -105 14 -176 30 -450 103 -36 9 -60 21
-63 31 -2 9 -52 41 -110 70 -119 61 -239 147 -369 266 -111 102 -160 135 -202
135 -38 0 -85 -27 -75 -44 3 -6 3 -8 -2 -4 -4 4 -16 1 -27 -6 -15 -11 -27 -12
-51 -4 -18 6 -36 14 -41 19 -13 12 37 73 76 93 44 22 158 18 212 -9z m1935
-211 c8 -7 40 -145 41 -171 0 -16 -7 -24 -22 -27 -108 -22 -189 -29 -423 -33
-212 -4 -304 -2 -424 11 -251 27 -377 60 -367 94 3 9 10 37 16 62 6 25 14 53
17 63 5 18 28 18 581 12 317 -3 579 -8 581 -11z m1 -1513 l0 -859 34 -20 c43
-26 66 -60 73 -110 7 -53 -26 -117 -72 -139 l-35 -17 0 -175 0 -176 33 -16
c17 -9 43 -31 55 -50 20 -28 23 -44 20 -92 -3 -46 -10 -63 -33 -86 -15 -17
-37 -31 -49 -33 -21 -3 -21 -3 -24 -481 l-2 -478 -43 3 -42 3 -3 476 -2 476
-25 11 c-40 18 -65 69 -65 131 0 51 2 57 45 98 l45 43 0 175 c0 173 0 176 -22
184 -102 40 -107 203 -7 259 l29 17 0 851 c0 468 3 854 7 857 3 4 24 7 45 7
l38 0 0 -859z m-402 348 l2 -495 35 -12 c64 -24 107 -103 91 -167 -9 -37 -63
-93 -96 -100 l-30 -7 0 -451 0 -452 30 -17 c91 -52 91 -194 -1 -246 l-29 -17
0 -346 0 -347 25 -16 c85 -56 85 -193 0 -246 -42 -26 -119 -27 -161 -1 -90 55
-82 207 13 251 l33 15 0 346 0 345 -35 17 c-37 18 -75 79 -75 122 0 41 38 104
76 127 l34 20 0 457 0 458 -23 12 c-76 40 -74 190 2 231 21 11 21 17 21 510 0
538 -3 510 55 506 l30 -2 3 -495z m1382 86 c30 -32 53 -32 79 1 17 22 22 23
40 12 12 -7 21 -16 21 -20 0 -8 -20 -28 -48 -47 -16 -11 -19 -18 -10 -28 6 -7
16 -13 23 -13 6 0 17 -11 23 -24 8 -18 7 -27 -6 -40 -15 -15 -19 -13 -49 16
l-34 33 -25 -33 c-29 -36 -39 -39 -61 -16 -14 14 -13 19 18 50 l34 35 -34 28
c-30 24 -32 30 -22 49 15 28 22 28 51 -3z m-2839 -178 c39 -26 69 -79 69 -122
0 -45 -40 -105 -82 -128 l-38 -19 0 -231 0 -232 30 -17 c91 -52 92 -196 0
-243 l-30 -16 0 -311 0 -312 57 -58 57 -58 288 0 288 0 0 -40 0 -40 -140 0
-140 0 0 -45 c0 -43 1 -45 30 -45 27 0 30 -3 30 -30 0 -27 -3 -30 -30 -30 -28
0 -30 -3 -30 -35 0 -31 -3 -35 -25 -35 -22 0 -25 4 -25 34 0 30 -3 35 -27 38
-22 2 -28 8 -28 28 0 20 6 26 28 28 25 3 27 7 27 48 l0 44 -142 0 -143 0 -80
86 -80 85 3 324 4 323 -36 12 c-51 17 -80 62 -81 126 0 62 22 98 78 129 l37
20 0 232 c0 220 -1 232 -19 238 -11 3 -34 22 -50 41 -27 30 -31 43 -31 89 0
51 3 58 43 100 41 43 46 45 99 45 41 0 64 -6 89 -23z m2611 -209 c3 -28 8 -34
31 -36 21 -3 27 -8 23 -19 -3 -8 -6 -21 -6 -29 0 -10 -8 -14 -22 -12 -20 3
-23 -2 -26 -34 -3 -34 -1 -37 25 -40 20 -2 29 -9 31 -25 3 -20 -1 -23 -27 -23
-29 0 -31 -2 -31 -40 0 -35 -3 -40 -22 -40 -20 0 -23 5 -23 37 0 34 -3 38 -27
41 -22 3 -28 9 -28 28 0 20 5 24 31 24 29 0 30 2 27 38 -3 32 -7 37 -31 40
-23 3 -28 8 -25 25 2 16 11 23 31 25 24 3 27 8 27 38 0 27 4 34 19 34 15 0 21
-8 23 -32z m365 -248 c42 -25 63 -68 63 -127 0 -63 -39 -122 -81 -123 -13 0
-17 -22 -22 -142 -4 -79 -7 -220 -7 -313 l0 -170 30 -28 c111 -105 7 -286
-142 -246 -23 6 -51 25 -76 54 l-40 45 -276 0 -276 0 0 40 0 40 280 0 280 0
14 34 c16 39 47 63 93 72 l30 6 5 253 c7 325 5 348 -33 362 -62 24 -89 126
-49 191 42 69 139 94 207 52z m-2757 -84 c0 -28 4 -35 23 -38 14 -2 22 -10 22
-23 0 -13 -8 -21 -22 -23 -18 -3 -23 -10 -23 -33 0 -24 4 -29 25 -29 21 0 25
-5 25 -30 0 -25 -4 -30 -25 -30 -23 0 -25 -4 -25 -41 0 -36 -2 -40 -22 -37
-19 2 -24 10 -26 41 -3 32 -7 37 -28 37 -20 0 -24 5 -24 30 0 25 4 30 25 30
21 0 25 5 25 30 0 25 -4 30 -25 30 -34 0 -37 47 -3 52 14 2 24 11 26 23 6 37
11 45 32 45 16 0 20 -6 20 -34z m2182 -1158 c-3 -36 -2 -38 27 -38 28 0 31 -3
31 -30 0 -27 -3 -30 -30 -30 -28 0 -30 -2 -30 -40 0 -37 2 -40 29 -40 23 0 30
-5 33 -25 6 -30 2 -35 -31 -35 -23 0 -26 -4 -26 -37 0 -34 -3 -38 -25 -38 -22
0 -25 5 -28 38 -3 34 -6 37 -33 37 -27 0 -30 3 -27 28 2 21 9 28 31 30 24 3
27 7 27 43 0 37 -2 39 -31 39 -27 0 -30 3 -27 28 2 21 9 28 31 30 23 3 27 8
27 36 0 39 7 48 35 44 17 -3 19 -9 17 -40z" />
        <path d="M2634 6673 c-22 -23 -25 -35 -21 -68 7 -48 36 -75 82 -75 46 0 75 27
82 77 5 35 2 45 -20 67 -36 36 -89 36 -123 -1z" />
        <path d="M7535 6675 c-68 -67 12 -179 96 -135 10 6 26 24 34 40 42 82 -65 160
-130 95z" />
        <path d="M2594 6330 c-31 -12 -54 -49 -54 -87 0 -35 18 -83 32 -83 4 0 8 -177
8 -393 l0 -392 108 -108 108 -107 179 4 180 5 3 55 3 55 -160 3 -160 3 -66 65
-65 64 0 371 c1 309 3 373 15 389 20 26 19 81 -2 116 -26 45 -78 61 -129 40z" />
        <path d="M7594 6329 c-48 -24 -67 -99 -39 -149 12 -20 14 -94 15 -400 l0 -375
-58 -63 -58 -62 -142 0 -143 0 3 -57 3 -58 159 -3 159 -3 98 98 98 98 4 397
c4 387 5 397 26 423 30 39 29 104 -3 134 -27 26 -90 36 -122 20z" />
        <path d="M2922 5680 c-21 -9 -42 -46 -42 -75 0 -8 11 -26 23 -41 46 -53 127
-24 127 46 0 54 -57 91 -108 70z" />
        <path d="M7285 5665 c-14 -13 -25 -36 -25 -50 0 -35 42 -75 79 -75 35 0 71 39
71 77 0 32 -42 73 -75 73 -14 0 -37 -11 -50 -25z" />
        <path d="M2250 5443 c-78 -28 -57 -163 25 -163 47 0 64 8 80 40 22 43 3 98
-40 116 -37 15 -42 15 -65 7z" />
        <path d="M7940 5418 c-28 -31 -34 -61 -18 -95 29 -60 104 -65 139 -9 50 80
-58 172 -121 104z" />
        <path d="M2450 5122 c-62 -63 -44 -158 37 -194 54 -24 90 -18 127 21 33 34 45
76 34 118 -21 81 -139 114 -198 55z" />
        <path d="M7672 5137 c-35 -20 -55 -57 -55 -101 0 -52 23 -89 70 -111 126 -60
226 129 111 209 -27 19 -94 20 -126 3z" />
        <path d="M3090 4723 c-34 -13 -60 -47 -60 -80 0 -90 128 -116 158 -32 23 63
-38 134 -98 112z" />
        <path d="M2310 4633 c-84 -27 -90 -50 -90 -344 0 -266 6 -296 61 -324 43 -23
547 -22 590 1 43 22 69 83 69 167 l0 67 349 0 349 0 8 -87 c4 -49 4 -213 1
-365 l-7 -277 74 -76 73 -75 186 0 187 0 0 -200 0 -200 -256 0 c-157 0 -263
-4 -275 -10 -18 -10 -19 -24 -19 -240 l0 -230 55 0 55 0 0 180 0 180 220 0
220 0 0 -180 0 -180 60 0 60 0 0 818 c0 907 3 862 -64 862 -17 0 -37 -5 -44
-12 -9 -9 -12 -98 -12 -340 l0 -328 -157 0 -158 0 -42 40 -43 39 0 374 c0 354
-1 376 -19 398 l-19 24 -390 3 -390 3 -4 119 c-3 102 -6 123 -24 147 -38 51
-49 53 -329 52 -143 0 -267 -3 -275 -6z m202 -220 l67 -67 70 68 c62 59 73 66
91 56 11 -6 20 -16 20 -23 0 -6 -30 -42 -67 -79 l-67 -68 68 -69 c61 -61 67
-71 57 -90 -7 -11 -17 -21 -24 -21 -7 0 -42 29 -77 65 -35 36 -68 65 -73 65
-4 0 -37 -30 -72 -67 l-64 -68 -23 23 -22 22 69 70 69 70 -69 70 c-68 68 -68
70 -50 90 10 11 21 20 24 20 3 0 36 -30 73 -67z" />
        <path d="M7138 4624 c-45 -24 -52 -48 -56 -206 l-4 -148 -487 0 c-424 0 -489
-2 -509 -16 l-22 -15 0 -900 0 -899 55 0 55 0 2 853 3 852 453 3 452 2 0 -120
c0 -134 10 -173 55 -208 26 -20 39 -22 186 -22 l159 0 0 -223 c0 -160 3 -226
12 -235 7 -7 27 -12 45 -12 51 0 64 30 63 142 -1 51 -1 146 -1 211 l1 117 163
0 c179 0 198 5 234 59 23 34 23 37 23 360 0 290 -2 330 -18 361 -30 60 -29 60
-452 59 -320 0 -390 -2 -412 -15z m483 -206 c47 -42 59 -58 59 -83 l0 -30 13
25 c12 23 19 25 90 28 l77 3 -2 -173 -3 -173 -302 -3 -303 -2 0 175 0 175 73
0 c70 0 74 -1 84 -27 l11 -28 1 31 c1 26 12 41 63 83 35 28 67 51 71 51 5 0
35 -24 68 -52z" />
        <path d="M4704 4331 c-42 -25 -61 -80 -44 -122 19 -44 65 -79 107 -79 53 0
103 53 103 110 0 34 -6 48 -34 76 -40 40 -83 45 -132 15z" />
        <path d="M6613 3799 c-50 -10 -83 -36 -104 -82 -22 -50 -24 -86 -5 -130 31
-76 118 -112 194 -81 108 43 133 156 54 244 -40 45 -85 61 -139 49z" />
        <path d="M3234 3736 c-77 -34 -99 -127 -46 -187 23 -26 38 -33 79 -36 47 -5
54 -3 87 28 61 55 59 134 -4 180 -35 26 -79 32 -116 15z" />
        <path d="M7884 3436 c-57 -48 -26 -136 48 -136 39 0 78 40 78 80 0 38 -39 80
-74 80 -14 0 -37 -11 -52 -24z" />
        <path d="M2440 3441 c-14 -4 -35 -22 -47 -40 -22 -33 -23 -40 -23 -305 0 -240
2 -274 17 -296 34 -50 31 -49 340 -50 l291 0 30 25 c51 43 53 59 50 344 l-3
263 -37 34 -38 34 -277 -1 c-153 -1 -289 -4 -303 -8z m315 -93 c2 -13 6 -38 7
-57 2 -28 8 -36 31 -44 25 -8 33 -5 62 23 24 24 38 30 54 25 28 -9 27 -36 -4
-65 -24 -23 -31 -52 -19 -84 4 -12 20 -16 56 -16 48 0 49 -1 46 -27 -3 -25 -7
-28 -48 -31 -24 -2 -50 -8 -57 -14 -20 -16 -15 -45 10 -65 33 -26 39 -40 27
-63 -15 -29 -40 -25 -71 12 -24 29 -29 32 -55 23 -26 -9 -30 -16 -34 -60 -5
-45 -7 -50 -30 -50 -23 0 -25 4 -28 50 -4 53 -13 65 -53 65 -17 0 -33 -10 -47
-30 -26 -35 -58 -39 -67 -9 -5 16 1 30 25 54 26 27 31 39 26 59 -6 23 -11 26
-55 26 -51 0 -78 18 -68 44 4 10 24 16 58 18 48 3 53 6 62 32 9 26 6 33 -22
58 -34 31 -37 54 -9 72 14 8 24 4 52 -23 30 -29 38 -32 63 -24 24 8 28 15 31
54 2 24 8 49 14 56 16 20 37 15 43 -9z" />
        <path d="M2674 3188 c-26 -12 -44 -49 -44 -89 0 -42 56 -99 97 -99 57 0 103
46 103 103 0 75 -83 121 -156 85z" />
        <path d="M7187 3150 l-35 -30 -400 0 -401 0 -15 -22 c-14 -19 -16 -69 -16
-340 l0 -318 60 0 60 0 0 280 0 280 354 0 c317 0 355 -2 367 -17 20 -23 72
-43 113 -43 47 0 103 48 112 97 20 109 -116 186 -199 113z" />
        <path d="M3315 3108 c-43 -23 -58 -74 -35 -118 25 -47 116 -43 139 6 18 40 13
63 -18 95 -31 31 -53 35 -86 17z" />
        <path d="M7008 2751 l-36 -31 -157 0 -157 0 -29 -29 c-29 -29 -29 -31 -29
-140 l0 -111 60 0 60 0 0 85 0 85 119 0 119 0 42 -35 c36 -30 49 -35 92 -35
45 0 54 4 84 36 28 29 34 43 34 80 0 36 -6 51 -33 80 -28 31 -42 37 -84 41
-45 5 -53 2 -85 -26z" />
        <path d="M3468 2255 c-54 -36 -98 -67 -98 -70 0 -3 794 -5 1765 -5 971 0 1765
3 1765 8 0 4 -44 34 -98 67 l-97 60 -1570 3 -1570 3 -97 -66z" />
        <path d="M3204 2058 c-44 -33 -81 -62 -83 -64 -2 -2 98 -4 223 -4 l228 0 67
65 66 65 -211 -1 -212 0 -78 -61z" />
        <path d="M4068 2110 l-98 -5 -57 -57 -58 -58 185 0 186 0 57 58 c31 32 57 61
57 66 0 7 -69 6 -272 -4z" />
        <path d="M4567 2058 l-55 -63 625 -3 c345 -1 628 0 630 2 3 2 -17 32 -43 65
l-47 61 -528 0 -527 0 -55 -62z" />
        <path d="M5952 2110 c2 -5 27 -34 57 -65 l53 -55 184 0 c101 0 184 4 184 8 0
5 -27 34 -59 65 l-60 57 -181 0 c-111 0 -180 -4 -178 -10z" />
        <path d="M6600 2108 c0 -3 28 -31 63 -62 l62 -56 220 1 c210 0 219 1 195 17
-13 9 -53 39 -88 66 l-64 48 -194 -3 c-107 -2 -194 -7 -194 -11z" />
        <path d="M2685 1853 c41 -98 116 -166 223 -202 l62 -21 2188 2 2187 3 56 26
c76 36 130 86 168 158 17 32 31 62 31 65 0 3 -418 6 -928 6 l-928 0 -12 -46
c-7 -25 -26 -66 -43 -90 -27 -39 -34 -44 -69 -44 -50 0 -56 11 -26 47 31 37
56 87 56 113 0 20 -3 20 -500 20 -471 0 -500 -1 -500 -18 0 -22 36 -90 63
-119 24 -26 21 -31 -19 -39 -21 -4 -37 0 -58 17 -29 23 -76 110 -76 142 0 16
-52 17 -945 17 l-945 0 15 -37z" />
    </g>
</svg>