<?xml version="1.0" encoding="utf-8"?>
<!-- Generator: Adobe Adobe Illustrator 24.2.0, SVG Export Plug-In . SVG Version: 6.00 Build 0)  -->
<svg version="1.1" id="Layer_1" xmlns="http://www.w3.org/2000/svg" xmlns:xlink="http://www.w3.org/1999/xlink" x="0px" y="0px"
	 viewBox="0 0 1920.7 1010.5" style="enable-background:new 0 0 1920.7 1010.5;" xml:space="preserve">
<style type="text/css">
	.st0{fill:#F4DCDC;}
	.st1{fill:#597B73;}
	.st2{fill:#D39381;}
	.st3{fill:#F4EFEA;}
	.st4{fill:#7CA08E;}
	.st5{fill:none;}
	.st6{
		fill:#808080;
        stroke-width: 0px;
        animation: rotate 20s linear infinite;
        /* Assume the center of the cog is at (300px, 150px) */
        transform-origin: 892px 207px; /* Adjust these values to the calculated center */
	}

	.st3 {
		top: 250px;
		transform: translateX(-30vw);
		position: absolute;
		animation: move 11s linear 1s infinite;
		width: 150px;
	}

	@keyframes rotate {
		0% {
			transform: rotate(0deg);
		}
		100% {
			transform: rotate(360deg);
		}
	}      

	@-webkit-keyframes move {
	from {
		transform: translateX(-30vw);
	}
	to {
		transform: translateX(100vw);
	}
	}

	@-webkit-keyframes moveFirst {
	from {
		transform: translateX(50vw);
	}
	to {
		transform: translateX(100vw);
	}
	}
</style>
<g>
	<path class="st0" d="M519.4,641.2c-16.8,3.9-133.9,3.3-150.8,6.9c-11.3,2.5-38.9-16.2-43.5-30.6c-3.8-11.6-11.7-13.3-25.3-14.7
		c-22.1-2.3-44.2-6.6-65.7-11.7c-22.7-5.2-34.4-17-33.4-36.1c0.8-18.5,0.8-37-1.7-55.3c-2.1-16.6-8.5-32.8-11.5-49.4
		c-1.7-10.1,1.5-20.7-0.8-30.6c-1.7-8.1-8.1-15.6-15.9-23c-17.4,19.6-6.6,41.3-12.1,61.2c-27-4.6-34-12-38.2-37
		c-4.3-26.6-10-53.1-14-79.7c-1.5-10.5-3.4-22.2,0.8-31.9c7.9-18.1-1.7-34.1-5.9-50.5c-0.9-3.9-11.9-8.1-19.1-9
		c-12.7-1.7-37.6,20.1-34.6,29.9C53,297,60,314.1,66.8,332.6c-2.3,3-7.6,7.7-9.1,12.9c-11.5,41.2-37.8,80.3-28.9,124.2
		c7.4,37.1-14,69.7-28.7,103.3C0,580.5,0,585.3,0,587.2v331.6h465.7c-0.2-3.3,64.4,1,64.2-2.2c-6.8-92.6,10.5-182.9-10.5-275.1
		L519.4,641.2L519.4,641.2L519.4,641.2z"/>
	<path class="st0" d="M1203,539.8c-2.2,127.2-18.3,253.1-38.8,378.4H529.9v-2.6c-0.4-15.5-14.5-28.2-15.2-43.8
		c-0.2-5,13.1-13,12.8-18.1c-4.2-71.4-7.8-142-8.1-212.6v-0.4c9.4-4.7,18.7-9.5,28-14.1c21-10.4,42.1-20.8,63-31.3
		c4.2-8.2,11.2-16.5,12.3-25.2c5.8-47.5,10.4-95.2,15.5-142.9c0.4-3.5,1.6-7,2.5-10.5c32.7,8.9,32.6,8.9,33.1,35.5
		c0,6.8,0,14.1,3.3,19.9c11.3,20.8,7.2,46.5,27.3,64.4c0.5,4,0.9,7.8,1.4,11.8c-0.7,1.7-1.6,3.4-2.3,5.2c2,5.6,4.1,11.1,5.5,16.8
		c8.1,29.6,23.2,40.3,57.7,40.8c5.5,0,11.1,1.3,16.4,2.8c27.8,8.9,54.9,19,83,26.3c14.8,3.9,33.3,7.4,46.3,2.8
		c34.6-12.1,66.6-29.5,104.8-33c8.1-0.8,16.5-2.6,23.9-5.7c22.1-9,44-18.5,66-27.7c0.2,0,0.3,0,0.4-0.2c7.2-3,14.5-6.1,21.8-9
		c6-2.4,12-4.9,18-7.2c18.4-7.2,37-13.8,55.8-20.4L1203,539.8L1203,539.8z"/>
	<path class="st0" d="M1919.6,918.5H1107v-0.3h57.1c20.5-125.3,36.6-251.1,38.8-378.4l0,0v-0.4v0.4c-18.8,6.6-37.4,13.2-55.8,20.4
		c-6,2.4-12,4.8-18,7.2c11.9-6.1,34.5-17.5,83.6-40.6c41.5-19.5,39.1-10.5,53.9-14.8c9.6-2.8,14.3-1.6,18.2-6.3
		c15-18,29.3-36.7,39.1-56.1c7.1-14.2,2.7-30.9,10.3-45.1c26.8-49.1,19.2-101.4,43.8-151.5c20-40.6,11.4-86.8,15.3-130.5
		c0-10.2,5.7-16.8,24.4-18.6c7.1-0.8,16.2-6.1,18.7-10.7c6.2-11.8,17.3-17.1,37.2-19.9c21.6-3.1,42.1-9.9,62.5-15.6
		c13.3-3.7,26.8-12.7,38.9-11.8c38.1,3.1,85.6-4.4,103.6,28.3c1.2,2.2,8.8,3,11.3,5.3c8.6,7.5,18.2,14.8,23.9,23.1
		c4.7,7.2,4.2,15.6,6.2,23.4v288.8c6.9-12.2,16-21.4,16.7-30.7c4.7-63.4,7.4-127,12.1-190.3c0.5-6.7,12.5-19.1,15-19.1
		c18.7,3.3,47.5-0.8,48,19.4c1.2,35.9,1.5,72,3.7,108.1c0.5,7.5,8.9,14.7,12.1,22.3c4.1,9.8,9.1,19.9,9.8,30
		c2.9,36,4.4,71.9,5.9,107.8c1,23.5,18.9,40.5,46.5,52.7c2.8,0.9,2.9,0.4,16.2,6.1c2.2,0.4,12.6,4.2,14.7,4.6v169.5
		c0.6,78.1-0.6,71.2-1.2,223.2L1919.6,918.5L1919.6,918.5z"/>
	<path class="st0" d="M1147.2,560.2c18.4-7.2,37-13.8,55.8-20.4c-2.2,127.2-18.3,253.1-38.8,378.4h-57.1
		c28.6-125.3-3.2-214.4,0-341.5l0,0c0.2,0,0.3-0.2,0.4-0.2c8.7-2.2,8.3-2.1,21.8-9c6-2.4,12-4.9,18-7.2L1147.2,560.2L1147.2,560.2z"
		/>
</g>
<g>
	<path class="st1" d="M1648.9,716.2c-11.4,1.5-25,0.5-36.8,0.5s-13.8,0-18.4-2c6.7,0,13.3,0,19.9,0.2c11.4,0.2,22.8,0.5,34.1,0
		c0.3,0.4,0.7,0.8,1,1.3H1648.9L1648.9,716.2z"/>
	<path class="st1" d="M1177.8,831.2c1.3-12.9-0.5-26.7,2.9-39.3c1.5-3.7,5.3-5.8,8.9-7.4c24.6-10.4,31.8-38.2,36.9-64.5
		c2.7-13.3,5.1-26.1,6.7-39.7c0-11.5,9.8-36.5,0.4-44.3c-6.2-4-12.5,2.3-13.1,8.5c-2.6,12.1-6.1,33.6-11,54.8
		c-3,13.2-6.6,26.4-10.8,37c-3.4,11.1-19.2,34.8-20.8,16.1c-1-82,1-165.1-7.3-246.4c-0.9-3.8-3.4-8.2-7.6-8.3
		c-17.8,0-5.8,127.4-13.6,141.4c-16.1,0-17.6-40.6-28.2-49.2c-21.6-12.5-0.4,53.4,5.9,58.3c5.5,10,21.3,12.6,21.8,25
		c-1,23.9-0.8,48.1-2.4,71.9c0,4.1-1.8,9-6.7,6.7c-22.9-11.9-22.6-44.1-36-64.3c-8.6-8.6-11.9,3.4-10.4,11.8
		c4,23.9,8.9,50.1,27,67.2c6.2,6.2,17.5,5.3,22.3,12.9c2.5,7.9,2.1,18.2,3.4,26.6v31.9c4.7,5.4,26.1,10.3,32.1,13.9
		C1177.8,831.2,1177.6,838.9,1177.8,831.2L1177.8,831.2L1177.8,831.2z"/>
	<path class="st1" d="M475.6,866.8c-0.7-11.8-4.5-23.7,0.2-32.8c4.6-7.1,15-6.7,21.9-10.9c31.4-16,47.7-75.7,47.4-108.6
		c-0.7-7.8-7.6-12.1-13.7-6.3c-7.9,8.8-8.7,22.5-12.8,33.3c-3.8,13.3-10.4,26.3-19.6,36.3c-4.8,4.8-14,17.1-20.9,10.1
		c-4.9-88,1.5-178.3-1.4-266.9c-4.3-42.7-1.1-86.9-12.1-128.7c-2.8-9.6-12.6-17-21.7-10.8c-11.4,8.8-11,26.2-13.2,39.4
		c-10.8,150.7-13,301.5-24.3,452.5c-3.2,16.6-6,16.4,5.4,13.3c16.1-4.5,47.1-4.1,59-17l1.5,0.9l4.4,0.7v-4.5L475.6,866.8
		L475.6,866.8z"/>
	<path class="st1" d="M410.9,883c-8.9-140.7-12.6-284.3-22.7-425.8c-1.8-39.4-2.5-78.7-6.5-118c-1.9-15.7-0.5-39-11.8-50.9
		c-6.4-5.3-13.2-0.7-16.5,7.1c-6.9,20.5-6.3,43.7-6.8,65.5c0.2,17.4-2.1,34.6-2,52c0.2,75-3.1,149.8-2,224.9
		c0.7,16.9-5.1,20.2-16,6.6c-26.1-30.3-30.4-73-43-110c-4.9-13.7-22-20.3-27.8-3.4c-5.1,17.1-1.1,36.4,1.8,53.8
		c7,42.6,23.4,93.5,67.3,109c6.6,2.5,13.8,5.6,16.8,11.9c2.2,4.1,2.6,9.9,2.6,14.9c0.2,38.5,0.7,77,1.8,115.4
		c-0.7,20.5,4.3,42.2-0.3,62.5c-1.2,4.1-2.1,6.2-0.7,6.8c4,0.5,10.5-1.1,15-2c13.5-4.1,42.9-9.4,50.8-20.2l0,0V883z"/>
	<path class="st2" d="M893.5,100c74.5-0.8,125.6,81.7,96.5,148.6c-34.2,84.6-155.8,87-193.1,3.4C767.4,186.3,817.4,97.7,893.5,100
		C893.5,100,893.5,100,893.5,100z"/>
	<path class="st3" d="M1146.2,135.3c-0.5-3,1-3.5,2.5-3.7c9.8-2.3,19.6-5.6,29.6-7.9c15.8-5.4,39.9-6.8,46.1-24.9
		c9-31.9,38.5-54.1,69.4-62.7c36.3-11.9,73.8,9.7,91.6,41.7c2,5.5,4.2,13.4,7.8,3.1c3.1-7.6,13.8-2.2,18.7,0.5
		c6.8,4.6,12.6-1.3,19.2-3.4c17.6-1.4,37.5,13.1,41.8,30.3c2.8,31-42.1,25.9-63,26.9h-263.7V135.3z"/>
	<path class="st0" d="M900.1,687.6c-3.6,51.1-1.1,104.8-10.6,154.5c-11.6-4.3-9.3-65-11.9-79.2c-2.4-39.9-2.4-55.5-3.1-95.5
		c1.6,0,9.4,3,9.4,4.4c0.4,25.6-13.2,7.7,13.7,18.7C898.3,689.6,899.2,688.6,900.1,687.6L900.1,687.6L900.1,687.6z"/>
	<path class="st3" d="M759.7,493.7c-2.2-1-1.7-2.9-1.8-4.6C761.1,489.6,759.5,492,759.7,493.7z"/>
	<path class="st3" d="M757.9,489.1c-1.9-0.6-1.8-2.2-1.8-3.7C758.7,485.7,757.9,487.6,757.9,489.1z"/>
	<path class="st3" d="M253.5,472.4c0.6,0.7,1.1,1.5,1.7,2.2C253.6,474.6,253.1,473.8,253.5,472.4z"/>
	<path class="st3" d="M735.8,478.4c-0.7,0.6-1.4,1.1-2,1.7C733.8,478.8,734.6,478.3,735.8,478.4z"/>
	<path class="st5" d="M639.5,830.8c0.5,0.7,1,1.4,1.4,2"/>
	<path class="st4" d="M651,822.1c0.5,0.6,1,1.2,1.6,1.9C652.1,823.4,651.6,822.8,651,822.1z"/>
	<path class="st3" d="M264.8,895.8c0.6-0.6,1.2-1.2,1.8-1.8l0.2,0.2c-0.6,0.6-1.2,1.2-1.8,1.8L264.8,895.8z"/>
	<path class="st1" d="M1613.7,714.9c-6.6-0.2-13.3-0.3-19.9-0.2c-0.3,0-0.5-0.2-0.7-0.4c-7.6-4.1-9.2-13.9-17.6-17.4
		c-19.9-6.6-35.5-6.3-49-25.7c-12.6-18.1-19.1-40.5-20.9-62.3c-1.3-10.8,6.8-21.9,15.1-10.3c7.2,13,9.7,29.3,18,42.5
		c1.8,5.3,21.6,29.2,20,13.3c-4.2-15.4-6.9-31-6.9-47.3c0.2-14-0.7-28.2,0.7-42.1c0.6-8.3,8.3-16.4,14.7-7.6
		c5,7.2,4.8,17.2,6.1,25.7c1.5,12,3.3,22.8,5.8,35.2c10.3,45.1,20.8,42.7,26.7-1.8c7.2-35.8,8.1-72.1,8.5-108.7
		c0-16.9,2.2-33.6,1.9-50.6c0.9-11.5-2.7-56.8,14.4-54.6c3.9,1.3,5.9,5.2,7.2,10.4c4.8,72.9-0.6,146.5,2.2,219.6
		c0.5,20.4,0.3,40.7,0.3,61.1c-0.3,10.8,2.4,14.7,7.6,21.2C1636.5,715.4,1625.1,715.1,1613.7,714.9L1613.7,714.9L1613.7,714.9z"/>
	<path class="st1" d="M1912.5,698.7c-17.5,7.5-29.5,10-48.5,11.1c4.2-8.4,8.4-16.8,12.6-25.2c-7.2,3.5-14.4,6.9-21.6,10.4
		c-0.5-6.9-1-13.7-1.5-20.6c-5.8,6-11.6,12-17.5,18c-2.2-6.3-4.4-12.7-6.7-19c-2.9,7-5.8,14.1-8.7,21.1c-5.3-6.8-10.7-13.6-16-20.4
		c-2.1,7.6-4.1,15.2-6.2,22.8c-7.1-5.3-14.1-10.6-21.2-15.9c3.7,13.5,7.5,26.9,11.2,40.4c-10.4-3.4-20.8-6.8-31.3-10.2l26,32.1
		c-69-45.8-158.9-51.9-239.2-31.4c-80.2,20.5-152.3,65-218.7,114.4c-21.1,15.7-43.2,32.6-69.4,35.4c-31.5,3.4-60.9-14.2-89.7-27.3
		c-73.5-33.3-158.9-39.3-236.3-16.6c-67.7,19.9-131.5,61.1-202,58.1c-34.6-1.5-67.9-13.7-102.4-16.6s-73.9,6.5-91.4,36.4
		c-20.5-30.5-62-38.1-98.8-38s-75.5,4.9-108.8-10.8c-23.4-11-41.2-30.9-60.8-47.8c-31.4-27.1-68.6-47.3-108.3-59s-20.2-5.4-30.5-7.3
		c-11.6-2.1-18.3-1.1-29.5,1.5c-24,5.7-48.1,11.4-72.1,17.1l-34.3,6.9c0,51.9,3.3,205.8,3.4,256.7c639.5,9.7,1294.8,1.3,1934.6,0.6
		c-0.5-70.3-2.7-249.5-3.2-319.8l-13.1,2.9L1912.5,698.7L1912.5,698.7z"/>
	<path class="st1" d="M1648.9,716.2c-11.4,1.5-25,0.5-36.8,0.5s-13.8,0-18.4-2c6.7,0,13.3,0,19.9,0.2c11.4,0.2,22.8,0.5,34.1,0
		c0.3,0.4,0.7,0.8,1,1.3H1648.9L1648.9,716.2z"/>
	<path class="st3" d="M635.8,855.1c-0.6,0.5-1.3,0.9-1.9,1.4C634.5,856,635.2,855.6,635.8,855.1z"/>
	<path class="st1" d="M723.9,768.7c-1.5-8.5-8.9-7.7-11.8-0.5c-3.6,8.2-4.6,19-8.7,26.7c-5.3,10.3-9,4.9-8.6-3.7
		c-1.7-20.5,11.6-120.8-16.7-118.7c-8.2,1.2-12,10-13.2,17.5c-4.1,39.1-2,78.7-2.5,118.1c-0.7,6,1.8,15.9-3.2,20
		c-5.4,1-9.2-6.2-11.3-10.4c-5.2-6.4-6.5-44.7-16-40.2c-5.3,5.7-1.7,16.4-1.1,23.5c2.5,18.8,5.3,33,24.6,40.4
		c15.2,6.8,9,30.1,9.1,35.2c0.2,8.7,27.9,15.7,29.2,5.6l1.5-16.7l0,0c2.4-12.3-1.4-27.3,3.1-39c3.4-7,11.2-10.4,15.3-17
		C720.7,797.8,725.1,782.5,723.9,768.7L723.9,768.7L723.9,768.7z"/>
</g>
<path class="st6" d="M873.3,19.1c9.4,5.4,10.1,18.8,20.2,24.2c9,5.4,18.8-0.5,24.1-8.7c4.1-6,7.9-13.7,15.7-14.3
	c4-0.4,8.3,0.8,12.3,2c15.4,4.9,25.9,8,24.5,26.9c-0.3,7.6,1,16.1,7.2,20.9c4.8,3.8,11.9,3.8,17.5,1.7c2.9-1,5.7-2.5,8.6-3.8
	c10.3-5,18.1-2.1,25.7,6.3c4.4,4.9,9.4,9.9,11.7,16.1c1.5,4.1,1.2,8.5-0.3,12.5c-1.7,4.7-5.4,9.5-7.2,14.3
	c-1.8,4.7-2.3,10.1-0.3,14.8c2.9,7.1,10.7,10.4,18,11c12.8,0.8,20.2,1.5,24,16.3c2.1,9.8,6.9,23.6-1.1,31.6
	c-5.1,5.2-13.4,7.5-18.2,13.1c-6.4,6.8-6.3,16.1-0.4,23.2c5.8,7.3,18.2,10.9,19.5,21.2c1,7.5-2.1,14.8-4.2,21.8
	c-5,14.8-11.5,16.9-26.3,16.2c-7-0.1-14.7,2.2-18.4,8.3c-10.8,20.2,18.9,31-3.6,52.1c-5.1,4.8-10.2,10.2-17,12.3
	c-10.4,3.2-18.1-6.5-27.4-9c-8.7-2.6-17,1.3-20.4,10c-1.7,3.9-2.1,8.6-2.4,13c-0.9,17.8-12,20.3-26.6,23.2
	c-15.5,3.1-20.5-2.4-27.4-15.9c-5.1-9.3-15-15.2-24.6-9.3c-9.2,5-11.6,18-21.8,21.4c-7.3,2.4-15.1-0.8-22.1-3.1
	c-29.4-9.7-7.8-30.1-23.7-45.2c-5.9-5-14.3-4.1-21.1-0.9c-11.2,5.7-18.5,8.7-28.5-1.1c-5.2-5.4-10.8-10.9-14.2-17.7
	c-4.1-8.3,0.9-15.8,5.3-23.2c3.6-6.3,5.4-14.5,1.6-20.9c-3.4-6-10.5-8.6-17.1-9.2c-4.1-0.4-8.4-0.5-12.3-2
	c-9.1-3.2-11.6-12.7-13.4-21.9c-2.4-10.5-3.3-20.5,7-27.1c4.6-3.1,10.3-5.5,14-9.7c6.6-6.8,6.7-16.3,0.6-23.4
	c-3.4-4.3-8.8-7.1-12.9-10.7c-7.6-6.4-7.7-15.1-5.1-23.9c1.7-5.5,3.2-11.4,6.3-16.3c3.1-5,8-7.8,14.1-8.2c5.3-0.4,11.3,0.5,16.5-1.1
	c4.3-1.2,8.2-3.6,10.5-7.3c3.8-5.9,2.7-13.7-0.1-20.1c-1.2-2.8-2.6-5.6-3.6-8.4c-3.7-9.6,0.4-17.3,7.2-23.6
	c8.4-8.2,17.4-17.1,29.7-10.8c4.9,2.4,9.8,6.3,15.2,7.6c8.6,2.4,16.6-1.7,19.9-10.1c3.2-7.1,1.4-16.1,4.6-23.2
	c4.1-9,13.7-10.7,22.9-12.7C861.4,17,867.9,16.1,873.3,19.1L873.3,19.1z M1003.3,207.2c0.4-57.4-43.2-107.3-99.5-112.5
	c-62.3-7.3-119.2,43.9-121.4,106.9c-2.8,46.4,24.8,91.9,66.7,109.8c72.7,31.8,154.2-22.8,154.2-104L1003.3,207.2z"/>
</svg>
