<?xml version="1.0" encoding="UTF-8"?>
<svg id="Layer_1" data-name="Layer 1" xmlns="http://www.w3.org/2000/svg" version="1.1" viewBox="0 0 1920.7 1010.5">
  <defs>
    <style>
      .cls-1 {
        fill: #7ca08e;
      }

      .cls-1, .cls-2, .cls-3, .cls-4, .cls-5, .cls-6 {
        stroke-width: 0px;
      }

      .cls-2 {
        fill: #f4efea;
      }

      .cls-3 {
        fill: none;
      }

      .cls-4 {
        fill: #f4dcdc;
      }

      .cls-5 {
        fill: #d39381;
      }

      .cls-6 {
        fill: #597b73;
      }
    </style>
  </defs>
  <g>
    <path class="cls-4" d="M519.4,641.2c-16.8,3.9-133.9,3.3-150.8,6.9-11.3,2.5-38.9-16.2-43.5-30.6-3.8-11.6-11.7-13.3-25.3-14.7-22.1-2.3-44.2-6.6-65.7-11.7-22.7-5.2-34.4-17-33.4-36.1.8-18.5.8-37-1.7-55.3-2.1-16.6-8.5-32.8-11.5-49.4-1.7-10.1,1.5-20.7-.8-30.6-1.7-8.1-8.1-15.6-15.9-23-17.4,19.6-6.6,41.3-12.1,61.2-27-4.6-34-12-38.2-37-4.3-26.6-10-53.1-14-79.7-1.5-10.5-3.4-22.2.8-31.9,7.9-18.1-1.7-34.1-5.9-50.5-.9-3.9-11.9-8.1-19.1-9-12.7-1.7-37.6,20.1-34.6,29.9,5.3,17.3,12.3,34.4,19.1,52.9-2.3,3-7.6,7.7-9.1,12.9-11.5,41.2-37.8,80.3-28.9,124.2,7.4,37.1-14,69.7-28.7,103.3C0,580.5,0,585.3,0,587.2v331.6h465.7c-.2-3.3,64.4,1,64.2-2.2-6.8-92.6,10.5-182.9-10.5-275.1v-.3h0Z"/>
    <path class="cls-4" d="M1203,539.8c-2.2,127.2-18.3,253.1-38.8,378.4h-634.3v-2.6c-.4-15.5-14.5-28.2-15.2-43.8-.2-5,13.1-13,12.8-18.1-4.2-71.4-7.8-142-8.1-212.6v-.4c9.4-4.7,18.7-9.5,28-14.1,21-10.4,42.1-20.8,63-31.3,4.2-8.2,11.2-16.5,12.3-25.2,5.8-47.5,10.4-95.2,15.5-142.9.4-3.5,1.6-7,2.5-10.5,32.7,8.9,32.6,8.9,33.1,35.5,0,6.8,0,14.1,3.3,19.9,11.3,20.8,7.2,46.5,27.3,64.4.5,4,.9,7.8,1.4,11.8-.7,1.7-1.6,3.4-2.3,5.2,2,5.6,4.1,11.1,5.5,16.8,8.1,29.6,23.2,40.3,57.7,40.8,5.5,0,11.1,1.3,16.4,2.8,27.8,8.9,54.9,19,83,26.3,14.8,3.9,33.3,7.4,46.3,2.8,34.6-12.1,66.6-29.5,104.8-33,8.1-.8,16.5-2.6,23.9-5.7,22.1-9,44-18.5,66-27.7.2,0,.3,0,.4-.2,7.2-3,14.5-6.1,21.8-9,6-2.4,12-4.9,18-7.2,18.4-7.2,37-13.8,55.8-20.4h-.1Z"/>
    <path class="cls-4" d="M1203.1,539.8h0v-.4.4h0Z"/>
    <path class="cls-4" d="M1919.6,918.5h-812.6v-.3h57.1c20.5-125.3,36.6-251.1,38.8-378.4h0v-.4.4c-18.8,6.6-37.4,13.2-55.8,20.4-6,2.4-12,4.8-18,7.2,11.9-6.1,34.5-17.5,83.6-40.6,41.5-19.5,39.1-10.5,53.9-14.8,9.6-2.8,14.3-1.6,18.2-6.3,15-18,29.3-36.7,39.1-56.1,7.1-14.2,2.7-30.9,10.3-45.1,26.8-49.1,19.2-101.4,43.8-151.5,20-40.6,11.4-86.8,15.3-130.5,0-10.2,5.7-16.8,24.4-18.6,7.1-.8,16.2-6.1,18.7-10.7,6.2-11.8,17.3-17.1,37.2-19.9,21.6-3.1,42.1-9.9,62.5-15.6,13.3-3.7,26.8-12.7,38.9-11.8,38.1,3.1,85.6-4.4,103.6,28.3,1.2,2.2,8.8,3,11.3,5.3,8.6,7.5,18.2,14.8,23.9,23.1,4.7,7.2,4.2,15.6,6.2,23.4v288.8c6.9-12.2,16-21.4,16.7-30.7,4.7-63.4,7.4-127,12.1-190.3.5-6.7,12.5-19.1,15-19.1,18.7,3.3,47.5-.8,48,19.4,1.2,35.9,1.5,72,3.7,108.1.5,7.5,8.9,14.7,12.1,22.3,4.1,9.8,9.1,19.9,9.8,30,2.9,36,4.4,71.9,5.9,107.8,1,23.5,18.9,40.5,46.5,52.7,2.8.9,2.9.4,16.2,6.1,2.2.4,12.6,4.2,14.7,4.6v169.5c.6,78.1-.6,71.2-1.2,223.2h.1Z"/>
    <path class="cls-4" d="M1147.2,560.2c18.4-7.2,37-13.8,55.8-20.4-2.2,127.2-18.3,253.1-38.8,378.4h-57.1c28.6-125.3-3.2-214.4,0-341.5h0c.2,0,.3-.2.4-.2,8.7-2.2,8.3-2.1,21.8-9,6-2.4,12-4.9,18-7.2h-.1Z"/>
    <path class="cls-4" d="M1203.1,539.8h0v-.4.4h0Z"/>
  </g>
  <g>
    <path class="cls-6" d="M757.9,489h0Z"/>
    <path class="cls-6" d="M1648.9,716.2c-11.4,1.5-25,.5-36.8.5s-13.8,0-18.4-2c6.7,0,13.3,0,19.9.2,11.4.2,22.8.5,34.1,0,.3.4.7.8,1,1.3h.2Z"/>
    <path class="cls-6" d="M1177.8,831.2c1.3-12.9-.5-26.7,2.9-39.3,1.5-3.7,5.3-5.8,8.9-7.4,24.6-10.4,31.8-38.2,36.9-64.5,2.7-13.3,5.1-26.1,6.7-39.7,0-11.5,9.8-36.5.4-44.3-6.2-4-12.5,2.3-13.1,8.5-2.6,12.1-6.1,33.6-11,54.8-3,13.2-6.6,26.4-10.8,37-3.4,11.1-19.2,34.8-20.8,16.1-1-82,1-165.1-7.3-246.4-.9-3.8-3.4-8.2-7.6-8.3-17.8,0-5.8,127.4-13.6,141.4-16.1,0-17.6-40.6-28.2-49.2-21.6-12.5-.4,53.4,5.9,58.3,5.5,10,21.3,12.6,21.8,25-1,23.9-.8,48.1-2.4,71.9,0,4.1-1.8,9-6.7,6.7-22.9-11.9-22.6-44.1-36-64.3-8.6-8.6-11.9,3.4-10.4,11.8,4,23.9,8.9,50.1,27,67.2,6.2,6.2,17.5,5.3,22.3,12.9,2.5,7.9,2.1,18.2,3.4,26.6v31.9c4.7,5.4,26.1,10.3,32.1,13.9-.4-20.6-.6-12.9-.4-20.6h0Z"/>
    <path class="cls-6" d="M475.6,866.8c-.7-11.8-4.5-23.7.2-32.8,4.6-7.1,15-6.7,21.9-10.9,31.4-16,47.7-75.7,47.4-108.6-.7-7.8-7.6-12.1-13.7-6.3-7.9,8.8-8.7,22.5-12.8,33.3-3.8,13.3-10.4,26.3-19.6,36.3-4.8,4.8-14,17.1-20.9,10.1-4.9-88,1.5-178.3-1.4-266.9-4.3-42.7-1.1-86.9-12.1-128.7-2.8-9.6-12.6-17-21.7-10.8-11.4,8.8-11,26.2-13.2,39.4-10.8,150.7-13,301.5-24.3,452.5-3.2,16.6-6,16.4,5.4,13.3,16.1-4.5,47.1-4.1,59-17l1.5.9,4.4.7v-4.5s0,0,0,0h-.1Z"/>
    <path class="cls-6" d="M410.9,883c-8.9-140.7-12.6-284.3-22.7-425.8-1.8-39.4-2.5-78.7-6.5-118-1.9-15.7-.5-39-11.8-50.9-6.4-5.3-13.2-.7-16.5,7.1-6.9,20.5-6.3,43.7-6.8,65.5.2,17.4-2.1,34.6-2,52,.2,75-3.1,149.8-2,224.9.7,16.9-5.1,20.2-16,6.6-26.1-30.3-30.4-73-43-110-4.9-13.7-22-20.3-27.8-3.4-5.1,17.1-1.1,36.4,1.8,53.8,7,42.6,23.4,93.5,67.3,109,6.6,2.5,13.8,5.6,16.8,11.9,2.2,4.1,2.6,9.9,2.6,14.9.2,38.5.7,77,1.8,115.4-.7,20.5,4.3,42.2-.3,62.5-1.2,4.1-2.1,6.2-.7,6.8,4,.5,10.5-1.1,15-2,13.5-4.1,42.9-9.4,50.8-20.2h0Z"/>
    <path class="cls-5" d="M1007.6,15.8c74.5-.8,125.6,81.7,96.5,148.6-34.2,84.6-155.8,87-193.1,3.4-29.5-65.7,20.5-154.3,96.6-152h0Z"/>
    <path class="cls-2" d="M1146.2,135.3c-.5-3,1-3.5,2.5-3.7,9.8-2.3,19.6-5.6,29.6-7.9,15.8-5.4,39.9-6.8,46.1-24.9,9-31.9,38.5-54.1,69.4-62.7,36.3-11.9,73.8,9.7,91.6,41.7,2,5.5,4.2,13.4,7.8,3.1,3.1-7.6,13.8-2.2,18.7.5,6.8,4.6,12.6-1.3,19.2-3.4,17.6-1.4,37.5,13.1,41.8,30.3,2.8,31-42.1,25.9-63,26.9h-263.7Z"/>
    <path class="cls-4" d="M900.1,687.6c-3.6,51.1-1.1,104.8-10.6,154.5-11.6-4.3-9.3-65-11.9-79.2-2.4-39.9-2.4-55.5-3.1-95.5,1.6,0,9.4,3,9.4,4.4.4,25.6-13.2,7.7,13.7,18.7.7-.9,1.6-1.9,2.5-2.9h0Z"/>
    <path class="cls-2" d="M900.2,685.8h0Z"/>
    <path class="cls-2" d="M759.7,493.7c-2.2-1-1.7-2.9-1.8-4.6,3.2.5,1.6,2.9,1.8,4.6Z"/>
    <path class="cls-2" d="M757.9,489.1c-1.9-.6-1.8-2.2-1.8-3.7,2.6.3,1.8,2.2,1.8,3.7Z"/>
    <path class="cls-2" d="M426.1-76.9c-.5-.6-1.1-1.1-1.6-1.7.5.6,1.1,1.1,1.6,1.7Z"/>
    <path class="cls-2" d="M427.8-74.8c-.5-.6-1-1.3-1.6-1.9.5.6,1,1.3,1.6,1.9Z"/>
    <path class="cls-2" d="M253.5,472.4c.6.7,1.1,1.5,1.7,2.2-1.6,0-2.1-.8-1.7-2.2Z"/>
    <path class="cls-2" d="M735.8,478.4c-.7.6-1.4,1.1-2,1.7,0-1.3.8-1.8,2-1.7Z"/>
    <path class="cls-1" d="M629.5,865.5h0Z"/>
    <path class="cls-1" d="M636.1,866.3h0Z"/>
    <path class="cls-1" d="M643.7,798.9h0Z"/>
    <path class="cls-1" d="M645.3,807h0Z"/>
    <path class="cls-1" d="M633.9,817.6h0Z"/>
    <path class="cls-3" d="M639.5,830.8c.5.7,1,1.4,1.4,2"/>
    <path class="cls-1" d="M651,822.1c.5.6,1,1.2,1.6,1.9-.5-.6-1-1.2-1.6-1.9Z"/>
    <path class="cls-2" d="M723.7,888.3h0Z"/>
    <path class="cls-2" d="M264.8,895.8c.6-.6,1.2-1.2,1.8-1.8l.2.2c-.6.6-1.2,1.2-1.8,1.8l-.2-.2Z"/>
    <path class="cls-6" d="M1613.7,714.9c-6.6-.2-13.3-.3-19.9-.2-.3,0-.5-.2-.7-.4-7.6-4.1-9.2-13.9-17.6-17.4-19.9-6.6-35.5-6.3-49-25.7-12.6-18.1-19.1-40.5-20.9-62.3-1.3-10.8,6.8-21.9,15.1-10.3,7.2,13,9.7,29.3,18,42.5,1.8,5.3,21.6,29.2,20,13.3-4.2-15.4-6.9-31-6.9-47.3.2-14-.7-28.2.7-42.1.6-8.3,8.3-16.4,14.7-7.6,5,7.2,4.8,17.2,6.1,25.7,1.5,12,3.3,22.8,5.8,35.2,10.3,45.1,20.8,42.7,26.7-1.8,7.2-35.8,8.1-72.1,8.5-108.7,0-16.9,2.2-33.6,1.9-50.6.9-11.5-2.7-56.8,14.4-54.6,3.9,1.3,5.9,5.2,7.2,10.4,4.8,72.9-.6,146.5,2.2,219.6.5,20.4.3,40.7.3,61.1-.3,10.8,2.4,14.7,7.6,21.2-11.4.5-22.8.2-34.1,0h0Z"/>
    <path class="cls-6" d="M1912.5,698.7c-17.5,7.5-29.5,10-48.5,11.1,4.2-8.4,8.4-16.8,12.6-25.2-7.2,3.5-14.4,6.9-21.6,10.4-.5-6.9-1-13.7-1.5-20.6-5.8,6-11.6,12-17.5,18-2.2-6.3-4.4-12.7-6.7-19-2.9,7-5.8,14.1-8.7,21.1-5.3-6.8-10.7-13.6-16-20.4-2.1,7.6-4.1,15.2-6.2,22.8-7.1-5.3-14.1-10.6-21.2-15.9,3.7,13.5,7.5,26.9,11.2,40.4-10.4-3.4-20.8-6.8-31.3-10.2l26,32.1c-69-45.8-158.9-51.9-239.2-31.4-80.2,20.5-152.3,65-218.7,114.4-21.1,15.7-43.2,32.6-69.4,35.4-31.5,3.4-60.9-14.2-89.7-27.3-73.5-33.3-158.9-39.3-236.3-16.6-67.7,19.9-131.5,61.1-202,58.1-34.6-1.5-67.9-13.7-102.4-16.6s-73.9,6.5-91.4,36.4c-20.5-30.5-62-38.1-98.8-38s-75.5,4.9-108.8-10.8c-23.4-11-41.2-30.9-60.8-47.8-31.4-27.1-68.6-47.3-108.3-59s-20.2-5.4-30.5-7.3c-11.6-2.1-18.3-1.1-29.5,1.5-24,5.7-48.1,11.4-72.1,17.1l-34.3,6.9c0,51.9,3.3,205.8,3.4,256.7,639.5,9.7,1294.8,1.3,1934.6.6-.5-70.3-2.7-249.5-3.2-319.8l-13.1,2.9Z"/>
    <path class="cls-6" d="M1648.9,716.2c-11.4,1.5-25,.5-36.8.5s-13.8,0-18.4-2c6.7,0,13.3,0,19.9.2,11.4.2,22.8.5,34.1,0,.3.4.7.8,1,1.3h.2Z"/>
    <path class="cls-2" d="M635.8,855.1c-.6.5-1.3.9-1.9,1.4.6-.5,1.3-.9,1.9-1.4Z"/>
    <path class="cls-6" d="M723.9,768.7c-1.5-8.5-8.9-7.7-11.8-.5-3.6,8.2-4.6,19-8.7,26.7-5.3,10.3-9,4.9-8.6-3.7-1.7-20.5,11.6-120.8-16.7-118.7-8.2,1.2-12,10-13.2,17.5-4.1,39.1-2,78.7-2.5,118.1-.7,6,1.8,15.9-3.2,20-5.4,1-9.2-6.2-11.3-10.4-5.2-6.4-6.5-44.7-16-40.2-5.3,5.7-1.7,16.4-1.1,23.5,2.5,18.8,5.3,33,24.6,40.4,15.2,6.8,9,30.1,9.1,35.2.2,8.7,27.9,15.7,29.2,5.6l1.5-16.7h0c2.4-12.3-1.4-27.3,3.1-39,3.4-7,11.2-10.4,15.3-17,7.1-11.7,11.5-27,10.4-40.8h0Z"/>
  </g>
</svg>