<?xml version="1.0" encoding="UTF-8"?>
<svg id="Layer_1" data-name="Layer 1" xmlns="http://www.w3.org/2000/svg" version="1.1" viewBox="0 0 1920 1080">
  <defs>
    <style>
      .cls-1 {
        fill: #7ca08e;
      }

      .cls-1, .cls-2, .cls-3, .cls-4, .cls-5, .cls-6 {
        stroke-width: 0px;
      }

      .cls-2 {
        fill: #f4efea;
      }

      .cls-3 {
        display: none;
      }

      .cls-3, .cls-4 {
        fill: #f4dcdc;
      }

      .cls-5 {
        fill: #d39381;
      }

      .cls-6 {
        fill: #597b73;
      }
    </style>
  </defs>
  <g>
    <path class="cls-4" d="M519.4,802.6c-16.8,3.9-133.9,3.3-150.8,6.9-11.3,2.5-38.9-16.2-43.5-30.6-3.8-11.6-11.7-13.3-25.3-14.7-22.1-2.3-44.2-6.6-65.7-11.7-22.7-5.2-34.4-17-33.4-36.1.8-18.5.8-37-1.7-55.3-2.1-16.6-8.5-32.8-11.5-49.4-1.7-10.1,1.5-20.7-.8-30.6-1.7-8.1-8.1-15.6-15.9-23-17.4,19.6-6.6,41.3-12.1,61.2-27-4.6-34-12-38.2-37-4.3-26.6-10-53.1-14-79.7-1.5-10.5-3.4-22.2.8-31.9,7.9-18.1-1.7-34.1-5.9-50.5-.9-3.9-11.9-8.1-19.1-9-12.7-1.7-37.6,20.1-34.6,29.9,5.3,17.3,12.3,34.4,19.1,52.9-2.3,3-7.6,7.7-9.1,12.9-11.5,41.2-37.8,80.3-28.9,124.2,7.4,37.1-14,69.7-28.7,103.3-1.3,3.1-10.4,6.5-13.8,8.8,6.8,61.9-2.5,113.5,3.1,175.9,4.9,52.6-8.9,106.9,0,158.3l476.3,2.8c-.2-3.3,64.4,1,64.2-2.2-6.8-92.6,10.5-182.9-10.5-275.1Z"/>
    <path class="cls-4" d="M1203.1,701.2c-18.8,6.6-37.5,13.2-55.9,20.4-35.7,14.1-70.7,29.7-106.2,44.2-7.4,3.1-15.8,4.9-23.9,5.7-38.2,3.5-70.2,20.9-104.8,33-13,4.6-31.5,1.1-46.3-2.8-28.1-7.3-55.2-17.4-83-26.3-5.3-1.5-10.9-2.8-16.4-2.8-34.5-.5-49.6-11.2-57.7-40.8-1.4-5.7-3.5-11.2-5.5-16.8.7-1.8,1.6-3.5,2.3-5.2-.5-4-.9-7.8-1.4-11.8-20.1-17.9-16-43.6-27.3-64.4-3.2-5.8-3.3-13.1-3.3-19.9-.5-26.6-.4-26.6-33.1-35.5-.9,3.5-2.1,7-2.5,10.5-5.1,47.7-9.7,95.4-15.5,142.9-1.1,8.7-8.1,17-12.3,25.2-20.9,10.5-42,20.9-63,31.3-9.3,4.6-18.6,9.4-28,14.1.3,70.7,3.9,141.5,8.1,213,1.3,21.5,2,43,2.5,64.4h634.3c20.5-125.4,36.6-251.4,38.8-378.8Z"/>
    <path class="cls-4" d="M1920,848.1v-161.1c-2.1-.4-11.7-4.1-13.9-4.5-13.3-5.7-13.4-5.2-16.2-6.1-27.6-12.2-45.5-29.2-46.5-52.7-1.5-35.9-3-71.8-5.9-107.8-.7-10.1-5.7-20.2-9.8-30-3.2-7.6-11.6-14.8-12.1-22.3-2.2-36.1-2.5-72.2-3.7-108.1-.5-20.2-29.3-16.1-48-19.4-2.5,0-14.5,12.4-15,19.1-4.7,63.3-7.4,126.9-12.1,190.3-.7,9.3-9.8,18.5-16.7,30.7v-288.8c-2-7.8-1.5-16.2-6.2-23.4-5.7-8.3-15.3-15.6-23.9-23.1-2.5-2.3-10.1-3.1-11.3-5.3-18-32.7-65.5-25.2-103.6-28.3-12.1-.9-25.6,8.1-38.9,11.8-20.4,5.7-40.9,12.5-62.5,15.6-19.9,2.8-31,8.1-37.2,19.9-2.5,4.6-11.6,9.9-18.7,10.7-18.7,1.8-24.4,8.4-24.4,18.6-3.9,43.7,4.7,89.9-15.3,130.5-24.6,50.1-17,102.4-43.8,151.5-7.6,14.2-3.2,30.9-10.3,45.1-9.8,19.4-24.1,38.1-39.1,56.1-3.9,4.7-8.6,3.5-18.2,6.3-14.8,4.3-12.4-4.7-53.9,14.8-105.8,49.8-88.7,45.5-105.8,49.8-3.1,127.3,28.7,216.4,0,341.9h812.6c.6-152,1.2-153.7.6-231.9Z"/>
  </g>
  <g>
    <path class="cls-3" d="M970.3,836.4c8.2.2,11.9-10.7,17.5-15.4,28-25.1,55.8-50.6,82.9-76.7,60.1-56.7,119.9-115.1,178.4-173.8,18.1-18.6,41.4-45.2,69.7-28.7,17.3,9.3,36.1,16.8,50.3,30.7,4.2,8.9,22.9-18.1,28-21.7,31.2-29.9,61.1-61.3,92.4-91.1,17.9-14.2,31.9-34.4,53.7-42.9,39-14.8,76.5,4.7,108.6,26.1,32.5,21,64.8,42.4,97.8,62.5,18.7,10.8,39.1,20.8,60.8,20.6,5.8-3.1,12.2.6,17.8-2.9,32.8-5.8,60.7-31.3,94.6-34.1v400.8c-13.5,3.9-27.7,9.9-39.5,17.2-.9-.2-1.8-.4-3.3-.7,4.5-5.8,6.6-9.3,9.9-16.2-7.1,0-9.7,4.6-15.7,7.5,0-2-.1-3.1-.2-4.3.2-.2.3-.5.2-.8,1.3-.4,1.9-1.3,1.8-2.7,4-5.7,10.1-9.7,11.5-17-5.3,2-9.5,4.1-12.4,8.1-.3,0-.6,0-.8.3-4,1-6.4,4.1-9,6.9-1.4-.1-2.3.4-2.2,1.9-1,.2-2.2-.3-3.2-.3-2.2-8.5,3.5-17.5.4-25.9-3.5,3.4-6.9,6.5-8.4,11.1-4.1,1.8-5.4,9.6-10.6,7.7-1.8-7.3-3.9-14.6-7.8-22.4-2.2,6.7-4.1,12.3-5.9,17.9-1.1,5.5-3.7,3.2-7.7,2.5,0-.2,0-.4-.2-.5.4-1.4,0-2.3-1.5-2.6-.7-3.4-4.7-12.9-8.4-13.2-1.7.5-1.3,2-1.1,3.3-2.4,4.9.3,13.5-5.4,15.8-.8,3.7,2.8,6.6.8,10.7-7.7-6.9-14.3-14.5-23.2-20.3.4,9.3,4.9,17.5,7.1,26.5-.6,1.8.1,2.9,1.9,3.3,0,.4,0,.8.1,1.2-.9,1.3-.2,1.8,1.1,2.1.5,1.7,1.4,3.3,2.2,5-.4.3-.2,1.9-1.3.6-8.8-8.9-14.3-20.6-26.3-25.9,5.3,11.1,14.2,18.1,21.9,27-5.9-.3-22.6-12.2-27.9-8.2,8.3,9.1,16.3,17.4,24.7,26.1-1,1.7-2.6.8-3.9,1-7.1-3.8-14.5-6.9-22.3-9.1-.8-1.6-2-2.5-3.8-1.7-16.7-6.4-33.8-16.8-52-18.7-.1-1-.3-1.9-.4-2.9,8.3-3,8.8-3.3,9.4-6.3-5.3-1.6-9.2,3.5-15.2,2.9,3.2-4.2,6-8,8.8-11.7-.1-.2-.3-.5-.4-.7-3.4,1.2-6.7,2.4-10.7,3.8v-10.1c-5.1-2.8-5.5,6-9.9,1.4-1.3,2.8-2.6,5.4-4.1,8.5-3-3.2-3.1-7.6-8-8.6-.1,4.1-.2,8.1-.3,12.5-3.7-1.2-6.8-2.3-10.2-3.4-1.7,5.2,4.9,6.2,5.3,10.2-6.3.5-12.1,1.2-18.1-.7-4.8-.4-4.8-.3-4.8-4.8,0-9.6,0-19.3,0-28.9,0-83.5-.1-167-.3-250.6-1.4-9.1,1.8-22-6.3-28.2-19.6-6.8-18.6,22.1-17.7,34.2-3.7,16.9-1.5,38.1-1.8,56.1-1.9,1-1.3,2.8-1.3,4.4-.6,29.2-3,58.5-2.5,87.6-.7,13.6-6.6,26.4-5.9,40.1-3.1,4.1-1.2,8.8-1.8,13.4-3,3.2-1.2,7.1-1.8,10.8-2.4.6-1.6,2.7-2,4.3h0c-11.4,10.3-14.5-37.7-18.6-42.9-1.3-8-2-60-11-57.7-1.6-2.8-6.1-.9-8.9-1.3-.3,0-.5,1-.9,1.4-1.3-.1-1.9.4-1.8,1.7h0c-3,.6-1.2,3.4-1.8,5.3-2,.6-1.6,2.3-1.6,3.7.8,25.5-2.2,51.9,3.4,76.4.6,3.1-1.3,6.5,1.7,8.9-1.4,5.7,5.7,10.4,2.7,13.8-21.9-15.1-24.2-43.8-34.2-65.4h0c0-5.7-8.4-8.9-13.3-6.4-13.6,7,2.7,63.9,11.4,73.3h0c.5,2.4,1.4,4.7,3.8,6,.3,2.4,1.2,4.3,3.6,5.3,4.3,5.1,9.5,9.7,13.4,15,10.2,5.5,23.7,9.3,35,5.5,1.4.3,2.8.6,4.1,1-1.4,5.5,3.4,20.3-4.8,19.9-1.7.2-3.7-.6-4.8,1.4-3.6,0-7.2.2-10.8-.3,0-.3-.1-.6-.2-1,1.5-1.5,6.6-3.7,3.5-5.9-3.3.8-6.3,1.5-9.3,2.2-1.5-2.4-.8-3.1-5.3-1.3-1-3.8,4-5.9,2.7-9.9-4.8-1.9-5.9,4.7-10.2,4.7-.7-15.6-5.4-5.8-8.4,2.4-2.8-2.7-5.2-5-7.4-7.1-5.8,3.1,1.5,6.7-1.6,11.2-4.1-2.1-7-6.7-13.4-6.1,4.9,4.5,7.6,7.4,9.8,13.2-6.6,1.1-12.1-2.6-18.3-1.9,2.5,4.1,7.6,4.6,11.1,8.2-14.2,5.2-28.7,11-40.9,19.2,0,0,0,0,0,0-1.6.2-3.7-.5-4.3,1.9-1.5,0-3.2-.4-3.7,1.7-8.4,2.6-17.5,7.7-24.4,13.3-1.5,0-3,0-3.6,1.8,0,0,0,0,0,0-.9.6-1.9,1.1-2.8,1.7,0,0,0,0,0,0-2.8,0-4.9,1.2-6.2,3.7-2.8,0-4.9,1.1-6.1,3.7-3-.2-4.7,1.5-6.3,3.6-5.5,2.4-11.5,4.9-15.6,9.6h0c-3.4.7-6.3,2.3-8.1,5.3h0c-1.5,0-3.1,0-3.4,1.9-7.2,2.3-15.6,7.8-20.8,13.3-15.5,8.2-31.3,17.2-45,27.6h0c-2.6,0-4.3,1.3-5.5,3.5h0c-2.8,0-4.6,1.7-6.1,3.7,0,0,0,0,0,0-5.4,1.2-8.8,5.9-14.1,7.2-14.9-.3-29.9-.8-44.8-1-25.4-.4-51.8.2-76.7,1-7.8.5-2.3-13.7-3.2-18.5,1.1-14.4.3-29.2,2.6-43.4,51.9-10.3,48.5-99.7,57.3-141.5,2.7-9.3-11.5-16-16.1-6.1-1.4,6.5-2.7,13-3.9,19.4-4.6,18.9-16.7,104.1-39.8,101.3.7-63.4-.7-126.7-3.5-190.1-2.4-10.3,6.1-86.9-16-67.6-10,44.5-4.2,94.3-6.8,140.3-15.5-.4-20.4-35-26.2-47-2.9-10.7-17.2-8.8-13.9,2.6,2.7,12.5,4.1,25.4,8.8,37.4,4.5,14.9,15.5,24.5,29.5,31.1-2.3,29.3-.9,59.1-3.7,88.2-28.4-10.2-28.7-46.2-41.5-68.9-24-14-1.8,53.1,2.5,61.1,4.8,9.6,11.3,20.8,22.2,24,2.7,3.7,8.8,5.1,13.4,5.5h0c.8,20,3,39.6,3.5,59.8-3.8-1-6.8-1.6-10.5-2.1-27.3-12.7-57.9-22.5-88.3-24.7-19-1.1-37.3-.2-56.1,2.8-10,1-18.3,7.3-28.4,7.1.8-11.3-2.4-23.3,2.1-33.8,7.1-1.8,13.6-1.1,19.8-5.1,2.2-.9,5-1.3,6-4.1,1.4-2,3.5-2.9,5.6-3.6,4.8-5.6,12.1-10.3,13.3-17.9,5.3-6.4,9.5-15.5,11-23.7,2.2-.9,2.7-2.6,2-4.7,2.3-7.3,6.5-14.1,5.9-22.1,5.6-11,5.7-25.6,5.3-38.1,0-7.3-10.2-12.5-15.2-6.5h0c-1.3,0-1.8.7-1.7,1.9h0c-2.5.6-2.9,2.9-3.5,4.7-6.6,19.6-11.4,40-20.9,58.5-2.5.9-2.9,3.2-3.6,5.3-1.6,0-1.8,1.3-2.2,2.4-1.2,2.3-3.2,3.9-5.1,5.6h0c-.6.6-1.2,1.2-1.8,1.8h0c-4.7,2.9-8.2,5.1-13.5,7.7-.3-31.7-.5-63.4,1.3-95Z"/>
    <path class="cls-6" d="M762.9,674.4s0,0,0,0c0,0,0,0,0,0,0,0,0,0,0,0Z"/>
    <path class="cls-6" d="M1653.8,901.6c-5.9-7.3-8.9-11-8.6-22.5,0-20.4.2-40.7-.3-61.1-2.8-73.1,2.6-146.7-2.2-219.6-1.3-5.2-3.3-9.1-7.2-10.4-17.1-2.2-13.5,43.1-14.4,54.6.3,17-2,33.7-1.9,50.6-.4,36.6-1.3,72.9-8.5,108.7-5.9,44.5-16.4,46.9-26.7,1.8-2.5-12.4-4.3-23.2-5.8-35.2-1.3-8.5-1.1-18.5-6.1-25.7-6.4-8.8-14.1-.7-14.7,7.6-1.4,13.9-.5,28.1-.7,42.1-.1,16.3,2.7,31.9,6.9,47.3,1.6,15.9-18.2-8-20-13.3-8.3-13.2-10.8-29.5-18-42.5-8.3-11.6-16.4-.5-15.1,10.3,1.8,21.8,8.3,44.2,20.9,62.3,13.5,19.4,29.1,19.1,49,25.7,8.4,3.5,10,13.3,17.6,17.4,4.4,2.4,12.5,2.3,19.1,2.4,11.8,0,25.4,1,36.8-.5h0Z"/>
    <path class="cls-6" d="M1180.5,1015.5c1.3-12.9-.5-26.7,2.9-39.3,1.5-3.7,5.3-5.8,8.9-7.4,24.6-10.4,31.8-38.2,36.9-64.5,2.7-13.3,5.1-26.1,6.7-39.7.1-11.5,9.8-36.5.4-44.3-6.2-4-12.5,2.3-13.1,8.5-2.6,12.1-6.1,33.6-11,54.8-3,13.2-6.6,26.4-10.8,37-3.4,11.1-19.2,34.8-20.8,16.1-1-82,1-165.1-7.3-246.4-.9-3.8-3.4-8.2-7.6-8.3-17.8,0-5.8,127.4-13.6,141.4-16.1,0-17.6-40.6-28.2-49.2-21.6-12.5-.4,53.4,5.9,58.3,5.5,10,21.3,12.6,21.8,25-1,23.9-.8,48.1-2.4,71.9-.1,4.1-1.8,9-6.7,6.7-22.9-11.9-22.6-44.1-36-64.3-8.6-8.6-11.9,3.4-10.4,11.8,4,23.9,8.9,50.1,27,67.2,6.2,6.2,17.5,5.3,22.3,12.9,2.5,7.9,2.1,18.2,3.4,26.6.9,8.1-1.4,18.6,3,25.4,4.8,5.4,12.4,7.2,18.4,10.8,9.3,5.6,10-3.1,10.2-10.8v-.2Z"/>
    <path class="cls-6" d="M961.5,1004.9c5-8.3.5-21.5,5.2-30.6,4.6-7.1,15-6.7,21.9-10.9,31.4-16,47.7-75.7,47.4-108.6-.7-7.8-7.6-12.1-13.7-6.3-7.9,8.8-8.7,22.5-12.8,33.3-3.8,13.3-10.4,26.3-19.6,36.3-4.8,4.8-14,17.1-20.9,10.1-4.9-88,1.5-178.3-1.4-266.9-4.3-42.7-1.1-86.9-12.1-128.7-2.8-9.6-12.6-17-21.7-10.8-11.4,8.8-11,26.2-13.2,39.4-10.8,150.7-13,301.5-24.3,452.5-3.2,16.6,5.3,12.4,16.7,9.3,16.1-4.5,36.5-5.2,48.4-18.1h0Z"/>
    <path class="cls-6" d="M1912,893.6c-.9,2.9-4,2.8-6.1,3.9-7.3,3.5-14.7,7.2-22.4,9.5,0,0-.2,0-.2,0-1.7,2.1-3.8,3.4-7.5,3,3.6-5.5,6.9-10.5,10.2-15.5-3.1-3.5-14.6,10.3-18.6,12.3-.7-3.5,3.4-11.6,6.6-13.5.7-1.4-.5-3.4,2-3.5,2.6-3.8,4.3-8.1,7.2-11.7-.2-.3-.2-.3-.4-.7-7.6,1.5-10.6,8.4-17.5,10.7,0,0,0,0,0,0,0,1.5-1.1,1.8-2.2,1.9-6.3,5.8-6.7-.7-4-5.6.1-5.6,0-10.6,0-17.1-2.6,3.3-4,5.3-7.1,7.5-3.4,5.1-5.9,13-12,15.1-.5-8.4-2.7-16.2-6-23.8-3.9,8.1-5,17.2-8.7,26-2-4.4-3.6-7.8-5.2-11.3,0-.2,0-.3-.2-.5-2.8-2.1-5.2-13.6-11-12.5-2.4,4.9.3,13.5-5.4,15.8-.8,3.7,2.8,6.6.8,10.7-7.7-6.9-14.3-14.5-23.2-20.3.4,9.3,4.9,17.5,7.1,26.5,2.8.4,1.9,2.4,2,4.5.6,1.1,1.2,2.3,1.5,3.5.9.2,1.7.5,1.2,1.4.2.9.3,1.4.5,2.2,3,1.8,3.1,2.4,1.7,7.3-2-2.8-5.6-2.8-7.3-5.6-5.9-.3-22.7-12.2-27.9-8.2,10.5,11.4,20.3,22.3,32.3,31.7-8.9,1-14.5-8.2-22.9-10.1-3.5-1.4-7.2-2.4-10.8-3.6-1.6,0-3.5.8-3.8-1.7-20-3-37.6-18.6-58-18.7.4-1.2.6-2,.9-3-1.6-.3-3-.5-4.7-.8,1.2-1.9,2.1-3.5,3.1-5q-1.8-1.5-5.1-1.3v-9.5c-.5-.2-.5-.2-1-.4-3.6,3-1.9,8.4-7.3,9.1-.6.2-1.2.8-2.4,1.6-1.3-1.5-2.5-3-3.7-4.5-3.8,1.9.2,5-1.4,7.4-3.9.1-5.7-4.5-10-4.6,1.5,3.6,4.9,5.5,7,8.9-4.6.4-10.1,2-13.3-1.1-22.6,1.6-45.7-.5-68.2.2-2.5,2.4-8.1,1.2-12.2,1.4-1.9,2.7-4.8,1.6-7.5,1.9-3.9.8-6.9,1.5-11.2,1.8.5-1.5.8-2.2,1.4-3.8-1.8.5-3.1.8-4.7,1.2-.3-.6-.7-1.5-1.1-2.5h-3.2c.9-2.8,1.8-5.3,2.9-8.5-5.3,1.9-6.8,7.8-10.6,11.7-6.4-2.3-2.1-9.7-8.7-13.1-1.4,3.7,3.1,7,.6,10.8-3-2.1-6.1-4.3-9.5-6.7-.2,1.1-.4,1.8-.6,2.6,0,0,0,0,0,0,4,1.8,5.1,5.3,6.2,9.6-4.3.2-8-3.1-12.5-.9,1.9,1.7,5.5,2.3,3.9,6.1-15.4,2.5-27.9,13.8-42.7,17.3-.5,2.7-2.8,1.5-4.3,1.9,0,0,0,0,0,0-.4,2.2-2.1,1.6-3.6,1.7-7.2,5.2-15.8,11.2-24.4,13.3,0,0,0,0,0,0-.3,2.3-2.1,1.7-3.6,1.8,0,0,0,0,0,0-.1,1.9-1.4,1.9-2.8,1.7-1.4,2.4-3.2,3.9-6.2,3.7h0c-1.3,2.3-3.6,3.3-6.1,3.7,0,0-.1,0-.1,0-1.2,2.6-3.7,3-6.2,3.5,0,0-.1,0-.1,0-4.1,4.3-9.5,8.6-15.4,9.6-2.3,2.4-4.3,5.1-8.1,5.3-.1,2.3-2,1.8-3.4,1.9-3.5,4.5-9.7,6.7-14.3,10.1-2.1,1.3-3.5,3.8-6.5,3.2-3.4,4.4-9.7,8-15.2,9-6.2,6.9-15.6,12-24.3,15.1,0,0,0,0,0,0-.9,2.6-2.7,3.7-5.4,3.5,0,0,0,0,0,0-.9,2.6-3.2,3-5.5,3.4-1,2.9-3.6,3.3-6.1,3.7-5.4,4.3-11.3,10.3-18.2,11.4,0,2-1.3,1.9-2.8,1.7v.2c.1,0,0-.2,0-.2.1,2.6-1.9,1.5-3.4,2.1-7.4,4.9-17.3,10.2-25.4,15.6-6.2,2.7-12.3,11.2-19.6,7.8-21.4-11.5-46.4-18.5-66.3-31.4-2.6.2-3.7-1.3-4.1-3.4-9.7-4.3-18.9-10-28.7-13.6.3,1.8-.2,3.8,0,5.7-4.1,1.3-8.8-.1-11.6-3-13.8-2.5-26.6-8.6-40-12.8-26-9.5-54.1-11.5-81.4-11.4-.2,1.5-1.2,1.9-2.5,1.8-16.9-.5-33.8,4.6-49,11.4-.5-.7-1-1.5-1.3-2.2-11.1,3-20.4,10.4-32,12.1-13.5,1.8-25.9,5.4-38.1,9.7-.6.9-1.2,1.2-1.9.7-21.5,7.6-42.2,16.9-66,20.7-3.7.7-7.5,1.2-11.4,1.5-22.8,9.1-45.4,20.2-64.5,35.5-3.9,3.6-5.7,3.2-8.7-1.7-2.3-2.4-5.5-3.7-7.6-6.2h-.2c-1.8-.5-3.6-1-4.8-2.6-.4-.6-1-1-1.5-1.5,0,0,0,0,0,0-.8-.6-1.7-1.1-2.7-1.5-1.3-.5-2.2-1.8-3.8-1.8-.6.1-1.1,0-1.4-.1-1.3-.7-2.6-1.3-4-1.5-.4,0-.8-.1-1.2-.4-1.3-.8-2.6-1.3-4-1.6-.3,0-.5-.1-.7-.3-1.6-.9-3.4-1.4-5.2-1.5-1.1,0-2.1-.4-2.7-1.7-.9-.9-2.6-1.9-3-2.9,0-.3,0-.6,0-1-10,1.2-19.8,3-30,3.1,0,.3,0,.6,0,.8-7-1.9-11.9-6.4-18.7-8.8-2.6-.2-5.1-.9-7.3-2.3-3.2-.4-5.2,1.2-8.8-.9,2.6-2.1,4.1-3.2,6.1-5.2-1.9-2.5-4.7-.1-7.1.2-.7,2.4-2.9,2.5-5.4,3.7.6-2.1,1-3.5,1.8-5.8-2,1.6-3.2,2.5-5.1,4,.5-2.1.8-3.4,1.2-5.3-2,1.2-3.6,2.1-5,2.9-1.7-2.1-3.5-4.2-5.2-6.3q-.9,1.7,1.2,6.9c-3.7-1-5.2-3.5-6.6-6.4-1.9-.3-2.6-.5-4.6-.8l-.4.4c1.5,2.7,3.1,5.4,4.8,8.4-27.3,5-48.8,23-70.2,39.3-.6,1-1.2,1.9-2.1,3.5,461.6.8,923.3,0,1385,.1v-200.4c-4,0-7.2,2.3-10.7,3.7Z"/>
    <path class="cls-6" d="M888.9,1027.8c-8.9-140.7-12.6-284.3-22.7-425.8-1.8-39.4-2.5-78.7-6.5-118-1.9-15.7-.5-39-11.8-50.9-6.4-5.3-13.2-.7-16.5,7.1-6.9,20.5-6.3,43.7-6.8,65.5.2,17.4-2.1,34.6-2,52,.2,75-3.1,149.8-2,224.9.7,16.9-5.1,20.2-16,6.6-26.1-30.3-30.4-73-43-110-4.9-13.7-22-20.3-27.8-3.4-5.1,17.1-1.1,36.4,1.8,53.8,7,42.6,23.4,93.5,67.3,109,6.6,2.5,13.8,5.6,16.8,11.9,2.2,4.1,2.6,9.9,2.6,14.9.2,38.5.7,77,1.8,115.4-.7,20.5,4.3,42.2-.3,62.5-1.2,4.1-2.1,6.2-.7,6.8,4,.5,10.5-1.1,15-2,13.5-4.1,42.9-9.4,50.8-20.2h0Z"/>
    <path class="cls-3" d="M2.8,660.1c36.4-33.4,70.4,12.7,95.8,36.6,22.2,22.7,45.5,44.5,66.9,67.9,5.9,6.1,6.5,6.2,12.9.8,2.9-2.4,6.3-4.5,7.6-8.5,5.8-6.5,11.5-13.6,16.9-20.5,12.9-14.1,24.9-29.2,36-44.8,6.8-9.2,19.8-19.2,21.6-30.2,14.9,35.4,43.1,74.1,86.1,73.6,1.2,98.4-1.8,196.8-1.5,295.2-114.2.7-228.2-.6-342.3.5,0-123.5,0-247,0-370.5Z"/>
    <path class="cls-3" d="M650.5,994.1c-.7-3.4,1.3-7-1.8-9.8-.4-7.2.4-22.5-7.1-25.9-6.4-1.8-10.1,2.4-9.4,8.9.9,8,2.2,16,3.2,24.1.2,1.2.2,2.4,1.7,2.7-.3,4,.5,7.1,2,10.6,0,1.7-.9,3.6,1.6,4.4,0,3.2,1.1,5.5,3.8,7.1,0,.6,0,1.2-.1,1.8-6.6,3.7-8.9,11.8-12.9,18.3,2.3-.1,3.6-2.6,5.5-.2-.8,1.8-1.2,3.9-3.2,5.1-.2-.8-.4-1.6-.7-2.6-1.1.4-1.9.7-2.9,1-.3-1.7-.5-3.1-.7-4.8-1.6.6-2.8,1.2-4.1,1.7-1.3-3.3-3.3-5.8-6.6-8-.5,3-.9,5.5-1.4,8.4-2.3-1.5-4.1-2.5-6.7-4.2.6,3.3,3.8,6.4.3,7.7-12.8-7.9-3.6,0-.8,6.8-3,.7-6,1.3-9,2,0,0-.2-.2-.2-.2,1.7-1.4,3.5-2.9,5.2-4.3-4.5-4.8-5.4-14.9-13.5-14.3-35,.1-70,0-105,0-10.4-2.3-3.1,10-7.9,13.3.8-102-5.8-203.9-5.6-305.9-.4-4.9,4.9-3.7,8.2-3.9,11.2-.4,22.1-4.4,32.5-8.1,78.2-33,104.6-110.5,123.9-185.3,1.4.9.8,2,.4,3.1-.2,8,11.6,18.3,16.2,25.4,26.5,32.5,52.4,65.2,78.6,97.9,1.8-.6,3.2-1.2,4.7-1.7-11.7,24.8-.4,61.3,3.7,87.8,9.6,40.5,32.4,86.7,79.9,89-.1,64.9,1.5,129.8,3.7,194.7-3.3-.4-.8-3.7-2.9-5.1-40.7-1.8-81.7.9-122.5-1.2-3.5-45.2,17.2-4.9,27.5-65.9,1.6-6.9,3-23.5-8.8-18.5-7.9,9.2-5.7,40.4-19.9,43.6-.9-41.4,6.2-84.9-4.2-125.4-2.9-8.9-19.7-9.6-22.1-.3-.2.2-.3.5-.2.8-2.3.6-1.3,2.7-1.8,4.4-3.9,2.4-1.6,6.1-2,9.6-3.8,10.3-2.2,23.4-1.7,34.2-1.9,32.8-4.3,67,0,99.7-3.3,4.9-6.5-.8-9.7-2.7-.2-1.1-1.3-1.7-1.8-2.6h0c-1.3-4.2-2.4-10.2-5.5-13.3Z"/>
    <path class="cls-1" d="M638.8,540.7c-19.3,74.8-45.7,152.3-123.9,185.3-10.4,3.7-21.4,7.7-32.5,8.1-3.4.3-8.6-1-8.2,3.9-.3,102,6.3,203.9,5.6,305.9-7.7,4.3,2.4,8.3-14.4,2-6.7-.4-12.7,4.8-19.2,5-2.1-95.6,4-193.9-3.8-288.2-5.7,2-3.3,8.8-3.8,13.4,0,92.2-.1,184.3.1,276.5-1.9-.2-4.2.2-5.5-.8-11.5-9.2-19.5-6.9-30,1.8,0-167,2.3-334,3.5-500.9.4-143.5-.7-287.5-.4-430.7,2.4-6.3-2.1-18.6,5.8-21.2,6.3,227.1,5.4,456.1.9,683.4,2,1.7,4.8,1.8,8.1,1.7-1.5-228,5.4-456.9-5.3-684.6,6.3-.9,9.8,1.1,13.8,5.5.6.6,1.2,1.2,1.7,1.8.5.6,1,1.3,1.6,1.9,0,0,0,0,0,0,0,1.3.2,2.4,1.9,2.4,21.8,41.2,16.4,91.3,22.6,134.7,0,30.3.3,60.9,3.6,90.9,1,15.8-2.5,33.5,2.3,48.5-.6,55.2,4.5,109.7,3.3,165.2.6,26.1,1.8,52.2,2.3,78.4,1.1,4.8-3.2,17.6,4,16.4,73-29.2,92.7-129,108.9-197.2,20.2-82.9,19.2-169.2,22.2-254.2,2.4-10.2,1.8-20.5,1.8-31.2,2.2-9.6,1.1-19.5,3.5-29.1-.7-7.4,1.7-14.3,1.9-21.5.7-5.7,1.1-11.1,5.2-15.6-4.3-.2-7.2-.2-11,1.3,9.6-8.1,25.5-1.7,33.8,6.1,20.2,23.5,18.7,58.2,22.1,87.3.9,97.6.9,195.2-12.6,292.1-2.9,2-1.5,5-1.9,7.6-.7,9.4-3.3,18.5-3.5,27.9-3.9,2.8-1.6,7.3-2.5,11.2-2.6,2.6-1.1,5.9-1.8,8.9ZM465.5,695.2c95.6-25.1,126.1-145.6,144.9-229.6-8-2.9-12.1,40.4-16.5,47.7-20.6,64.5-45.1,140-113.5,168.4-7.3,3.6-20.1,1.7-15,13.5Z"/>
    <path class="cls-1" d="M283.4,1066.3c16.5-14.8,42-24,62.4-11.5,1.6-2.9,1.7-22.7-.8-24.4,0,0,.1-.2.1-.2-.3-98.4,2.7-196.8,1.5-295.2-96.7-1.3-112.1-171.6-123.9-244.3-4.8-42.9-6.6-85.9-7.3-129.1,1.7-18.9-5.1-50.9,17.2-58.9,32.3,2.8,29.1,71.6,33.8,95.6,4.1,39.3,7.5,78.2,14.1,117.2,9.3,46.5,26.4,110.3,73.2,131.8,7.1-114.1,6.4-228.6,10.4-342.8.9-35.8,4.7-71.4,7.2-106.9,6.4-31.9.1-76.3,30.9-96.5,1,.3,1.9.5,3.5.9-10.7,138.8-1.1,279-4.5,418.3,1.8,178-8,356.3-3.7,534.3-10-4-17.6-11.7-28.3-14.1-6.3-.2-11.6,5.7-17.1,8.3-4.4,1.6-1.7,7.1-6.4,8.4-19.4-14.5-45.4-1.9-62.4,10.6,0-.6,0-1.1,0-1.7ZM377.1,713.5c-119.2,12.7-123.2-202.8-134.8-284.2-3.4-37.8-6.5-75.8-8.2-113.7-.4-3,2.7-9.3-3.2-7.5,5,117,9.7,238,50.5,349.2,13.7,28.2,36.2,54,68.5,60.5,8.8,1.6,21.8,5.3,27.2-4.3ZM348.3,752.5c7.7,2.6,43.7-25.9,21.1-23.5-22.5,3.4-20.8-1.2-21.1,23.5Z"/>
    <path class="cls-5" d="M1012.6,94.4c74.5-.8,125.6,81.7,96.5,148.6-34.2,84.6-155.8,87-193.1,3.4-29.5-65.7,20.5-154.3,96.6-152Z"/>
    <path class="cls-6" d="M605.3,99.6c3.7-1.5,6.6-1.5,11-1.3-6.5,8.2-6.4,26.4-7.1,37.1-2.4,9.6-1.2,19.4-3.5,29.1,0,10.7.6,20.9-1.8,31.2-2.9,85-2,171.3-22.2,254.2-14.8,64.9-30.4,137.5-83.1,183.4-5.1,4.1-28.4,20.5-29.7,10.9.7-29.1-2.8-57.9-1.6-87,1.5.3,3.1,1.1,3.4-1,.6-.6,1.1-1.3,1.7-1.9,1.5.1,2.9,0,3.4-1.8,0,0,.2,0,.2,0,4.2-1.2,7-4.2,9.9-7.2,8.2-4.8,14.5-13.3,19.9-21.1,6.3-5.3,10.4-13.8,13.6-21.2,27-47.1,32.8-103.3,37.8-156.6,8.4-55.1-7.1-224,48.1-246.4Z"/>
    <path class="cls-2" d="M1151.2,320.7c-.5-3,1-3.5,2.5-3.7,9.8-2.3,19.6-5.6,29.6-7.9,15.8-5.4,39.9-6.8,46.1-24.9,9-31.9,38.5-54.1,69.4-62.7,36.3-11.9,73.8,9.7,91.6,41.7,2,5.5,4.2,13.4,7.8,3.1,3.1-7.6,13.8-2.2,18.7.5,6.8,4.6,12.6-1.3,19.2-3.4,17.6-1.4,37.5,13.1,41.8,30.3,2.8,31-42.1,25.9-63,26.9-87.9,0-175.7,0-263.6,0Z"/>
    <path class="cls-2" d="M397.5,1054.8c-4.2-178,5.5-356.3,3.7-534.3,3.3-139.3-6.2-279.5,4.5-418.3-1.6-.4-2.5-.7-3.5-.9-.5-4.5,19.8-3.5,19.9.1-1.9,0-3.8,0-6.4,0,10.7,227.7,3.8,456.6,5.3,684.6-3.3,0-6.1,0-8.1-1.7,4.5-227.3,5.4-456.3-.9-683.4-7.8,2.3-3.4,15.2-5.8,21.2-.3,143.2.8,287.2.4,430.7-2.9,167.8,0,337.3-5.3,504.4-1.1-.1-2.1-.2-3.2-.4-.2-.7-.4-1.4-.6-2.1Z"/>
    <path class="cls-4" d="M905.1,873c-3.6,51.1-1.1,104.8-10.6,154.5-11.6-4.3-9.3-65-11.9-79.2-2.4-39.9-2.4-55.5-3.1-95.5,1.6.1,9.4,3,9.4,4.4.4,25.6-13.2,7.7,13.7,18.7.7-.9,1.6-1.9,2.5-2.9Z"/>
    <path class="cls-2" d="M457.3,247.6c-6.4-42.9-.4-92.9-22.3-133.6,7.8,2.8,17,42.1,17.1,50.9,2.8,27.3,6.5,55.5,5.2,82.7Z"/>
    <path class="cls-2" d="M472.3,554.1c-1.1,1.4-2.4,2.4-4.1,3.1-.4,0-.7-.1-1.1-.2-1.5-22.7-1.3-46.1-.4-68.8,2.2.8,2,2.6,2,4.4,0,20.4,0,40.7,0,61.1,1.5.2,2.5.3,3.5.4Z"/>
    <path class="cls-2" d="M459.1,300.2c-3.1-16.3-1.6-33.3-1.8-49.8,1.6.3,1.5,1.5,1.6,2.8,0,15.6,2.2,31.6.2,47.1Z"/>
    <path class="cls-2" d="M463.2,387c-4.6-14.1-1.6-30.9-2.3-45.8,5.7,13.3.9,31,2.3,45.8Z"/>
    <path class="cls-2" d="M465,437.8c-3-15.5-2.2-32.6-1.8-48.5,4.4,15.2.9,32.6,1.8,48.5Z"/>
    <path class="cls-2" d="M466.9,486.7c-3-15.1-2.2-32.1-1.9-47.6,4.3,14.9,1,32,1.9,47.6Z"/>
    <path class="cls-2" d="M460.9,338.5c-3.2-11.2-1.2-23.1-1.7-34.7.9.8,1.8,1.4,1.5,2.8-.1,10.6,1.8,21.4.2,31.9Z"/>
    <path class="cls-2" d="M905.2,871.2"/>
    <path class="cls-2" d="M505.7,523.8c-5.4,7.8-11.8,16.3-19.9,21.1.6-1,.9-2.2,1.7-2.8,7.3-5,11.3-13.2,18.2-18.3Z"/>
    <path class="cls-2" d="M519.1,503.3c-3.5,7.2-7.1,15.4-13.4,20.5-.1-4.5,4.4-7.2,6.4-10.9,2.7-2.8,2.8-8.6,7-9.6Z"/>
    <path class="cls-2" d="M485.6,545.1c-2.7,3-5.6,5.9-9.7,7.1,2.3-3.6,5.5-6,9.7-7.1Z"/>
    <path class="cls-2" d="M524.6,492.7c-.8,3.8-2.6,7.1-5.3,9.9.5-4.1,2.7-8.2,5.3-9.9Z"/>
    <path class="cls-2" d="M643.1,517.7c.4-2.7.8-5.4,1.3-8.1,1.1,2.9,2.1,5.8-1.3,8.1Z"/>
    <path class="cls-2" d="M640.9,528.3c0-2.8-.7-5.7,2.2-7.7.2,2.8,1.3,5.9-2.2,7.7Z"/>
    <path class="cls-2" d="M646.6,492.7c.4-2.6-.9-5.6,1.9-7.6-.4,2.4,1.8,7.4-1.9,7.6Z"/>
    <path class="cls-2" d="M644.7,506c.5-2.7.9-5.4,1.4-8,1.5,3,1.7,5.8-1.4,8Z"/>
    <path class="cls-2" d="M639,539c-.1-2.5-.5-5.1,1.5-7.2,1,2.5.4,5.4-1.5,7.2Z"/>
    <path class="cls-2" d="M429.3,106.7c-1.9-1.7-3.8-3.3-5.7-5,3.1.4,5,2,5.7,5Z"/>
    <path class="cls-2" d="M764.7,679.1c-2.2-1-1.7-2.9-1.8-4.6,3.2.5,1.6,2.9,1.8,4.6Z"/>
    <path class="cls-2" d="M762.9,674.5c-1.9-.6-1.8-2.2-1.8-3.7,2.6.3,1.8,2.2,1.8,3.7Z"/>
    <path class="cls-2" d="M475.8,552.2c-.5,1.8-1.9,1.9-3.4,1.8.3-2.2,2-1.6,3.4-1.8Z"/>
    <path class="cls-2" d="M434.7,112.9c-1.7,0-1.9-1.1-1.9-2.4,1.7,0,1.9,1.1,1.9,2.4Z"/>
    <path class="cls-2" d="M431.1,108.5c-.5-.6-1.1-1.1-1.6-1.7.5.6,1.1,1.1,1.6,1.7Z"/>
    <path class="cls-2" d="M432.8,110.6c-.5-.6-1-1.3-1.6-1.9.5.6,1,1.3,1.6,1.9Z"/>
    <path class="cls-2" d="M258.5,657.8c.6.7,1.1,1.5,1.7,2.2-1.6,0-2.1-.8-1.7-2.2Z"/>
    <path class="cls-2" d="M740.8,663.8c-.7.6-1.4,1.1-2,1.7,0-1.3.8-1.8,2-1.7Z"/>
    <path class="cls-1" d="M634.5,1050.9"/>
    <path class="cls-1" d="M641.1,1051.7"/>
    <path class="cls-1" d="M648.7,984.3"/>
    <path class="cls-1" d="M650.3,992.4"/>
    <path class="cls-1" d="M638.9,1003"/>
    <path class="cls-2" d="M635.1,1043.9c0,.5-.1,1-.2,1.6-.5.1-.9.3-1.4.4-2.3-1.3-2.2-1.9,0-3.4.5.5,1,1,1.5,1.5Z"/>
    <path class="cls-1" d="M644.5,1016.2c.5.7,1,1.4,1.4,2"/>
    <path class="cls-1" d="M656,1007.5c.5.6,1,1.2,1.6,1.9-.5-.6-1-1.2-1.6-1.9Z"/>
    <path class="cls-2" d="M728.7,1073.7"/>
    <path class="cls-2" d="M283.4,1066.3c0,.6,0,1.1,0,1.7-3.9,3.9-7.7,7.7-11.6,11.6l-.2-.2c2-5.5,6.4-11.3,11.8-13.1Z"/>
    <path class="cls-2" d="M345,1030.4c2.6,2,1.2,5.4,1.5,8.3-2.9-2-1.4-5.3-1.5-8.3Z"/>
    <path class="cls-2" d="M269.8,1081.2c.6-.6,1.2-1.2,1.8-1.8,0,0,.2.2.2.2-.6.6-1.2,1.2-1.8,1.8,0,0-.2-.2-.2-.2Z"/>
    <path class="cls-6" d="M270,1081.4c17.6-19.7,50.1-41.7,75.8-24,4.6-1.3,2-6.8,6.4-8.4,5.5-2.6,10.7-8.5,17.1-8.3,10.6,2.5,18.3,10.1,28.3,14.1.9,1.5-.5,4.1,1.9,4.3,1.3.1,1.9-.6,1.9-1.9,3.6-6,11.4-12,18.8-11.4,7,.7,11.3,7.4,18.4,6.9.4,1.9-1.6,4.8,1.9,4.3,2.7.6,3.7-.9,4-3.2,2.1,0,1.5-1.4,1.5-2.8,9.2-1.1,17.1-8.7,26.5-2.3,5.1,2.9,3.2-5.2,7.7-4.8-.1,3.3-2.3,7.8,1,10,.9,1.2.3,3.5,2.8,3.5,16.5,3.8,30.4,14.4,44,24.2,0,1.2.7,1.8,1.9,1.5h.2c1.1,3.8,4.9,3.2,6.2,7-90.6,1.9-181.6.6-272.4.5,2.1-3.3,4-6.2,5.8-9.1Z"/>
    <path class="cls-6" d="M605.3,1039c-2.1-2-1.2-2.9.9-.9-.3.3-.6.6-.9.9Z"/>
    <path class="cls-2" d="M446.1,1051c0,.2-.1.4,0,.6-2.1,2.1-1.5,6.4-5.5,5.4-.6-.9-1.3-1.9-1.9-2.8-.4-92.7,0-185.3-.2-278,.5-4.7-1.9-11.3,3.8-13.4,7.7,94.3,1.7,192.6,3.8,288.2Z"/>
    <path class="cls-2" d="M465.5,695.2c-5-11.9,7.7-9.9,15-13.5,68.4-28.4,92.9-103.9,113.5-168.4,4.6-7.8,8.2-50.1,16.5-47.7-18.8,84-49.3,204.5-144.9,229.6Z"/>
    <path class="cls-2" d="M377.1,713.5c-5.3,9.7-18.4,5.8-27.2,4.3-32.3-6.5-54.8-32.3-68.5-60.5-40.8-111.3-45.5-232.3-50.5-349.2,5.9-1.9,2.8,4.6,3.2,7.5,1.7,37.9,4.7,76,8.2,113.7,11.6,81.3,15.7,297,134.8,284.2Z"/>
    <path class="cls-6" d="M348.3,752.5c.3-24.7-1.4-20.1,21.1-23.5,22.6-2.4-13.3,26.1-21.1,23.5Z"/>
    <path class="cls-1" d="M468.3,557.2c.8-.4,1.6-.8,2.4-1.2-.3,1.4-1.1,1.8-2.4,1.2Z"/>
    <path class="cls-1" d="M401.3,1057.2c.4,2.8-4.4,2.3-3.2-.3,1.1.1,2.1.2,3.2.3Z"/>
    <path class="cls-2" d="M640.8,1040.5c-.6.5-1.3.9-1.9,1.4.6-.5,1.3-.9,1.9-1.4Z"/>
    <path class="cls-1" d="M479.8,1047.3c1.5,1.6,1.9,3.5,2,5.6-.1.3-.3.6-.4,1-2.6-1.5-1.5-4.1-1.5-6.6Z"/>
    <path class="cls-2" d="M530.3,1083.1c2.4.2,3.5,1.6,4.2,3.7-2.3-.3-3.5-1.7-4.2-3.7Z"/>
    <path class="cls-2" d="M481.3,1053.8c.1-.3.3-.6.4-1,2.1.8,2.3,2.6,2.3,4.4-2.5,0-1.9-2.3-2.8-3.5Z"/>
    <path class="cls-1" d="M438.6,1054.2c.6.9,1.3,1.9,1.9,2.8-2.6.4-2.3-1.2-1.9-2.8Z"/>
    <path class="cls-1" d="M444.6,1053.8c.5-.7,1-1.5,1.5-2.2.4,1.3,0,2.1-1.5,2.2Z"/>
    <path class="cls-2" d="M486.2,1057.7c1.2-.4,2.2-.3,2.4,1.2-.8-.4-1.6-.8-2.4-1.2Z"/>
    <path class="cls-2" d="M492.5,1059.4c1.2-.3,2.2-.1,2.4,1.4-.8-.5-1.6-.9-2.4-1.4Z"/>
    <path class="cls-2" d="M528.2,1081.4c.6.5,1.3,1,1.9,1.5-1.3.2-1.8-.3-1.9-1.5Z"/>
    <path class="cls-6" d="M700.1,1051c2.4-12.4-1.4-27.4,3.1-39.1,3.4-7,11.2-10.4,15.3-17,7.1-11.7,11.5-27,10.4-40.8-1.5-8.5-8.9-7.7-11.8-.5-3.6,8.2-4.6,19-8.7,26.7-5.3,10.3-9,4.9-8.6-3.7-1.7-20.5,11.6-120.8-16.7-118.7-8.2,1.2-12,10-13.2,17.5-4.1,39.1-2,78.7-2.5,118.1-.7,6,1.8,15.9-3.2,20-5.4,1-9.2-6.2-11.3-10.4-5.2-6.4-6.5-44.7-16-40.2-5.3,5.7-1.7,16.4-1.1,23.5,2.5,18.8,5.3,33,24.6,40.4,15.2,6.8,9,30.1,9.1,35.2.2,8.7,28.7,7,30-3.1l.7-8Z"/>
  </g>
</svg>