<?xml version="1.0" encoding="UTF-8"?>
<svg id="Layer_1" data-name="Layer 1" xmlns="http://www.w3.org/2000/svg" version="1.1" viewBox="0 0 1920 1080">
  <defs>
    <style>
      .cls-1 {
        fill: #7ca08e;
      }

      .cls-1, .cls-2, .cls-3, .cls-4, .cls-5, .cls-6 {
        stroke-width: 0px;
      }

      .cls-2 {
        fill: #f4efea;
      }

      .cls-3 {
        fill: none;
      }

      .cls-4 {
        fill: #f4dcdc;
      }

      .cls-5 {
        fill: #d39381;
      }

      .cls-6 {
        fill: #597b73;
      }
    </style>
  </defs>
  <g>
    <path class="cls-4" d="M519.4,802.6c-16.8,3.9-133.9,3.3-150.8,6.9-11.3,2.5-38.9-16.2-43.5-30.6-3.8-11.6-11.7-13.3-25.3-14.7-22.1-2.3-44.2-6.6-65.7-11.7-22.7-5.2-34.4-17-33.4-36.1.8-18.5.8-37-1.7-55.3-2.1-16.6-8.5-32.8-11.5-49.4-1.7-10.1,1.5-20.7-.8-30.6-1.7-8.1-8.1-15.6-15.9-23-17.4,19.6-6.6,41.3-12.1,61.2-27-4.6-34-12-38.2-37-4.3-26.6-10-53.1-14-79.7-1.5-10.5-3.4-22.2.8-31.9,7.9-18.1-1.7-34.1-5.9-50.5-.9-3.9-11.9-8.1-19.1-9-12.7-1.7-37.6,20.1-34.6,29.9,5.3,17.3,12.3,34.4,19.1,52.9-2.3,3-7.6,7.7-9.1,12.9-11.5,41.2-37.8,80.3-28.9,124.2,7.4,37.1-14,69.7-28.7,103.3q-.1,11.3-.1,14.2v331.6h465.7c-.2-3.3,64.4,1,64.2-2.2-6.8-92.6,10.5-182.9-10.5-275.1v-.3h0Z"/>
    <path class="cls-4" d="M1203,701.2c-2.2,127.2-18.3,253.1-38.8,378.4h-634.3v-2.6c-.4-15.5-.9-31.1-1.6-46.7-.2-5-.5-10.1-.8-15.2-4.2-71.4-7.8-142-8.1-212.6v-.4c9.4-4.7,18.7-9.5,28-14.1,21-10.4,42.1-20.8,63-31.3,4.2-8.2,11.2-16.5,12.3-25.2,5.8-47.5,10.4-95.2,15.5-142.9.4-3.5,1.6-7,2.5-10.5,32.7,8.9,32.6,8.9,33.1,35.5,0,6.8,0,14.1,3.3,19.9,11.3,20.8,7.2,46.5,27.3,64.4.5,4,.9,7.8,1.4,11.8-.7,1.7-1.6,3.4-2.3,5.2,2,5.6,4.1,11.1,5.5,16.8,8.1,29.6,23.2,40.3,57.7,40.8,5.5,0,11.1,1.3,16.4,2.8,27.8,8.9,54.9,19,83,26.3,14.8,3.9,33.3,7.4,46.3,2.8,34.6-12.1,66.6-29.5,104.8-33,8.1-.8,16.5-2.6,23.9-5.7,22.1-9,44-18.5,66-27.7.2,0,.3,0,.4-.2,7.2-3,14.5-6.1,21.8-9,6-2.4,12-4.9,18-7.2,18.4-7.2,37-13.8,55.8-20.4h-.1Z"/>
    <path class="cls-4" d="M1203.1,701.2h0v-.4.4h0Z"/>
    <path class="cls-4" d="M1919.6,1079.9h-812.6v-.3h57.1c20.5-125.3,36.6-251.1,38.8-378.4h0v-.4.4c-18.8,6.6-37.4,13.2-55.8,20.4-6,2.4-12,4.8-18,7.2,11.9-6.1,34.5-17.5,83.6-40.6,41.5-19.5,39.1-10.5,53.9-14.8,9.6-2.8,14.3-1.6,18.2-6.3,15-18,29.3-36.7,39.1-56.1,7.1-14.2,2.7-30.9,10.3-45.1,26.8-49.1,19.2-101.4,43.8-151.5,20-40.6,11.4-86.8,15.3-130.5,0-10.2,5.7-16.8,24.4-18.6,7.1-.8,16.2-6.1,18.7-10.7,6.2-11.8,17.3-17.1,37.2-19.9,21.6-3.1,42.1-9.9,62.5-15.6,13.3-3.7,26.8-12.7,38.9-11.8,38.1,3.1,85.6-4.4,103.6,28.3,1.2,2.2,8.8,3,11.3,5.3,8.6,7.5,18.2,14.8,23.9,23.1,4.7,7.2,4.2,15.6,6.2,23.4v288.8c6.9-12.2,16-21.4,16.7-30.7,4.7-63.4,7.4-127,12.1-190.3.5-6.7,12.5-19.1,15-19.1,18.7,3.3,47.5-.8,48,19.4,1.2,35.9,1.5,72,3.7,108.1.5,7.5,8.9,14.7,12.1,22.3,4.1,9.8,9.1,19.9,9.8,30,2.9,36,4.4,71.9,5.9,107.8,1,23.5,18.9,40.5,46.5,52.7,2.8.9,2.9.4,16.2,6.1,2.2.4,11.8,4.1,13.9,4.5v161.1h.2c.6,78.1,0,79.8-.6,231.8h.1Z"/>
    <path class="cls-4" d="M1147.2,721.6c18.4-7.2,37-13.8,55.8-20.4-2.2,127.2-18.3,253.1-38.8,378.4h-57.1c28.6-125.3-3.2-214.4,0-341.5h0c.2,0,.3-.2.4-.2,8.7-2.2,8.3-2.1,21.8-9,6-2.4,12-4.9,18-7.2h-.1Z"/>
    <path class="cls-4" d="M1203.1,701.2h0v-.4.4h0Z"/>
  </g>
  <g>
    <path class="cls-6" d="M757.9,650.4h0Z"/>
    <path class="cls-6" d="M1648.9,877.6c-11.4,1.5-25,.5-36.8.5s-13.8,0-18.4-2c6.7,0,13.3,0,19.9.2,11.4.2,22.8.5,34.1,0,.3.4.7.8,1,1.3h.2Z"/>
    <path class="cls-6" d="M1177.8,990.4c1.3-12.9-.5-26.7,2.9-39.3,1.5-3.7,5.3-5.8,8.9-7.4,24.6-10.4,31.8-38.2,36.9-64.5,2.7-13.3,5.1-26.1,6.7-39.7,0-11.5,9.8-36.5.4-44.3-6.2-4-12.5,2.3-13.1,8.5-2.6,12.1-6.1,33.6-11,54.8-3,13.2-6.6,26.4-10.8,37-3.4,11.1-19.2,34.8-20.8,16.1-1-82,1-165.1-7.3-246.4-.9-3.8-3.4-8.2-7.6-8.3-17.8,0-5.8,127.4-13.6,141.4-16.1,0-17.6-40.6-28.2-49.2-21.6-12.5-.4,53.4,5.9,58.3,5.5,10,21.3,12.6,21.8,25-1,23.9-.8,48.1-2.4,71.9,0,4.1-1.8,9-6.7,6.7-22.9-11.9-22.6-44.1-36-64.3-8.6-8.6-11.9,3.4-10.4,11.8,4,23.9,8.9,50.1,27,67.2,6.2,6.2,17.5,5.3,22.3,12.9,2.5,7.9,2.1,18.2,3.4,26.6v31.9c4.7,5.4,16,7.3,22,10.9,9.3,5.6,9.4-9.7,9.6-17.4v-.2h0Z"/>
    <path class="cls-6" d="M961.5,983.1c-.7-11.8-4.5-23.7.2-32.8,4.6-7.1,15-6.7,21.9-10.9,31.4-16,47.7-75.7,47.4-108.6-.7-7.8-7.6-12.1-13.7-6.3-7.9,8.8-8.7,22.5-12.8,33.3-3.8,13.3-10.4,26.3-19.6,36.3-4.8,4.8-14,17.1-20.9,10.1-4.9-88,1.5-178.3-1.4-266.9-4.3-42.7-1.1-86.9-12.1-128.7-2.8-9.6-12.6-17-21.7-10.8-11.4,8.8-11,26.2-13.2,39.4-10.8,150.7-13,301.5-24.3,452.5-3.2,16.6-6,16.4,5.4,13.3,16.1-4.5,48.7-6.3,60.6-19.2h0l4.2-.7h0Z"/>
    <path class="cls-6" d="M883.9,1003.8c-8.9-140.7-12.6-284.3-22.7-425.8-1.8-39.4-2.5-78.7-6.5-118-1.9-15.7-.5-39-11.8-50.9-6.4-5.3-13.2-.7-16.5,7.1-6.9,20.5-6.3,43.7-6.8,65.5.2,17.4-2.1,34.6-2,52,.2,75-3.1,149.8-2,224.9.7,16.9-5.1,20.2-16,6.6-26.1-30.3-30.4-73-43-110-4.9-13.7-22-20.3-27.8-3.4-5.1,17.1-1.1,36.4,1.8,53.8,7,42.6,23.4,93.5,67.3,109,6.6,2.5,13.8,5.6,16.8,11.9,2.2,4.1,2.6,9.9,2.6,14.9.2,38.5.7,77,1.8,115.4-.7,20.5,4.3,42.2-.3,62.5-1.2,4.1-2.1,6.2-.7,6.8,4,.5,10.5-1.1,15-2,13.5-4.1,42.9-9.4,50.8-20.2h0Z"/>
    <path class="cls-1" d="M633.9,516.7c-3.7,16.8-8.3,33.4-13.8,49.7-11.9,35.2-28.8,69.3-54.2,96.4-25.4,27.1-60,46.8-97.1,49.1,2.1,91.7,4.2,183.4,6.2,275,.3,12.9.5,26.1-3.6,38.3-9.9-3.6-21.2-3-30.6,1.6,1.3-96.1,2.6-192.3-4.7-288.1-3,96.6-3.7,193.3-2.1,289.9,0-2-9.3-4.5-10.8-4.8-4-.9-8.3-1-12.4-.3-4.1.7-3.9.8-5.8,1.5s-4.5,2.8-5.6,2.3c-2-.9-.7-12.6-.7-14.9,0-21.9.2-43.7.3-65.6.2-43.7.3-87.4.5-131.2l.5-131.2c.2-43.7.3-87.4.5-131.2l.5-131.2c.2-43.7.3-87.4.5-131.2l.5-131.2c0-19.5.2-38.9.2-58.4s.6-19,7.4-24.7c.3,226.4.6,452.9.9,679.3,0,2.9,1.7,6.9,4.3,5.8,3.6-228.2,2.6-456.4-3-684.5,15.6,1,23.5,18.9,26.9,34.1,9.8,42.9,11.9,87.1,13.7,131.1,5.3,127.2,9.2,254.4,11.8,381.7,45.3-16.7,72.2-63.3,88.7-108.7,50.8-139.9,38.6-293.5,54.4-441.5-2.2.5-4.4.9-6.6,1.4,12-7.1,28.4-.9,37,10.1s11.2,25.5,13.1,39.3c9.8,72.2,6.3,145.5,2.4,218.3-3.2,58.2-6.8,117-19.4,173.7h.1ZM460.5,671.2c95.6-25.1,126.1-145.6,144.9-229.6-8-2.9-12.1,40.4-16.5,47.7-20.6,64.5-45.1,140-113.5,168.4-7.3,3.6-20.1,1.7-15,13.5h0Z"/>
    <path class="cls-1" d="M400.7,78c-1.6-.4-2.5-.6-3.5-.9-10.5,6.9-17.2,17.5-21.1,29.3s-4.7,21.9-5.9,33.1c-4.9,45.8-9.3,91.7-11.1,137.8-1.7,45.8-2.5,91.7-3.4,137.6-.9,46.3-1.8,92.7-3.7,139-.9,23.2-2,46.3-3.5,69.4-46.8-21.5-63.9-85.3-73.2-131.8-6.6-39-10-77.9-14.1-117.2-4.7-24-1.5-92.8-33.8-95.6-22.3,8-15.5,40-17.2,58.9.7,43.2,2.5,86.2,7.3,129.1,11.8,72.7,27.2,243,123.9,244.3,1.2,98.4-1.8,196.8-1.5,295.2v.2c.2,15.2-.1,0,.2,15.2-.2,0,0,8.9-.2,8.8.1.9.3,1.8.5,2.7h.1c4.7-1.3,2-6.8,6.4-8.4,5.5-2.6,10.8-8.5,17.1-8.3,10.7,2.4,18.3,10.1,28.3,14.1-4.3-178,5.5-356.3,3.7-534.3,3.4-139.3-6.2-279.5,4.5-418.3h.2ZM374,709.8c.3-24.7-34.2,12.9-11.7,9.5,22.6-2.4,19.4-6.9,11.7-9.5ZM344.9,693.8c-32.3-6.5-54.8-32.3-68.5-60.5-40.8-111.2-45.5-232.2-50.5-349.2,5.9-1.8,2.8,4.5,3.2,7.5,1.7,37.9,4.8,75.9,8.2,113.7,11.6,81.4,15.6,296.9,134.8,284.2-5.4,9.6-18.4,5.9-27.2,4.3h0Z"/>
    <path class="cls-5" d="M1007.6,70.4c74.5-.8,125.6,81.7,96.5,148.6-34.2,84.6-155.8,87-193.1,3.4-29.5-65.7,20.5-154.3,96.6-152Z"/>
    <path class="cls-6" d="M600.3,75.6c3.1-2.4,7.5-4,11.9-3.8-6.5,8.2-7.3,28.9-8,39.6-2.4,9.6-1.2,19.4-3.5,29.1,0,10.7.6,20.9-1.8,31.2-2.9,85-2,171.3-22.2,254.2-14.8,64.9-30.4,137.5-83.1,183.4-6,3.4-5.1,5.1-29.2,15.9-1-26.2-3.3-62.9-2.1-92,1.5.3,3.1,1.1,3.4-1,.6-.6,1.1-1.3,1.7-1.9,1.5,0,2.9,0,3.4-1.8h.2c4.2-1.2,7-4.2,9.9-7.2,8.2-4.8,14.5-13.3,19.9-21.1,6.3-5.3,10.4-13.8,13.6-21.2,27-47.1,32.8-103.3,37.8-156.6,8.4-55.1-7.1-224,48.1-246.4v-.4h0Z"/>
    <path class="cls-2" d="M1146.2,296.7c-.5-3,1-3.5,2.5-3.7,9.8-2.3,19.6-5.6,29.6-7.9,15.8-5.4,39.9-6.8,46.1-24.9,9-31.9,38.5-54.1,69.4-62.7,36.3-11.9,73.8,9.7,91.6,41.7,2,5.5,4.2,13.4,7.8,3.1,3.1-7.6,13.8-2.2,18.7.5,6.8,4.6,12.6-1.3,19.2-3.4,17.6-1.4,37.5,13.1,41.8,30.3,2.8,31-42.1,25.9-63,26.9h-263.7Z"/>
    <path class="cls-2" d="M392.5,1030.8c-4.2-178,5.5-356.3,3.7-534.3,3.3-139.3-6.2-279.5,4.5-418.3-1.6-.4-2.5-.7-3.5-.9-.5-4.5,19.8-3.5,19.9,0h-6.4c10.7,227.7,3.8,456.6,5.3,684.6-3.3,0-6.1,0-8.1-1.7,4.5-227.3,5.4-456.3-.9-683.4-7.8,2.3-3.4,15.2-5.8,21.2-.3,143.2.8,287.2.4,430.7-2.9,167.8,0,337.3-5.3,504.4-1.1,0-2.1-.2-3.2-.4-.2-.7-.4-1.4-.6-2.1h0v.2h0Z"/>
    <path class="cls-4" d="M900.1,849c-3.6,51.1-1.1,104.8-10.6,154.5-11.6-4.3-9.3-65-11.9-79.2-2.4-39.9-2.4-55.5-3.1-95.5,1.6,0,9.4,3,9.4,4.4.4,25.6-13.2,7.7,13.7,18.7.7-.9,1.6-1.9,2.5-2.9h0Z"/>
    <path class="cls-2" d="M900.2,847.2h0Z"/>
    <path class="cls-2" d="M759.7,655.1c-2.2-1-1.7-2.9-1.8-4.6,3.2.5,1.6,2.9,1.8,4.6Z"/>
    <path class="cls-2" d="M757.9,650.5c-1.9-.6-1.8-2.2-1.8-3.7,2.6.3,1.8,2.2,1.8,3.7Z"/>
    <path class="cls-2" d="M426.1,84.5c-.5-.6-1.1-1.1-1.6-1.7.5.6,1.1,1.1,1.6,1.7Z"/>
    <path class="cls-2" d="M427.8,86.6c-.5-.6-1-1.3-1.6-1.9.5.6,1,1.3,1.6,1.9Z"/>
    <path class="cls-2" d="M253.5,633.8c.6.7,1.1,1.5,1.7,2.2-1.6,0-2.1-.8-1.7-2.2Z"/>
    <path class="cls-2" d="M735.8,639.8c-.7.6-1.4,1.1-2,1.7,0-1.3.8-1.8,2-1.7Z"/>
    <path class="cls-1" d="M629.5,1026.9h0Z"/>
    <path class="cls-1" d="M636.1,1027.7h0Z"/>
    <path class="cls-1" d="M643.7,960.3h0Z"/>
    <path class="cls-1" d="M645.3,968.4h0Z"/>
    <path class="cls-1" d="M633.9,979h0Z"/>
    <path class="cls-3" d="M639.5,992.2c.5.7,1,1.4,1.4,2"/>
    <path class="cls-1" d="M651,983.5c.5.6,1,1.2,1.6,1.9-.5-.6-1-1.2-1.6-1.9Z"/>
    <path class="cls-2" d="M723.7,1049.7h0Z"/>
    <path class="cls-2" d="M264.8,1057.2c.6-.6,1.2-1.2,1.8-1.8l.2.2c-.6.6-1.2,1.2-1.8,1.8l-.2-.2Z"/>
    <path class="cls-6" d="M1613.7,876.3c-6.6-.2-13.3-.3-19.9-.2-.3,0-.5-.2-.7-.4-7.6-4.1-9.2-13.9-17.6-17.4-19.9-6.6-35.5-6.3-49-25.7-12.6-18.1-19.1-40.5-20.9-62.3-1.3-10.8,6.8-21.9,15.1-10.3,7.2,13,9.7,29.3,18,42.5,1.8,5.3,21.6,29.2,20,13.3-4.2-15.4-6.9-31-6.9-47.3.2-14-.7-28.2.7-42.1.6-8.3,8.3-16.4,14.7-7.6,5,7.2,4.8,17.2,6.1,25.7,1.5,12,3.3,22.8,5.8,35.2,10.3,45.1,20.8,42.7,26.7-1.8,7.2-35.8,8.1-72.1,8.5-108.7,0-16.9,2.2-33.6,1.9-50.6.9-11.5-2.7-56.8,14.4-54.6,3.9,1.3,5.9,5.2,7.2,10.4,4.8,72.9-.6,146.5,2.2,219.6.5,20.4.3,40.7.3,61.1-.3,10.8,2.4,14.7,7.6,21.2-11.4.5-22.8.2-34.1,0h0Z"/>
    <path class="cls-6" d="M1920.2,865.9v214.2c-455.2,0-921.8.8-1377.3,0-89.8,1.7-206.6,0-295.2,0,2.1-3.3,15.2-19.6,17-22.5h.3c17.6-19.8,50.1-41.8,75.8-24.1,4.6-1.3,2-6.8,6.4-8.4,5.5-2.6,10.7-8.5,17.1-8.3,10.6,2.5,18.3,10.1,28.3,14.1.9,1.5-.5,4.1,1.9,4.3,1.3,0,1.9-.6,1.9-1.9,3.6-6,11.4-12,18.8-11.4,7,.7,11.3,7.4,18.4,6.9.4,1.9-1.6,4.8,1.9,4.3,2.7.6,3.7-.9,4-3.2,2.1,0,1.5-1.4,1.5-2.8,9.2-1.1,17.1-8.7,26.5-2.3,5.1,2.9,3.2-5.2,7.7-4.8-.1,3.3-2.3,7.8,1,10,.9,1.2.3,3.5,2.8,3.5,12.3,2.8,23.2,9.5,33.5,16.6,7.2,5,13.8,10.6,20.7,16.1,1.3-1.8,2.8-3.5,4.6-5,.5-.4,1-.8,1.5-1.2,10.6-8.4,21.4-16.5,33.1-23.3,10.4-6.2,21.7-11,33.7-13.2-1.7-3-3.3-5.7-4.8-8.4l.4-.4c2,.3,2.7.5,4.6.8,1.4,2.9,2.9,5.4,6.6,6.4-1.4-3.5-1.8-5.8-1.2-6.9,1.7,2.1,3.5,4.2,5.2,6.3,1.4-.8,3-1.7,5-2.9-.4,1.9-.7,3.2-1.2,5.3,1.9-1.5,3.1-2.4,5.1-4-.8,2.3-1.2,3.7-1.8,5.8,2.5-1.2,4.7-1.3,5.4-3.7,2.4-.2,5.2-2.7,7.1-.2-2,2-3.5,3.1-6.1,5.2,3.6,2.1,5.6.5,8.8.9,2.2,1.4,4.7,2.1,7.3,2.3,6.8,2.4,11.7,6.9,18.7,8.8v-.8c10.2,0,20-1.9,30-3.1v1c.5,1.2,2.3,2.5,3.3,3.4,1.1,1,2.6,1.4,4,1.8,5.8,1.6,11.7,3.3,17.1,5.9,4.3,2.1,8.3,4.8,12.2,7.5,2.2,1.5,4.5,3.1,6.3,5.1,1.4,1.6,2.5,4.5,5.2,3.7.7-.2,1.2-.6,1.8-1,.5-.4,1-.8,1.6-1.2,10-7.4,20.1-14.3,31.1-20.2,5.5-2.9,11.1-5.6,16.7-8.2,5.3-2.4,10.8-5.3,16.5-6.7,4.2-1,8.6-1.2,12.8-2,11.3-2.1,22.2-5.2,33.1-8.9,5.4-1.9,10.7-3.9,16.1-5.9,2.7-1,5.3-2,8-3,1-.4,7-3.3,7.7-2.8s1.3.2,1.9-.7c12.2-4.3,24.6-7.9,38.1-9.7,11.6-1.7,20.9-9.1,32-12.1.3.7.8,1.5,1.3,2.2,15.2-6.8,22.9-13.1,39.8-12.6l11.7-.6c27.3,0,55.4,1.9,81.4,11.4,7,2.5,13.9,5.3,20.9,7.6,5.9,2,12.4,2.9,18.2,5.3,2,.9,3.9,2,6,2.8,1.4.5,4.7,1.3,6,.2.9-.9.7-4.5.5-5.8,9.8,3.6,19,9.3,28.7,13.6.4,2.1,1.5,3.6,4.1,3.4,19.9,12.9,44.9,19.9,66.3,31.4,1.8.9,3.7.9,5.6.5,5.2-1.1,10.7-5.9,15.3-8.4,6.7-3.7,13.1-8.1,19.7-12.2,13.1-8.1,26.2-16.2,39.3-24.3,26.2-16.2,52.4-32.4,78.7-48.6,19-11.8,38.1-23.5,57.9-33.9,9.7-5.1,19.6-9.5,29.6-14,9-4.1,17.4-9.6,27.4-11.2,1.6-3.8-2-4.4-3.9-6.1,4.5-2.2,8.2,1.1,12.5.9-1.1-4.3-2.2-7.8-6.2-9.6.2-.8.4-1.5.6-2.6,3.4,2.4,6.5,4.6,9.5,6.7,2.5-3.8-2-7.1-.6-10.8,6.6,3.4,2.3,10.8,8.7,13.1,3.8-3.9,5.3-9.8,10.6-11.7-1.1,3.2-2,5.7-2.9,8.5h3.2c.4,1,.8,1.9,1.1,2.5,1.6-.4,2.9-.7,4.7-1.2-.4,1-.8,2.1-1.1,3.1.6-.2,1.4-.6,2.1-.6,5.4-.6,10.8-1.2,16.1-2,6.7-1,13.7-1.9,20.4-2h0c4.5,2,12.1,2,18.4,2,11.8,0,25.4,1,36.8-.5h0c-.4-.4-.7-.8-1-1.3,2,0,4-.2,6-.3,3.2,3.1,8.7,1.5,13.3,1.1-2.1-3.4-5.5-5.3-7-8.9,4.3,0,6.1,4.6,10,4.6,1.6-2.4-2.4-5.5,1.4-7.4,1.2,1.5,2.4,3,3.7,4.5,1.2-.8,1.8-1.4,2.4-1.6,5.4-.7,3.7-6.1,7.3-9.1l1,.4v9.5c2.2,0,3.9.3,5.1,1.3-1,1.5-1.9,3.1-3.1,5,1.7.3,3.1.5,4.7.8-.3,1-.5,1.8-.9,3,1.5-4.6,49,16.7,54.2,17.9,1.2.3,2.5.5,3.5,1.2.4.2.7.5,1.1.8.7.4,1.5.6,2.3.7,6.5,1.3,13.1,3.4,18.8,6.9,4.9,3,9.4,7.3,15.5,6.6-12-9.4-21.8-20.3-32.3-31.7,3.1-2.4,7.2-.3,10.2,1,3.8,1.6,7.6,3.2,11.4,4.9,3.3,1.5,6.6,2.9,9.6,5.1,1.1.8,2.2,1.8,3.6,2.2.6.2,1.2-3.5,1.2-3.9-.2-.9-.8-1.7-1.4-2.5-3.8-5-5.2-11-7.8-16.7-1.3-2.9-1.9-5.8-2.9-8.9-.7-2.1-1.3-4.2-1.8-6.4-.2-1.1-.5-2.2-.6-3.4,0-.4,0-2.8-.3-3,8.9,5.8,15.5,13.4,23.2,20.3,0,0,.6-2.3.6-2.6,0-.9,0-1.8-.3-2.7-.3-1.5-1.7-3.5-.8-5,.8-1.3,2-2.1,2.7-3.6.6-1.3.9-2.8,1-4.2s-.3-8,1.5-8.3c5.8-1.1,8.2,10.4,11,12.5.2.2.2.3.2.5,1.6,3.5,3.2,6.9,5.2,11.3,3.7-8.8,4.8-17.9,8.7-26,3.3,7.6,5.5,15.4,6,23.8,6.1-2.1,8.6-10,12-15.1,3.1-2.2,4.5-4.2,7.1-7.5v17.1c-1,1.8-2.4,5.2-1.2,7.1.5.8,1.3.9,2.2.6.8-.3,1.4-.9,2.2-1.3.9-.5,1.8-.9,2.5-1.6.4-.3.7-.7,1.1-1,1.1-.9,2.4-1.6,3.6-2.4,1.6-1.1,3.2-2.2,4.6-3.4,1.3-1.1,2.5-2.1,4-3,.4-.2,4.5-2.3,4.8-1.9,0,.3.3.5.4.7-1.4,1.8-2.6,3.8-3.7,5.7-.6,1-1,2-1.6,3-.3.5-.8.9-1.1,1.5-.4.6-.7,1.1-1.2,1.5-.7.6-1.3,1.2-1.6,2-.3.9-.6,1.9-1.3,2.5-.6.5-.9,1-1.3,1.6-.9,1.2-1.6,2.4-2.2,3.7-1,2.1-2.2,4.8-1.7,7.1,4-2,15.5-15.8,18.6-12.3-3.3,5-6.6,10-10.2,15.5,3.7.4,5.8-.9,7.5-3h.2c7.7-2.3,15.1-6,22.4-9.5,2.1-1.1,5.2-1,6.1-3.9h.9c3.5-1.4,8.3-3.8,12.3-3.8l-.5.2h0Z"/>
    <path class="cls-6" d="M1648.9,877.6c-11.4,1.5-25,.5-36.8.5s-13.8,0-18.4-2c6.7,0,13.3,0,19.9.2,11.4.2,22.8.5,34.1,0,.3.4.7.8,1,1.3h.2Z"/>
    <path class="cls-6" d="M601.1,1015.1c-2.1-2-1.7-2.4.4-.4l-.4.4Z"/>
    <path class="cls-2" d="M435.6,1033c-.6-.9-1.3-1.9-1.9-2.8-.4-92.7,0-185.3-.2-278,.5-4.7-1.9-11.3,3.8-13.4,7.7,94.3,1.7,192.6,3.8,288.2h0c0,.2-.1.4,0,.6l-5.5,5.4h0Z"/>
    <path class="cls-2" d="M460.5,671.2c-5-11.9,7.7-9.9,15-13.5,68.4-28.4,92.9-103.9,113.5-168.4,4.6-7.8,8.2-50.1,16.5-47.7-18.8,84-49.3,204.5-144.9,229.6h-.1Z"/>
    <path class="cls-2" d="M372.1,689.5c-5.3,9.7-18.4,5.8-27.2,4.3-32.3-6.5-54.8-32.3-68.5-60.5-40.8-111.3-45.5-232.3-50.5-349.2,5.9-1.9,2.8,4.6,3.2,7.5,1.7,37.9,4.7,76,8.2,113.7,11.6,81.3,15.7,297,134.8,284.2h0Z"/>
    <path class="cls-2" d="M635.8,1016.5c-.6.5-1.3.9-1.9,1.4.6-.5,1.3-.9,1.9-1.4Z"/>
    <path class="cls-6" d="M695.1,1027c2.4-12.4-1.4-27.4,3.1-39.1,3.4-7,11.2-10.4,15.3-17,7.1-11.7,11.5-27,10.4-40.8-1.5-8.5-8.9-7.7-11.8-.5-3.6,8.2-4.6,19-8.7,26.7-5.3,10.3-9,4.9-8.6-3.7-1.7-20.5,11.6-120.8-16.7-118.7-8.2,1.2-12,10-13.2,17.5-4.1,39.1-2,78.7-2.5,118.1-.7,6,1.8,15.9-3.2,20-5.4,1-9.2-6.2-11.3-10.4-5.2-6.4-6.5-44.7-16-40.2-5.3,5.7-1.7,16.4-1.1,23.5,2.5,18.8,5.3,33,24.6,40.4,15.2,6.8,9,30.1,9.1,35.2.2,8.7,28.7,7,30-3.1l.7-8h0Z"/>
  </g>
</svg>