<?xml version="1.0" encoding="UTF-8"?>
<svg id="Layer_1" data-name="Layer 1" xmlns="http://www.w3.org/2000/svg" version="1.1" viewBox="0 0 499.2 128.9">
  <defs>
    <style>
      .cls-1 {
        fill: #fff;
        stroke-width: 0px;
      }
    </style>
  </defs>
  <path class="cls-1" d="M194,40.6h-25.3c-1.3,0-1.9-.3-1.8-1.6.1-2,0-4,0-6.1s.3-1.3,1.3-1.2h36.9c.8,0,1.2.2,1.3,1.1.8,9.3-1.5,17.8-8.1,24.9-5.8,6.4-13.1,10.3-22,11.4-11.6,1.5-22.1-1-30.9-8.5-6.4-5.5-10.2-12.3-11.3-20.4-.9-6.5-.5-12.8,2.2-18.9,4.7-10.6,13-17.4,24.7-20.1,11.8-2.7,22.8-1,32.7,5.9,4.3,3,7.4,7,9.7,11.6.2.5.4,1,.6,1.7h-13.2c-.4,0-1-.5-1.3-.9-4.3-6.4-10.6-9.2-18.6-9.3-6.7,0-12.5,1.7-17.5,6-4.1,3.6-6.5,8.1-7.4,13.2-1.1,5.9-.7,11.7,2,17.2,3.5,7,9.2,11.4,17.3,12.7,6.3,1,12.5.6,18.1-2.7,6-3.6,9.2-9,10.3-15.9h.3Z"/>
  <path class="cls-1" d="M499.2,34.9c.3,19.5-15.2,34.8-36.9,34.8s-37.1-14.5-37-35.2C425.3,14.6,441.2,0,462.4,0c21.4,0,37.2,15.3,36.7,35h.1ZM487.3,34.7c-.2-1.7-.2-3.5-.5-5.2-1.3-7.1-4.7-13-11.4-16.7-5-2.8-10.4-3.7-16.1-3-9,1-15.5,5.1-19.3,12.8-2.9,6-3.4,12.3-2,18.6,1.7,7.6,5.9,13.6,13.7,16.8,4.6,1.9,9.4,2.4,14.4,1.8,6.1-.8,11.1-3.2,15.1-7.6,4.5-5.1,6.1-11.1,6.3-17.6h-.2Z"/>
  <path class="cls-1" d="M397.1,40.8c6,9.5,11.9,18.7,17.9,28.3h-6.3c-1.4,0-2.8-.2-4.2,0-2.8.5-4.1-.8-5.3-2.9-4.6-7.8-9.4-15.4-14-23.1-.7-1.1-1.4-1.6-2.7-1.5h-5.4c-1.7,0-2.1.6-2.1,2.1v23.3c0,1.5-.8,2.2-2.4,2.2h-7.5c-1.4,0-1.8-.4-1.7-1.7V2.6c0-1.4.5-1.7,1.9-1.7,8.4,0,16.8-.2,25.2,0,8.5.3,16.1,2.8,20.7,10.2,6.1,9.9,2.1,24.7-10.9,28.7-.9.3-1.8.6-3.1,1h-.1ZM374.9,21.2v10c0,1.4.5,1.8,1.9,1.8,4.1,0,8.2.2,12.3,0,2.4-.2,4.9-.7,7.1-1.7,5-2.3,6.7-8.6,5.1-13.8-1.6-5.1-5.7-7.2-11.2-7.5-4.5-.2-9,0-13.6-.1-1.3,0-1.7.4-1.7,1.6v9.8h.1Z"/>
  <path class="cls-1" d="M111.3,88h2.9c.2,0,.6.4.7.7,1.2,5.7,2.4,11.4,3.7,17.1,1.2,5.8,2.5,11.5,3.8,17.5.2-.6.3-.8.4-1.2,2.7-11.1,5.3-22.2,7.9-33.3.2-.7.4-1,1-1h2.1c.5,0,.8.2.9.9,1.5,6.7,3.1,13.4,4.7,20.1,1,4.3,2,8.7,3,13,0,.4.2.7.3,1h.2c.3-1.5.7-3.1,1-4.6,2.1-9.8,4.2-19.7,6.3-29.5.1-.6.3-.9.9-.9h2.7c-.3,1.2-.5,2.4-.8,3.5-2.8,12-5.6,24-8.3,35.9-.2.7-.4,1.1-1.1,1h-2.1c-.5,0-.7-.2-.8-.8-1.9-8-3.9-16-5.8-24-.7-2.9-1.4-5.7-2.1-8.6,0-.3-.2-.6-.4-.9-.3,1-.5,2-.8,3-2.5,10.2-5,20.3-7.5,30.5-.1.6-.3.8-.8.8h-2.2c-.5,0-.7-.2-.9-.8-1.8-8.2-3.7-16.3-5.5-24.5-1.1-4.7-2.1-9.5-3.2-14.3,0-.2,0-.5-.2-.9v.3h0Z"/>
  <path class="cls-1" d="M126.1,69.1h-11.4c-.5,0-1.1-.9-1.3-1.4-1.4-3.7-2.8-7.4-4.1-11.1-.4-1.2-1.1-1.6-2.4-1.5h-27.1c-1.2,0-1.8.4-2.1,1.4-1.4,3.8-2.8,7.5-4.2,11.3-.4,1.2-1.1,1.5-2.4,1.5h-10.3c.7-1.8,1.2-3.3,1.8-4.8,7.9-20.7,15.7-41.4,23.6-62.1.4-1.1.9-1.5,2.1-1.4h10.8c1,0,1.5.3,1.9,1.3,6.3,16.6,12.6,33.2,18.9,49.8,2,5.3,4,10.7,6,16,.1.3.2.7.4,1.3l-.2-.3ZM105.4,46c-4-10.7-7.8-21-11.7-31.4h-.5c-3.9,10.4-7.8,20.9-11.8,31.5h24Z"/>
  <path class="cls-1" d="M351.7,69.1h-11.4c-.5,0-1.1-.9-1.3-1.4-1.5-3.7-2.9-7.5-4.2-11.2-.4-1.1-1-1.4-2.1-1.4h-27.3c-1.3,0-1.8.4-2.2,1.5-1.3,3.8-2.8,7.5-4.2,11.3-.4,1.1-1,1.4-2.2,1.4h-10.5c.9-2.4,1.7-4.6,2.5-6.8,7.6-20,15.2-40,22.8-60.1.4-1.1.9-1.5,2.1-1.4h10.6c1.2,0,1.7.4,2.1,1.4,5.1,13.5,10.2,27.1,15.4,40.6,3.1,8.1,6.2,16.3,9.3,24.4.2.5.3,1.1.5,1.9v-.2h.1ZM330.9,46c-4-10.6-7.8-21-11.7-31.4h-.5c-3.9,10.4-7.8,20.9-11.8,31.5h24Z"/>
  <path class="cls-1" d="M263.1,24.5V2.5c0-1.4.4-1.8,1.9-1.7h8.5c1.1,0,1.6.2,1.6,1.4,0,14.1.1,28.3,0,42.4,0,7.5-2.6,14.1-9,19.1-4.3,3.3-9.3,5-14.7,5.7-5.5.7-10.9.3-16.2-1.5-9.3-3.1-14.6-9.4-16.2-18.5-.3-1.6-.4-3.2-.4-4.9V2.9c0-1.6.4-2.1,2.1-2h7.5c1.6,0,2.1.3,2.1,1.9,0,13.9-.1,27.7,0,41.6,0,2.5.5,5.1,1.4,7.5,1.8,4.8,6.1,7.1,11.2,8,3.3.6,6.6.4,9.8-.5,6.6-1.8,10.5-6.7,10.6-13.2v-21.6h-.2,0Z"/>
  <path class="cls-1" d="M43.3,18.3h-1.9c-2.7.3-4.7,0-5.5-3.1-.6-2.1-2.7-3.5-4.8-4.5-3.9-1.8-8-2-12.1-.7-4.2,1.3-6.6,3.4-6.7,7.4,0,3.8,2.1,8,6.4,9.5,4.8,1.6,9.7,2.8,14.5,4.4,3.4,1.1,6.9,2.3,10,4.1,4.9,2.9,7.3,7.3,7.5,12.9.3,6.8-2.2,12.2-7.8,16.4-3.6,2.7-7.7,4.1-12.2,4.7-5.9.8-11.9,0-17.5-2.1-6.8-2.6-11.3-7.9-12.6-14.9v-1c0-1.4.7-2.1,2.1-2.1h8.7c1.1,0,1.6.3,1.8,1.4.9,4.6,4.8,8.8,9.8,9.5,3,.4,5.9.3,8.7-.6,4.2-1.3,6.8-3.9,7.4-8,.6-4.2-1.3-7.5-5.3-9.2-3.6-1.6-7.5-2.5-11.2-3.7-3.9-1.3-8-3.2-11.8-4.8C3.6,30.9,0,24.7.8,16.3,1.7,7.7,8.7,2.4,18.6.7c6.5-1.1,13-.9,19.2,1.6,7,2.8,11.1,7.9,12.3,14.9.2.9-.3,1.3-1.3,1.3h-5.2l-.2-.2h-.1Z"/>
  <path class="cls-1" d="M464.8,121.5v-32.4c0-1,.2-1.3,1-1.2h1.7c.4,0,.6.2.6.7v38.5c0,1-.2,1.1-1,1.3-1.7.3-2.7-.6-3.6-2.4-4.9-9.2-9.9-18.4-14.8-27.6-.6-1.1-1.1-2.2-1.7-3.2,0-.3-.3-.5-.6-.7v32.5c0,.9-.4,1.3-1.1,1.3h-1.3c-.6,0-.8-.2-.8-1v-38.3c0-.9.2-1,.9-1.2,1.8-.3,2.8.6,3.8,2.4,5.4,10.2,10.8,20.2,16.3,30.3.2.3.4.7.6,1h.3-.3Z"/>
  <path class="cls-1" d="M437,108.1c-.2,5.6-1.5,10.6-4.7,14.7-2.3,3-5.1,4.8-8.4,5.5-3.8.9-7.4.4-10.9-1.7-4.6-2.8-7.4-7.4-8.4-13.4-1-5.8-.5-11.5,2.1-16.6,2.5-4.9,6.2-7.8,10.9-8.8,3.4-.7,6.6-.3,9.8,1.4,4.8,2.7,7.8,7.3,9,13.5.3,1.8.4,3.6.6,5.4h0ZM433.6,108c0-1.2,0-2.4-.3-3.5-.6-4.7-2.4-8.5-5.7-11.1-2.7-2.1-5.7-2.8-8.9-2.3-4.8.8-8.1,3.9-10,9.2-1.4,3.8-1.5,7.7-.9,11.8.7,4.5,2.5,8.2,5.6,10.8,2.4,1.9,5.1,2.6,8,2.4,3-.2,5.7-1.4,8-4,3-3.6,4.3-8.1,4.2-13.1v-.2h0Z"/>
  <path class="cls-1" d="M312.8,108.1c0,6-1.6,11.3-5.2,15.5-2.2,2.5-4.8,4.1-7.7,4.7-3.4.8-6.8.5-10.1-1.2-4.7-2.5-7.8-6.9-9-12.9-1.4-6.8-.8-13.3,2.8-19.1,2.5-4.1,6-6.5,10.2-7.3,5-.9,9.6.4,13.5,4.5,3.1,3.3,4.8,7.5,5.4,12.5.1,1.1.2,2.3.2,3.4h0ZM296.4,125.3c.8,0,1.6,0,2.3-.3,4-.8,6.9-3.3,8.9-7.6,1.9-4.3,2.2-8.8,1.5-13.5-.6-3.6-1.9-6.8-4.2-9.2-3-3.1-6.4-4.2-10.3-3.6-4.2.6-7.4,3.2-9.4,7.7-1.8,4-2.2,8.3-1.6,12.8.9,7.7,5.9,13.8,12.8,13.7h0Z"/>
  <path class="cls-1" d="M26.9,108c0-5.9,1.6-11,5-15.1,2.8-3.3,6.2-5,10.1-5.4,2.6-.2,5.1,0,7.5,1.3,5,2.5,8.2,7,9.5,13.4,1.4,7.3.6,14.1-3.5,20-2.4,3.5-5.6,5.5-9.3,6.2-3.8.8-7.4.2-10.8-2-4.5-2.9-7.1-7.5-8.2-13.6-.3-1.6-.3-3.2-.5-4.9h.2ZM43.2,125.2h1.5c.3,0,.5,0,.8-.2,4.6-.9,7.7-4.1,9.6-9.2,1.4-3.8,1.5-7.8.9-11.8-.6-4.1-2.2-7.6-4.9-10.1-2.9-2.6-6.1-3.5-9.7-2.9-3.7.6-6.7,2.7-8.8,6.6-2.4,4.4-2.9,9.4-2.1,14.5,1.2,7.8,6.2,13.3,12.7,13.1Z"/>
  <path class="cls-1" d="M203,111.4c2.8,5.6,5.5,11.2,8.4,17h-3.6c-.2,0-.5-.4-.6-.7-2.4-5-4.8-9.9-7.2-14.9-.5-1-1-1.4-1.9-1.3h-4.9v16c0,.9-.2,1.1-.9,1.1s-1.8.3-2.1-.2c-.4-.5-.2-1.7-.2-2.7v-36.3c0-.9.3-1.3,1-1.3h10.3c3.6.2,6.8,1.7,8.7,5.9,2.2,4.9,1.3,12.2-2.9,15.3-1.2.9-2.6,1.4-4,2.2h0ZM193.3,91.2c0,.3-.1.4-.1.5v15.8c0,.6.2.7.6.7,2.7,0,5.3,0,7.9-.2,1.6,0,3-.9,4.2-2.4,1.5-1.9,1.8-4.2,1.8-6.8,0-3.8-2.1-7-5.3-7.3-3-.3-6.1-.3-9.1-.4h0Z"/>
  <path class="cls-1" d="M184.5,128.4h-3.1c-.2,0-.4-.4-.5-.7-.8-2.5-1.6-5.1-2.3-7.7-.3-.9-.6-1.3-1.4-1.3h-13.3c-.7,0-1,.3-1.2,1-.8,2.6-1.6,5.2-2.3,7.9-.2.6-.4.8-1,.8h-2.7c.4-1.2.7-2.2,1-3.3,3.3-10.9,6.6-21.8,9.9-32.6.3-1.1.6-2.2,1-3.2.1-.3.5-.6.8-.7h2.4c.6,0,.9.3,1.1,1,1,3.6,2.1,7.1,3.2,10.6,2.7,9.1,5.5,18.3,8.2,27.4,0,.2.1.5.2.8h0ZM177.2,115.3c-2.2-7.3-4.3-14.5-6.5-21.6h-.2c-2.1,7.2-4.3,14.3-6.5,21.6h13.2Z"/>
  <path class="cls-1" d="M338.8,101.7v-12.6c0-.8.1-1.2.9-1.1h1.5c.7,0,.9.3.9,1.1v24.9c0,2.1.3,4.1,1,6,1.4,3.5,3.9,5,6.9,5.3,1.3,0,2.7,0,4-.5,3.2-1,4.9-3.8,5.4-7.7.3-2,.3-4,.3-5.9v-21.9c0-.9.2-1.3,1-1.2h1.3c.8,0,.9.3.9,1.2v23.7c0,2.6-.2,5.2-1,7.7-1.3,3.9-3.8,6.4-7.1,7.5-3.1,1-6.1.9-9.1-.5-3.7-1.8-5.8-5.2-6.5-10-.2-1.6-.3-3.3-.3-5v-10.9h0Z"/>
  <path class="cls-1" d="M21.5,97.1h-3c-.2,0-.5-.4-.6-.6-.9-3.2-3.4-5.3-6.1-5.6-1.7,0-3.4,0-4.9,1-2.2,1.3-3.2,3.5-3.2,6.4s1.4,5.2,3.7,6.3c2.3,1,4.6,1.8,6.9,2.7,2,.8,3.9,1.6,5.4,3.5,1.8,2.3,2.3,5,2,8-.4,4.6-2.6,7.6-6.1,9-4.5,1.8-8.9,1.4-12.8-2.5-1.8-1.8-2.7-4.2-2.8-7.2h3.1s.3.3.4.5c1,5.5,4.9,7.3,9,6.7,1.8-.3,3.3-1,4.5-2.6,2.4-3.2,2.3-9.6-2.8-11.6-2.4-1-4.9-1.8-7.3-2.7-2-.8-3.8-1.8-5.1-3.9-1.4-2.2-1.6-4.7-1.4-7.4.5-6.1,5.3-9.2,9.2-9.4,2.4-.2,4.8,0,7,1.4,2.6,1.6,4.3,4.2,4.8,7.8v.4-.2h.1Z"/>
  <path class="cls-1" d="M274.8,97.1h-3.3c-.1,0-.3-.4-.4-.6-.9-3.2-3.3-5.3-6.1-5.5-1.7,0-3.3,0-4.9,1-2.4,1.5-3.4,3.9-3.2,7.1.2,2.8,1.6,4.6,3.5,5.5,2.5,1.2,5,2,7.5,3,1.6.7,3.3,1.4,4.6,2.9,2.1,2.3,2.7,5.2,2.4,8.4-.6,6.1-4.9,9.5-9.2,9.9-2.9.2-5.6-.2-8.1-2-2.3-1.6-3.7-4.1-4.2-7.2-.2-1.2,0-1.3.9-1.4,1.5-.2,2.4,0,3,2.3.8,2.9,2.8,4.5,5.4,4.9,2.3.4,4.4.2,6.4-1.4,1.8-1.4,2.7-3.6,2.7-6.2s-1.3-5.2-3.6-6.3c-2.3-1-4.7-1.8-7-2.7-1.2-.5-2.4-1-3.5-1.7-2.4-1.6-3.8-4-4-7.5-.2-3.7.6-6.7,2.9-9.1,1.3-1.3,2.8-2.2,4.4-2.6,3.2-.8,6.4-.7,9.3,1.3,2.5,1.7,4,4.2,4.5,7.9h0Z"/>
  <path class="cls-1" d="M494.1,97.1h0c-1,.2-1.6-.2-2.1-1.5-1.1-3-3.1-4.4-5.8-4.7-1.6-.2-3.2,0-4.7.8-2.4,1.3-3.6,3.6-3.5,6.8,0,3.1,1.6,5,3.8,6,2.1,1,4.2,1.7,6.4,2.5,2,.8,4,1.5,5.6,3.3,1.5,1.7,2.3,3.8,2.4,6.3,0,2.9-.4,5.5-2,7.8-1.7,2.5-4,3.7-6.5,4.1-2.6.5-5.2.2-7.7-1.1-3.1-1.6-4.9-4.5-5.5-8.5,0-.5,0-.8.5-.8h.4c1.5-.2,2.5,0,3.1,2.2.9,3.5,3.4,4.9,6.4,5.1,2,0,3.9-.2,5.6-1.6,1.9-1.7,2.8-4,2.5-6.8-.2-2.9-1.7-4.7-3.8-5.7-2.2-1-4.5-1.7-6.8-2.6-2.1-.8-4.1-1.7-5.7-3.7-2.8-3.6-2.7-11.5,1.6-15,1.9-1.6,3.9-2.3,6.2-2.4,2.3-.2,4.6,0,6.7,1.4,2.4,1.5,4,3.8,4.7,7,.2,1,0,1.1-.7,1.1h-1.1Z"/>
  <path class="cls-1" d="M221,91.1v15.2h11.7c.6,0,.9.2.9,1,0,1.5-.6,2.3-1.8,2.3h-10.6v15.4h13c.7,0,.9.2.9,1.1,0,1.5-.6,2.3-1.9,2.3h-14.4c-.7,0-.9-.3-.9-1.1v-38.1c0-.9.2-1.2,1-1.2h15.2c.7,0,1,.2.9,1.1,0,1.3-.6,2-1.7,2h-12.3Z"/>
  <path class="cls-1" d="M69,109.6v17.6c0,.8-.1,1.3-.9,1.2-.7-.1-1.8.2-2.1-.2-.4-.5-.2-1.7-.2-2.7v-36.3c0-.9.3-1.3,1-1.3h15.8c.7,0,.9.2.9,1.1,0,1.4-.6,2.1-1.7,2.1h-11.9c-.7,0-1,.2-1,1.2v13.1c0,.8.2,1.1.9,1.1h10.6c.7,0,.9.2.9,1.1,0,1.4-.6,2.1-1.7,2.1h-10.7.1,0Z"/>
  <path class="cls-1" d="M99.2,109.8v17.4c0,1-.2,1.3-1,1.2h-1.4c-.7,0-.8-.3-.8-1v-35c0-1-.2-1.3-1-1.3h-7.5c-.6,0-.8-.2-.8-1,0-1.5.6-2.2,1.8-2.2h18.9c.8,0,1,.2,1,1.2s-.6,2-1.7,2h-6.7c-.7,0-.8.3-.8,1v17.7h0Z"/>
  <path class="cls-1" d="M380.3,109.7v17.6c0,.9-.2,1.2-.9,1.1h-1.7c-.4,0-.6-.2-.6-.7v-35.2c0-.9-.4-1.3-1.1-1.3h-7.4c-.6,0-.8-.2-.8-1,0-1.5.6-2.2,1.8-2.2h18.9c.7,0,1,.2.9,1.1,0,1.4-.6,2.1-1.7,2.1h-6.6c-.6,0-.9.2-.9,1v17.6h.1Z"/>
  <path class="cls-1" d="M322.2,125h10.9c.7,0,.9.2.9,1.1,0,1.5-.6,2.3-1.9,2.3h-12.4c-.7,0-.8-.2-.8-1v-38.3c0-.8.2-1.2.9-1.1.7,0,1.7-.2,2.2.3.4.4.2,1.7.2,2.6v32.9c0,11,0,.8,0,1.3h0Z"/>
  <path class="cls-1" d="M394.8,108.1v-19.1c0-.8.2-1.2.9-1.1.7,0,1.7-.2,2.2.3.4.4.2,1.7.2,2.6v36.3c0,.9-.4,1.3-1.1,1.3s-1.4-.9-2.1-2.6v-17.7s-.1,0-.1,0Z"/>
</svg>