<?xml version="1.0" encoding="UTF-8"?>
<svg id="Layer_1" data-name="Layer 1" xmlns="http://www.w3.org/2000/svg" version="1.1" viewBox="0 0 1260.5 79.1">
  <defs>
    <style>
      .cls-1 {
        font-family: Poppins Sans SemiBold, sans-serif;
        font-weight: 500;
      }

      .cls-2 {
        stroke-width: 0px;
      }

      .cls-2, .cls-3 {
        fill: #597b73;
      }

      .cls-3 {
        font-size: 72px;
      }

      .cls-4 {
        font-family: Poppins Sans Light, sans-serif;
        font-weight: 200;
      }
    </style>
  </defs>
  <g id="Frame_1" data-name="Frame 1">
    <g id="Vector_3" data-name="Vector 3">
      <path class="cls-2" d="M55.2,79.1h-18.9v-14.2c0-1.8,1.4-3.4,3.2-3.7l3.9-.5c.5,0,1-.2,1.5-.4,3-1.1,5-3.9,5-7V19.9c0-1.3-1.1-2.4-2.4-2.4s-2.8,1.2-2.8,2.8v32.5c0,2-1.7,3.7-3.7,3.7h-1.8c-1.6,0-2.9-1.3-2.9-2.9V8.8c0-2.4-2-4.4-4.5-4.4s-3.8,1.7-3.8,3.7v37c0,1.7-1.4,3-3.1,3h-1.8c-1.8,0-3.3-1.5-3.3-3.2v-19.2c0-1.2-1-2.1-2.1-2.1s-2.4,1.1-2.4,2.4v20.4c0,1.6.6,3,1.7,4.2,1.3,1.3,3.2,2.1,5,2.1h2.2c2.1,0,3.7,1.7,3.7,3.7v22.7H9.3c-5.1,0-9.2-4.1-9.2-9.1V9.1C0,4.1,4.2,0,9.3,0h45.9c5.1,0,9.2,4.1,9.2,9.1v60.9c0,5-4.1,9.1-9.2,9.1ZM38.3,77.1h16.9c4,0,7.2-3.2,7.2-7.1V9.1c0-3.9-3.2-7.1-7.2-7.1H9.3c-4,0-7.2,3.2-7.2,7.1v60.9c0,3.9,3.2,7.1,7.2,7.1h16.8v-20.7c0-.9-.8-1.7-1.7-1.7h-2.2c-2.4,0-4.8-1-6.5-2.7-1.5-1.5-2.3-3.5-2.3-5.6v-20.4c0-2.4,2-4.4,4.4-4.4s4.1,1.8,4.1,4.1v19.2c0,.7.6,1.2,1.3,1.2h1.8c.6,0,1.1-.5,1.1-1V8.2c0-3.1,2.6-5.7,5.8-5.7s6.5,2.9,6.5,6.4v44.7c0,.5.4.9.9.9h1.8c1,0,1.7-.8,1.7-1.7V20.3c0-2.6,2.2-4.8,4.8-4.8s4.4,2,4.4,4.4v33.5c0,4-2.6,7.6-6.4,8.9-.6.2-1.3.4-1.9.5l-3.9.5c-.9.1-1.5.8-1.5,1.7v12.2Z"/>
    </g>
  </g>
  <text class="cls-3" transform="translate(75.4 67.5)"><tspan class="cls-1" x="0" y="0">SAGUARO </tspan><tspan class="cls-4" x="369.9" y="0">SOFTWARE SOLUTIONS</tspan></text>
</svg>