<?xml version="1.0" encoding="UTF-8"?>
<svg xmlns="http://www.w3.org/2000/svg" viewBox="0 0 716.79 452.2">
  <defs>
    <style>
      .cls-1, .cls-2, .cls-3, .cls-4, .cls-5, .cls-6, .cls-7, .cls-8, .cls-9, .cls-10, .cls-11, .cls-12, .cls-13 {
        stroke: #263238;
      }

      .cls-1, .cls-4, .cls-6, .cls-7, .cls-8, .cls-14, .cls-11, .cls-12 {
        stroke-miterlimit: 10;
      }

      .cls-1, .cls-15 {
        fill: #92e3a9;
      }

      .cls-16 {
        opacity: .7;
      }

      .cls-16, .cls-2, .cls-4, .cls-6, .cls-8, .cls-9, .cls-17 {
        fill: #fff;
      }

      .cls-16, .cls-18, .cls-17, .cls-15 {
        stroke-width: 0px;
      }

      .cls-2, .cls-3, .cls-5, .cls-9, .cls-10, .cls-19, .cls-13 {
        stroke-linejoin: round;
      }

      .cls-2, .cls-5, .cls-19, .cls-13 {
        stroke-linecap: round;
      }

      .cls-3, .cls-5, .cls-7, .cls-14, .cls-11, .cls-19 {
        fill: none;
      }

      .cls-5, .cls-19 {
        stroke-width: 3px;
      }

      .cls-6 {
        stroke-width: .5px;
      }

      .cls-7 {
        stroke-width: 2px;
      }

      .cls-8 {
        stroke-width: .53px;
      }

      .cls-18, .cls-10, .cls-12, .cls-13 {
        fill: #263238;
      }

      .cls-14 {
        stroke: #fff;
        stroke-width: .74px;
      }

      .cls-19 {
        stroke: #6e6e6e;
      }
    </style>
  </defs>
  <g id="Background_Simple" data-name="Background Simple">
    <g>
      <path class="cls-15" d="M694.56,268.93s-14-149-127-207-172-40-244-7-99.07,92.52-161,121C100.63,204.41,10.56,223.93,6.56,291.93s20,114,54,132,67,18,67,18h522s65-33,45-173Z"/>
      <path class="cls-16" d="M694.56,268.93s-14-149-127-207-172-40-244-7-99.07,92.52-161,121C100.63,204.41,10.56,223.93,6.56,291.93s20,114,54,132,67,18,67,18h522s65-33,45-173Z"/>
    </g>
  </g>
  <g id="Floor">
    <line class="cls-11" y1="441.93" x2="712.86" y2="441.93"/>
  </g>
  <g id="Ladders">
    <g>
      <polyline class="cls-11" points="712.86 256.19 206.32 256.19 206.32 333.2"/>
      <polyline class="cls-11" points="712.86 333.4 171.47 333.4 171.47 442.43"/>
    </g>
  </g>
  <g id="Plants">
    <g>
      <path class="cls-18" d="M222.73,385.17c1.17-.86,2.42-2.28,2.44-3.81.02-1.5-1.16-2.83-2.72-2.69-2.17.19-4.11,3.6-4.54,5.49-.04.16-.33,2.79-.29,2.78,0,0,3.74-.76,5.12-1.77Z"/>
      <path class="cls-18" d="M230.43,385.17c1.37,1.01,5.11,1.77,5.12,1.77.04,0-.25-2.62-.29-2.78-.43-1.89-2.38-5.3-4.54-5.49-1.56-.14-2.74,1.19-2.72,2.69.02,1.53,1.27,2.95,2.44,3.81Z"/>
      <path class="cls-18" d="M245.97,421.49c-2.17.08-4.28,3.39-4.81,5.26-.03.11-.23,1.34-.35,2.12,0-.47,0-.92,0-1.41-.01-.96-.05-1.91-.09-2.93-.04-.49-.07-.99-.11-1.5-.03-.5-.12-1.03-.17-1.55-.16-1.2-.37-2.41-.61-3.62.85-.01,3.81-.1,5.13-.7,1.32-.61,2.83-1.75,3.15-3.25.32-1.47-.57-3-2.13-3.18-2.16-.25-4.75,2.7-5.55,4.47-.05.11-.48,1.44-.71,2.18-.15-.73-.3-1.46-.48-2.19-.51-2.11-1.1-4.23-1.67-6.35-.18-.65-.34-1.3-.52-1.95.46,0,3.87-.04,5.31-.71,1.32-.61,2.83-1.75,3.15-3.25.32-1.47-.57-3-2.13-3.18-2.16-.25-4.75,2.7-5.55,4.47-.06.13-.68,2.05-.81,2.55-.38-1.43-.74-2.86-1.03-4.28-.41-1.96-.71-3.91-.86-5.81.26,0,3.85-.02,5.34-.7,1.32-.61,2.83-1.75,3.15-3.25.32-1.47-.57-3-2.13-3.18-2.16-.25-4.75,2.7-5.55,4.47-.06.14-.73,2.21-.82,2.59,0-.11-.03-.23-.04-.34-.13-2.04,0-4.03.2-5.89.12-1.08.29-2.11.49-3.1.71.07,3.83.35,5.26-.13,1.38-.46,3-1.43,3.49-2.88.48-1.42-.24-3.05-1.77-3.4-2.12-.48-5.02,2.16-6.01,3.83-.05.09-.5,1.07-.81,1.8.09-.45.18-.91.28-1.34.37-1.6.8-3.05,1.19-4.33.23-.72.45-1.37.67-1.98.71-.28,3.55-1.46,4.59-2.53,1.01-1.04,2.01-2.65,1.77-4.17-.23-1.49-1.62-2.59-3.13-2.2-2.1.55-3.46,4.23-3.57,6.17,0,.17.14,2.8.18,2.79,0,0,.02,0,.04-.02-.22.58-.44,1.2-.68,1.89-.42,1.27-.89,2.71-1.29,4.31-.41,1.6-.8,3.35-1.05,5.23-.25,1.88-.42,3.88-.33,5.96,0,.02,0,.05,0,.07-.22-.6-.87-2.26-.94-2.38-.92-1.71-3.69-4.48-5.83-4.09-.51.09-.93.34-1.26.66-.33-.33-.75-.57-1.26-.66-2.14-.39-4.91,2.38-5.83,4.09-.06.12-.72,1.78-.94,2.38,0-.02,0-.05,0-.07.09-2.08-.08-4.07-.33-5.96-.25-1.88-.65-3.63-1.05-5.23-.4-1.6-.87-3.04-1.29-4.31-.23-.69-.46-1.31-.68-1.89.03.01.04.02.04.02.04.01.19-2.62.18-2.79-.11-1.94-1.46-5.62-3.57-6.17-1.52-.39-2.9.71-3.13,2.2-.24,1.52.76,3.12,1.77,4.17,1.03,1.07,3.88,2.24,4.59,2.53.21.61.44,1.26.67,1.98.39,1.28.83,2.72,1.19,4.33.1.43.19.89.28,1.34-.31-.72-.76-1.7-.81-1.8-.99-1.67-3.89-4.31-6.01-3.83-1.53.35-2.25,1.97-1.77,3.4.49,1.45,2.11,2.42,3.49,2.88,1.43.48,4.56.2,5.26.13.19.99.37,2.02.49,3.1.21,1.86.34,3.85.2,5.89,0,.11-.03.23-.04.34-.09-.38-.76-2.45-.82-2.59-.8-1.77-3.39-4.71-5.55-4.47-1.56.18-2.45,1.71-2.13,3.18.33,1.5,1.84,2.64,3.15,3.25,1.49.69,5.09.7,5.34.7-.15,1.91-.45,3.85-.86,5.81-.3,1.42-.66,2.85-1.03,4.28-.13-.5-.75-2.42-.81-2.55-.8-1.77-3.39-4.71-5.55-4.47-1.56.18-2.45,1.71-2.13,3.18.33,1.5,1.84,2.64,3.15,3.25,1.44.66,4.85.7,5.31.71-.17.65-.34,1.3-.52,1.95-.57,2.12-1.16,4.24-1.67,6.35-.18.73-.33,1.46-.48,2.19-.22-.74-.66-2.07-.71-2.18-.8-1.77-3.39-4.71-5.55-4.47-1.56.18-2.45,1.71-2.13,3.18.33,1.5,1.84,2.64,3.15,3.25,1.32.61,4.28.69,5.13.7-.24,1.21-.46,2.42-.61,3.62-.06.52-.15,1.04-.17,1.55-.04.5-.07,1-.11,1.5-.04,1.03-.08,1.98-.09,2.93,0,.48,0,.94,0,1.41-.11-.78-.32-2.01-.35-2.13-.52-1.87-2.64-5.17-4.81-5.26-1.57-.06-2.68,1.32-2.59,2.82.1,1.53,1.41,2.89,2.62,3.69,1.3.86,4.59,1.41,5.12,1.5,0,1.15.01,2.27.04,3.31.09,3.31.28,6.06.45,7.99.04.42.07.8.1,1.14h1.5c-.04-.37-.09-.8-.15-1.28-.2-1.9-.46-4.62-.61-7.9-.05-.94-.08-1.95-.11-2.98.54-.05,3.85-.38,5.2-1.16,1.26-.72,2.66-1.99,2.86-3.51.19-1.49-.83-2.94-2.4-2.99-2.17-.06-4.5,3.1-5.14,4.93-.04.12-.37,1.56-.53,2.3-.01-.62-.03-1.24-.03-1.89-.01-.93,0-1.92.02-2.87.02-.49.05-.99.08-1.5.01-.51.09-.99.13-1.5.08-.74.2-1.5.32-2.25.98.05,3.75.13,5.05-.37,1.35-.52,2.93-1.56,3.36-3.03.42-1.44-.38-3.03-1.92-3.31-2.14-.39-4.91,2.38-5.83,4.09-.03.06-.19.44-.37.89.14-.74.27-1.47.43-2.21.46-2.1,1-4.23,1.53-6.36.11-.44.21-.89.32-1.33.81.04,3.82.16,5.19-.36,1.35-.52,2.93-1.56,3.36-3.03.42-1.44-.38-3.03-1.92-3.31-2.14-.39-4.91,2.38-5.83,4.09-.03.06-.22.52-.42,1.03.27-1.16.53-2.32.74-3.49.38-2.03.65-4.05.76-6.03.45.03,3.87.21,5.35-.36.95-.37,2-.99,2.7-1.84.7.85,1.75,1.47,2.7,1.84,1.48.57,4.89.38,5.35.36.1,1.98.37,4,.76,6.03.22,1.16.47,2.32.74,3.49-.2-.51-.39-.97-.42-1.03-.92-1.71-3.69-4.48-5.83-4.09-1.54.28-2.33,1.87-1.92,3.31.42,1.47,2,2.51,3.36,3.03,1.37.53,4.39.41,5.19.36.11.44.21.89.32,1.33.53,2.13,1.07,4.26,1.53,6.36.16.74.3,1.48.43,2.21-.18-.45-.34-.84-.37-.89-.92-1.71-3.69-4.48-5.83-4.09-1.54.28-2.33,1.87-1.92,3.31.42,1.48,2,2.51,3.36,3.03,1.3.5,4.07.42,5.05.37.12.76.24,1.51.32,2.25.04.51.12.99.13,1.5.03.51.05,1.01.08,1.5.01.96.03,1.94.02,2.87,0,.65-.02,1.27-.03,1.89-.15-.74-.49-2.18-.53-2.3-.65-1.83-2.97-4.99-5.14-4.93-1.57.04-2.59,1.5-2.4,2.99.2,1.52,1.6,2.79,2.86,3.51,1.36.77,4.66,1.11,5.2,1.16-.02,1.03-.06,2.03-.11,2.98-.16,3.27-.41,6-.61,7.9-.05.48-.1.91-.15,1.28h1.5c.03-.34.07-.72.1-1.14.16-1.93.36-4.68.45-7.99.03-1.05.04-2.16.04-3.31.53-.08,3.81-.63,5.12-1.5,1.21-.8,2.53-2.16,2.62-3.69.09-1.5-1.02-2.88-2.59-2.82Z"/>
      <path class="cls-18" d="M190.17,398.2s2.65-1.64,3.41-2.79c.65-.99,1.2-2.42.79-3.6-.41-1.15-1.69-1.83-2.84-1.29-1.6.76-2.12,3.91-1.92,5.47.02.14.54,2.22.57,2.2Z"/>
      <path class="cls-18" d="M202.81,429.71c.76-.9,1.47-2.27,1.19-3.49-.27-1.19-1.47-2.01-2.67-1.6-1.68.57-2.56,3.64-2.54,5.22,0,.1.15,1.3.24,1.9-.19-.47-.37-.94-.56-1.43-.27-.71-.54-1.47-.8-2.2-.12-.38-.24-.77-.37-1.17-.13-.39-.21-.78-.32-1.18-.15-.59-.27-1.2-.4-1.81.74-.23,2.89-.95,3.75-1.71.89-.78,1.8-2.02,1.71-3.26-.09-1.22-1.14-2.21-2.4-1.99-1.74.31-3.08,3.21-3.3,4.77,0,.05-.02.39-.03.78-.1-.6-.21-1.2-.29-1.81-.24-1.74-.43-3.51-.63-5.29-.04-.37-.09-.74-.13-1.11.62-.19,2.96-.95,3.86-1.74.89-.78,1.8-2.02,1.71-3.26-.09-1.22-1.14-2.21-2.4-1.99-1.74.31-3.08,3.21-3.3,4.77,0,.06-.02.46-.03.91-.12-.96-.25-1.92-.42-2.87-.28-1.66-.65-3.28-1.12-4.82.22-.07,2.98-.9,3.98-1.78.89-.78,1.8-2.02,1.71-3.26-.09-1.22-1.14-2.21-2.4-1.99-1.74.31-3.08,3.21-3.3,4.77-.02.11-.05,1.56-.05,2.08,0-.02,0-.04-.02-.06-.52-1.61-1.21-3.09-1.94-4.45-.72-1.36-1.52-2.59-2.28-3.7-.76-1.11-1.52-2.08-2.2-2.93-.37-.46-.72-.87-1.05-1.25,0,0,.04,0,.04,0,.03,0-.6-2.06-.65-2.18-.63-1.45-2.7-3.88-4.46-3.7-1.27.13-2.02,1.37-1.77,2.56.25,1.22,1.46,2.17,2.53,2.68,1.09.52,3.59.62,4.22.64.33.4.69.84,1.07,1.32.66.86,1.4,1.85,2.13,2.97.2.3.39.63.59.94-.44-.46-1.06-1.09-1.13-1.14-1.23-1-4.19-2.2-5.67-1.23-1.07.7-1.16,2.14-.39,3.09.78.97,2.3,1.25,3.48,1.21,1.23-.04,3.55-1.14,4.05-1.39.43.7.85,1.44,1.25,2.23.68,1.36,1.34,2.84,1.82,4.44.03.09.04.18.07.27-.18-.27-1.27-1.66-1.36-1.74-1.11-1.12-3.92-2.64-5.5-1.84-1.14.58-1.39,2-.73,3.03.67,1.05,2.15,1.5,3.32,1.59,1.36.11,4.17-.93,4.28-.97.42,1.5.75,3.07.98,4.68.17,1.17.3,2.36.42,3.56-.24-.34-1.26-1.63-1.34-1.72-1.11-1.12-3.92-2.64-5.5-1.84-1.14.58-1.39,2-.73,3.03.67,1.05,2.15,1.5,3.32,1.59,1.32.1,4.03-.88,4.25-.96.05.54.11,1.09.16,1.63.16,1.78.31,3.56.51,5.32.07.61.16,1.21.25,1.8-.38-.5-1.09-1.4-1.15-1.47-1.11-1.12-3.92-2.64-5.5-1.84-1.14.58-1.39,2-.73,3.03.67,1.05,2.15,1.5,3.32,1.59,1.18.09,3.47-.68,4.11-.91.16.99.33,1.98.55,2.94.1.41.18.84.31,1.23.11.4.23.79.34,1.17.26.79.5,1.53.76,2.26.13.37.26.72.39,1.08-.31-.56-.81-1.45-.86-1.52-.93-1.28-3.47-3.21-5.16-2.66-1.21.4-1.68,1.77-1.18,2.89.51,1.14,1.9,1.81,3.04,2.07,1.27.3,4-.23,4.33-.3.32.88.65,1.73.97,2.52,1,2.5,1.93,4.55,2.6,5.97.24.5.44.92.6,1.26h1.38c-.19-.36-.5-.96-.91-1.78-.69-1.39-1.65-3.4-2.7-5.86-.3-.71-.61-1.46-.92-2.24.31-.15,2.81-1.36,3.64-2.35Z"/>
    </g>
    <g>
      <path class="cls-18" d="M693.35,430.36c-.36.91-.72,1.8-1.08,2.63-1.22,2.88-2.35,5.23-3.16,6.86-.48.96-.84,1.66-1.07,2.08h1.61c.19-.4.43-.89.71-1.48.78-1.67,1.87-4.07,3.04-7,.37-.93.75-1.92,1.13-2.95.39.08,3.59.7,5.07.35,1.35-.32,2.97-1.09,3.57-2.43.58-1.31.04-2.92-1.38-3.38-1.97-.64-4.95,1.61-6.04,3.11-.06.09-.65,1.13-1.01,1.79.15-.42.31-.83.46-1.26.31-.86.59-1.72.89-2.65.13-.45.26-.91.4-1.38.14-.46.24-.96.36-1.44.26-1.12.46-2.28.65-3.44.75.27,3.44,1.18,4.82,1.07,1.38-.11,3.11-.63,3.89-1.86.77-1.21.48-2.88-.85-3.55-1.85-.94-5.14.84-6.44,2.16-.08.08-.91,1.13-1.35,1.72.1-.7.21-1.4.29-2.11.24-2.06.42-4.15.6-6.24.06-.64.12-1.27.18-1.91.27.1,3.43,1.25,4.98,1.13,1.38-.11,3.11-.63,3.89-1.86.77-1.21.48-2.88-.85-3.55-1.85-.94-5.14.84-6.44,2.16-.1.1-1.29,1.61-1.57,2.01.14-1.4.29-2.8.49-4.17.28-1.89.65-3.73,1.15-5.49.12.05,3.42,1.26,5.01,1.14,1.38-.11,3.11-.63,3.9-1.86.77-1.21.48-2.88-.85-3.55-1.85-.94-5.14.84-6.44,2.16-.1.1-1.38,1.73-1.59,2.04.03-.1.05-.22.08-.32.55-1.87,1.33-3.61,2.13-5.2.46-.93.96-1.79,1.46-2.61.59.29,3.31,1.58,4.75,1.63,1.38.04,3.16-.28,4.08-1.42.9-1.12.79-2.81-.46-3.62-1.74-1.13-5.2.27-6.64,1.44-.08.06-.8.8-1.32,1.34.23-.37.46-.75.69-1.1.86-1.31,1.72-2.46,2.5-3.48.45-.57.86-1.08,1.25-1.55.73-.02,3.66-.13,4.94-.74,1.25-.6,2.67-1.71,2.96-3.14.29-1.41-.59-2.86-2.08-3.01-2.06-.21-4.49,2.64-5.23,4.34-.06.15-.8,2.56-.76,2.56,0,0,.04,0,.04,0-.39.45-.8.93-1.23,1.47-.8,1-1.69,2.13-2.58,3.43-.89,1.3-1.82,2.73-2.67,4.33-.85,1.6-1.66,3.33-2.27,5.22,0,.02-.01.04-.02.07,0-.61-.04-2.31-.05-2.44-.25-1.83-1.82-5.23-3.86-5.59-1.47-.26-2.71.9-2.81,2.33-.11,1.46.96,2.91,2,3.83,1.17,1.03,4.41,2.01,4.67,2.09-.56,1.8-.99,3.7-1.32,5.65-.19,1.11-.34,2.24-.49,3.37-.01-.53-.03-1-.04-1.06-.25-1.83-1.82-5.23-3.86-5.59-1.47-.26-2.71.9-2.81,2.33-.11,1.46.96,2.91,2,3.83,1.05.93,3.8,1.82,4.53,2.04-.05.43-.1.87-.15,1.3-.23,2.08-.45,4.16-.73,6.2-.1.72-.22,1.42-.34,2.12-.01-.47-.02-.86-.03-.92-.25-1.83-1.82-5.23-3.86-5.59-1.47-.26-2.71.9-2.81,2.33-.11,1.46.96,2.91,2,3.83,1.01.88,3.53,1.73,4.4,2-.15.72-.29,1.43-.46,2.12-.13.47-.22.93-.38,1.39-.14.46-.29.92-.43,1.37-.3.86-.61,1.75-.93,2.58-.22.58-.43,1.13-.65,1.68.11-.71.29-2.11.29-2.23.03-1.85-1.01-5.45-2.97-6.11-1.42-.48-2.81.48-3.13,1.88-.33,1.43.51,3.02,1.4,4.08.98,1.17,3.91,2.58,4.27,2.76Z"/>
      <path class="cls-18" d="M703.9,390.68s.64-2.42.66-2.58c.24-1.84-.37-5.53-2.25-6.41-1.35-.64-2.85.16-3.33,1.51-.49,1.38.16,3.06.92,4.22.89,1.36,3.99,3.27,3.99,3.27Z"/>
      <path class="cls-18" d="M669.93,381.84c1.12.85,4.02,1.59,4.75,1.76.27.53.55,1.1.85,1.73.51,1.12,1.08,2.39,1.59,3.82.14.38.27.79.41,1.19-.38-.62-.91-1.47-.97-1.55-1.14-1.41-4.24-3.48-6.27-2.78-1.46.5-2.01,2.08-1.4,3.32.62,1.27,2.31,1.96,3.71,2.22,1.45.27,4.51-.37,5.17-.52.29.89.56,1.81.78,2.78.39,1.68.71,3.48.77,5.37,0,.1,0,.21,0,.32-.13-.34-.98-2.15-1.06-2.27-.96-1.52-3.79-3.91-5.88-3.42-1.51.35-2.24,1.87-1.78,3.17.47,1.33,2.06,2.19,3.41,2.59,1.56.46,5.17.02,5.31,0,.04,1.76-.06,3.58-.28,5.43-.15,1.34-.37,2.69-.6,4.04-.18-.44-.98-2.12-1.05-2.24-.96-1.52-3.79-3.91-5.88-3.42-1.51.35-2.24,1.87-1.78,3.17.47,1.33,2.06,2.19,3.41,2.59,1.52.45,4.99.04,5.28,0-.1.61-.21,1.23-.31,1.84-.36,2.01-.72,4.02-1.02,6.02-.1.69-.18,1.38-.26,2.06-.29-.65-.85-1.82-.91-1.91-.96-1.52-3.79-3.91-5.88-3.42-1.51.35-2.24,1.87-1.78,3.17.47,1.33,2.06,2.2,3.41,2.59,1.36.4,4.28.11,5.1.02-.12,1.14-.21,2.27-.25,3.39,0,.48-.04.97-.02,1.44.01.47.03.93.04,1.38.06.94.12,1.82.2,2.7.04.44.09.86.13,1.29-.19-.7-.51-1.81-.55-1.9-.7-1.65-3.09-4.42-5.23-4.23-1.54.13-2.5,1.54-2.26,2.9.24,1.39,1.67,2.47,2.94,3.06,1.39.65,4.75.74,5.17.75.11,1.05.23,2.07.36,3.03.41,3.02.87,5.52,1.22,7.26.1.52.2.96.28,1.34h1.52c-.1-.43-.24-.98-.39-1.65-.39-1.71-.9-4.18-1.38-7.16-.14-.86-.27-1.77-.4-2.71.41-.09,3.71-.8,4.99-1.69,1.16-.81,2.42-2.14,2.46-3.56.04-1.39-1.1-2.59-2.64-2.44-2.14.21-4.11,3.38-4.56,5.14-.03.11-.21,1.47-.29,2.17-.07-.57-.15-1.13-.21-1.73-.1-.85-.18-1.76-.26-2.63-.02-.46-.05-.92-.07-1.38-.04-.47,0-.92-.02-1.39,0-.69.05-1.4.09-2.1.94-.07,3.68-.33,4.92-.95,1.28-.64,2.72-1.78,3-3.18.27-1.37-.67-2.73-2.21-2.8-2.14-.1-4.59,2.78-5.32,4.45-.02.05-.14.42-.27.86.06-.69.12-1.38.21-2.08.25-1.98.57-3.99.88-6.01.06-.42.12-.84.19-1.26.79-.06,3.76-.31,5.06-.96,1.28-.64,2.72-1.78,3-3.18.27-1.37-.67-2.73-2.21-2.8-2.14-.1-4.59,2.78-5.32,4.45-.03.06-.16.5-.31.99.15-1.1.29-2.19.39-3.28.18-1.91.24-3.79.15-5.61.28-.02,3.77-.25,5.21-.97,1.28-.64,2.72-1.78,3-3.18.27-1.37-.67-2.73-2.21-2.8-2.14-.1-4.59,2.78-5.32,4.46-.05.12-.53,1.72-.69,2.29,0-.02,0-.04,0-.07-.11-1.91-.48-3.72-.91-5.41-.43-1.69-.99-3.25-1.54-4.66-.55-1.42-1.15-2.68-1.69-3.79-.3-.6-.58-1.14-.85-1.65,0,0,.04.01.04.01.04,0-.07-2.42-.1-2.58-.3-1.76-1.99-4.97-4.1-5.22-1.53-.18-2.78,1.01-2.86,2.39-.08,1.42,1.05,2.77,2.14,3.6Z"/>
      <path class="cls-18" d="M682.79,387.41c1.06-1.16,2.15-2.84,2.02-4.22-.13-1.35-1.42-2.15-2.94-1.51-2.11.89-3.68,4.58-3.92,6.41-.02.16-.05,2.6,0,2.58,0,0,3.6-1.92,4.85-3.27Z"/>
    </g>
    <g>
      <g>
        <path class="cls-18" d="M609.27,290.4c0,24.18,19.16,43.78,19.16,43.78,0,0,19.16-19.6,19.16-43.78s-19.16-43.78-19.16-43.78c0,0-19.16,19.6-19.16,43.78Z"/>
        <line class="cls-14" x1="628.43" y1="334.18" x2="628.43" y2="246.61"/>
        <line class="cls-14" x1="628.43" y1="277.74" x2="617.7" y2="268.37"/>
        <line class="cls-14" x1="628.6" y1="292.21" x2="641.88" y2="272.97"/>
        <line class="cls-14" x1="628.43" y1="300.55" x2="612.6" y2="286.42"/>
        <line class="cls-14" x1="628.6" y1="311.78" x2="644.26" y2="297.83"/>
        <line class="cls-14" x1="628.6" y1="321.49" x2="616.34" y2="311.78"/>
      </g>
      <g>
        <path class="cls-18" d="M596.47,322.34c9.3,10.49,25.15,11.62,25.15,11.62,0,0,.77-15.87-8.53-26.36-9.3-10.49-25.15-11.62-25.15-11.62,0,0-.77,15.87,8.53,26.36Z"/>
        <line class="cls-14" x1="621.63" y1="333.97" x2="587.94" y2="295.98"/>
        <line class="cls-14" x1="599.91" y1="309.48" x2="591.66" y2="309.55"/>
        <line class="cls-14" x1="605.55" y1="315.69" x2="603.91" y2="302.24"/>
        <line class="cls-14" x1="608.69" y1="319.38" x2="596.38" y2="319.34"/>
        <line class="cls-14" x1="613.08" y1="324.19" x2="614.51" y2="312.11"/>
        <line class="cls-14" x1="616.82" y1="328.4" x2="607.77" y2="328.9"/>
      </g>
      <g>
        <path class="cls-18" d="M643.87,307.86c-9.77,10.06-9.71,25.95-9.71,25.95,0,0,15.89-.42,25.65-10.48,9.77-10.06,9.72-25.95,9.72-25.95,0,0-15.89.42-25.65,10.48Z"/>
        <line class="cls-14" x1="634.16" y1="333.81" x2="669.53" y2="297.38"/>
        <line class="cls-14" x1="656.95" y1="310.33" x2="656.27" y2="302.11"/>
        <line class="cls-14" x1="651.18" y1="316.42" x2="664.47" y2="313.78"/>
        <line class="cls-14" x1="647.74" y1="319.82" x2="646.86" y2="307.55"/>
        <line class="cls-14" x1="643.27" y1="324.57" x2="655.43" y2="325.08"/>
        <line class="cls-14" x1="639.35" y1="328.6" x2="638.17" y2="319.62"/>
      </g>
    </g>
    <g>
      <g>
        <path class="cls-18" d="M389.95,414.38c0,15.22,12.05,27.55,12.05,27.55,0,0,12.05-12.33,12.05-27.55s-12.05-27.55-12.05-27.55c0,0-12.05,12.33-12.05,27.55Z"/>
        <line class="cls-14" x1="402" y1="441.93" x2="402" y2="386.83"/>
        <line class="cls-14" x1="402" y1="406.42" x2="395.26" y2="400.53"/>
        <line class="cls-14" x1="402.11" y1="415.53" x2="410.47" y2="403.42"/>
        <line class="cls-14" x1="402" y1="420.77" x2="392.04" y2="411.88"/>
        <line class="cls-14" x1="402.11" y1="427.84" x2="411.97" y2="419.06"/>
        <line class="cls-14" x1="402.11" y1="433.95" x2="394.4" y2="427.84"/>
      </g>
      <g>
        <path class="cls-18" d="M381.9,434.49c5.85,6.6,15.83,7.31,15.83,7.31,0,0,.48-9.99-5.37-16.59-5.85-6.6-15.83-7.31-15.83-7.31,0,0-.48,9.99,5.37,16.59Z"/>
        <line class="cls-14" x1="397.72" y1="441.8" x2="376.53" y2="417.9"/>
        <line class="cls-14" x1="384.06" y1="426.39" x2="378.87" y2="426.43"/>
        <line class="cls-14" x1="387.61" y1="430.3" x2="386.58" y2="421.84"/>
        <line class="cls-14" x1="389.58" y1="432.62" x2="381.84" y2="432.6"/>
        <line class="cls-14" x1="392.35" y1="435.65" x2="393.24" y2="428.05"/>
        <line class="cls-14" x1="394.7" y1="438.3" x2="389" y2="438.61"/>
      </g>
      <g>
        <path class="cls-18" d="M411.72,425.38c-6.15,6.33-6.11,16.33-6.11,16.33,0,0,10-.26,16.14-6.59,6.15-6.33,6.11-16.33,6.11-16.33,0,0-10,.26-16.14,6.59Z"/>
        <line class="cls-14" x1="405.61" y1="441.7" x2="427.86" y2="418.78"/>
        <line class="cls-14" x1="419.95" y1="426.93" x2="419.52" y2="421.75"/>
        <line class="cls-14" x1="416.32" y1="430.76" x2="424.68" y2="429.1"/>
        <line class="cls-14" x1="414.16" y1="432.9" x2="413.6" y2="425.18"/>
        <line class="cls-14" x1="411.34" y1="435.89" x2="418.99" y2="436.21"/>
        <line class="cls-14" x1="408.88" y1="438.43" x2="408.14" y2="432.77"/>
      </g>
    </g>
  </g>
  <g id="Device_4" data-name="Device 4">
    <g>
      <path class="cls-2" d="M531.38,210.5s7.04,30.28,3.98,35.26c-4.01,6.51-46.69,10.43-46.69,10.43h94.12s11.79-3.31,8.25-12.79c-2.74-7.34-15.91-32.89-15.91-32.89h-43.75Z"/>
      <path class="cls-2" d="M529.32,210.5s7.51,30.53,3.98,35.26c-3.53,4.72-44.63,8.33-44.63,8.33h94.56s7.95-3.21,5.74-10.69c-2.21-7.48-15.91-32.89-15.91-32.89h-43.75Z"/>
      <path class="cls-13" d="M573.06,210.5h-43.75s4.45,18.09,4.88,28.58h53.13c-4.3-10.08-14.27-28.58-14.27-28.58Z"/>
      <rect class="cls-2" x="488.66" y="254.24" width="94.12" height="1.95"/>
      <rect class="cls-2" x="412.41" y=".5" width="283.98" height="212.99" rx="8.48" ry="8.48"/>
      <rect class="cls-13" x="405.71" y=".5" width="283.98" height="212.99" rx="8.48" ry="8.48"/>
      <path class="cls-2" d="M405.71,180.38h283.98v24.62c0,4.68-3.8,8.48-8.48,8.48h-267.01c-4.68,0-8.48-3.8-8.48-8.48v-24.62h0Z"/>
      <path class="cls-13" d="M552.94,196.93c0-2.89-2.35-5.24-5.24-5.24s-5.24,2.35-5.24,5.24,2.34,5.24,5.24,5.24,5.24-2.35,5.24-5.24Z"/>
    </g>
  </g>
  <g id="Device_3" data-name="Device 3">
    <g>
      <path class="cls-13" d="M277.91,165.98h219.34c5.77,0,10.46,4.69,10.46,10.46v145.49h-240.26v-145.49c0-5.77,4.69-10.46,10.46-10.46Z"/>
      <rect class="cls-4" x="277.2" y="178.16" width="220.76" height="124.76"/>
      <rect class="cls-4" x="305.58" y="314.42" width="165.12" height="8.14"/>
      <rect class="cls-4" x="305.58" y="318.34" width="165.12" height="4.22"/>
      <path class="cls-4" d="M248.03,327.38s2.71,3.31,10.85,6.03h258.52s6.03-1.51,8.74-5.72l-278.11-.3Z"/>
      <rect class="cls-4" x="247.48" y="321.44" width="279.24" height="6.34" rx="2.7" ry="2.7"/>
      <circle class="cls-18" cx="387.53" cy="170.7" r="2.11"/>
      <path class="cls-6" d="M359.66,168.59h-52.73c-.58,0-1.05-.47-1.05-1.05h0c0-.58.47-1.05,1.05-1.05h52.73c.58,0,1.05.47,1.05,1.05h0c0,.58-.47,1.05-1.05,1.05Z"/>
      <path class="cls-6" d="M467.23,168.59h-52.73c-.58,0-1.05-.47-1.05-1.05h0c0-.58.47-1.05,1.05-1.05h52.73c.58,0,1.05.47,1.05,1.05h0c0,.58-.47,1.05-1.05,1.05Z"/>
      <path class="cls-6" d="M505.64,209.87h0c-.33,0-.6-.27-.6-.6v-17.48c0-.33.27-.6.6-.6h0c.33,0,.6.27.6.6v17.48c0,.33-.27.6-.6.6Z"/>
      <path class="cls-6" d="M269.72,209.87h0c-.33,0-.6-.27-.6-.6v-17.48c0-.33.27-.6.6-.6h0c.33,0,.6.27.6.6v17.48c0,.33-.27.6-.6.6Z"/>
    </g>
  </g>
  <g id="Device_2" data-name="Device 2">
    <g>
      <path class="cls-13" d="M504.22,275.61h92.78c6.17,0,11.18,5.01,11.18,11.18v195.13c0,6.17-5.01,11.18-11.18,11.18h-92.78c-6.17,0-11.18-5.01-11.18-11.18v-195.13c0-6.17,5.01-11.18,11.18-11.18Z" transform="translate(934.97 -166.25) rotate(90)"/>
      <rect class="cls-8" x="498.16" y="287.21" width="104.91" height="194.31" transform="translate(934.97 -166.25) rotate(90)"/>
      <path class="cls-17" d="M653.04,385.94c-.87,0-1.58-.71-1.58-1.58s.71-1.58,1.58-1.58,1.58.71,1.58,1.58-.71,1.58-1.58,1.58Z"/>
      <rect class="cls-6" x="624.47" y="326.79" width="7.71" height="1.05" rx=".37" ry=".37" transform="translate(1256.65 654.63) rotate(180)"/>
      <path class="cls-6" d="M600.3,327.84h13.32c.29,0,.53-.24.53-.53h0c0-.29-.24-.53-.53-.53h-13.32c-.29,0-.53.24-.53.53h0c0,.29.24.53.53.53Z"/>
    </g>
  </g>
  <g id="Device_1" data-name="Device 1">
    <g>
      <rect class="cls-13" x="284.08" y="292.67" width="79.02" height="149.26" rx="7.67" ry="7.67"/>
      <rect class="cls-8" x="287.59" y="309.06" width="72" height="116.48"/>
      <path class="cls-6" d="M331.41,300.91h-15.65c-.59,0-1.07-.48-1.07-1.07h0c0-.59.48-1.07,1.07-1.07h15.65c.59,0,1.07.48,1.07,1.07h0c0,.59-.48,1.07-1.07,1.07Z"/>
      <path class="cls-6" d="M327.86,432.12c0-2.36-1.91-4.27-4.27-4.27s-4.27,1.91-4.27,4.27,1.91,4.27,4.27,4.27,4.27-1.91,4.27-4.27Z"/>
      <rect class="cls-6" x="321.42" y="429.96" width="4.33" height="4.33"/>
    </g>
  </g>
  <g id="Target_4" data-name="Target 4">
    <g>
      <circle class="cls-12" cx="544.39" cy="66.85" r="53.56"/>
      <circle class="cls-4" cx="542.67" cy="64.55" r="53.56"/>
      <circle class="cls-4" cx="540.17" cy="64.55" r="53.56"/>
      <circle class="cls-1" cx="540.17" cy="64.55" r="42.88"/>
      <circle class="cls-4" cx="540.17" cy="64.55" r="35.06" transform="translate(112.57 400.86) rotate(-45)"/>
      <circle class="cls-1" cx="540.17" cy="64.55" r="25.46"/>
      <circle class="cls-4" cx="540.17" cy="64.55" r="18.32"/>
      <circle class="cls-1" cx="540.17" cy="64.55" r="7.57"/>
    </g>
  </g>
  <g id="Target_3" data-name="Target 3">
    <g>
      <circle class="cls-12" cx="388.22" cy="239.83" r="53.56"/>
      <circle class="cls-4" cx="386.49" cy="237.52" r="53.56"/>
      <circle class="cls-4" cx="384" cy="237.52" r="53.56"/>
      <circle class="cls-1" cx="384" cy="237.52" r="42.88"/>
      <circle class="cls-4" cx="384" cy="237.52" r="35.06" transform="translate(-44.81 96.12) rotate(-13.49)"/>
      <circle class="cls-1" cx="384" cy="237.52" r="25.46"/>
      <circle class="cls-4" cx="384" cy="237.52" r="18.32"/>
      <circle class="cls-1" cx="384" cy="237.52" r="7.57"/>
    </g>
  </g>
  <g id="Taget_2" data-name="Taget 2">
    <g>
      <circle class="cls-12" cx="547.77" cy="380.35" r="38.5"/>
      <circle class="cls-4" cx="546.53" cy="378.69" r="38.5"/>
      <circle class="cls-4" cx="544.74" cy="378.69" r="38.5"/>
      <circle class="cls-1" cx="544.74" cy="378.69" r="30.83"/>
      <circle class="cls-4" cx="544.74" cy="378.69" r="25.21" transform="translate(-53.99 92.92) rotate(-9.29)"/>
      <circle class="cls-1" cx="544.74" cy="378.69" r="18.31" transform="translate(-11.95 739.6) rotate(-67.76)"/>
      <circle class="cls-4" cx="544.74" cy="378.69" r="13.17" transform="translate(-12.41 738.89) rotate(-67.69)"/>
      <circle class="cls-1" cx="544.74" cy="378.69" r="5.44"/>
    </g>
  </g>
  <g id="Target_1" data-name="Target 1">
    <g>
      <circle class="cls-12" cx="325.17" cy="369.12" r="27.74"/>
      <circle class="cls-4" cx="324.28" cy="367.93" r="27.74"/>
      <circle class="cls-4" cx="322.99" cy="367.93" r="27.74"/>
      <circle class="cls-1" cx="322.99" cy="367.93" r="22.21" transform="translate(-53.51 54.97) rotate(-8.99)"/>
      <circle class="cls-4" cx="322.99" cy="367.93" r="18.16"/>
      <circle class="cls-1" cx="322.99" cy="367.93" r="13.19"/>
      <circle class="cls-4" cx="322.99" cy="367.93" r="9.49"/>
      <circle class="cls-1" cx="322.99" cy="367.93" r="3.92"/>
    </g>
  </g>
  <g id="Character">
    <g>
      <g>
        <path class="cls-4" d="M22.56,420.07l-1.87,12.62s-9.04,10.75-10.13,14.18,1.25,6.08,5.45,4.21c4.21-1.87,8.41-7.63,9.35-11.06.93-3.43,1.71-7.17,1.71-7.17l5.77-10.28-10.28-2.49Z"/>
        <path class="cls-1" d="M23.68,443.63c-1.52,1.21-3.96,2.64-6.89,2.46-3.53-.22-3.7-2.54-3.5-3.89-1.33,1.89-2.4,3.62-2.73,4.67-1.09,3.43,1.25,6.08,5.45,4.21,2.92-1.3,5.84-4.48,7.67-7.44Z"/>
      </g>
      <g>
        <path class="cls-4" d="M102.93,420.07l1.87,12.62s9.04,10.75,10.13,14.18c1.09,3.43-1.25,6.08-5.45,4.21-4.21-1.87-8.41-7.63-9.35-11.06-.93-3.43-1.71-7.17-1.71-7.17l-5.76-10.28,10.28-2.49Z"/>
        <path class="cls-1" d="M101.81,443.63c1.52,1.21,3.96,2.64,6.89,2.46,3.53-.22,3.7-2.54,3.5-3.89,1.33,1.89,2.4,3.62,2.73,4.67,1.09,3.43-1.25,6.08-5.45,4.21-2.92-1.3-5.84-4.48-7.67-7.44Z"/>
      </g>
      <path class="cls-12" d="M37.02,337.35l-9.32,48.52s-4.05,17.61-4.99,23.37c-.93,5.76-3.2,22.6-3.2,22.6,0,0,2.49,3.27,7.01,3.27s7.86-.14,7.86-.14l28.28-88.99,1.87-.78,26.42,88.01s5.61,1.71,7.79,1.4,2.57.18,3.98-.91c1.4-1.09,4.67-3.43,4.67-3.43l-8.18-49.71-6.2-53.08s-18.59,4.87-29.93,5.23c-11.34.36-24.77-.26-24.77-.26l-1.3,4.89Z"/>
      <path class="cls-4" d="M45.84,335.83l16.99,3.7,2.36-10.31.52,9.44s4.52.31,7.63-.31c3.12-.62,14.96-6.34,14.96-6.34l-9.64-31.49-5.61-46.5-20.25,1.06,7.06,47.5-14.04,33.25Z"/>
      <path class="cls-4" d="M135.27,242.24s20.23-2.37,20.66-2.57,1.05,7.5,1.1,8.41c.05.91-1.06,1.69-1.06,1.69,0,0-3.03,1.02-5.07,1.17-2.04.15-8.79-1.59-8.79-1.59l-5.5.68-1.33-7.79Z"/>
      <path class="cls-4" d="M153.6,239.53s5.19-.5,5.61-.12c.42.38.88,1.67.26,2.02-.63.35-1.12.78-1.12.78,0,0,.82,6.28.68,6.77-.14.49-2.5,1.38-4.05,1.67s-3.08-1.15-2.83-1.66c.25-.51.37-1.1.37-1.1,0,0-.74-.9-.74-2.16v-1.26s-.19-2.84-.04-3.9,1.88-1.04,1.88-1.04Z"/>
      <g>
        <path class="cls-1" d="M68.87,258.76l6.56,43.95,6.34,39.54s14.47-5.73,19.03-12.75l-14.13-29.77-1.17-32.48,52.32-15.25-1.72-10.14s-30.66,4.73-39.21,6.48c-8.55,1.74-11.22,2.71-12.14,2.88s-13.67.63-13.67.63l-3.79.07,1.58,6.84Z"/>
        <polygon class="cls-12" points="85.5 267.24 86.58 257.36 89.82 265.79 85.5 267.24"/>
      </g>
      <g>
        <g>
          <path class="cls-9" d="M71.33,237.11l.49,2.62s4.66,3.89,4.41,4.75c-.25.86-2.18,2.17-2.18,2.17,0,0,.95,2.94,1.11,4.54.16,1.6.05,3.93-2.71,5.12-2.76,1.19-4.23,1.33-4.23,1.33l-2.24,23.75-11.09-24.67-4.03-3.46s-5-1.38-4.52-6.08,5.53-4.55,7.32-5.16c1.79-.6,6.14-4.94,4.58-9.67-1.56-4.73,3.22-3.85,5.97-3.68s7.34,4.47,7.13,8.45Z"/>
          <polygon class="cls-10" points="68.21 257.63 60.71 258.67 67.13 269.27 68.21 257.63"/>
          <path class="cls-3" d="M69.82,240.07s-2.55-.29-4.66,2.38"/>
          <path class="cls-18" d="M70.59,243.08c.14.75-.05,1.42-.43,1.49-.38.07-.8-.48-.94-1.24-.14-.75.05-1.42.43-1.49.38-.07.8.48.94,1.24Z"/>
        </g>
        <path class="cls-10" d="M62.43,231.56s2.04,2.2,1.66,6.75c-.38,4.55-6.6,7.6-6.76,8.17-.16.57.7,2.31-.01,2.85-.71.54-2,.91-2.88-.15s-2.47-3.07-4.14-1.81c-1.67,1.26-1.97,2.54-.79,3.81,1.19,1.27,2.74,2.34,2.74,2.34,0,0-5.73,2.01-12.34-4.36-6.61-6.37-3.26-19.07,1.02-23.8,4.28-4.73,10.44-5.87,13.61-5.64,3.16.23,8.6,4.65,8.6,4.65,0,0,6.65-5.85,10.83-1.6,4.18,4.25,2.11,12.09.13,13.14s-2.76,1.19-2.76,1.19c0,0-.47-1.81-2.24-2.57-1.77-.76-6.66-2.97-6.66-2.97Z"/>
        <path class="cls-10" d="M41.95,224.4s2.23-2.59-6.09-5.93c-8.33-3.34-18.88,7.63-13.47,16.93,5.42,9.31,14.26-2.1,14.26-2.1,0,0,3.63-6.75,5.3-8.91Z"/>
      </g>
      <g>
        <path class="cls-1" d="M52.82,255.08s-5.94.47-8.54.95c-2.6.48-20.22,1.21-25.33,1.84s-10.87,3.76-10.16,7.59c.71,3.83.73,6.52,8.01,6.44,7.27-.08,19.52,2.4,19.52,2.4,0,0,8.86,27.01,9.76,28.43.9,1.42-12.27,31.68-12.27,31.68,0,0,3.3,2.83,7.75,4.36,6.76,2.33,8.27,1.6,8.27,1.6,0,0,11.44-34.57,11.76-37.16.31-2.59-5.15-38.03-6.03-42.78-.88-4.75-2.74-5.36-2.74-5.36Z"/>
        <polygon class="cls-10" points="36.32 274.3 53.25 264.23 21.45 271.82 36.32 274.3"/>
      </g>
      <g>
        <g>
          <path class="cls-5" d="M150.86,226.52c-9.27-25.94-26.14-37.53-41.82-40.77,0,0-6.45-1.41-8.95-8.47"/>
          <path class="cls-19" d="M157.26,260.98c-.11-5.33-.7-11.08-1.85-17.27-1.17-6.33-2.71-12.04-4.55-17.19"/>
          <path class="cls-5" d="M128.69,321.87c.72-5.78,6.81-10.91,6.81-10.91,11.9-8.65,22.29-24.47,21.76-49.98"/>
        </g>
        <polyline class="cls-11" points="105.08 183.26 73.06 254.02 131.47 317.59"/>
      </g>
      <g>
        <line class="cls-7" x1="67.24" y1="252.25" x2="162.64" y2="237.85"/>
        <polygon class="cls-18" points="171.58 236.5 159.76 243.55 161.97 237.95 158.21 233.26 171.58 236.5"/>
      </g>
      <path class="cls-4" d="M142.69,242.01s7.67-3.26,8.55-3.42,8.02,4.83,8.02,4.83c0,0-.12.6-1.9.93-1.78.33-4.55-.99-5.05-1.25-.51-.25-1.67,2.15-3.76,2.65-2.09.5-5.15-.54-5.15-.54"/>
      <g>
        <path class="cls-4" d="M64.28,252.8s3.95-2.63,4.35-3.03,4.31.15,5.44.26c1.13.11,1.75-.8,2.05-.06s.19,1.87.19,1.87c0,0,1.74,0,1.73.79-.01.79-.18,1.62-.4,2.13s-2.25,1.53-2.25,1.53c0,0-.63,3.44-1.53,4.56s-2.35,1.86-4.15,1.56c-1.8-.3-8.46-2.87-8.46-2.87l-8.28,2.33-1.43-6.87,12.74-2.2Z"/>
        <line class="cls-11" x1="76.3" y1="251.83" x2="69.77" y2="251.62"/>
      </g>
      <path class="cls-1" d="M54.58,253.48l2.28,11.46s-16.8,3.43-20.63,4.14c-3.83.71-18.92,4.78-25.99,3.39-7.07-1.38-8.91-5.32-6.82-10.3,2.09-4.98,12.7-5.84,21.3-6.48,8.6-.64,29.86-2.21,29.86-2.21Z"/>
    </g>
  </g>
</svg>