<?xml version="1.0" encoding="UTF-8"?>
<svg id="Layer_1" data-name="Layer 1" xmlns="http://www.w3.org/2000/svg" version="1.1" viewBox="0 0 430.9 358">
  <defs>
    <style>
      .cls-1 {
        fill: #fdc554;
        stroke-width: 0px;
      }

      .cls-2 {
        display: none;
      }
    </style>
  </defs>
  <g id="Layer_1-2" data-name="Layer 1" class="cls-2">
    <g id="jHakHV.tif">
      <path class="cls-1" d="M202.6.5c167-11.2,311.2,164.5,172.8,300.7-18.3,17.5-40.8,29.7-64.1,39.5-12.4,4.3-72.5,28.3-75.2,8.2.3-24.2,36.3-14.4,46.7-31.7,8-9.3,9.2-22.3,9.2-34.2-.8-43.7,1.8-87.8-1.1-131.4-2.9-17.6-26.1-15.1-28.2,1.5-3.3,42.2-.2,85.1-1.4,127.5,2.7,15.7-17,31-25,12.3-3.9-56.3-.3-113.7-1.4-170.3-1.3-19.8,21.2-6.8,34-25.5,10-12,9.4-31.9,1.3-45-5.7-8.2-13.9-1.8-21-.6-7-4.2-3.6-23.6-9.5-31.9-7.8-17.1-17.1-6.3-29.7-7.3-33.5-15.9-23.7,41-35.3,38.3-14.4-8.3-22.9-.8-25.3,14.9-3.4,14.5,1.3,30.3,14.3,38.6,11.7,11,29.7-4.4,27.7,17.2,0,42.3.1,84.6-.1,126.9.6,9.7-5.7,21.9-16.7,17.5-14.9-9.6-6.7-32.3-8.8-47.3-1-15.1,2.8-32.6-3.3-46.6-7.3-12.8-23.6-3.4-23.7,9.4-1.5,21.8-.1,44-.6,65.8-2.3,30.2,9.4,47.1,40.2,49.8,18,5.3,11.7,28.3,12.9,42.5,1.6,15-8.1,19.3-21.4,15.3-16.9-3.3-33.5-8.1-49.4-14.7-49-20.3-91.4-59.1-110.6-109.1C-35.8,107.9,85.7,2.5,202.4.6h.2Z"/>
    </g>
  </g>
  <g id="Layer_1_copy" data-name="Layer 1 copy">
    <g id="jHakHV.tif-2">
      <path class="cls-1" d="M240.6,8.2c13.9,1.4,27.6,4.2,41.1,8.2,20,6,39,14.6,56.5,25.7,34.6,22,61.2,52.6,75,86.3,11.1,27.2,13.7,55,7.7,82.6-6.6,30.3-23.6,59-50.2,85.3-15.3,14.6-34.9,26.7-61.7,38-1.2.4-2.7,1-4.5,1.6-11.5,4.2-38.6,14-54.1,14s-5.7-.6-6.5-1c-.4-.2-.5-.3-.6-.5.3-6.6,4.6-8.7,18.1-12.1,9.9-2.5,21.1-5.3,27.3-14.9,9.4-11.2,10.5-26.4,10.5-38.3h0c-.3-16.9-.1-34,0-50.6.3-26.6.6-54.2-1.2-81.2v-.6c-1.8-10.8-9.9-18-20.2-18s-20.2,6.8-21.9,19.8v.4c-2,25.8-1.7,52-1.4,77.4.2,16.6.4,33.7,0,50.5v1.4c.6,3.3-.5,7-2.9,9.8-1.5,1.8-3.4,2.9-4.8,2.9s-2.8-1.9-3.6-3.4c-2.3-33.8-1.8-68.7-1.4-102.4.3-21.7.6-44.2.1-66.3v-.4c0-1.3-.1-3.4.7-4,1.1-.9,4-1.5,6.8-2.1,7.4-1.6,17.6-3.8,25.1-14.7,11.2-13.7,11.9-36.4,1.7-52.9v-.2l-.2-.2c-3.2-4.6-7.7-7.1-13.1-7.1s-7.2,1.2-10.3,2.2c-.1,0-.3,0-.4.2-.6-2.4-1-6-1.3-8.5-.8-6.7-1.6-13.6-5-18.8-1.6-3.3-3.3-5.9-5.3-8M185.4,8.6c-1.7,1.7-3.2,4-4.6,6.7-3,6-4.4,13.2-5.6,19.5-.4,2.3-1,5.2-1.6,7.4-3.3-1.4-6.5-2-9.6-2-5.3,0-18,2.3-21.4,24-4.1,18.2,2.5,36,16.9,45.5,6.8,6,14.8,6,20.2,6s3.7,0,4.7.2c.1.6.3,2,0,4.8v48.5c0,25.9,0,52.7-.1,79v.4c.2,3.6-1,7.7-2.9,9.8-1,1-1.7,1.2-2.3,1.2s-.8,0-1.3-.2c-6.1-2.4-6.2-13-6.1-18.2.2-10.4,1-20.7.9-31.2-.2-13.1-1.4-26.1-3.1-39-1-7.9-6.5-13-14-13s-23.4,10.6-23.7,23c-.9,13.4-.7,27-.6,40.2,0,8.4.2,17.1,0,25.5-2.6,34.8,12.8,53.9,45.8,57,7.9,2.7,8.7,10.9,7.6,28-.2,2.6-.3,5.1-.4,7.4-.2,9.9-3.5,9.9-5.9,9.9s-4-.4-6.5-1.2h-.3c0-.1-.3-.2-.3-.2-17.2-3.4-33.4-8.2-48.1-14.3-23.9-9.9-46.1-24.4-64.3-42-19.2-18.5-33.5-39.8-42.4-63.1-8.7-23.5-11.4-47.1-8-70.3,3.2-21.5,11.5-42.3,24.7-61.7,17.6-25.7,42.9-47.8,73.4-63.7,25-13.1,52-21.4,78.8-24.2M217.8,0c-5.1,0-10.2.2-15.3.5h-.2C85.7,2.5-35.8,107.9,10,230.9c19.2,50,61.6,88.8,110.6,109.1,15.9,6.6,32.6,11.4,49.4,14.7,3.2,1,6,1.5,8.5,1.5,8.1,0,12.7-5.2,12.9-16.7.3-14.3,5.1-37.2-12.9-42.5-30.9-2.6-42.5-19.6-40.2-49.8.5-21.9-.9-44.1.6-65.8,0-8.5,9.7-16.3,16.7-16.3s6.4,2,7,6.9c1.6,13,2.8,26.1,3.1,39.2s-1.1,21.5-1,32.3,2.2,17.5,10,22.5c1.6.6,3.1.9,4.5.9,8.2,0,12.7-10.1,12.2-18.4.3-42.3,0-84.6.1-126.9,2-21.6-16-6.2-27.7-17.2-13.1-8.3-17.7-24.1-14.3-38.6,1.7-11.3,6.5-18.3,14.5-18.3s6.7,1.1,10.8,3.4h.8c9.1,0,3.7-41.3,24-41.2,2.9,0,6.4.9,10.5,2.8h1.7c6.2,0,11.5-2.5,16.3-2.5s8.1,2,11.7,9.8c5.9,8.3,2.4,27.7,9.5,31.9,4.4-.7,9.2-3.5,13.6-3.5s5.2,1,7.3,4.1c8.1,13.2,8.7,33-1.3,45-12.8,18.7-35.3,5.8-34,25.5,1.1,56.6-2.5,114,1.4,170.3,2.6,6.1,6.5,8.6,10.4,8.6,8.1,0,16.3-10.3,14.5-20.9,1.1-42.4-2-85.3,1.4-127.5,1.1-8.8,8.1-13.7,14.9-13.7s11.9,3.8,13.2,12.1c2.9,43.6.2,87.7,1.1,131.4,0,11.8-1.2,24.9-9.2,34.2-10.5,17.3-46.5,7.5-46.7,31.7.8,5.8,6.3,7.9,14.1,7.9,19.3,0,52.3-13.1,61.1-16.1,23.3-9.8,45.8-22,64.1-39.5C509.6,169.2,378.2,0,217.8,0Z"/>
    </g>
  </g>
</svg>