<?xml version="1.0" encoding="UTF-8"?>
<svg id="Layer_1" data-name="Layer 1" xmlns="http://www.w3.org/2000/svg" version="1.1" viewBox="0 0 379.9 316.7">
  <defs>
    <style>
      .cls-1 {
        fill: #fec654;
        stroke-width: 0px;
      }
    </style>
  </defs>
  <g id="OUTLINE">
    <path class="cls-1" d="M379.5,148.2h0c-2.3-26.3-11.8-49.7-27.3-70.8-15.3-20.7-34.6-36.9-56.8-49.6-21-12-43.4-20-67.1-24.3-9.7-1.8-19.6-2.8-29.5-3.1C197.6.4,196.3,0,195.1,0h-15.6l-.2.2c-1.3,0-2.7.4-4,.4-17.5,1-34.7,4.1-51.5,9.3-23.1,7.1-44.5,17.7-63.7,32.5-19.5,15-35.3,33.2-46.2,55.5-6.5,13.3-10.8,27.4-12.8,42.2-4.3,32.3,3,62,20.2,89.4,14.3,23.3,33.7,41.5,56.8,56,20.9,13.1,43.7,21.5,67.8,26.7,6,1.3,12.1,2.3,18.1,3,.4-.6,1.2-1,1.1-1.9-6.5-.8-12.8-1.8-19-3.1-25.6-5.5-47.6-14.2-67.2-26.4-24.3-15.2-42.7-33.4-56.2-55.4C5.7,200.9-1,171.2,3.1,140.4c2-14.5,6.2-28.5,12.6-41.6,10.2-20.9,25.6-39.4,45.6-54.8,18.3-14.1,39.5-24.9,63.1-32.2,16.5-5.1,33.7-8.2,51-9.2.9,0,1.8,0,2.6-.2.5,0,1,0,1.5-.2h.7v-.2h14.8c.5,0,1.1,0,1.7.2.6,0,1.3.2,1.9.2,10,.3,19.9,1.3,29.2,3.1,23.7,4.3,46,12.4,66.5,24.1,22.9,13.1,41.8,29.6,56.2,49,15.7,21.3,24.7,44.8,26.9,69.8,1,12.1.4,24.6-2.1,37.2-2.3,12.1-6.7,24.4-13,36.5-7.3,14.3-17.3,27.6-29.6,39.5-13.5,13.1-29.5,23.9-47.4,32.3-22.7,10.7-46.6,17.3-71.6,19.8v2c25-2.4,49.2-9,72.6-19.9,17.7-8.3,33.8-19.1,47.9-32.7,12.1-11.7,22.3-25,30-40,6.1-11.7,10.7-24,13.2-37,2.4-12.5,3.2-25.1,2.1-37.8h0Z"/>
    <path class="cls-1" d="M174.3,314.2v.6h0v-.6h0Z"/>
  </g>
  <g id="LOGO_OUTLINE" data-name="LOGO OUTLINE">
    <path class="cls-1" d="M169.8.5h.3-.3Z"/>
    <path class="cls-1" d="M273.7,72.7c-2.3-10.1-6.5-24.7-16.2-24.7s-5.9,1.1-9.5,3.8c-6.5,4.6-12.3,11.7-14.6,11.7s-1.4-1.3-.9-4.5c2.3-17.2-5.4-58.3-23.8-58.3s-8.4,1.8-13.4,6.3l-1.4,4.8c-2.3,2.7-4,1.7-5.3,4.1-1.1-2.3-2.3-1.1-4.5-3.7l-1.1-5c-4.9-4.6-9.2-6.6-13.2-6.7-18.1.2-27,40.7-25.5,57.9.3,3.3,0,4.6-1.1,4.6-2.3,0-7.8-7.3-14.1-12.1-3.7-2.8-6.8-4.1-9.6-4.1-9.5,0-14.1,14.4-16.8,24.5-1.9,7-3.1,19.6-1.9,26.7,2.3,13.9,22.1,29.3,39.3,33.3,1.1.3,2.2.4,3.3.4,7,0,11.5-5.5,16.6-10.2v193.1l4.5.8V111l-7.9,7.3-2.5,2.3c-3.7,3.6-7,6.7-10.9,6.7s-1.4,0-2-.3c-16.5-3.8-33.9-18.3-35.9-29.9-1.1-6.4,0-18.5,1.9-25,4.7-17.5,9.2-21.2,12.3-21.2s4,1,6.5,3.1c2.6,2,5.1,4.4,7.3,6.5,4,4,6.5,6.4,9.8,6.4s3-.6,4-1.7c1.9-1.8,1.9-4.7,1.7-7.5-1.2-13.1,4.2-39.7,14.1-49.6,2.3-2.3,4.5-3.4,6.8-3.4v.3c2.8,0,5.9,1.6,9.3,4.4l.8,3.7v1l.9.9c1.6,1.7,2.8,2.6,4,3l4,8.4,4.3-8.4c1.1-.4,2.8-1.3,4.7-3.3l.6-.7.3-.9,1.1-3.7c3.4-2.8,6.5-4.3,9.2-4.3s4.5,1.1,6.7,3.4c9.8,10.1,14.3,37,12.4,50.2-.3,2.8-.5,5.7,1.4,7.5,1.1,1.1,2.5,1.7,4,1.7,3.3,0,5.6-2.3,9.6-6,2.3-2.1,5-4.7,7.8-6.5,2.5-1.8,4.8-2.8,6.5-2.8,3.1,0,7.6,3.7,11.6,21.3,1.4,6.5,2.2,18.5.9,25-2.3,11.5-20.3,25.6-37,29h-2c-3.3,0-5.9-2-9.5-5.5l-8.1-8.1v201.9l4.5-.5V125.1c3.7,3.7,7.5,7,12.9,7s1.9,0,3-.3c17.6-3.6,37.7-18.5,40.5-32.4,1.4-7,.6-19.6-.9-26.6h.5Z"/>
    <path class="cls-1" d="M295.9,180.7c0-9.8-7.5-17.8-19.4-17.8h0c-12,.1-21.7,9.1-21.7,20v124.6l4.7-1.5v-122.9c0-8.7,7.7-15.6,17.2-15.6s14.8,6.8,14.8,13.5v112l4.2-2.2.3-110.1h-.1Z"/>
    <path class="cls-1" d="M107.3,195.7c-10.7,0-19.7,8-19.7,17.8v77.4l2,1,2.8,1.5v-79.6c0-7.4,6.7-13.5,14.8-13.5s13.2,5,13.2,12.1l-.2,92.6,4.6,1.5.4-94.4c0-9.1-7.1-16.4-17.9-16.4h0Z"/>
  </g>
  <g id="FILLED_SUN" data-name="FILLED SUN">
    <path class="cls-1" d="M379.5,148.2c-2.3-26.3-11.8-49.7-27.3-70.8-15.3-20.7-34.6-36.9-56.8-49.6-21-12-43.4-20-67.1-24.3-9.7-1.8-19.6-2.8-29.5-3.1-1.2,0-2.5-.3-3.7-.4h-15.6l-.2.2c-1.3,0-2.7.4-4,.4-17.5,1-34.7,4.1-51.5,9.3-23.1,7.1-44.5,17.7-63.7,32.5-19.5,15-35.3,33.2-46.2,55.5-6.5,13.3-10.8,27.4-12.8,42.2-4.3,32.3,3,62,20.2,89.4,14.3,23.3,33.7,41.5,56.8,56,20.9,13.1,43.7,21.5,67.8,26.7,11.5,2.5,23.2,3.9,35,4.4,11,.5,21.9.1,32.7-.9v-2.2,2.2c25.1-2.4,49.3-9,72.7-20,17.7-8.3,33.8-19.1,47.9-32.7,12.1-11.7,22.3-25,30-40,6.1-11.7,10.7-24,13.2-37,2.4-12.5,3.2-25.1,2.1-37.8h0Z"/>
  </g>
</svg>