<?xml version="1.0" encoding="UTF-8"?>
<svg id="SUN" xmlns="http://www.w3.org/2000/svg" version="1.1" viewBox="0 0 450 450">
  <defs>
    <style>
      .sun-cls-1 {
        fill: #a35030;
      }

      .sun-cls-1, .sun-cls-2, .sun-cls-3 {
        stroke-width: 0px;
      }

      .sun-cls-2 {
        fill: #597b73;
      }

      .sun-cls-3 {
        fill: #fec654;
      }

      .sun-cls-4 {
        display: none;
      }
    </style>
  </defs>
  <path class="sun-cls-3" d="M450,225c0,124.2-100.7,225-225,225S0,349.2,0,225,100.7,0,225,0s225,100.8,225,225Z"/>
  <g id="INNER_DAGUARO" class="sun-cls-4">
    <path class="sun-cls-2" d="M165.8,158.1v99c0,6.4,5.2,11.5,11.5,11.5h9.2c5.7,0,10.3-4.6,10.3-10.3V67.7c0-13.4,10.8-24.2,24.2-24.2s27.6,12.4,27.6,27.6v229.9c0,5.3,4.3,9.7,9.7,9.7h9c7.6,0,13.8-6.2,13.8-13.8v-167.1c0-10.7,8.6-19.3,19.3-19.3s17.3,7.7,17.3,17.3v172.3c0,18.4-11.6,34.7-28.9,40.9-2.8,1-5.7,1.7-8.7,2.1l-19.5,2.6c-6.9.9-12,6.8-12,13.7v61.1c0,3.8-3.1,6.9-6.9,6.9h-38c-3.8,0-6.9-3.1-6.9-6.9v-104.9c0-7.6-6.2-13.8-13.8-13.8h-11.2c-11,0-26.3,2.3-33.9-5.6-6.5-6.7-5.3-22.5-5.3-31.8v-104.9c0-9.5,7.7-17.3,17.3-17.3s15.9,7.1,15.9,15.9h0Z"/>
    <path class="sun-cls-1" d="M139.1,86.1c-3.3-.8-5.8-3.6-6.2-7l-2.1-19c-.3-2.2,1.5-4.2,3.8-4.2s3.2,1.2,3.6,2.8l3.7,14.2,42.6,8.6,1.7-29.4c-.2-3.6,1.3-7.1,4-9.6l3.3-3c1.2-1.2,2.2-2.6,2.9-4.1l8.5-19.3c1-2.4,4.2-2.7,5.7-.6.6.8,2.3,1.1,4.3,1.3.6,0,1.1,0,1.6.1,4.1.2,8.2.2,12.3,0,.6,0,1.2,0,1.9-.1,2-.2,3.8-.5,4.3-1.3,1.5-2.1,4.7-1.7,5.7.6l8.5,19.3c.7,1.5,1.7,2.9,2.9,4.1l3.3,3c2.7,2.4,4.1,6,4,9.6l1.7,29.4,42.6-8.6,3.7-14.2c.4-1.7,1.9-2.8,3.6-2.8s4,2,3.8,4.2l-2.1,19c-.4,3.4-2.8,6.2-6.2,7,0,0-47.1,11.7-47.4,11.7h-72.6c-.3,0-47.4-11.7-47.4-11.7h.2Z"/>
  </g>
</svg>