<?xml version="1.0" encoding="UTF-8"?>
<svg id="Layer_1" data-name="Layer 1" xmlns="http://www.w3.org/2000/svg" version="1.1" viewBox="0 0 379.9 316.7">
  <defs>
    <style>
      .SUN-cls-1 {
        fill: #fdc554;
      }

      .SUN-cls-1, .SUN-cls-2, .SUN-cls-3, .SUN-cls-4 {
        stroke-width: 0px;
      }

      .SUN-cls-2 {
        fill: #fec654;
      }

      .SUN-cls-3 {
        fill: #563617;
      }

      .SUN-cls-3, .SUN-cls-5, .SUN-cls-4 {
        display: none;
      }

      .SUN-cls-4 {
        fill: #597b73;
      }
    </style>
  </defs>
  <g id="FILLED_SUN" data-name="FILLED SUN">
    <path class="SUN-cls-2" d="M379.5,148.2c-2.3-26.3-11.8-49.7-27.3-70.8-15.3-20.7-34.6-36.9-56.8-49.6-21-12-43.4-20-67.1-24.3-9.7-1.8-19.6-2.8-29.5-3.1-1.2,0-2.5-.4-3.7-.4h-15.6l-.2.2c-1.3,0-2.7.4-4,.4-17.5,1-34.7,4.1-51.5,9.3-23.1,7.1-44.5,17.7-63.7,32.5-19.5,15-35.3,33.2-46.2,55.5-6.5,13.3-10.8,27.4-12.8,42.2-4.3,32.3,3,62,20.2,89.4,14.3,23.3,33.7,41.5,56.8,56,20.9,13.1,43.7,21.5,67.8,26.7,11.5,2.5,23.2,3.9,35,4.4,11,.5,21.9.1,32.7-.9v-2.2,2.2c25.1-2.4,49.3-9,72.7-20,17.7-8.3,33.8-19.1,47.9-32.7,12.1-11.7,22.3-25,30-40,6.1-11.7,10.7-24,13.2-37,2.4-12.5,3.2-25.1,2.1-37.8h0Z"/>
  </g>
  <g id="Xmb5Ew.tif" class="SUN-cls-5">
    <g>
      <path class="SUN-cls-1" d="M171.5,311.8v-72.6c0-3.9-1.4-7.1-5-8.9-14.4-2.7-25.1,1.2-34.4-14.3-1.9-3.2-2.9-6.7-2.9-10.4v-70c-.6-13,20.8-15.7,21.6-2.1.1,2.9.2,5.8.2,8.6v57.2c0,4.1,2.2,7.2,6,7.8,5.6.8,14.2,1.1,14.4-6.6-.1-41.2.3-82.5-.1-123.7-3,2.9-6.4,7.4-11.2,6.2-12.1-3.5-24.7-13.6-23.6-27.4.2-7,3.6-31.6,14.5-25.6,4.1,2.3,6.6,7.1,10.8,9.1.6-12.7,1.1-30.5,12.3-38.9C-19.3,14.5-71.6,234.4,120.2,305.5c16.3,5.9,33.6,9.6,51.2,11v-4.7h.1Z"/>
      <path class="SUN-cls-1" d="M378.8,140.9C366.6,57.9,281.7,3.9,202.4.2c10.6,6,12.2,27.5,11.4,38.5,1.2,6,12.8-17.5,20.1-4.9,5,9.7,8.1,28.2.5,37.2-6.5,7.4-20.4,18.6-28.9,8.4v148.6c0,2.8.9,5.2,3.5,6.5,6.3,1.7,16.5,1.4,17.6-6.8.6-36.9,0-73.8.2-110.7-.7-16.5,24.8-18.6,24-1.2v111.8c0,10-4,17.9-12,23.9-5.6,4.2-12.5,5.1-19.2,5.9-6.5.2-14.6,2.4-14.2,10.4v44.1h0v4.9c94.2-6.7,185.7-71.9,173.3-175.8h0Z"/>
      <path class="SUN-cls-3" d="M201.9,0c.2,0,.3.2.5.2,3.6,1.8,5.6,5,7,8.5,1.2,3.1,2,6.3,2.9,9.5,1.5,5.5,1.8,11.1,1.7,16.7,0,1.3-.2,2.5-.2,3.8s.5,1.5,1.5.8c.7-.5,1.3-1.1,2-1.7,2.1-1.9,4.1-3.9,6.2-5.7,1.7-1.4,3.7-2.4,6.1-1.9,2,.5,3.2,1.9,4.2,3.5,1.9,3.1,2.8,6.6,3.6,10.1.8,3.6,1.3,7.3,1.2,11,0,2.3,0,4.7-.2,7-.3,3.5-2,6.4-4.1,9-5,6.1-11.3,10.3-18.9,12.4-3.2.9-5.9-.2-8.2-2.4-.6-.5-1.1-1.1-1.7-1.6-1.1-1.2-2.1-2.4-3.2-3.5-2-2.1-4.4-3.3-7.3-3.9-2.3-.5-4.6-1.3-6.9-1.9-.3,0-.7,0-.9,0-1.6,1.3-3.5,1.5-5.4,1.7-4.1.5-7.7,2-10.5,5.1-1.2,1.2-2.4,2.4-3.6,3.6-1.7,1.7-3.7,2.6-6.1,2.9-.5,0-1,0-1.5-.3-9.1-2.6-16.3-7.8-21.3-15.9-2.2-3.5-2.4-7.5-2.3-11.5.2-6.3,1.3-12.4,3.6-18.3.8-2.1,2-4.2,3.4-6.1,2-2.6,4.8-3.1,7.6-1.3,1.9,1.3,3.6,2.9,5.3,4.5,1.4,1.3,2.6,2.7,4,4,.4.3,1,.4,1.4.6,0-.4.3-.9.3-1.3,0-2.7-.2-5.4,0-8.1.5-5.1,1.4-10.2,2.9-15.1,1.1-3.6,2.5-7,4.6-10.1,1.2-1.7,2.6-3.2,4.4-4.2.3-.2.7-.3,1-.5h4.1c.3,0,.6.3.9.4.8.5,1.6,1,2.4,1.5,1.6,1,2.7,2.4,2.8,4.4,0,1,.6,1.4,1.2,1.9.5.4,1.2.8,1.6,1.1.5-.4,1-.7,1.5-1,1-.5,1.7-1.2,1.9-2.4.2-1.6,1-2.7,2.3-3.5,1.1-.7,2.2-1.3,3.2-2,.3,0,.5-.2.8-.3,1.7.3,3,.3,4.2.3Z"/>
      <path class="SUN-cls-4" d="M171.3,77c2.8-3.1,6.4-4.7,10.5-5.1,1.9-.2,3.9-.4,5.4-1.7.2-.2.6,0,.9,0,2.3.6,4.6,1.4,6.9,1.9,2.8.6,5.3,1.9,7.3,3.9,1.1,1.1,2.1,2.3,3.2,3.5v148.6c0,2.8.9,5.2,3.5,6.5.7.4,1.6.6,2.4.6h7.5c3.6-.1,7.4-3.8,7.8-7.4.1-1.4.2-2.8.2-4.1v-106.6c0-4.6,1.6-8.4,5.4-11.2,5.1-3.7,13.1-3,16.6,2.2,1.3,1.9,1.9,4.1,2,6.4v113.2c0,10-4,17.9-12,23.9-1.5,1.1-3.2,1.8-4.8,2.8-.3.1-.5.3-.8.4h-.4c-.7.3-1.5.6-2.2.8-.4,0-.8.2-1.2.3-.2,0-.3,0-.5.2h-.5c-.2,0-.5.1-.7.2h-.7c-.2,0-.3.1-.5.2h-.9c-.2,0-.5.1-.7.2h-.9c-.3,0-.6.1-1,.2h-.7c-.3,0-.6.1-1,.2h-.9c-.2,0-.5.1-.7.2h-.9c-.3,0-.6.1-1,.2h-.9c-.2,0-.5.1-.7.2h-.9c-.3,0-.6.1-1,.2h-.7c-.2,0-.5.1-.7.2h-.5c-.4.1-.8.3-1.2.4-3.8,1.7-5.7,4.8-5.7,8.9v44.1h-34v-72.5c0-3.9-1.4-7.1-5-8.9-1.1-.6-2.4-.9-3.6-1-2.6-.2-5.1,0-7.7,0-10-.3-17.9-4.5-23-13.3-1.9-3.2-2.9-6.7-2.9-10.4v-70c0-7.9,8.1-13.4,15.5-10.5,3.7,1.4,5.9,4.3,6.1,8.4.1,2.9.2,5.8.2,8.6v57.2c0,4.1,2.2,7.2,6,7.8,2.9.4,6,.4,8.9,0,3.3-.4,5.4-3.2,5.5-6.6v-122.1c0-.5,0-1.1-.1-1.6l-.2.4Z"/>
    </g>
  </g>
</svg>