<?xml version="1.0" encoding="UTF-8"?>
<svg id="Layer_1" data-name="Layer 1" xmlns="http://www.w3.org/2000/svg" version="1.1" viewBox="0 0 160 345">
  <defs>
    <style>
      .cls-1 {
        fill: #a35030;
      }

      .cls-1, .cls-2 {
        stroke-width: 0px;
      }

      .cls-2 {
        fill: #597b73;
      }
    </style>
  </defs>
  <path id="SAGUARO" class="cls-2" d="M31.7,121v81c0,5.2,4.2,9.4,9.4,9.4h7.6c4.7,0,8.5-3.8,8.5-8.5V46.9c0-10.9,8.9-19.8,19.8-19.8s22.6,10.1,22.6,22.6v188.3c0,4.4,3.5,7.9,7.9,7.9h7.4c6.2,0,11.3-5.1,11.3-11.3V97.8c0-8.7,7.1-15.8,15.8-15.8s14.1,6.3,14.1,14.1v141.1c0,15-9.5,28.5-23.7,33.5-2.3.8-4.7,1.4-7.1,1.7l-16,2.1c-5.6.8-9.8,5.5-9.8,11.2v50c0,3.1-2.5,5.7-5.7,5.7h-31.1c-3.1,0-5.7-2.5-5.7-5.7v-85.9c0-6.2-5.1-11.3-11.3-11.3h-9.1c-9,0-21.5,1.9-27.8-4.6-5.3-5.5-4.3-18.4-4.3-26.1v-85.9c0-7.8,6.3-14.1,14.1-14.1s13,5.8,13,13h0Z"/>
  <path id="HAT" class="cls-1" d="M9.8,62c-2.7-.7-4.7-3-5-5.7l-1.8-15.6c-.2-1.8,1.2-3.4,3.1-3.4,1.4,0,2.6.9,3,2.3l3.1,11.6,34.9,7,1.4-24.1c-.1-3,1-5.8,3.2-7.8l2.7-2.4c1-.9,1.8-2.1,2.4-3.3l6.9-15.8c.8-1.9,3.5-2.2,4.7-.5.5.7,1.9.9,3.5,1,.5,0,.9,0,1.3,0,3.3.2,6.7.2,10.1,0,.5,0,1,0,1.5-.1,1.6-.1,3.1-.4,3.5-1,1.2-1.7,3.8-1.4,4.7.5l6.9,15.8c.6,1.3,1.4,2.4,2.4,3.3l2.7,2.4c2.2,2,3.4,4.9,3.2,7.8l1.4,24.1,34.9-7,3.1-11.6c.4-1.4,1.6-2.3,3-2.3,1.8,0,3.3,1.6,3.1,3.4l-1.8,15.6c-.3,2.8-2.3,5.1-5,5.7,0,0-38.5,9.5-38.8,9.5h-59.4c-.3,0-38.8-9.5-38.8-9.5Z"/>
</svg>