<?xml version="1.0" encoding="UTF-8"?>
<svg id="Layer_1" data-name="Layer 1" xmlns="http://www.w3.org/2000/svg" version="1.1" viewBox="0 0 1200 1200">
  <defs>
    <style>
      .logo-cls-1 {
        display: none;
        fill: none;
      }

      .logo-cls-1, .logo-cls-2, .logo-cls-3, .logo-cls-4 {
        stroke: #000;
        stroke-width: 6px;
      }

      .logo-cls-2 {
        fill: #597b73;
      }

      .logo-cls-3 {
        fill: #fec654;
      }

      .logo-cls-4 {
        fill: #a35030;
      }
    </style>
  </defs>
  <path class="logo-cls-3" d="M1188,578.5c0,317.8-265.2,575.5-592.5,575.5S3,896.3,3,578.5,268.2,3,595.5,3s592.5,257.7,592.5,575.5Z"/>
  <path class="logo-cls-2" d="M448.4,417.9v255.5c0,16.4,13.3,29.7,29.7,29.7h23.8c14.8,0,26.7-12,26.7-26.7V184.4c0-34.5,27.9-62.4,62.4-62.4s71.3,31.9,71.3,71.3v593.5c0,13.8,11.2,25,25,25h23.2c19.7,0,35.7-16,35.7-35.6v-431.3c0-27.6,22.3-49.9,49.9-49.9s44.6,20,44.6,44.6v444.9c0,47.4-29.9,89.7-74.6,105.6-7.3,2.6-14.8,4.4-22.5,5.4l-50.3,6.8c-17.7,2.4-30.9,17.5-30.9,35.3v157.8c0,9.8-8,17.8-17.8,17.8h-98c-9.8,0-17.8-8-17.8-17.8v-270.9c0-19.7-16-35.6-35.7-35.6h-28.8c-28.3,0-67.9,6-87.6-14.4-16.8-17.3-13.7-58-13.7-82.1v-270.7c0-24.6,20-44.6,44.6-44.6s41,18.4,41,41h0Z"/>
  <path class="logo-cls-1" d="M409.4,376.9c-24.6,0-44.6,20-44.6,44.6v322.2c0,24.9,20.1,45,45,45h12M409.4,376.9c-24.6,0-44.6,20-44.6,44.6v270.7c0,24.2-3.1,64.8,13.7,82.1,19.7,20.3,59.3,14.4,87.6,14.4h28.8c19.7,0,35.7,16,35.7,35.6v270.9c0,9.8,8,17.8,17.8,17.8h98c9.8,0,17.8-8,17.8-17.8v-157.8c0-17.8,13.2-32.9,30.9-35.3l50.3-6.8c7.7-1,15.2-2.8,22.5-5.4,44.7-15.8,74.6-58.1,74.6-105.6v-444.9c0-24.6-20-44.6-44.6-44.6M409.4,376.9c22.6,0,41,18.4,41,41v255.5c0,16.4,13.3,29.7,29.7,29.7h23.8c14.8,0,26.7-12,26.7-26.7V184.4c0-34.5,27.9-62.4,62.4-62.4s71.3,31.9,71.3,71.3v593.5c0,13.8,11.2,25,25,25h23.2c19.7,0,35.7-16,35.7-35.6v-431.3c0-27.6,22.3-49.9,49.9-49.9M798,294.9c24.6,0,44.6,20,44.6,44.6v453.3c0,42.4-26.7,80.1-66.6,94.3l-18.9,6.7"/>
  <path class="logo-cls-4" d="M379.5,231.9c-8.5-2.1-14.9-9.3-15.9-18.1l-5.5-49.1c-.7-5.8,3.9-10.9,9.7-10.9,4.4,0,8.3,3,9.4,7.3l9.6,36.6,110,22.1,4.4-75.9c-.4-9.3,3.3-18.4,10.2-24.7l8.4-7.7c3.2-3,5.8-6.6,7.5-10.6l21.9-49.8c2.7-6.1,10.9-6.9,14.7-1.5,1.5,2.1,6,2.9,11.1,3.3,1.5.1,2.9.2,4.2.3,10.5.6,21.2.6,31.7,0,1.5,0,3.1-.2,4.8-.3,5.2-.4,9.7-1.2,11.1-3.3,3.8-5.4,12.1-4.5,14.7,1.5l21.9,49.8c1.8,4,4.3,7.6,7.5,10.6l8.4,7.7c6.9,6.3,10.6,15.4,10.2,24.7l4.4,75.9,110-22.1,9.6-36.6c1.1-4.3,5-7.3,9.4-7.3,5.8,0,10.3,5.1,9.7,10.9l-5.5,49.1c-1,8.8-7.3,16-15.9,18.1,0,0-121.5,30.1-122.4,30.1h-187.3c-.9,0-122.4-30.1-122.4-30.1Z"/>
  <path class="logo-cls-1" d="M389.8,197.8l-9.6-36.6c-1.1-4.3-5-7.3-9.4-7.3-5.8,0-10.3,5.1-9.7,10.9l5.5,49.1c1,8.8,7.3,16,15.9,18.1l119.9,29.7c.8.2,1.7.3,2.5.3h187.3c.9,0,1.7-.1,2.5-.3l119.9-29.7c8.5-2.1,14.9-9.3,15.9-18.1l5.5-49.1c.7-5.8-3.9-10.9-9.7-10.9-4.4,0-8.3,3-9.4,7.3l-9.6,36.6M389.8,197.8h-2.4c0,0-.5,0-.5,0h2.9ZM389.8,197.8l110,22.1,4.4-75.9c-.4-9.3,3.3-18.4,10.2-24.7l8.4-7.7c3.2-3,5.8-6.6,7.5-10.6l21.9-49.8c2.7-6.1,10.9-6.9,14.7-1.5,1.5,2.1,6,2.9,11.1,3.3,1.5.1,2.9.2,4.2.3,10.5.6,21.2.6,31.7,0,1.5,0,3.1-.2,4.8-.3,5.2-.4,9.7-1.2,11.1-3.3,3.8-5.4,12.1-4.5,14.7,1.5l21.9,49.8c1.8,4,4.3,7.6,7.5,10.6l8.4,7.7c6.9,6.3,10.6,15.4,10.2,24.7l4.4,75.9,110-22.1M807.2,197.8h-2.5c0,0,.5,0,.5,0h1.9Z"/>
</svg>