<?xml version="1.0" encoding="UTF-8"?>
<svg xmlns="http://www.w3.org/2000/svg" viewBox="0 0 708.66 443.51">
  <defs>
    <style>
      .cls-1 {
        fill: #9e9e9e;
      }

      .cls-1, .cls-2, .cls-3, .cls-4, .cls-5, .cls-6, .cls-7, .cls-8, .cls-9, .cls-10, .cls-11, .cls-12 {
        stroke: #263238;
      }

      .cls-1, .cls-2, .cls-3, .cls-5, .cls-6, .cls-13, .cls-7, .cls-11 {
        stroke-linecap: round;
        stroke-linejoin: round;
      }

      .cls-2, .cls-14 {
        fill: #92e3a9;
      }

      .cls-3, .cls-4, .cls-5, .cls-13, .cls-7, .cls-8, .cls-9, .cls-10, .cls-12 {
        fill: none;
      }

      .cls-4 {
        stroke-dasharray: 0 0 4.93 4.93;
      }

      .cls-4, .cls-8, .cls-9, .cls-10, .cls-12 {
        stroke-miterlimit: 10;
      }

      .cls-15 {
        opacity: .7;
      }

      .cls-15, .cls-6 {
        fill: #fff;
      }

      .cls-15, .cls-16, .cls-14 {
        stroke-width: 0px;
      }

      .cls-5 {
        stroke-width: 7px;
      }

      .cls-13 {
        stroke: #c4c4c4;
      }

      .cls-13, .cls-7 {
        stroke-width: 3px;
      }

      .cls-8 {
        stroke-dasharray: 0 0 5.08 5.08;
      }

      .cls-9 {
        stroke-dasharray: 0 0 5.08 5.08;
      }

      .cls-16, .cls-11 {
        fill: #263238;
      }

      .cls-12 {
        stroke-dasharray: 0 0 5.01 5.01;
      }
    </style>
  </defs>
  <g id="Background_Simple" data-name="Background Simple">
    <g>
      <path class="cls-14" d="M264.46,91.03C361.94,43.03,462.19-19.72,575.43,5.96c35.11,7.96,67.06,27.87,88.66,56.81,57.75,77.39,53.06,195.92,21.68,283.03-4.09,11.37-9.21,22.39-15.79,32.55-31.85,49.15-85.51,51.47-137.28,37.26-43.8-12.03-82.61-24.4-127.86-12.17-25.06,6.77-49.35,16.08-74.32,23.17-34,9.65-69.05,16.2-104.45,16.86-93.67,1.76-200.67-46.03-208.96-150.63-.54-6.78-.63-13.59-.33-20.39,1.87-41.76,15.67-83.58,53.93-105.26,38.46-21.8,84.09-30.42,125.23-45.88,23.39-8.79,46.09-19.24,68.53-30.29Z"/>
      <path class="cls-15" d="M264.46,91.03C361.94,43.03,462.19-19.72,575.43,5.96c35.11,7.96,67.06,27.87,88.66,56.81,57.75,77.39,53.06,195.92,21.68,283.03-4.09,11.37-9.21,22.39-15.79,32.55-31.85,49.15-85.51,51.47-137.28,37.26-43.8-12.03-82.61-24.4-127.86-12.17-25.06,6.77-49.35,16.08-74.32,23.17-34,9.65-69.05,16.2-104.45,16.86-93.67,1.76-200.67-46.03-208.96-150.63-.54-6.78-.63-13.59-.33-20.39,1.87-41.76,15.67-83.58,53.93-105.26,38.46-21.8,84.09-30.42,125.23-45.88,23.39-8.79,46.09-19.24,68.53-30.29Z"/>
    </g>
  </g>
  <g id="Floor">
    <line class="cls-3" x1="7.79" y1="421.38" x2="702.01" y2="421.38"/>
  </g>
  <g id="Segment_Lines" data-name="Segment Lines">
    <g>
      <polyline class="cls-10" points="543.77 294.19 543.77 296.69 541.27 296.69"/>
      <line class="cls-9" x1="536.19" y1="296.69" x2="264.41" y2="296.69"/>
      <polyline class="cls-10" points="261.87 296.69 259.37 296.69 259.37 294.19"/>
      <line class="cls-12" x1="259.37" y1="289.18" x2="259.37" y2="41.36"/>
      <polyline class="cls-10" points="259.37 38.86 259.37 36.36 261.87 36.36"/>
      <line class="cls-9" x1="266.95" y1="36.36" x2="538.73" y2="36.36"/>
      <polyline class="cls-10" points="541.27 36.36 543.77 36.36 543.77 38.86"/>
      <line class="cls-12" x1="543.77" y1="43.86" x2="543.77" y2="291.68"/>
    </g>
    <g>
      <polyline class="cls-10" points="223.84 374.4 223.84 376.9 221.34 376.9"/>
      <line class="cls-8" x1="216.26" y1="376.9" x2="5.54" y2="376.9"/>
      <polyline class="cls-10" points="3 376.9 .5 376.9 .5 374.4"/>
      <line class="cls-4" x1=".5" y1="369.47" x2=".5" y2="174.67"/>
      <polyline class="cls-10" points=".5 172.2 .5 169.7 3 169.7"/>
      <line class="cls-8" x1="8.08" y1="169.7" x2="218.8" y2="169.7"/>
      <polyline class="cls-10" points="221.34 169.7 223.84 169.7 223.84 172.2"/>
      <line class="cls-4" x1="223.84" y1="177.13" x2="223.84" y2="371.93"/>
    </g>
    <g>
      <polyline class="cls-10" points="697.1 374.4 697.1 376.9 694.6 376.9"/>
      <line class="cls-8" x1="689.53" y1="376.9" x2="478.8" y2="376.9"/>
      <polyline class="cls-10" points="476.26 376.9 473.76 376.9 473.76 374.4"/>
      <line class="cls-4" x1="473.76" y1="369.47" x2="473.76" y2="174.67"/>
      <polyline class="cls-10" points="473.76 172.2 473.76 169.7 476.26 169.7"/>
      <line class="cls-8" x1="481.34" y1="169.7" x2="692.06" y2="169.7"/>
      <polyline class="cls-10" points="694.6 169.7 697.1 169.7 697.1 172.2"/>
      <line class="cls-4" x1="697.1" y1="177.13" x2="697.1" y2="371.93"/>
    </g>
  </g>
  <g id="Plant">
    <g>
      <g>
        <path class="cls-2" d="M362.91,280.79s-2.34,6.43-7.3,7.3c-4.97.88-13.73-8.77-8.18-13.73,5.55-4.97,13.15,2.92,15.49,6.43Z"/>
        <path class="cls-2" d="M370.5,249.23s-7.3,17.82-4.38,26.59,21.04,15.19,26.3,3.8c5.26-11.4-6.43-27.47-10.81-30.97-4.38-3.51-9.64-2.34-11.1.58Z"/>
        <path class="cls-2" d="M413.16,256.83s-12.56,11.39-14.02,22.79c-1.46,11.4,7.01,15.49,15.78,14.02,8.77-1.46,13.15-23.67,10.52-33.89s-12.27-2.92-12.27-2.92Z"/>
        <g>
          <path class="cls-2" d="M415.5,319.94s-14.02.58-14.61,7.3c-.58,6.72,6.14,8.18,12.86,2.34,6.72-5.84,7.6-9.35,1.75-9.64Z"/>
          <path class="cls-10" d="M401.12,328.84s11.05-5.06,16.03-5.94"/>
        </g>
        <g>
          <path class="cls-2" d="M418.63,363.91s-10.3-9.53-15.48-5.21c-5.18,4.32-1.48,10.12,7.41,10.77,8.88.65,11.99-1.2,8.07-5.55Z"/>
          <path class="cls-10" d="M402.18,359.99s11.38,4.27,15.51,7.19"/>
        </g>
        <g>
          <path class="cls-2" d="M364.29,361.1s14.2-13.14,21.34-7.18c7.14,5.96,2.04,13.95-10.21,14.84-12.24.89-16.52-1.66-11.13-7.66Z"/>
          <path class="cls-10" d="M386.97,355.7s-15.69,5.89-21.38,9.9"/>
        </g>
        <path class="cls-2" d="M380.73,333.96s-1.46,7.01-6.72,9.64c-5.26,2.63-14.61-2.92-9.64-11.4,4.97-8.47,13.73-1.75,16.36,1.75Z"/>
        <path class="cls-2" d="M368.46,312.05s-2.63-5.84-12.86-2.05c-10.23,3.8-14.32,9.64-7.89,11.69,6.43,2.05,20.74-9.64,20.74-9.64Z"/>
        <path class="cls-10" d="M366.5,311.78s-10.83,1.17-16.69,6.15"/>
        <path class="cls-2" d="M397.68,241.92s1.75,4.09,5.26,3.21c3.51-.88,4.38-6.14,9.93-4.67s10.23,7.89,10.23,4.97-7.01-10.52-14.9-10.52-10.23,3.21-10.52,7.01Z"/>
        <path class="cls-10" d="M368.46,312.05s12.58-2.42,17.82,11.56c.51,1.37.95,2.8,1.31,4.28"/>
        <path class="cls-2" d="M420.97,298.51s2.63-5.84,12.86-2.05c10.23,3.8,14.32,9.64,7.89,11.69-6.43,2.05-20.74-9.64-20.74-9.64Z"/>
        <path class="cls-10" d="M423.3,298.9s10.54-.59,15.52,5.56"/>
        <path class="cls-10" d="M420.97,298.51s-4.17-.8-8.71,1.19"/>
        <path class="cls-10" d="M375.17,288.03c-6.17-6.3-12.26-7.25-12.26-7.25,0,0-9-2.38-12.51.84"/>
        <g>
          <line class="cls-10" x1="376.42" y1="255.67" x2="375.87" y2="253.22"/>
          <path class="cls-10" d="M390.65,384.84s1.31-50.32,0-65.6c-1.31-15.28-7.42-33.18-7.42-33.18l-6.23-27.8"/>
          <line class="cls-10" x1="416.61" y1="266.47" x2="417.74" y2="264.06"/>
          <path class="cls-10" d="M393.7,384.78s.44-45.9,2.18-58.99c1.75-13.1,8.73-33.62,8.73-33.62l10.72-22.96"/>
          <path class="cls-10" d="M401.12,328.84s-3.06,26.31-4.8,56"/>
          <path class="cls-10" d="M386.28,384.78s.87-41.97-.87-47.64c-1.75-5.68-4.68-3.18-4.68-3.18,0,0-8.08.95-11.01,5.64"/>
          <path class="cls-10" d="M388.29,331.15c2.28,12.8.18,53.68.18,53.68"/>
          <path class="cls-10" d="M409.78,301.07c-2.53,1.73-4.96,4.52-6.64,9-5.24,13.97-4.64,74.77-4.64,74.77"/>
          <path class="cls-10" d="M376.69,289.7c2.73,3.2,5.38,7.54,7.41,13.39,6.99,20.08,9.6,72.09,8.3,81.7"/>
          <path class="cls-10" d="M394.43,308.49c-.43,25.35-.73,76.29-.73,76.29"/>
        </g>
        <path class="cls-10" d="M394.48,305.34c.29-16.76.63-33.16.97-41.99.87-22.7,2.23-21.43,2.23-21.43,0,0,1.62-5.1,10.69-4.51"/>
        <g>
          <path class="cls-2" d="M383.3,324.48s-7.3-6.51-4.38-9.72c2.92-3.2,21.04-5.55,26.3-1.39,5.26,4.16-6.43,10.04-10.81,11.32-4.38,1.28-9.64.85-11.1-.21Z"/>
          <path class="cls-10" d="M390.05,319.15c-.1.66-.16,1.32-.16,1.94"/>
          <path class="cls-10" d="M392.56,311.54s-1.09,2.17-1.87,4.84"/>
        </g>
        <g>
          <path class="cls-2" d="M383.3,367.07s-7.3-6.51-4.38-9.72c2.92-3.2,21.04-5.55,26.3-1.39,5.26,4.16-6.43,10.04-10.81,11.32-4.38,1.28-9.64.85-11.1-.21Z"/>
          <path class="cls-10" d="M392.56,354.13s-2.67,5.35-2.67,9.55"/>
        </g>
        <g>
          <path class="cls-2" d="M388.74,349.06s-4.96-4.42-2.98-6.6c1.98-2.18,14.28-3.77,17.85-.94,3.57,2.83-4.36,6.82-7.34,7.69-2.98.87-6.55.58-7.54-.15Z"/>
          <path class="cls-10" d="M395.02,340.27s-1.82,3.63-1.82,6.48"/>
        </g>
      </g>
      <rect class="cls-11" x="381.88" y="377.54" width="19.77" height="43.85"/>
    </g>
  </g>
  <g id="Gears">
    <path class="cls-10" d="M111.61,79.49v7.14l6.84.98c.64,3.5,2,6.74,3.93,9.57l-4.16,5.55,5.05,5.05,5.53-4.15c2.82,1.95,6.05,3.33,9.55,3.99l.98,6.87h7.14l.98-6.84c3.5-.64,6.74-2,9.57-3.93l5.55,4.16,5.05-5.05-4.15-5.53c1.95-2.82,3.33-6.05,3.99-9.55l6.87-.98v-7.14l-6.84-.98c-.64-3.5-2-6.74-3.93-9.57l4.16-5.55-5.05-5.05-5.53,4.15c-2.82-1.95-6.05-3.33-9.55-3.99l-.98-6.87h-7.14l-.98,6.84c-3.5.64-6.74,2-9.57,3.93l-5.55-4.16-5.05,5.05,4.15,5.53c-1.95,2.82-3.33,6.05-3.99,9.55l-6.87.98ZM142.97,65.81c9.56,0,17.32,7.75,17.32,17.32s-7.75,17.32-17.32,17.32-17.32-7.75-17.32-17.32,7.75-17.32,17.32-17.32Z"/>
    <path class="cls-10" d="M170.34,72.62v6.11l5.85.84c.54,2.99,1.71,5.77,3.36,8.19l-3.56,4.74,4.32,4.32,4.73-3.55c2.41,1.67,5.18,2.85,8.16,3.41l.84,5.87h6.11l.84-5.85c2.99-.54,5.77-1.71,8.19-3.36l4.74,3.56,4.32-4.32-3.55-4.73c1.67-2.41,2.85-5.18,3.41-8.16l5.87-.84v-6.11l-5.85-.84c-.54-2.99-1.71-5.77-3.36-8.18l3.56-4.75-4.32-4.32-4.73,3.55c-2.41-1.67-5.18-2.85-8.16-3.41l-.84-5.87h-6.11l-.84,5.85c-2.99.54-5.77,1.71-8.19,3.36l-4.74-3.56-4.32,4.32,3.55,4.73c-1.67,2.41-2.85,5.18-3.41,8.16l-5.87.84ZM197.16,60.92c8.18,0,14.81,6.63,14.81,14.81s-6.63,14.81-14.81,14.81-14.81-6.63-14.81-14.81,6.63-14.81,14.81-14.81Z"/>
    <path class="cls-10" d="M476.17,332.49v7.14l6.84.98c.64,3.5,2,6.74,3.93,9.57l-4.16,5.55,5.05,5.05,5.53-4.15c2.82,1.95,6.05,3.33,9.55,3.99l.98,6.87h7.14l.98-6.84c3.5-.64,6.74-2,9.57-3.93l5.55,4.16,5.05-5.05-4.15-5.53c1.95-2.82,3.33-6.05,3.99-9.55l6.87-.98v-7.14l-6.84-.98c-.64-3.5-2-6.74-3.93-9.57l4.16-5.55-5.05-5.05-5.53,4.15c-2.82-1.95-6.05-3.33-9.55-3.99l-.98-6.87h-7.14l-.98,6.84c-3.5.64-6.74,2-9.57,3.93l-5.55-4.16-5.05,5.05,4.15,5.53c-1.95,2.82-3.33,6.05-3.99,9.55l-6.87.98ZM507.53,318.82c9.56,0,17.32,7.75,17.32,17.32s-7.75,17.32-17.32,17.32-17.32-7.75-17.32-17.32,7.75-17.32,17.32-17.32Z"/>
    <path class="cls-10" d="M534.9,325.62v6.11l5.85.84c.54,2.99,1.71,5.77,3.36,8.19l-3.56,4.74,4.32,4.32,4.73-3.54c2.41,1.67,5.18,2.85,8.16,3.41l.84,5.87h6.11l.84-5.85c2.99-.54,5.77-1.71,8.18-3.36l4.74,3.56,4.32-4.32-3.54-4.73c1.67-2.41,2.85-5.18,3.41-8.16l5.87-.84v-6.11l-5.85-.84c-.54-2.99-1.71-5.77-3.36-8.18l3.56-4.74-4.32-4.32-4.73,3.55c-2.41-1.67-5.18-2.85-8.16-3.41l-.84-5.87h-6.11l-.84,5.85c-2.99.54-5.77,1.71-8.19,3.36l-4.74-3.56-4.32,4.32,3.54,4.73c-1.67,2.41-2.85,5.18-3.41,8.16l-5.87.84ZM561.72,313.93c8.18,0,14.81,6.63,14.81,14.81s-6.63,14.81-14.81,14.81-14.81-6.63-14.81-14.81,6.63-14.81,14.81-14.81Z"/>
    <path class="cls-10" d="M606.36,56.54v6.11l5.85.84c.54,2.99,1.71,5.77,3.36,8.19l-3.56,4.74,4.32,4.32,4.73-3.54c2.41,1.67,5.18,2.85,8.16,3.41l.84,5.87h6.11l.84-5.85c2.99-.54,5.77-1.71,8.18-3.36l4.75,3.56,4.32-4.32-3.54-4.73c1.67-2.41,2.85-5.18,3.41-8.16l5.87-.84v-6.11l-5.85-.84c-.54-2.99-1.71-5.77-3.36-8.18l3.56-4.74-4.32-4.32-4.73,3.55c-2.41-1.67-5.18-2.85-8.16-3.41l-.84-5.87h-6.11l-.84,5.85c-2.99.54-5.77,1.71-8.19,3.36l-4.74-3.56-4.32,4.32,3.54,4.73c-1.67,2.41-2.85,5.18-3.41,8.16l-5.87.84ZM633.18,44.85c8.18,0,14.81,6.63,14.81,14.81s-6.63,14.81-14.81,14.81-14.81-6.63-14.81-14.81,6.63-14.81,14.81-14.81Z"/>
  </g>
  <g id="Screen">
    <g>
      <path class="cls-11" d="M407.26,57.15h207.22c4.7,0,8.52,3.82,8.52,8.52v214.99h-224.26V65.67c0-4.7,3.82-8.52,8.52-8.52Z"/>
      <path class="cls-6" d="M412.37,52.05h207.22c4.7,0,8.52,3.82,8.52,8.52v214.99h-224.26V60.57c0-4.7,3.82-8.52,8.52-8.52Z"/>
      <path class="cls-2" d="M412.37,52.05h207.22c4.7,0,8.52,3.82,8.52,8.52v12.84h-224.26v-12.84c0-4.7,3.82-8.52,8.52-8.52Z"/>
      <g>
        <circle class="cls-6" cx="588.56" cy="63.41" r="3.48"/>
        <path class="cls-6" d="M602.49,63.41c0-1.92-1.56-3.48-3.48-3.48s-3.48,1.56-3.48,3.48,1.56,3.48,3.48,3.48,3.48-1.56,3.48-3.48Z"/>
        <circle class="cls-11" cx="609.45" cy="63.41" r="3.48"/>
      </g>
    </g>
    <g>
      <g>
        <line class="cls-7" x1="426.86" y1="86.18" x2="443.35" y2="86.18"/>
        <line class="cls-13" x1="426.86" y1="95.87" x2="488.81" y2="95.87"/>
        <line class="cls-13" x1="522.68" y1="95.87" x2="584.63" y2="95.87"/>
        <line class="cls-7" x1="492.82" y1="95.87" x2="517.33" y2="95.87"/>
        <line class="cls-7" x1="426.86" y1="105.55" x2="462.51" y2="105.55"/>
        <line class="cls-7" x1="466.97" y1="105.55" x2="502.62" y2="105.55"/>
        <line class="cls-7" x1="507.08" y1="105.55" x2="542.74" y2="105.55"/>
        <line class="cls-7" x1="547.19" y1="105.55" x2="562.35" y2="105.55"/>
        <line class="cls-7" x1="447.81" y1="86.18" x2="464.3" y2="86.18"/>
        <g>
          <line class="cls-7" x1="545.86" y1="86.18" x2="562.35" y2="86.18"/>
          <line class="cls-13" x1="524.02" y1="86.18" x2="540.51" y2="86.18"/>
          <line class="cls-7" x1="468.75" y1="86.18" x2="516.89" y2="86.18"/>
        </g>
      </g>
      <g>
        <line class="cls-7" x1="426.86" y1="145.32" x2="443.35" y2="145.32"/>
        <line class="cls-13" x1="426.86" y1="155.01" x2="488.81" y2="155.01"/>
        <line class="cls-7" x1="522.68" y1="155.01" x2="584.63" y2="155.01"/>
        <line class="cls-7" x1="492.82" y1="155.01" x2="517.33" y2="155.01"/>
        <line class="cls-7" x1="426.86" y1="164.69" x2="462.51" y2="164.69"/>
        <line class="cls-7" x1="466.97" y1="164.69" x2="502.62" y2="164.69"/>
        <line class="cls-13" x1="507.08" y1="164.69" x2="542.74" y2="164.69"/>
        <line class="cls-7" x1="547.19" y1="164.69" x2="562.35" y2="164.69"/>
        <line class="cls-7" x1="447.81" y1="145.32" x2="464.3" y2="145.32"/>
        <g>
          <line class="cls-7" x1="545.86" y1="145.32" x2="562.35" y2="145.32"/>
          <line class="cls-13" x1="524.02" y1="145.32" x2="540.51" y2="145.32"/>
          <line class="cls-7" x1="468.75" y1="145.32" x2="516.89" y2="145.32"/>
        </g>
      </g>
      <g>
        <line class="cls-7" x1="426.86" y1="232.5" x2="443.35" y2="232.5"/>
        <line class="cls-13" x1="426.86" y1="242.19" x2="488.81" y2="242.19"/>
        <line class="cls-7" x1="522.68" y1="242.19" x2="584.63" y2="242.19"/>
        <line class="cls-7" x1="492.82" y1="242.19" x2="517.33" y2="242.19"/>
        <line class="cls-7" x1="426.86" y1="251.87" x2="462.51" y2="251.87"/>
        <line class="cls-7" x1="466.97" y1="251.87" x2="502.62" y2="251.87"/>
        <line class="cls-13" x1="507.08" y1="251.87" x2="542.74" y2="251.87"/>
        <line class="cls-7" x1="547.19" y1="251.87" x2="562.35" y2="251.87"/>
        <line class="cls-7" x1="447.81" y1="232.5" x2="464.3" y2="232.5"/>
        <g>
          <line class="cls-7" x1="545.86" y1="232.5" x2="562.35" y2="232.5"/>
          <line class="cls-13" x1="524.02" y1="232.5" x2="540.51" y2="232.5"/>
          <line class="cls-7" x1="468.75" y1="232.5" x2="516.89" y2="232.5"/>
        </g>
      </g>
      <g>
        <g>
          <line class="cls-7" x1="519.56" y1="115.75" x2="536.05" y2="115.75"/>
          <line class="cls-7" x1="497.72" y1="115.75" x2="514.21" y2="115.75"/>
          <line class="cls-7" x1="442.46" y1="115.75" x2="490.59" y2="115.75"/>
        </g>
        <g>
          <line class="cls-7" x1="519.56" y1="133.08" x2="536.05" y2="133.08"/>
          <line class="cls-7" x1="497.72" y1="133.08" x2="514.21" y2="133.08"/>
          <line class="cls-13" x1="442.46" y1="133.08" x2="490.59" y2="133.08"/>
        </g>
        <g>
          <line class="cls-7" x1="458.95" y1="124.42" x2="442.46" y2="124.42"/>
          <line class="cls-7" x1="480.79" y1="124.42" x2="464.3" y2="124.42"/>
          <line class="cls-13" x1="536.05" y1="124.42" x2="487.92" y2="124.42"/>
        </g>
      </g>
      <g>
        <g>
          <line class="cls-7" x1="519.56" y1="176.42" x2="536.05" y2="176.42"/>
          <line class="cls-7" x1="497.72" y1="176.42" x2="514.21" y2="176.42"/>
          <line class="cls-7" x1="442.46" y1="176.42" x2="490.59" y2="176.42"/>
        </g>
        <g>
          <line class="cls-7" x1="519.56" y1="193.75" x2="536.05" y2="193.75"/>
          <line class="cls-7" x1="497.72" y1="193.75" x2="514.21" y2="193.75"/>
          <line class="cls-13" x1="442.46" y1="193.75" x2="490.59" y2="193.75"/>
        </g>
        <g>
          <line class="cls-7" x1="458.95" y1="185.09" x2="442.46" y2="185.09"/>
          <line class="cls-7" x1="480.79" y1="185.09" x2="464.3" y2="185.09"/>
          <line class="cls-13" x1="536.05" y1="185.09" x2="487.92" y2="185.09"/>
        </g>
      </g>
      <g>
        <g>
          <line class="cls-7" x1="458.95" y1="203.95" x2="442.46" y2="203.95"/>
          <line class="cls-7" x1="480.79" y1="203.95" x2="464.3" y2="203.95"/>
          <line class="cls-13" x1="536.05" y1="203.95" x2="487.92" y2="203.95"/>
        </g>
        <g>
          <line class="cls-7" x1="458.95" y1="221.28" x2="442.46" y2="221.28"/>
          <line class="cls-7" x1="480.79" y1="221.28" x2="464.3" y2="221.28"/>
          <line class="cls-13" x1="536.05" y1="221.28" x2="487.92" y2="221.28"/>
        </g>
        <g>
          <line class="cls-7" x1="519.56" y1="212.62" x2="536.05" y2="212.62"/>
          <line class="cls-7" x1="497.72" y1="212.62" x2="514.21" y2="212.62"/>
          <line class="cls-13" x1="442.46" y1="212.62" x2="490.59" y2="212.62"/>
        </g>
      </g>
      <g>
        <rect class="cls-16" x="415.48" y="82.82" width="5.27" height="5.95"/>
        <rect class="cls-16" x="415.48" y="92.59" width="5.27" height="5.95"/>
        <rect class="cls-16" x="415.48" y="102.36" width="5.27" height="5.95"/>
        <rect class="cls-16" x="415.48" y="112.13" width="5.27" height="5.95"/>
        <rect class="cls-16" x="415.48" y="121.91" width="5.27" height="5.95"/>
        <rect class="cls-16" x="415.48" y="131.68" width="5.27" height="5.95"/>
        <rect class="cls-16" x="415.48" y="141.45" width="5.27" height="5.95"/>
        <rect class="cls-16" x="415.48" y="151.22" width="5.27" height="5.95"/>
        <rect class="cls-16" x="415.48" y="161" width="5.27" height="5.95"/>
        <rect class="cls-16" x="415.48" y="170.77" width="5.27" height="5.95"/>
        <rect class="cls-16" x="415.48" y="180.54" width="5.27" height="5.95"/>
        <rect class="cls-16" x="415.48" y="190.31" width="5.27" height="5.95"/>
        <rect class="cls-16" x="415.48" y="200.09" width="5.27" height="5.95"/>
        <rect class="cls-16" x="415.48" y="209.86" width="5.27" height="5.95"/>
        <rect class="cls-16" x="415.48" y="219.63" width="5.27" height="5.95"/>
        <rect class="cls-16" x="415.48" y="229.41" width="5.27" height="5.95"/>
        <rect class="cls-16" x="415.48" y="239.18" width="5.27" height="5.95"/>
        <rect class="cls-16" x="415.48" y="248.95" width="5.27" height="5.95"/>
      </g>
    </g>
  </g>
  <g id="Files">
    <g>
      <rect class="cls-6" x="145.88" y="146.55" width="142.46" height="114.54" transform="translate(13.3 420.93) rotate(-90)"/>
      <g>
        <line class="cls-3" x1="177.27" y1="251.85" x2="258.78" y2="251.85"/>
        <line class="cls-3" x1="177.27" y1="235.84" x2="258.78" y2="235.84"/>
        <line class="cls-3" x1="177.27" y1="219.83" x2="258.78" y2="219.83"/>
        <line class="cls-3" x1="177.27" y1="203.82" x2="258.78" y2="203.82"/>
        <line class="cls-3" x1="177.27" y1="187.8" x2="258.78" y2="187.8"/>
        <line class="cls-3" x1="177.27" y1="171.79" x2="258.78" y2="171.79"/>
        <line class="cls-3" x1="177.27" y1="155.78" x2="258.78" y2="155.78"/>
      </g>
    </g>
    <g>
      <rect class="cls-11" x="234.41" y="132.14" width="39.63" height="91.59"/>
      <g>
        <rect class="cls-6" x="225" y="90.55" width="142.46" height="114.54" transform="translate(148.41 444.05) rotate(-90)"/>
        <g>
          <line class="cls-3" x1="256.39" y1="195.86" x2="337.9" y2="195.86"/>
          <line class="cls-3" x1="256.39" y1="179.85" x2="337.9" y2="179.85"/>
          <line class="cls-3" x1="256.39" y1="163.83" x2="337.9" y2="163.83"/>
          <line class="cls-3" x1="256.39" y1="147.82" x2="337.9" y2="147.82"/>
          <line class="cls-3" x1="256.39" y1="131.81" x2="337.9" y2="131.81"/>
          <line class="cls-3" x1="256.39" y1="115.8" x2="337.9" y2="115.8"/>
          <line class="cls-3" x1="256.39" y1="99.79" x2="337.9" y2="99.79"/>
        </g>
      </g>
    </g>
  </g>
  <g id="Folder">
    <g>
      <polygon class="cls-11" points="312.6 315.11 159.47 315.11 174.77 421.37 325.93 421.37 312.6 315.11"/>
      <g>
        <rect class="cls-11" x="194.34" y="255.87" width="10.13" height="18.49"/>
        <rect class="cls-6" x="185.44" y="263.11" width="142.46" height="114.54" transform="translate(-63.71 577.05) rotate(-90)"/>
        <g>
          <line class="cls-3" x1="216.83" y1="368.41" x2="298.34" y2="368.41"/>
          <line class="cls-3" x1="216.83" y1="352.4" x2="298.34" y2="352.4"/>
          <line class="cls-3" x1="216.83" y1="336.39" x2="298.34" y2="336.39"/>
          <line class="cls-3" x1="216.83" y1="320.38" x2="298.34" y2="320.38"/>
          <line class="cls-3" x1="216.83" y1="304.37" x2="298.34" y2="304.37"/>
          <line class="cls-3" x1="216.83" y1="288.36" x2="298.34" y2="288.36"/>
          <line class="cls-3" x1="216.83" y1="272.35" x2="298.34" y2="272.35"/>
        </g>
      </g>
      <path class="cls-2" d="M325.95,320.4v-3.63c0-2.66-2.16-4.82-4.82-4.82h-61.44c-2.66,0-4.82,2.16-4.82,4.82h0c0,2.01-1.63,3.63-3.63,3.63h-66.98l-9.48,100.97h151.11l9.48-100.97h-9.4Z"/>
    </g>
  </g>
  <g id="Bugs">
    <g>
      <g>
        <path class="cls-16" d="M310.4,125.53h-10.05c-.91,0-1.65-.74-1.65-1.65s.74-1.65,1.65-1.65h10.05c.91,0,1.65.74,1.65,1.65s-.74,1.65-1.65,1.65Z"/>
        <path class="cls-16" d="M310.93,114.98c-.4,0-.8-.14-1.12-.43l-9.52-8.73c-.67-.62-.72-1.66-.1-2.33.62-.67,1.66-.72,2.33-.1l9.52,8.73c.67.62.72,1.66.1,2.33-.33.36-.77.54-1.22.54Z"/>
        <path class="cls-16" d="M301.41,142.75c-.45,0-.89-.18-1.22-.54-.62-.67-.57-1.72.1-2.33l9.52-8.73c.67-.62,1.72-.57,2.33.1.62.67.57,1.72-.1,2.33l-9.52,8.73c-.32.29-.72.43-1.12.43Z"/>
      </g>
      <g>
        <path class="cls-16" d="M328.65,125.53h10.05c.91,0,1.65-.74,1.65-1.65s-.74-1.65-1.65-1.65h-10.05c-.91,0-1.65.74-1.65,1.65s.74,1.65,1.65,1.65Z"/>
        <path class="cls-16" d="M328.12,114.98c.4,0,.8-.14,1.12-.43l9.52-8.73c.67-.62.72-1.66.1-2.33-.62-.67-1.66-.72-2.33-.1l-9.52,8.73c-.67.62-.72,1.66-.1,2.33.33.36.77.54,1.22.54Z"/>
        <path class="cls-16" d="M337.64,142.75c.45,0,.89-.18,1.22-.54.62-.67.57-1.72-.1-2.33l-9.52-8.73c-.67-.62-1.72-.57-2.33.1-.62.67-.57,1.72.1,2.33l9.52,8.73c.32.29.72.43,1.12.43Z"/>
      </g>
      <circle class="cls-11" cx="319.9" cy="106.99" r="6.26"/>
      <rect class="cls-2" x="308.17" y="108.54" width="23.46" height="30.68" rx="8.16" ry="8.16"/>
      <path class="cls-1" d="M319.9,117.3c4.37,0,8.33-1.77,11.21-4.63-1.02-2.43-3.42-4.13-6.21-4.13h-9.98c-2.8,0-5.19,1.7-6.21,4.13,2.87,2.86,6.83,4.63,11.21,4.63Z"/>
      <line class="cls-3" x1="319.9" y1="117.3" x2="319.9" y2="138.46"/>
    </g>
    <g>
      <g>
        <path class="cls-16" d="M181.69,186.03l-7.11-7.11c-.64-.64-.64-1.69,0-2.33s1.69-.64,2.33,0l7.11,7.11c.64.64.64,1.69,0,2.33s-1.69.64-2.33,0Z"/>
        <path class="cls-16" d="M189.52,178.95c-.28-.28-.46-.67-.48-1.1l-.56-12.9c-.04-.91.67-1.68,1.58-1.72.91-.04,1.68.67,1.72,1.58l.56,12.9c.04.91-.67,1.68-1.58,1.72-.48.02-.92-.17-1.24-.48Z"/>
        <path class="cls-16" d="M163.15,191.85c-.32-.32-.5-.76-.48-1.24.04-.91.81-1.62,1.72-1.58l12.9.56c.91.04,1.62.81,1.58,1.72-.04.91-.81,1.62-1.72,1.58l-12.9-.56c-.43-.02-.81-.2-1.1-.48Z"/>
      </g>
      <g>
        <path class="cls-16" d="M194.6,198.93l7.11,7.11c.64.64,1.69.64,2.33,0s.64-1.69,0-2.33l-7.11-7.11c-.64-.64-1.69-.64-2.33,0-.64.64-.64,1.69,0,2.33Z"/>
        <path class="cls-16" d="M201.68,191.11c.28.28.67.46,1.1.48l12.9.56c.91.04,1.68-.67,1.72-1.58.04-.91-.67-1.68-1.58-1.72l-12.9-.56c-.91-.04-1.68.67-1.72,1.58-.02.48.17.92.48,1.24Z"/>
        <path class="cls-16" d="M188.77,217.47c.32.32.76.5,1.24.48.91-.04,1.62-.81,1.58-1.72l-.56-12.9c-.04-.91-.81-1.62-1.72-1.58-.91.04-1.62.81-1.58,1.72l.56,12.9c.02.43.2.81.48,1.1Z"/>
      </g>
      <circle class="cls-11" cx="201.52" cy="179.64" r="6.26"/>
      <rect class="cls-2" x="177.85" y="176.24" width="23.46" height="30.68" rx="8.16" ry="8.16" transform="translate(190.99 -77.94) rotate(45)"/>
      <path class="cls-1" d="M194.22,186.93c3.09,3.09,7.15,4.64,11.2,4.65.99-2.44.5-5.34-1.47-7.31l-7.06-7.06c-1.98-1.98-4.88-2.47-7.31-1.47,0,4.05,1.55,8.11,4.65,11.2Z"/>
      <line class="cls-3" x1="194.22" y1="186.93" x2="179.26" y2="201.89"/>
    </g>
  </g>
  <g id="Character_1" data-name="Character 1">
    <g>
      <circle class="cls-5" cx="198.06" cy="186.99" r="49.35" transform="translate(-27.4 34.14) rotate(-9.22)"/>
      <path class="cls-16" d="M167.06,228.16l-53.67,63.12c-2.33,2.74-6.45,3.08-9.19.74-2.74-2.33-3.08-6.45-.74-9.19.1-.12.21-.24.32-.35l58.12-59.05c1.36-1.38,3.57-1.4,4.95-.04,1.31,1.29,1.38,3.38.21,4.76Z"/>
    </g>
  </g>
</svg>