<?xml version="1.0" encoding="UTF-8"?>
<svg xmlns="http://www.w3.org/2000/svg" xmlns:xlink="http://www.w3.org/1999/xlink" version="1.1" viewBox="0 0 1920 1080">
  <defs>
    <style>
      .cls-1, .cls-2 {
        fill: #000;
        stroke-width: 0px;
      }

      .cls-2, .cls-3 {
        display: none;
      }
    </style>
  </defs>
  <g id="Layer_1" data-name="Layer 1">
    <path class="cls-1" d="M963,549l-.7,33c0,0-.2,0-.2,0-2.8,14.9,1.1,174.6-6.9,212.3-1,4.5-4.8,7.9-9.4,8.2-82.6,6.2,4-.3-86.8,6.5-52,3.9-115,31.2-168.1,2.8-129.5-63.2-141.3-75.6-121.9-186.9,5.9-37.1,77.7-121.4,67-43-12,68-2,78,23,104,36.3,37.8,77,18,113.7,18,5.2,0,2.4-9.2,2.2-10.3-3-37.6-.9-153.9,31.1-223.7,4.4-9.3,39.9-20.2,43-39s16.1-29.4,32-32,6-1,11,0c41.3,8.3,30,27,48,50s21.5,9.5,25,14c1.7,2-2,83.6-2,86Z"/>
    <path class="cls-2" d="M1402.1,512.9c-14.3-68.3-43.5-175.6-123.8-110.3-45,33.8-81.8,95.3-75,37.5,13.5-110.3-44.3-406.7-179.3-274.6l-6.8,25.5c-11.3,14.3-19.5,9-25.5,21.8-.2-.4-.4-.9-.6-1.3l-4.8,498.1s0,0,.1-.1c20.3,18.8,64.5,12.8,95.3,31.5,48,26.3,68.3,96.1,128.3,83.3,84.8-18.8,182.3-97.6,195.9-171.1v.8h.8c6.8-37.5,3-104.3-4.5-141.1Z"/>
    <path class="cls-1" d="M667,788"/>
    <path class="cls-1" d="M911.7,553.3l-.8,33c0,0,.2,0,.2,0,2.1,15-9.1,174.3-2.8,212.4.7,4.6,4.4,8.1,9,8.6,82.2,10-4-.5,86.4,10.5,51.7,6.3,113.4,36.4,167.8,10.5,132.2-57.3,144.6-69.1,130.3-181.1-4.2-37.4-72.1-124.8-65-46,8.9,68.5-1.6,78-27.7,102.8-38,36.1-77.7,14.5-114.4,12.8-5.2-.2-1.9-9.3-1.8-10.4,4.7-37.4,7.9-153.7-20.8-224.9-3.9-9.5-38.9-22-41.2-40.9-.7-6-14.8-30.1-30.5-33.4q-5.9-1.3-11-.5c-41.6,6.4-31.2,25.6-50.2,47.8-6.2,7.2-21.9,8.5-25.6,12.8-1.8,1.9-1.8,83.6-1.9,86Z"/>
    <g id="evIkjK">
      <image id="evIkjK-2" data-name="evIkjK" width="512" height="512" transform="translate(711 1508)" xlink:href="Untitled-4-1.png"/>
    </g>
  </g>
  <g id="Layer_1_copy" data-name="Layer 1 copy" class="cls-3">
    <path class="cls-1" d="M972.8,179.6l-6.2-16.4c-.8-2.2-2.1-4.2-3.8-5.8-128.9-129.4-195.5,162.4-185.8,272,5.3,57.8-30-3.8-73.5-39.8-78.8-67.5-111.1,39-127.6,107.3-9,36.8-15,103.6-9,141.1,11.3,73.5,68.8,93,152.1,114,59.3,14.3,120.3,6.8,169.1-17.9,29.1-15.9,69.3-11.3,91.3-25s7.7-8.2,7.8-13.8l4.7-486.4c0-3.2,0-12.2-1.7-14.8-3.5-5.4-7.5-1.1-14.6-9.8s-2-2.9-2.6-4.6Z"/>
    <path class="cls-2" d="M1402.1,512.9c-14.3-68.3-43.5-175.6-123.8-110.3-45,33.8-81.8,95.3-75,37.5,13.5-110.3-44.3-406.7-179.3-274.6l-6.8,25.5c-11.3,14.3-19.5,9-25.5,21.8-.2-.4-.4-.9-.6-1.3l-4.8,498.1s0,0,.1-.1c20.3,18.8,64.5,12.8,95.3,31.5,48,26.3,68.3,96.1,128.3,83.3,84.8-18.8,182.3-97.6,195.9-171.1v.8h.8c6.8-37.5,3-104.3-4.5-141.1Z"/>
    <path class="cls-1" d="M1008.6,180.2l6.6-16.3c.9-2.2,2.2-4.1,3.9-5.7,131.7-126.5,191.9,166.7,179.8,276-6.5,57.7,30.1-3.1,74.4-38.1,80.3-65.8,110.2,41.5,125.2,110.1,8.2,37,12.7,103.9,5.9,141.2-12.9,73.3-70.9,91.5-154.6,110.6-59.6,12.9-120.4,4.2-168.6-21.7-28.8-16.5-69-12.9-90.7-27-4.7-3.1-7.5-8.4-7.5-14l6.1-486.4c0-3.2.3-12.2,2.1-14.8,3.6-5.3,7.6-1,14.8-9.5s2.1-2.9,2.7-4.5Z"/>
  </g>
</svg>