<?xml version="1.0" encoding="UTF-8"?>
<svg id="Layer_1" data-name="Layer 1" xmlns="http://www.w3.org/2000/svg" xmlns:xlink="http://www.w3.org/1999/xlink" version="1.1" viewBox="0 0 1352 611">
  <defs>
    <style>
      .cls-1, .cls-2, .cls-3, .cls-4, .cls-5, .cls-6, .cls-7, .cls-8, .cls-9, .cls-10, .cls-11, .cls-12 {
        stroke-width: 0px;
      }

      .cls-1, .cls-4 {
        fill: #faebcd;
      }

      .cls-2 {
        fill: url(#linear-gradient-4);
        opacity: .6;
      }

      .cls-2, .cls-4, .cls-6, .cls-9, .cls-10, .cls-13 {
        isolation: isolate;
      }

      .cls-2, .cls-9, .cls-10 {
        mix-blend-mode: overlay;
      }

      .cls-3 {
        fill: #352d52;
      }

      .cls-4 {
        mix-blend-mode: soft-light;
      }

      .cls-5 {
        fill: #6b3245;
      }

      .cls-6 {
        fill: url(#linear-gradient-2);
        mix-blend-mode: lighten;
      }

      .cls-6, .cls-7, .cls-14 {
        display: none;
      }

      .cls-7 {
        fill: url(#linear-gradient);
      }

      .cls-8 {
        fill: #27203a;
      }

      .cls-9 {
        fill: url(#linear-gradient-3);
      }

      .cls-9, .cls-10 {
        opacity: .5;
      }

      .cls-10 {
        fill: url(#linear-gradient-5);
      }

      .cls-11 {
        fill: #cf6e57;
      }

      .cls-12 {
        fill: #fff;
      }
    </style>
    <linearGradient id="linear-gradient" x1="676.08" y1="-22.21" x2="676.08" y2="787.93" gradientTransform="translate(0 612) scale(1 -1)" gradientUnits="userSpaceOnUse">
      <stop offset="0" stop-color="#f5cc6c"/>
      <stop offset=".2" stop-color="#f4c96a"/>
      <stop offset=".34" stop-color="#f3c066"/>
      <stop offset=".45" stop-color="#f0b261"/>
      <stop offset=".56" stop-color="#ee9d5a"/>
      <stop offset=".65" stop-color="#e98050"/>
      <stop offset=".72" stop-color="#e76b4a"/>
      <stop offset=".88" stop-color="#90494e"/>
      <stop offset="1" stop-color="#523151"/>
    </linearGradient>
    <linearGradient id="linear-gradient-2" x1="676.43" y1="138" x2="676.43" y2="604.67" gradientTransform="translate(0 612) scale(1 -1)" gradientUnits="userSpaceOnUse">
      <stop offset="0" stop-color="#fff"/>
      <stop offset="0" stop-color="#010101" stop-opacity=".99"/>
      <stop offset=".23" stop-color="#010101" stop-opacity=".69"/>
      <stop offset=".43" stop-color="#010101" stop-opacity=".45"/>
      <stop offset=".62" stop-color="#010101" stop-opacity=".25"/>
      <stop offset=".78" stop-color="#010101" stop-opacity=".12"/>
      <stop offset=".91" stop-color="#010101" stop-opacity=".03"/>
      <stop offset="1" stop-color="#f5cc6c" stop-opacity="0"/>
    </linearGradient>
    <linearGradient id="linear-gradient-3" x1="890.49" y1="-31.39" x2="1140.02" y2="-31.39" gradientTransform="translate(31.44 593.83) rotate(-5.92) scale(1 -1)" gradientUnits="userSpaceOnUse">
      <stop offset="0" stop-color="#f5cc6c" stop-opacity="0"/>
      <stop offset=".04" stop-color="#010101" stop-opacity=".08"/>
      <stop offset=".15" stop-color="#010101" stop-opacity=".29"/>
      <stop offset=".26" stop-color="#010101" stop-opacity=".48"/>
      <stop offset=".37" stop-color="#010101" stop-opacity=".64"/>
      <stop offset=".49" stop-color="#010101" stop-opacity=".77"/>
      <stop offset=".61" stop-color="#010101" stop-opacity=".87"/>
      <stop offset=".73" stop-color="#010101" stop-opacity=".94"/>
      <stop offset=".86" stop-color="#010101" stop-opacity=".99"/>
      <stop offset="1" stop-color="#fff"/>
    </linearGradient>
    <linearGradient id="linear-gradient-4" x1="606.02" y1="191.32" x2="17.7" y2="191.32" gradientTransform="translate(-9.86 614.78) rotate(2.49) scale(1 -1)" gradientUnits="userSpaceOnUse">
      <stop offset="0" stop-color="#fff"/>
      <stop offset=".14" stop-color="#010101" stop-opacity=".99"/>
      <stop offset=".27" stop-color="#010101" stop-opacity=".94"/>
      <stop offset=".39" stop-color="#010101" stop-opacity=".87"/>
      <stop offset=".51" stop-color="#010101" stop-opacity=".77"/>
      <stop offset=".63" stop-color="#010101" stop-opacity=".64"/>
      <stop offset=".74" stop-color="#010101" stop-opacity=".48"/>
      <stop offset=".85" stop-color="#010101" stop-opacity=".29"/>
      <stop offset=".96" stop-color="#010101" stop-opacity=".08"/>
      <stop offset="1" stop-color="#f5cc6c" stop-opacity="0"/>
    </linearGradient>
    <linearGradient id="linear-gradient-5" x1="765.63" y1="228.16" x2="1213.75" y2="228.16" gradientTransform="translate(-12.61 639.78) rotate(-4.85) scale(1.14 -1)" xlink:href="#linear-gradient-4"/>
  </defs>
  <g class="cls-13">
    <g id="BACKGROUND">
      <rect class="cls-7" x="276.08" y="-162.45" width="800" height="835.45"/>
    </g>
    <g id="OBJECTS">
      <g>
        <path class="cls-6" d="M.86,130.25s153.13,92.51,266.71,101.46,187.28-77.85,355.18-66.63c167.9,11.22,153.32,56.92,335.72,72.69,182.4,15.76,243.2-107.25,393.52-86.94v417.95H.86V130.25h0Z"/>
        <g class="cls-14">
          <ellipse class="cls-4" cx="483.34" cy="-128.51" rx="214.05" ry="191.93"/>
          <path class="cls-1" d="M384.61-217.03c54.53-48.89,142.93-48.89,197.46,0s54.53,128.16,0,177.05c-54.53,48.89-142.93,48.89-197.46,0-54.53-48.89-54.53-128.16,0-177.05Z"/>
          <ellipse class="cls-4" cx="483.34" cy="-128.51" rx="297.25" ry="266.53"/>
        </g>
        <g>
          <path class="cls-12" d="M1316.87,5.11h-46.97c-1.38-7.97-9.05-14.05-18.32-14.05-4.21,0-8.09,1.27-11.2,3.39-4.85-6.72-13.27-11.18-22.87-11.18-2.72,0-5.34.36-7.8,1.03-8.5-11.58-23.12-19.22-39.72-19.22-18.65,0-34.77,9.63-42.56,23.64-4.68-3.41-10.64-5.45-17.13-5.45-14.07,0-25.64,9.57-27.09,21.84h-.15c-1.59,0-2.89,1.15-2.89,2.59s1.3,2.59,2.89,2.59h233.83c1.59,0,2.89-1.17,2.89-2.59s-1.3-2.59-2.89-2.59h-.02Z"/>
          <path class="cls-12" d="M1136.85-190.08c0-1.56-1.42-2.83-3.16-2.83h-44.42c-1.64-24.55-24.35-44.01-52.14-44.01-20.72,0-38.61,10.81-47.07,26.49-6.45-6.8-16.04-11.13-26.79-11.13-3.94,0-7.7.61-11.23,1.68-11.08-15.79-30.67-26.3-53.02-26.3-33.51,0-60.85,23.61-62.51,53.28h-.08c-1.74,0-3.16,1.27-3.16,2.83s1.42,2.83,3.16,2.83h297.25c1.74,0,3.16-1.27,3.16-2.83Z"/>
          <path class="cls-12" d="M1167.01-187.2h58.79c1.74,0,3.16-1.27,3.16-2.83s-1.42-2.83-3.16-2.83h-58.79c-1.74,0-3.16,1.27-3.16,2.83s1.42,2.83,3.16,2.83Z"/>
          <path class="cls-12" d="M477.88-3.31h-91.64c-1.35-20.17-20.01-36.16-42.85-36.16-10.57,0-20.25,3.44-27.73,9.12-13.31-32.03-47.71-54.85-88.06-54.85-35.38,0-66.19,17.55-82.22,43.48-9.12-5.82-20.27-9.25-32.31-9.25-29.94,0-54.37,21.14-55.72,47.69h-.07c-1.44,0-2.6,1.04-2.6,2.33s1.17,2.33,2.6,2.33h420.59c1.44,0,2.6-1.04,2.6-2.33s-1.17-2.33-2.6-2.33v-.02Z"/>
        </g>
        <g>
          <path class="cls-11" d="M1315.69,307.43v-166.13c0-31.74-28.69-57.49-64.11-57.49h-142.02c-35.4,0-64.11,25.73-64.11,57.49v166.13h-30.4l-13.51,42.4-13.51,1.98v-156.07c0-3.56-3.21-6.44-7.18-6.44-12.82,0-23.22,9.33-23.22,20.82v146.14l-20.27,2.97-40.53,85.74-92.59,14.93-11.28-47.99-37.11,3.03-13.98,46.19h-1.17l-7.06-13.89h-32.07l-4.36,13.64-149.59-.79-41.7-25.37h-58.2l-44.08,24.61-10.13-42.9-40.53-6.06-30.65-51.17-98.46-9.4v-73.04c0-24.9-22.51-45.08-50.28-45.08h-70.93c-27.77,0-50.28,20.19-50.28,45.08v69.62L0,383.12v185.63h1351.14v-218.95l-35.47-42.4.02.03Z"/>
          <g>
            <path class="cls-5" d="M.86,442.79l161.8-29.73h90.86s312.87,101.9,443.75,101.9,161.28-43.36,313.3-50.96c152.02-7.6,196.4-85.64,341.43-92.85v248.37H.86v-176.76.02Z"/>
            <path class="cls-5" d="M986.57,435.14c-3.73,0-6.76,2.71-6.76,6.06v8.07h-8.66v-56.29c0-3.35-3.02-6.06-6.76-6.06s-6.76,2.71-6.76,6.06v33h-4.22c-3.73,0-6.76-2.71-6.76-6.06v-12.37c0-3.35-3.02-6.06-6.76-6.06s-6.76,2.71-6.76,6.06v12.37c0,10.03,9.09,18.17,20.27,18.17h4.22v38.93c0,3.35,3.02,6.06,6.76,6.06s6.76-2.71,6.76-6.06v-15.64h9.8c6.82,0,12.38-4.98,12.38-11.1v-9.09c0-3.35-3.02-6.06-6.76-6.06Z"/>
            <path class="cls-5" d="M513.74,404.67c-4.66,0-8.44,3.39-8.44,7.57v19.91c0,6.38-5.79,11.57-12.9,11.57h-8.85v-64.6c0-4.18-3.78-7.57-8.44-7.57s-8.44,3.39-8.44,7.57v116.23c0,4.18,3.78,7.57,8.44,7.57s8.44-3.39,8.44-7.57v-36.48h8.85c16.42,0,29.79-11.98,29.79-26.71v-19.91c0-4.18-3.78-7.57-8.44-7.57h0Z"/>
          </g>
          <g>
            <path class="cls-8" d="M1252.35,303.65c-12.13,0-21.96,8.81-21.96,19.69v153.45h-8.73c-12.57,0-22.8-9.16-22.8-20.44v-32.56c0-10.87-9.83-19.69-21.96-19.69s-21.96,8.81-21.96,19.69v32.56c0,32.98,29.93,59.82,66.71,59.82h8.73v72.93c0,10.87,9.83,19.69,21.96,19.69s21.96-8.81,21.96-19.69v-265.77c0-10.87-9.83-19.69-21.96-19.69v.02Z"/>
            <g>
              <path class="cls-8" d="M1082.57,585.82c-1.33-12.13-12.31-21.58-25.65-21.58-9.98,0-18.63,5.32-22.92,13.07-2.11-.65-4.44-1.01-6.91-1.01-8.93,0-16.26,4.77-17.09,10.87-100.86.73-207.48-3.48-294.78-18.38-83.2-14.2-248.1-14.93-398.54-11.78l-12.48-18.88h-35.47l-20.27-30.67h-76l-12.67,22.72h-16.97l8.92-24.35-22.51,7.57-9.58-24.73-1.69,26.76-30.4-22.72,19.51,37.48h-13.14L.86,568.78v167.22h1351.14v-167.22s-120.54,12.72-269.43,17.04Z"/>
              <g>
                <g>
                  <path class="cls-3" d="M235.22,705.95c0-13.31,11.55-24.09,25.79-24.09s25.79,10.78,25.79,24.09h-51.58Z"/>
                  <path class="cls-3" d="M214,705.95c0-6.65,7.7-12.04,17.18-12.04s17.18,5.39,17.18,12.04h-34.37.02Z"/>
                </g>
                <path class="cls-3" d="M1228.46,680.67c0-10.71,9.31-19.4,20.77-19.4s20.77,8.68,20.77,19.4h-41.55Z"/>
                <g>
                  <path class="cls-3" d="M652.18,604.22c0-10.71,9.31-19.4,20.77-19.4s20.77,8.68,20.77,19.4h-41.55Z"/>
                  <path class="cls-3" d="M690.18,604.22c0-5.36,4.64-9.69,10.39-9.69s10.39,4.35,10.39,9.69h-20.77Z"/>
                  <path class="cls-3" d="M634.78,604.22c0-5.36,4.64-9.69,10.39-9.69s10.39,4.35,10.39,9.69h-20.77Z"/>
                </g>
                <path class="cls-3" d="M19.08,595.68c0-8.12,7.04-14.7,15.74-14.7s15.74,6.59,15.74,14.7h-31.48Z"/>
              </g>
            </g>
            <path class="cls-8" d="M287.64,259.61c-15.86,0-28.71,11.52-28.71,25.74v79.63c0,23.38-21.21,42.4-47.29,42.4h-19.42V100.86c0-14.22-12.85-25.74-28.71-25.74s-28.71,11.52-28.71,25.74v132.63c-25-9.71-42.54-32.03-42.54-57.97v-24.68c0-14.22-12.85-25.74-28.71-25.74s-28.71,11.52-28.71,25.74v24.68c0,54.62,42.85,100.42,99.97,111.85v281.4c0,14.22,12.85,25.74,28.71,25.74s28.71-11.52,28.71-25.74v-109.91h19.42c57.74,0,104.71-42.11,104.71-93.89v-79.63c0-14.22-12.85-25.74-28.71-25.74v.02Z"/>
          </g>
          <g class="cls-14">
            <path class="cls-9" d="M1138.05,516.13c-15.79-.82-25.57-17.04-40.97-20.25-15.93-3.32-30.49,8.09-46.02,12.64-2.43.71-5.07,1.26-7.5.59-3.48-.97-5.56-4.06-8.09-6.42-6.62-6.15-17.56-7.41-26.57-4.62-9,2.79-16.25,9-21.77,15.95-1.91,2.41-4.04,5.15-7.3,5.56-4.86.62-8.17-4.16-12.4-6.41-7.47-3.95-16.77.39-24.17,4.47-7.4,4.07-17.26,7.86-24.13,3.12,4.24,8.09,15.22,11.46,25.18,11.77,9.96.3,19.98-1.62,29.84-.44,4.86.58,9.88,1.91,14.58.65,6.67-1.79,10.56-8.15,16.86-10.8,6.87-2.88,15.05-.76,21.82,2.3,6.77,3.06,13.27,7.07,20.77,8.07,14.39,1.92,27.9-7.66,42.44-7.66,15.84,0,29.39,11.25,45.18,12.31,14.86,1,29.76-8.45,33.66-21.34-3.77,3.88-9.85,5.44-15.57,5.29-5.74-.15-11.27-1.8-16.7-3.44,1.55.32,3.12.62,4.68.94"/>
            <path class="cls-2" d="M21.79,410.5c35.23-7.48,72.39-10.04,107.55-2.36,23.31,5.09,46.23,14.66,70.11,12.58,33.91-2.95,61.75-28.86,95.81-30.03,43.24-1.48,78.35,37.12,121.6,36.44,23.41-.36,46.18-12.45,69.11-8.27,19.22,3.5,33.51,17.52,50.23,26.71,16.72,9.19,42.44,11.8,52.76-3.15-7.89,20.57-20.5,23.52-54.57,22.41-9.31-.3-38.17-12.75-47.07-15.19-29.74-8.16-29.37,7.8-56.7,5.8-10.3-.76-42.07-15.51-52-12.96-22.5,5.74-22.61,26.85-45.99,26.5-17.48-.26-32.88-13.28-50.3-11.78-7.01.61-13.48,3.54-19.73,6.45-21.79,10.13-47.32,20.82-69.77,11.9-9.42-3.74-16.91-10.56-25.87-15.1-23-11.65-52.51-7.04-76.56-16.82-13.46-5.47-24.22-15.05-36.62-22.26-12.4-7.21-28.32-12.02-41.83-6.65"/>
            <path class="cls-10" d="M1349.31,305.51c-41.36-9.34-79.35-35.59-121.81-28.15-25.99,4.56-49.37,21.59-75.44,18.34-25.77-3.23-42.86-25.5-68.94-26.83-19.08-.97-35.89,9.59-51.11,18.99-23.81,14.7-50.16,28.39-79.85,31.98-38.24,4.62-79.67-7.71-114.39,6.1,20.45,3.09,34.81,2.83,42.14,12.18,9.09,11.58,31.77-3.73,47.14-1.18,20.69,3.42,38.68,16.72,59.79,14.54,27.01-2.79,42.05-29.14,68.69-33.86,42.43-7.51,72.78,43.6,115.35,36.65,17.41-2.85,30.62-15.08,47.91-18.4,25.54-4.91,49.42,10.83,75.41,12.77,29.89,2.23,51.55-19.55,55.13-43.13"/>
          </g>
        </g>
      </g>
    </g>
    <g id="DESIGNED_BY_FREEPIK" data-name="DESIGNED BY FREEPIK" class="cls-14">
      <g>
        <g>
          <path class="cls-12" d="M564.57,646.15v-.27c-.35.42-.69.75-1.03,1.01s-.71.46-1.1.6c-.4.14-.83.21-1.3.21-.62,0-1.2-.14-1.72-.41-.53-.27-.99-.67-1.37-1.18-.39-.51-.68-1.11-.88-1.8s-.3-1.43-.3-2.23c0-1.69.4-3.02,1.19-3.96.79-.94,1.83-1.42,3.12-1.42.75,0,1.38.14,1.89.4.51.27,1.01.68,1.5,1.23v-4c0-.55.11-.97.32-1.26.21-.28.51-.43.91-.43s.69.13.91.4c.21.26.32.65.32,1.16v11.95c0,.51-.11.9-.34,1.16s-.52.39-.88.39-.65-.14-.88-.4c-.23-.27-.35-.65-.35-1.15h-.01ZM559.47,642.17c0,.73.11,1.36.33,1.87s.52.91.9,1.17.79.4,1.24.4.87-.13,1.25-.38.68-.63.9-1.14c.23-.51.34-1.16.34-1.92,0-.72-.11-1.34-.34-1.86-.22-.52-.53-.92-.91-1.19s-.8-.41-1.26-.41-.9.14-1.27.42-.66.68-.87,1.21c-.21.52-.31,1.14-.31,1.83h0Z"/>
          <path class="cls-12" d="M576.01,642.85h-5.07c0,.62.12,1.16.36,1.63.23.47.54.82.92,1.07.38.24.81.36,1.27.36.31,0,.59-.04.85-.11s.5-.2.75-.36c.24-.16.46-.33.66-.52s.46-.44.79-.75c.13-.11.32-.18.57-.18.27,0,.48.07.64.23.16.16.25.37.25.65,0,.24-.09.53-.28.86s-.46.64-.83.94c-.37.3-.84.55-1.4.75-.56.2-1.2.3-1.93.3-1.66,0-2.96-.5-3.88-1.48s-1.39-2.34-1.39-4.04c0-.8.11-1.55.34-2.22.23-.69.56-1.27,1-1.76.44-.49.98-.87,1.62-1.13.64-.26,1.35-.39,2.13-.39,1.01,0,1.88.22,2.61.67.73.45,1.27,1.02,1.63,1.73.36.71.54,1.43.54,2.16,0,.68-.19,1.13-.56,1.33s-.9.3-1.58.3v-.02ZM570.93,641.32h4.7c-.06-.93-.3-1.62-.72-2.08-.41-.46-.96-.69-1.64-.69s-1.18.23-1.59.7-.67,1.16-.76,2.07h.01Z"/>
          <path class="cls-12" d="M587.82,644.16c0,.75-.17,1.39-.52,1.92-.35.53-.86.94-1.54,1.21-.68.27-1.51.41-2.48.41s-1.73-.15-2.39-.45c-.66-.29-1.16-.67-1.47-1.12-.32-.45-.48-.9-.48-1.35,0-.3.1-.55.3-.76.2-.21.46-.31.77-.31.27,0,.48.07.63.21s.29.33.42.58c.27.48.58.85.96,1.09.37.24.87.36,1.52.36.52,0,.94-.13,1.28-.37.33-.24.5-.52.5-.82,0-.48-.17-.82-.52-1.04-.35-.22-.91-.43-1.7-.63-.89-.23-1.62-.47-2.18-.73-.56-.25-1.01-.58-1.34-1-.34-.42-.5-.93-.5-1.54,0-.54.15-1.05.47-1.54.31-.48.77-.87,1.37-1.16.6-.29,1.33-.43,2.19-.43.67,0,1.27.07,1.81.22s.98.34,1.34.58.63.51.82.81c.19.3.28.58.28.88,0,.31-.1.56-.3.76-.2.2-.48.3-.85.3-.27,0-.49-.08-.68-.24-.19-.16-.4-.4-.64-.71-.2-.26-.43-.48-.69-.64-.27-.16-.63-.24-1.08-.24s-.86.1-1.17.31c-.31.21-.47.47-.47.77,0,.28.11.52.34.7s.54.33.92.45c.39.11.92.26,1.6.44.8.21,1.46.45,1.97.73s.9.62,1.16,1,.39.82.39,1.33h-.04Z"/>
          <path class="cls-12" d="M590.47,635.43c-.36,0-.67-.11-.93-.34-.26-.23-.38-.55-.38-.98,0-.39.13-.7.39-.95s.57-.38.92-.38.63.11.89.33c.26.23.39.55.39.98s-.13.74-.38.98c-.25.23-.55.36-.9.36h0ZM591.75,638.22v7.82c0,.54-.12.95-.37,1.23s-.56.42-.94.42-.69-.15-.93-.43c-.24-.28-.36-.69-.36-1.22v-7.75c0-.53.12-.94.36-1.21.24-.27.55-.41.93-.41s.69.14.94.41.37.65.37,1.13h0Z"/>
          <path class="cls-12" d="M603.11,638.66v7.86c0,.9-.09,1.67-.28,2.32-.18.65-.48,1.18-.88,1.61-.41.42-.94.74-1.59.94-.66.21-1.47.3-2.45.3-.89,0-1.69-.13-2.39-.4-.7-.26-1.24-.6-1.62-1.01-.38-.42-.57-.84-.57-1.27,0-.33.11-.61.32-.8.21-.21.48-.31.78-.31.38,0,.71.18,1,.52.14.18.28.36.43.54.15.18.31.33.49.47.18.13.4.22.65.28s.55.09.87.09c.67,0,1.19-.09,1.56-.29s.63-.47.78-.81.24-.72.26-1.13c.03-.4.04-1.04.06-1.93-.4.58-.86,1.02-1.38,1.33-.52.3-1.14.46-1.87.46-.87,0-1.63-.23-2.28-.7-.65-.46-1.15-1.11-1.5-1.94s-.52-1.8-.52-2.88c0-.81.11-1.55.32-2.2.21-.66.52-1.21.91-1.66.39-.45.85-.78,1.36-1.01.51-.23,1.08-.34,1.69-.34.73,0,1.37.15,1.91.44.54.29,1.04.75,1.5,1.39v-.37c0-.47.11-.84.33-1.09.22-.26.51-.39.86-.39.5,0,.83.17,1,.51.16.34.25.84.25,1.47h0ZM595.6,642.1c0,1.1.23,1.93.69,2.49.46.56,1.05.85,1.78.85.43,0,.84-.13,1.22-.37s.7-.61.94-1.09c.24-.49.36-1.08.36-1.78,0-1.11-.23-1.96-.7-2.58-.47-.62-1.08-.92-1.84-.92s-1.33.29-1.78.89c-.45.58-.67,1.42-.67,2.51h0Z"/>
          <path class="cls-12" d="M607.23,638.18v.32c.46-.63.95-1.09,1.5-1.39.54-.29,1.16-.44,1.87-.44s1.29.16,1.83.47c.54.31.94.75,1.21,1.32.17.33.28.69.33,1.08.05.39.08.88.08,1.47v5.03c0,.54-.12.95-.36,1.23s-.55.42-.93.42-.7-.15-.94-.43c-.24-.28-.36-.69-.36-1.22v-4.51c0-.89-.12-1.58-.36-2.05s-.71-.71-1.42-.71c-.46,0-.88.15-1.26.43-.38.29-.66.69-.84,1.19-.13.41-.19,1.16-.19,2.26v3.39c0,.55-.12.96-.37,1.23-.24.27-.56.41-.94.41s-.68-.15-.92-.43c-.24-.28-.36-.69-.36-1.22v-7.82c0-.51.11-.9.32-1.16.22-.25.51-.39.88-.39.23,0,.43.05.62.17.18.11.33.28.44.5.11.23.17.5.17.82v.02Z"/>
          <path class="cls-12" d="M623.01,642.85h-5.07c0,.62.12,1.16.36,1.63.23.47.54.82.92,1.07.38.24.81.36,1.27.36.31,0,.59-.04.85-.11s.5-.2.75-.36c.24-.16.46-.33.67-.52.2-.19.46-.44.79-.75.13-.11.32-.18.57-.18.27,0,.48.07.65.23.16.16.25.37.25.65,0,.24-.09.53-.28.86-.18.32-.46.64-.83.94-.37.3-.83.55-1.4.75-.56.2-1.2.3-1.93.3-1.66,0-2.96-.5-3.89-1.48-.92-.99-1.39-2.34-1.39-4.04,0-.8.11-1.55.34-2.22.23-.69.56-1.27,1-1.76.44-.49.98-.87,1.61-1.13.64-.26,1.35-.39,2.13-.39,1.01,0,1.88.22,2.61.67.73.45,1.27,1.02,1.63,1.73.36.71.54,1.43.54,2.16,0,.68-.19,1.13-.56,1.33s-.9.3-1.58.3v-.02ZM617.93,641.32h4.7c-.06-.93-.3-1.62-.72-2.08-.41-.46-.96-.69-1.64-.69s-1.18.23-1.59.7-.67,1.16-.75,2.07Z"/>
          <path class="cls-12" d="M633.58,646.15v-.27c-.35.42-.69.75-1.03,1.01s-.71.46-1.1.6-.83.21-1.3.21c-.62,0-1.2-.14-1.72-.41-.53-.27-.99-.67-1.37-1.18-.39-.51-.68-1.11-.88-1.8s-.3-1.43-.3-2.23c0-1.69.4-3.02,1.19-3.96.79-.94,1.83-1.42,3.12-1.42.75,0,1.38.14,1.89.4.51.27,1.01.68,1.5,1.23v-4c0-.55.11-.97.32-1.26.21-.28.51-.43.91-.43s.69.13.91.4c.21.26.32.65.32,1.16v11.95c0,.51-.11.9-.34,1.16s-.52.39-.88.39-.65-.14-.88-.4c-.23-.27-.35-.65-.35-1.15h-.01ZM628.48,642.17c0,.73.11,1.36.33,1.87s.52.91.9,1.17.79.4,1.24.4.87-.13,1.25-.38.68-.63.9-1.14c.23-.51.34-1.16.34-1.92,0-.72-.11-1.34-.34-1.86-.22-.52-.53-.92-.91-1.19s-.8-.41-1.26-.41-.9.14-1.27.42-.66.68-.87,1.21c-.21.52-.31,1.14-.31,1.83h0Z"/>
          <path class="cls-12" d="M644.17,634.2v4.14c.49-.53.98-.93,1.49-1.21.51-.28,1.13-.42,1.88-.42.86,0,1.62.21,2.27.64s1.15,1.04,1.51,1.86c.36.8.54,1.78.54,2.88,0,.82-.1,1.57-.3,2.26-.2.69-.49,1.27-.87,1.78-.38.5-.84.89-1.38,1.17-.54.27-1.14.41-1.79.41-.4,0-.77-.05-1.13-.15-.35-.09-.65-.23-.9-.4-.25-.16-.46-.32-.63-.5-.17-.17-.4-.43-.69-.77v.27c0,.51-.12.9-.35,1.16s-.53.39-.89.39-.66-.13-.88-.39-.33-.65-.33-1.16v-11.82c0-.55.11-.96.32-1.24.21-.28.51-.42.89-.42.4,0,.71.14.92.4.21.27.32.65.32,1.15h0ZM644.3,642.24c0,1.08.24,1.9.71,2.49.47.57,1.09.87,1.86.87.65,0,1.21-.29,1.69-.89.47-.6.71-1.44.71-2.55,0-.71-.1-1.33-.29-1.85-.2-.51-.47-.92-.84-1.19-.36-.28-.78-.42-1.26-.42s-.93.14-1.32.42-.69.69-.91,1.22-.33,1.17-.33,1.9h-.02Z"/>
          <path class="cls-12" d="M655.22,648.03l.24-.61-3.19-8.4c-.2-.48-.29-.84-.29-1.05s.06-.45.17-.65c.11-.2.27-.36.47-.48s.41-.18.62-.18c.37,0,.65.13.85.38.19.25.36.61.5,1.07l2.19,6.66,2.08-6.2c.16-.5.31-.9.45-1.18.13-.28.27-.48.42-.57.15-.1.36-.15.63-.15.2,0,.38.05.57.17.18.1.32.26.42.44.1.19.15.38.15.58-.03.13-.07.3-.12.53-.06.23-.13.47-.21.7l-3.38,9.24c-.29.81-.58,1.45-.86,1.91s-.65.82-1.11,1.07c-.46.25-1.08.38-1.86.38s-1.33-.08-1.71-.26-.57-.49-.57-.94c0-.31.09-.55.27-.72s.45-.25.8-.25c.14,0,.28.02.41.06.16.04.31.06.43.06.3,0,.53-.04.7-.14s.32-.25.46-.48c.14-.23.29-.56.47-1h0Z"/>
        </g>
        <g>
          <path class="cls-12" d="M692.78,636.92h.62v-.81c0-.85.1-1.52.31-2.03.2-.5.56-.87,1.05-1.09.49-.23,1.16-.34,2.02-.34,1.52,0,2.27.39,2.27,1.16,0,.25-.08.46-.24.65-.15.18-.34.27-.56.27-.1,0-.28-.02-.53-.06-.24-.03-.45-.06-.62-.06-.47,0-.77.15-.91.44-.13.29-.2.7-.2,1.23v.65h.63c.99,0,1.48.31,1.48.94,0,.44-.13.72-.39.84s-.62.18-1.09.18h-.63v7.17c0,.53-.12.94-.37,1.22-.24.28-.55.43-.94.43-.37,0-.67-.14-.92-.43-.24-.28-.36-.69-.36-1.22v-7.17h-.71c-.39,0-.68-.08-.89-.27-.21-.18-.31-.42-.31-.71,0-.65.43-.97,1.3-.97"/>
          <path class="cls-12" d="M701.27,643.78v2.27c0,.54-.13.96-.37,1.23-.25.28-.56.41-.94.41s-.69-.14-.93-.42c-.24-.27-.36-.69-.36-1.22v-7.54c0-1.22.42-1.83,1.26-1.83.43,0,.74.14.93.43.19.28.29.7.32,1.26.31-.55.62-.97.95-1.26.33-.28.76-.43,1.31-.43s1.07.14,1.58.43c.52.28.77.67.77,1.13,0,.32-.11.61-.33.81-.22.22-.45.32-.71.32-.1,0-.33-.06-.69-.19-.37-.11-.69-.18-.96-.18-.38,0-.69.1-.93.31-.24.22-.43.52-.56.93s-.22.91-.27,1.46c-.05.56-.07,1.25-.07,2.07"/>
          <path class="cls-12" d="M713.19,642.85h-5.07c0,.62.12,1.16.35,1.63.24.47.54.82.92,1.07.38.24.8.36,1.27.36.31,0,.59-.03.85-.11.25-.07.5-.2.75-.36.24-.16.46-.33.66-.52.2-.18.47-.44.79-.75.13-.11.32-.18.57-.18.27,0,.48.07.65.23.17.16.24.37.24.65,0,.25-.09.53-.27.86-.19.33-.46.65-.84.95-.37.3-.84.55-1.4.74-.56.2-1.21.3-1.93.3-1.67,0-2.96-.49-3.89-1.48-.92-.99-1.39-2.34-1.39-4.04,0-.8.12-1.55.35-2.22.22-.69.56-1.27,1-1.76.44-.49.97-.87,1.61-1.13.64-.26,1.35-.39,2.13-.39,1.01,0,1.88.22,2.61.68.72.44,1.27,1.02,1.63,1.72.36.71.54,1.43.54,2.16,0,.68-.19,1.12-.56,1.33-.37.2-.9.3-1.58.3M708.12,641.32h4.7c-.06-.92-.3-1.62-.71-2.08-.42-.46-.96-.69-1.64-.69s-1.18.23-1.59.7-.67,1.15-.75,2.07"/>
          <path class="cls-12" d="M723.98,642.85h-5.07c0,.62.12,1.16.35,1.63s.54.82.92,1.07c.38.24.81.36,1.27.36.31,0,.59-.03.84-.11.26-.07.51-.2.75-.36s.46-.33.66-.52c.2-.18.46-.44.79-.75.13-.11.33-.18.57-.18.27,0,.48.07.65.23.16.16.24.37.24.65,0,.25-.09.53-.27.86-.18.33-.46.65-.83.95s-.84.55-1.4.74c-.56.2-1.21.3-1.93.3-1.67,0-2.96-.49-3.89-1.48-.92-.99-1.39-2.34-1.39-4.04,0-.8.12-1.55.35-2.22.23-.69.56-1.27,1-1.76.44-.49.97-.87,1.61-1.13.64-.26,1.35-.39,2.13-.39,1.01,0,1.88.22,2.61.68.72.44,1.27,1.02,1.62,1.72.36.71.54,1.43.54,2.16,0,.68-.19,1.12-.56,1.33-.37.2-.9.3-1.58.3M718.91,641.32h4.7c-.06-.92-.3-1.62-.71-2.08-.42-.46-.96-.69-1.64-.69s-1.18.23-1.59.7-.67,1.15-.75,2.07"/>
          <path class="cls-12" d="M729.66,638.2v.32c.49-.63.99-1.09,1.52-1.38.52-.29,1.12-.45,1.78-.45.79,0,1.54.22,2.21.65.67.43,1.2,1.07,1.59,1.89.39.84.59,1.81.59,2.93,0,.84-.11,1.6-.34,2.3-.22.7-.54,1.28-.93,1.75-.39.47-.86.84-1.39,1.1-.54.25-1.11.38-1.73.38-.74,0-1.36-.16-1.87-.47-.5-.3-.98-.76-1.44-1.37v4.06c0,1.19-.42,1.79-1.24,1.79-.49,0-.81-.16-.97-.46-.15-.31-.23-.75-.23-1.35v-11.69c0-.52.11-.9.32-1.16.21-.25.51-.38.88-.38s.67.13.9.39c.24.26.35.64.35,1.13M734.74,642.14c0-.71-.11-1.33-.31-1.84-.21-.51-.5-.91-.87-1.18s-.78-.42-1.23-.42c-.71,0-1.32.29-1.81.88-.49.6-.74,1.46-.74,2.6,0,1.08.24,1.91.74,2.52.49.6,1.09.9,1.81.9.43,0,.83-.14,1.2-.39.37-.26.66-.66.88-1.18s.33-1.16.33-1.9"/>
          <path class="cls-12" d="M739.96,635.42c-.36,0-.67-.11-.92-.34-.26-.23-.39-.55-.39-.98,0-.39.13-.7.4-.95.26-.24.57-.38.91-.38s.64.11.89.33c.26.23.39.55.39.99s-.13.74-.38.98c-.25.23-.55.36-.91.36M741.24,638.21v7.83c0,.54-.12.95-.37,1.22-.25.28-.56.42-.94.42s-.68-.14-.93-.43c-.23-.29-.36-.69-.36-1.22v-7.76c0-.53.12-.93.36-1.2s.55-.41.93-.41.69.14.94.41.37.65.37,1.13"/>
          <path class="cls-12" d="M749.6,646.45l-2.28-3.94-1.41,1.39v2.16c0,.52-.13.92-.4,1.2-.26.28-.57.43-.91.43-.4,0-.71-.14-.94-.42-.23-.27-.34-.69-.34-1.22v-11.55c0-.6.11-1.05.33-1.37s.54-.47.95-.47.71.15.95.43c.23.28.35.7.35,1.25v6.57l2.92-3.2c.36-.4.63-.67.83-.81.19-.15.42-.22.69-.22.33,0,.59.1.82.32.21.22.32.49.32.8,0,.4-.35.93-1.05,1.59l-1.38,1.32,2.66,4.37c.19.32.34.56.42.74.08.17.13.33.13.48,0,.43-.11.76-.34,1.02-.22.25-.52.37-.89.37-.32,0-.56-.08-.73-.27-.17-.18-.41-.5-.7-.97"/>
          <path class="cls-12" d="M755.24,647.7c-.39,0-.73-.14-1.01-.4s-.43-.64-.43-1.11c0-.41.14-.75.41-1.04s.61-.44,1.01-.44.74.15,1.02.43c.28.29.42.64.42,1.04,0,.47-.14.85-.42,1.11-.29.27-.62.41-1,.41"/>
          <path class="cls-12" d="M768.14,644.34c0,.33-.1.7-.29,1.08-.19.39-.49.75-.89,1.1-.39.34-.89.63-1.5.84-.6.21-1.28.32-2.03.32-1.61,0-2.86-.49-3.76-1.46-.9-.98-1.35-2.29-1.35-3.93,0-1.12.2-2.1.62-2.94.41-.85,1-1.51,1.78-1.97.78-.47,1.72-.7,2.79-.7.67,0,1.29.1,1.85.3.56.21,1.03.47,1.42.79s.69.67.89,1.03c.21.37.31.71.31,1.03s-.11.6-.34.82c-.24.22-.52.33-.84.33-.22,0-.4-.06-.54-.18s-.3-.3-.48-.56c-.32-.5-.65-.88-1-1.13-.34-.25-.78-.38-1.31-.38-.76,0-1.38.31-1.85.94-.47.63-.7,1.48-.7,2.56,0,.51.06.98.18,1.41s.29.79.52,1.09c.23.3.5.52.83.68.32.16.68.24,1.06.24.52,0,.97-.13,1.34-.38.38-.25.7-.64.99-1.15.16-.3.33-.54.51-.71.18-.17.41-.26.68-.26.32,0,.58.13.79.38.21.25.32.52.32.8"/>
          <path class="cls-12" d="M779.33,642.18c0,.8-.12,1.55-.36,2.23-.25.68-.59,1.26-1.05,1.75s-1,.87-1.63,1.13c-.64.26-1.35.4-2.14.4s-1.49-.14-2.12-.4c-.62-.26-1.17-.64-1.63-1.13-.46-.5-.81-1.08-1.05-1.75-.23-.67-.35-1.41-.35-2.22s.12-1.58.36-2.26c.24-.68.59-1.26,1.04-1.74.45-.48.99-.86,1.63-1.12s1.35-.39,2.12-.39,1.5.13,2.14.4c.64.26,1.18.64,1.64,1.13.46.49.8,1.08,1.04,1.74.23.68.35,1.42.35,2.23M776.72,642.18c0-1.11-.23-1.96-.7-2.58-.46-.63-1.09-.93-1.87-.93-.51,0-.96.14-1.34.41-.39.27-.68.68-.89,1.21-.21.53-.32,1.16-.32,1.88s.1,1.33.31,1.85c.21.53.5.94.89,1.22.39.28.83.42,1.35.42.78,0,1.41-.31,1.87-.93s.7-1.47.7-2.56"/>
          <path class="cls-12" d="M789.22,642.39v3.6c0,.57-.12.99-.37,1.28-.25.28-.57.43-.98.43s-.71-.15-.95-.43c-.25-.29-.37-.71-.37-1.28v-4.31c0-.68-.02-1.21-.06-1.59-.05-.37-.17-.69-.36-.92-.2-.25-.51-.37-.93-.37-.85,0-1.41.3-1.68.92-.27.61-.41,1.47-.41,2.62v3.66c0,.56-.12.99-.36,1.27-.25.28-.57.43-.96.43s-.72-.15-.97-.43c-.25-.29-.38-.72-.38-1.27v-7.75c0-.51.11-.9.33-1.16.23-.27.53-.4.89-.4s.65.13.89.38c.24.25.35.6.35,1.02v.26c.45-.56.93-.97,1.44-1.23.52-.27,1.08-.41,1.71-.41s1.21.14,1.68.41.85.69,1.16,1.23c.44-.55.91-.96,1.41-1.23s1.05-.41,1.66-.41c.71,0,1.32.15,1.83.44.51.29.89.71,1.15,1.25.22.49.33,1.26.33,2.32v5.28c0,.57-.12.99-.37,1.28-.25.28-.58.43-.98.43s-.71-.15-.96-.43c-.25-.29-.38-.72-.38-1.27v-4.55c0-.58-.02-1.04-.07-1.4s-.18-.65-.38-.89c-.21-.24-.53-.36-.95-.36-.34,0-.67.11-.97.32-.31.21-.55.5-.72.85-.19.46-.28,1.26-.28,2.42"/>
        </g>
        <g>
          <path class="cls-12" d="M668.52,641.53v-.02.02Z"/>
          <path class="cls-12" d="M668.65,642.4h0c-.05-.25-.09-.49-.12-.73.03.24.07.49.12.73Z"/>
          <path class="cls-12" d="M669.5,644.91s-.01-.02-.02-.03c0,.01.01.02.02.03Z"/>
          <path class="cls-12" d="M669.42,644.74s-.04-.09-.07-.14c.02.05.04.09.07.14Z"/>
          <path class="cls-12" d="M668.89,643.36c.13.42.28.82.46,1.21-.18-.4-.33-.8-.45-1.21h0Z"/>
          <path class="cls-12" d="M678.55,631.15c.5,0,.87.04,1.29.11l.12-.79s-1.17-.38-2.71-.24l-.12-.44c.48-.1.84-.55.84-1.08,0-.61-.47-1.1-1.06-1.1s-1.06.49-1.06,1.1c0,.53.36.97.84,1.08l.13.48c-1.63.23-2.94.9-2.94.9l.23.74c.99-.34,1.85-.55,2.62-.64.76-.08,1.33-.13,1.8-.13h.02Z"/>
          <path class="cls-12" d="M669.48,635.19h0c.04-.06.08-.1.11-.16l-.31-.24-.49-.38s-.79.77-1.4,2.14c-.03-.04-.06-.08-.09-.13-.18-.21-.44-.31-.76-.3h-.01c-.2,0-.34-.07-.43-.16.09-.11.14-.27.14-.43,0-.39-.3-.7-.67-.7s-.67.31-.67.7.3.7.67.7c.06,0,.11,0,.17-.02.16.19.43.36.81.34.2,0,.34.05.44.17.11.13.15.31.16.45h0c-.44,1.24-.31,2.79-.31,2.79l1.06.04c.02-.56.1-1.55.37-2.33.53-1.51,1.19-2.46,1.21-2.5h0Z"/>
          <path class="cls-12" d="M687.75,632.07c-.37,0-.67.31-.67.7,0,.06,0,.11.02.18-.18.18-.34.45-.34.85,0,.21-.05.36-.15.46-.08.08-.19.13-.3.15-.79-1.15-1.76-1.86-1.76-1.86l-.76.85c.57.54,1.16,1.22,1.73,2.08.39.58.8,1.35,1.14,2.1l1.02-.51s-.47-1.21-1.13-2.29c.11-.04.23-.1.33-.2.2-.19.3-.46.29-.79,0-.22.07-.37.15-.46.11.09.26.15.41.15.37,0,.67-.31.67-.7s-.3-.7-.67-.7h.02Z"/>
          <path class="cls-12" d="M685.09,641.69c-1.41.72-3.73,1.66-6.78,2.11-1.2.18-2.36.24-3.43.24-1.39,0-2.62-.1-3.56-.23-1.08-.15-1.92-.31-2.43-.44.12.41.27.81.45,1.21,0,0,0,.02.01.03.02.04.04.09.07.14.02.04.04.09.06.14,0,.01.01.02.02.03.3.6.67,1.14,1.08,1.62,1.44,1.65,2.91,1.9,2.92,1.91h.04s1.31.45,3.29.45,3.85-.41,5.67-1.22c1.35-.72,2.62-1.82,3.25-2.79.49-.75.84-1.56,1.05-2.39.11-.45.2-1.16.15-1.91-.4.28-1.02.68-1.87,1.11h0Z"/>
          <path class="cls-12" d="M669.94,635.53c-.04.06-.65.96-1.14,2.35-.36,1.04-.35,2.55-.35,2.57h0c0,.36.02.71.06,1.05v.02s.01.08.02.14c.03.24.07.49.12.73.7.19,4.88,1.2,9.55.52,2.93-.43,5.15-1.33,6.5-2.02,1.12-.56,1.84-1.09,2.12-1.29-.28-1.08-1.04-2.76-1.74-3.81-2-3-4.17-3.76-5.28-3.95-.42-.07-.76-.11-1.24-.11-.45,0-1,.04-1.74.11-.74.08-1.57.28-2.53.63-1.35.47-2.57,1.21-3.53,2.14l-.03.03c-.14.14-.44.43-.78.88h0ZM682.21,634.84c.96,0,1.74.81,1.74,1.82s-.78,1.82-1.74,1.82-1.74-.81-1.74-1.82.78-1.82,1.74-1.82ZM673.97,634.77c1.56,0,2.82,1.32,2.82,2.94s-1.26,2.93-2.82,2.93-2.82-1.32-2.82-2.93,1.26-2.94,2.82-2.94Z"/>
        </g>
      </g>
    </g>
  </g>
</svg>