<?xml version="1.0" encoding="UTF-8"?>
<svg id="Layer_1" data-name="Layer 1" xmlns="http://www.w3.org/2000/svg" version="1.1" viewBox="0 0 1907.5 620">
  <defs>
    <style>
      .cls-1 {
        fill: #719b90;
      }

      .cls-1, .cls-2, .cls-3 {
        stroke: #000;
        stroke-miterlimit: 10;
        stroke-width: 10px;
      }

      .cls-2 {
        fill: #719c90;
      }

      .cls-4 {
        fill: #010000;
        stroke-width: 0px;
        animation: rotate 10s linear infinite;
        /* Assume the center of the cog is at (300px, 150px) */
        transform-origin: 310px 310px; /* Adjust these values to the calculated center */
      }

      @keyframes rotate {
        0% {
          transform: rotate(0deg);
        }
        100% {
          transform: rotate(360deg);
        }
      }      

      .cls-3 {
        fill: #719b8f;
      }



    </style>
  </defs>
  <path class="cls-4" d="M277.4,3.2c15.7,8.8,16.8,30.7,33.8,39.5,15,8.8,31.4-.9,40.3-14.1,6.9-9.7,13.2-22.3,26.3-23.4,6.8-.6,13.9,1.3,20.5,3.3,25.8,8,43.2,13.1,41,44-.5,12.4,1.6,26.3,12,34.2,8,6.2,19.8,6.2,29.3,2.8,4.9-1.6,9.6-4.1,14.3-6.2,17.2-8.1,30.2-3.5,42.9,10.3,7.3,7.9,15.7,16.1,19.5,26.2,2.5,6.6,2.1,13.9-.5,20.4-2.9,7.7-9.1,15.4-12,23.3-3,7.6-3.9,16.5-.6,24.1,4.9,11.5,17.9,16.9,30.1,17.9,21.4,1.4,33.8,2.4,40.1,26.5,3.5,16,11.5,38.4-1.8,51.5-8.5,8.5-22.5,12.2-30.4,21.3-10.7,11.1-10.6,26.3-.7,37.8,9.7,11.9,30.4,17.9,32.6,34.7,1.7,12.2-3.4,24.2-7.1,35.6-8.4,24.2-19.2,27.6-43.9,26.5-11.7,0-24.5,3.6-30.8,13.6-18.1,32.9,31.5,50.6-6,85-8.5,7.8-17,16.7-28.4,20-17.4,5.2-30.3-10.6-45.9-14.7-14.5-4.2-28.4,2.2-34.1,16.3-2.8,6.3-3.5,14.1-4.1,21.2-1.4,29.1-20,33.1-44.5,37.8-25.8,5-34.3-3.9-45.8-25.9-8.5-15.1-25.1-24.8-41.2-15.2-15.4,8.1-19.4,29.4-36.5,34.9-12.3,3.9-25.2-1.2-37-5-49.2-15.8-13-49.1-39.7-73.8-9.8-8.2-24-6.6-35.2-1.5-18.7,9.3-30.8,14.2-47.6-1.7-8.7-8.7-18.1-17.8-23.7-28.9-6.8-13.5,1.6-25.8,8.8-37.9,6-10.3,8.9-23.7,2.6-34.1-5.7-9.7-17.5-14.1-28.6-15.1-6.9-.7-14.1-.9-20.6-3.3-15.3-5.2-19.5-20.7-22.5-35.8-4-17.1-5.4-33.5,11.7-44.1,7.7-5,17.3-8.9,23.4-15.7,11-11.1,11.1-26.6,1-38.2-5.6-7-14.7-11.7-21.6-17.5-12.7-10.4-12.9-24.6-8.4-39,2.8-9.1,5.3-18.5,10.5-26.5,5.2-8.2,13.4-12.7,23.6-13.4,8.9-.7,18.9.7,27.5-1.8,7.1-1.9,13.7-5.9,17.5-11.9,6.3-9.6,4.6-22.4-.1-32.7-2-4.5-4.4-9.1-6-13.7-6.1-15.6.7-28.2,12-38.6,14-13.3,29.1-28,49.7-17.6,8.3,3.9,16.4,10.4,25.4,12.3,14.4,3.9,27.8-2.7,33.3-16.5,5.3-11.7,2.3-26.3,7.8-37.9,6.8-14.7,23-17.5,38.3-20.7,9.5-2,20.4-3.5,29.2,1.3h.2ZM494.7,310.2c.6-93.7-72.2-175-166.2-183.6-104.1-11.9-199.3,71.7-202.9,174.3-4.6,75.6,41.5,149.9,111.4,179.2,121.5,51.8,257.6-37.3,257.7-169.7v-.2Z"/>
  <path class="cls-1" d="M1793.1,424c-44.5.6-84.1-35.7-98.9-80.8-26-72.7,9.2-168.7,82.6-184.9,45.7-10.3,91.2,19.3,111.6,64.8,39,80.7-6,199.5-95,200.9h-.2ZM1869.8,288.8c1-55.8-41.2-122.3-95.8-101.2-22.2,8.8-39.7,31.8-48.3,57.4-14.2,41.2-7.7,92.7,19.6,125.7,25,31.1,64.9,34.5,92.8,5.1,20.7-21.1,32-54.2,31.7-86.6v-.3Z"/>
  <path class="cls-3" d="M1656.6,411.6c-5.5,6.7-13,3.4-20.1-4-13.5-14.9-14-38.4-21.8-57-4.8-13-12.3-25-23.4-32.2-11.4-7.1-24.7-10.8-36.8-8.5-13.2,2.6-15.7,17.9-16.1,30.9-.5,13.4,0,30.1-.3,43.4-.4,12.3-.9,20.1-6.1,27.9-6.1,8.4-15.6,8-21.1,2.5-4.4-4.4-4.7-11.4-4.9-17.7-.4-58.6-.3-165.3,0-210.1.2-8.6.9-17.9,8.2-22.5,10.4-6,24.9-5.8,36.9-6.7,27.1-.9,56.1.3,79.3,17,34,24.8,33.1,73.9,5.4,104-16.2,18.8-4.5,32.9,4.8,51.1,7.2,14.5,11.2,31.1,15.4,47.3,2.6,10.7,7,25,.7,34.4h0ZM1547.3,277.1c6,5.9,19,5.7,28.4,4,15.4-2.4,31-9.2,39.9-23.3,13.7-21,7.6-50.2-12.7-63.1-13.4-8.7-33.8-12.7-48.6-8-15.1,5.6-15.2,25.1-15.7,40.5.3,15.3-2.1,39.6,8.7,49.8h.1Z"/>
  <path class="cls-2" d="M991,316.8c-5.1-4.9-12-8.9-17.6-12.7-4.5-2.7-8.8-7.7-3.1-11.7,15.5-10.2,48.7-12.6,58.4,10.1,4.1,8.6,5,23.6,5.1,36.1-.4,25.7,1,54-18,71.1-29.9,21.6-92.1,14.4-121.9-5.3-28.5-17.4-47.1-50.1-52.6-84.9-14.9-86.5,40.8-161,121.4-161.7,13.4-1.2,35.3,3.3,43.1,11.1,6.2,5.3,4.9,11.2-5.3,14.2-16.6,5.1-38.5,2.5-56.5,7.1-8.3,2-16.2,5-23.6,9.2-60,32-64.1,137.8-8.3,177,21.1,14.4,52.4,23.6,74,6.3,16.7-15.6,23.1-49.9,4.8-65.7h-.1Z"/>
  <path class="cls-3" d="M1228.4,162c9-9.7,21.7-1.9,23.9,11.1,1.1,5.4,1,11.2,1.1,16.8,0,24.1,0,48.2,0,72.3-.6,36.7,3,75.4-10.2,110.1-12.6,35.5-43.6,56.1-78,56.1-50.5.8-79.1-36.2-84.7-88.8-1.7-14.1-1.9-28.3-2.1-42.5-.1-36.5,0-73,0-109.5.1-12.9-.2-27.3.1-39.9.1-.5.4-.5.8-.3,2.9,2,6.3,4.3,9.5,6,17.7,8.3,20.6,15.5,20.6,36.4.2,40.3-.3,80.8.2,121.2.3,32.6,7.5,73.4,39.4,85,25,9.2,52.6-4.3,63.2-30.8,7-16.1,8.7-34.4,9.3-52.1.8-43.3,0-86.8.4-130.1.1-7.6,1.3-15.9,6.2-20.9h.1Z"/>
  <path class="cls-2" d="M1469.3,407.5c-8.7,11.3-26.1-17.8-33.7-26.3-10.8-13.7-23.9-26.6-40-32.3-28.1-10.7-56.7,2-75.7,25.3-6.3,7.2-11.9,15-17.1,22-4.9,6.2-18.6,26.6-25.9,18-7.7-14.9,6.4-48.7,12.5-69.5,13.3-41,29.4-90.4,42.8-131.1,7-20.4,16.4-50.4,35.6-55.8,21.9-3.7,40.5,29.1,50.7,55,3.2,8.4,6,17,8.8,25.7,6.7,20.4,13.4,40.7,20.1,61.1,3.8,11.6,7.6,23.1,11.4,34.7,6.5,20.4,19.7,55.6,10.7,73.1h0ZM1402.9,309.4c7.4-9.8,8.5-20.9,6.2-35.4-1.7-10.3-5.4-22.2-9.3-33.1-6.3-15.7-19.3-55.6-35.8-31.3-4.2,6.1-7.4,13.5-10.4,20.7-5.7,14.1-11.6,32-13.5,46.4-1.5,10.5-.7,21.9,5.2,30.5,12.9,20,43.3,21,57.5,2.3v-.2Z"/>
  <path class="cls-2" d="M819.4,412.3c-10.7,13.9-32.7-28.9-44.3-40.1-1.4-1.6-2.8-3.1-4.3-4.6-6.5-6.6-13.9-12-22.1-15.8-30.4-14.4-63.4-1.4-83.5,25.8-10.4,11.9-34.7,56.3-40.6,26.9-1.8-13.7,1.9-30.9,6.1-44.9,12.5-40.1,25.7-80.1,38.4-120.2,9.5-29,19.9-68.8,45.2-81.4,16.9-7.4,31.4,8.2,40.1,23.2,13.2,22.6,19.8,50.4,28.4,75.7,9.8,30.3,19.6,60.7,29.3,91,6.5,20.5,15.2,49.1,7.3,64.2h0ZM750.8,309.5c7.5-9.8,8.3-20.9,5.7-35.4-1.9-10.2-5.5-22-9.4-32.8-6.3-15.8-19.1-56.9-35.5-31.3-10.5,17.8-17.6,40-22.6,61.1-2.6,12.1-3.4,25.9,3.6,36.2,13,20,43.8,20.7,58.2,2.3v-.2Z"/>
  <path class="cls-1" d="M375.4,168.1c-4.3,20.2-36.5,23.7-53.5,31.1-7.5,2.9-15,6.6-21.2,12-9,7.5-14.3,20.1-10.9,32.3,4.2,17.3,23.6,31.9,39.6,39.2,43.7,21.7,129.5,22.7,130.4,91.5-2,28.8-22.5,52.2-41.9,70.2-26.8,24.9-60.5,38-96,38.5-24.7.3-55.7-4.1-76.3-19.2-19.9-16-9-31.6,10.9-37.8,22.4-7.1,51.1-5.1,71.3-18.3,12.7-8,21.3-21.3,19.7-37-2.5-21.1-19.7-36.1-35.7-46.2-34.1-23.3-113.2-37.5-128-81.4-9.2-30.5,17.2-57.4,37.7-75.1,16.4-13.7,34-23.9,53.4-29.4,27.6-7.8,63-8.8,87.9,8.1,7.2,5.2,13.5,12.5,12.5,21.6h0Z"/>
  <!-- <path class="cls-4" d="M1885.1,446.8c-3.8,1.4-8.3,1.4-14,2-69.2,3.8-116.2,3.8-212.9,5-326.4-.9-710.1,5.6-1026.8-4.8-14.8-1-20.1-2-15.6-3.1,3.7-.8,14-1.7,30.5-2.5,329.6-8.7,687.6-3.5,1019.6-3.9,68.3.8,139.7,1.3,201,4.7,13,.8,19.2,1.7,18.2,2.6h0Z"/> -->
</svg>