<?xml version="1.0" encoding="UTF-8"?>
<svg id="Layer_1" data-name="Layer 1" xmlns="http://www.w3.org/2000/svg" version="1.1" viewBox="0 0 1200.5 90.7">
  <defs>
    <style>
      .cls-1 {
        fill: #719a8f;
        stroke-width: 0px;
      }
    </style>
  </defs>
  <path class="cls-1" d="M364.5,10.5c-3.2,6.3-4.6,13.6-6.5,20.6-1.8,7.3-3.6,14.5-5.3,21.8-1,4.2-3.4,14.4-5.1,15-3,1.5-5.1-12.9-5.8-15.4-2.1-9.9-4.4-19.9-6.7-29.7-1.6-6.6-6.6-24.7-15.9-17.6-4.5,4.1-6.6,10.9-8.3,16.7-2.7,10.5-5.4,21.1-8,31.6-1.1,3.7-4.5,22.6-8.3,10.8-3.5-12.1-6.7-29.6-9.9-42.6-.9-3.8-2.1-7.8-3.9-11.3-2.6-5.8-8.5-11.5-9.6-1.6-.6,6.9,1.8,14.6,3.8,22.9,3.4,13.5,6.4,27.1,10,40.6,6.8,22.8,17.6,18.4,23.1-.9,3.1-11,6-22.4,8.8-33.6,1-3.5,3.1-14.1,5.4-14.3h0c2.4.9,3.5,8.3,4.3,11.2,2.7,12.1,5.4,24.3,8.4,36.3,3.8,15.4,13.3,25.4,21.5,5.8,5.1-14.6,8.4-29.9,12.7-44.8,1.3-5,2.9-10,3.9-15.1,2.6-13.2-2.3-18.8-8.7-6.4Z"/>
  <path class="cls-1" d="M1133.3,15.5c-.4-6.9-5-18.6-8.6-5.5-2,8.4-1.1,17.6-1.2,26.5-.6,4.5,2.1,29.4-1.7,29.7-1.1-.3-1.8-1.5-2.5-2.4-2.4-3.4-5.8-10.3-9.2-16.4-2.9-5.2-5.8-10.4-8.8-15.6-3.5-6-6.7-12.1-10.5-17.9-7.4-11.7-17.5-16.6-19.9-.5-1.5,17.9-.3,36.9-.6,55-.7,11.2,5.3,28.9,9.5,9.5,1.5-10.4.5-23.3.7-34.3.3-7.1-1.3-17.5,1.6-20.4h0c3.2.6,5.3,6.6,7.2,9.6,7.3,13.7,14.9,27.3,22.6,40.7,12.1,20.8,22,17.5,21.6-6.2-.2-17.2.5-34.5-.4-51.6Z"/>
  <path class="cls-1" d="M113.6,4.8c-29-11.7-54.4,11.4-54,41v.2c-.4,29,24.3,50.9,52.6,40,32-13,33.1-67.3,1.4-81.1ZM121.4,63.3c-9.3,21-35,22.1-45.6,1.6-10.5-19.1-2.8-54.1,23.1-54.2h.2c24.1,1.5,31.4,33.7,22.3,52.6Z"/>
  <path class="cls-1" d="M742.8,42.4c-.7-28.2-25-48.6-52.3-37.8-36.5,15-31.9,80.3,9.8,84,26.8,2.3,43.9-20.7,42.5-46v-.2ZM724.7,68.4c-6.4,9.7-19.4,14.4-30,9.2-23.3-11.3-23.1-54.6.8-65.1,20.7-7.9,35.6,11.9,35.7,31.3v.2c.2,8.7-1.8,17.5-6.5,24.4Z"/>
  <path class="cls-1" d="M1033.1,4.8c-29.1-11.6-54.2,11.4-53.9,41v.2c-.4,28.8,24,50.7,52.2,40.1,32.2-12.4,33.5-67.6,1.7-81.3ZM1041.2,62.8c-8.8,21-34.5,23-45.5,2.8-10.8-19-3.8-54,22-54.9h.2c24.4.7,32,33,23.2,52.1Z"/>
  <path class="cls-1" d="M499,47.7h0c.5-7.4,5.2-14.3,6.1-21.7,1.7-16.6-14.7-25.6-29.9-25.9-27.7-1.2-23.1,22.5-23.5,42.8,0,7.1,0,14.3,0,21.5,0,6.1.4,13.5,3.4,18.3,4.6,6,7.3-4.7,8.1-9.4,1.2-8.5,3.4-20.7,14.5-18.2,10,2.7,13.9,13.8,18.4,22.1,8.1,15,12.7,6.1,9.2-6.2-2.3-7.4-7.1-15.7-6.3-23.1ZM475.7,42.7c-8.4,0-12.1-7.9-12-15.4v-.2c0-13.6,10-20,21.9-13.5,15.9,9.4,6.5,29.1-9.9,29.2Z"/>
  <path class="cls-1" d="M866.2,6c-6.1,8.9-3,29.6-4.1,41.1-.5,13.1-4.1,31-19.3,32.2-25.7-1.7-19.1-42.3-20.6-60.2,0-3.2-2.3-18.3-7.2-12.9-3.6,5.2-3.7,15.3-3.7,22.6v.2c.3,15.7-1,33.6,6.7,47.5,7.4,13.9,25.9,18.4,38.9,9.9,9.9-6.2,14.3-18.1,15.6-29.3,1.4-13.1,1.5-27,.6-40.3-.4-3.5-2.5-15-6.8-10.7Z"/>
  <path class="cls-1" d="M429.1,40.1c-4.7-10.9-9.6-37.3-22.7-38.3h-.1c-13.1.8-17.9,27-22.6,37.9-2.6,7.5-5.2,14.9-7.9,22.4-2.2,6.3-7,18.6-3.1,23.2,3.8,2.7,9.3-7,11.8-9.7,2.1-2.7,4.2-5.3,6.8-7.4,4-3.3,9.4-5.4,14.9-5.4,5.6,0,11,2.1,15,5.5,2.6,2.2,4.6,4.8,6.7,7.4,2.4,2.7,8.6,13.1,12.5,9.6,3.9-6.3-2-18.5-4.7-26.7-2.2-6.2-4.4-12.4-6.6-18.5ZM416.2,51.8c-3,3.1-7.7,4.1-12,3.7-14.4-1.7-11-13.9-7.2-23.9,2-4.7,4.6-14.6,8.8-15.2h0c4.1.7,6.7,9.9,8.7,14.5,2.2,6.5,6.5,15,1.6,20.9Z"/>
  <path class="cls-1" d="M547.2,77.5c-3.6-.7-7-1.7-9.8-3.9-6.5-4.7-7-14.7-1-20,3.6-3.4,8.8-4.5,13.6-5.6,3.4-1,10.2-1.6,11.2-4.4-.3-2.8-7.6-3.6-10.8-4.5-3.8-.9-7.9-1.7-11.2-3.6-8.2-4.5-8.7-14.8,0-19.6,3.8-2.2,8.3-2.8,12.6-3.7,33.8-5.8-15.5-14-26.3-4.7-8.5,6.5-6.8,17.3-7.1,28.1,0,3.2,0,6.5,0,9.7v.2c.4,10.1-1.3,23.5,2.2,31.9,2.3,5.4,7.5,8.2,13.1,9.2,7.1,1.4,26.7,1.9,31.9-2.9,2.2-4.2-15.1-5.2-18.2-6.1Z"/>
  <path class="cls-1" d="M1196.8,53.7c-2-2.9-4.6-5.4-7.4-7.5-8.1-6.7-29.6-13.9-23.6-27.2,4.8-8,17.6-7.1,24.7-10.9,1.8-1.1,1.1-2.5-.5-3.5-5.9-3.6-17.3-3.3-24.4-.5-12.3,4.1-20.5,16.8-13.3,28.8,6.4,11.2,21.5,15,29.5,24.1,5.3,5.7,4.7,13.9-2.2,18-5.5,3.6-14.2,3.7-20.4,4.6-8.2.9-10,3.4-3.6,6.5,4.1,1.8,8.4,2.6,13.4,2.6h.2c19.6.3,39.6-15.6,27.4-35Z"/>
  <path class="cls-1" d="M621.2,23.1c.6-10.6,15.5-11.3,23-13.9,3.1-1,4.5-2.2,3.5-3.5-4.2-4.8-18.4-4.6-25.3-1.7-14.5,4.7-21.8,20-11.2,32.4,7.7,9.5,21.6,12.6,28.6,22.5,4,5.4,2.4,12.7-3.4,16.2-5.5,3.7-14.3,3.8-20.5,4.6-2,.4-8.7.8-7.5,3.7,2.8,3.8,10.7,5.4,17.3,5.4h.2c10.7-.2,20.9-3.8,26.9-11.6,6.4-7.8,5.1-19.5-1.9-26.6-7.8-9.6-28.9-14.3-29.7-27.5Z"/>
  <path class="cls-1" d="M40.1,46.4c-8-6.8-24.3-11.5-25.1-23.1.8-11.4,16.9-11.2,24.7-14.4,1.2-.4,3.1-1.6,2.1-3-1-1.5-5-3.3-10.4-3.8-4.7-.5-10.2.3-14.9,1.9C1.9,8.6-5.6,23.7,5,36.2c7.9,9.7,22.2,12.9,29,23,3.8,5.4,2,12.6-3.8,15.9-5.5,3.6-14.3,3.7-20.5,4.5-5.2.7-9.4,1.8-6.5,4.7,3.1,2.7,10,4.5,16.3,4.4h.2c15.2,0,32-8.8,31.2-25.1-.5-7.1-5.2-13.1-10.7-17.3Z"/>
  <path class="cls-1" d="M163.4,1.7c-16.5,2.9-15.2,18.6-15.1,32.9,0,3.7,0,7.4,0,11v.2c.6,9.9-2.3,31.9,4.7,38.6,3.9,2.5,5.9-4.1,6.7-7,2.9-15.3,1.5-23.4,19.2-27.2,3.7-1,17.7-3.5,8.8-7.5-3.2-1.3-8.6-2.3-12.4-3.4-4.2-1.2-8.2-3.1-10.7-6.7-4.5-6.2-2-15.2,4.8-18.7,3.9-3.4,25.5-3.9,24.2-8.8-4.1-5.3-23.5-4.9-30.3-3.4Z"/>
  <path class="cls-1" d="M247.1,1.2c-6.9-.2-13.9,0-20.8,0-7.5,0-20.8,0-24.2,4.5-1,2.8,7.1,4.6,9.8,6,15.1,5.4,14.4,15,14.5,29.4,0,5.6,0,11.2,0,16.9,0,7.1-.4,14.1,1.3,20.2,1.5,6.2,6.3,11.8,10.2,2.8,3.4-8.6,1.9-20.1,2.3-29.4v-.2c.7-11.9-2.7-27.6,6.8-35.3,4.5-3.5,11.2-5.2,16-7.8,7-4.5-10.1-6.9-15.7-6.9Z"/>
  <path class="cls-1" d="M940.7,3.1c-8.6-2.6-18.8-1.9-27.9-2-6.4,0-13.2-.2-18.8.5-5.9.9-9.8,1.6-11.3,3.9-.5,1.2.9,2.3,3.5,3.5,18.8,7.1,21,11,20.7,31.7,0,5.7,0,11.3,0,17,0,7.1-.4,14.2,1.3,20.3,1.6,6.5,6.6,11.5,10.3,2.3,3.2-8.7,1.8-19.9,2.1-29.3v-.2c.4-9.7-1.4-20.3,2.3-29.4,1.4-3.2,3.9-5.6,6.9-7.3,6.5-4,22.9-7,10.9-11.1Z"/>
  <path class="cls-1" d="M796,81c-4-1-9.6-1.4-14-2.3-14.5-2.7-14.6-16-14.4-28.7,0-9.1,0-18.3,0-27.4,0-3.8-.4-7.9-1.5-11.4-2.6-8.4-7.5-7.9-9.8,1.3-2.2,9.7-.9,21.7-1.2,32v.2c.6,30.2-5.8,47.1,32.5,44.7,3.7-.2,7.1-.7,9.6-1.5,7.3-2,6.2-5.2-1.1-6.9Z"/>
  <path class="cls-1" d="M965.1,17.7c-.1-7.5-3.9-20.9-8.5-11.2-2.2,5.4-2.3,12.3-2.3,18.7,0,6.6,0,13.1,0,19.7v.2c.2,10.5-.6,22,.6,32.3.5,5.2,4.3,15.8,8.3,6.3,2.3-6.1,2-13,2.1-20.1-.1-15.3.2-30.6-.1-45.8Z"/>
</svg>